<?xml version="1.0" encoding="us-ascii" standalone="no"?><svg xmlns="http://www.w3.org/2000/svg" xmlns:xlink="http://www.w3.org/1999/xlink" contentStyleType="text/css" height="528px" preserveAspectRatio="none" style="width:710px;height:528px;background:#FFFFFF;" version="1.1" viewBox="0 0 710 528" width="710px" zoomAndPan="magnify"><defs/><g><text fill="#000000" font-family="sans-serif" font-size="14" font-weight="bold" lengthAdjust="spacing" textLength="59" x="327.25" y="29.5332">Get tags</text><rect fill="#FFFFFF" height="258.9063" style="stroke:#181818;stroke-width:1.0;" width="10" x="198.5" y="169.9219"/><rect fill="#FFFFFF" height="198.2031" style="stroke:#181818;stroke-width:1.0;" width="10" x="350.5" y="200.2734"/><rect fill="#FFFFFF" height="91.0547" style="stroke:#181818;stroke-width:1.0;" width="10" x="526.5" y="277.0703"/><rect fill="#FFFFFF" height="30.3516" style="stroke:#181818;stroke-width:1.0;" width="10" x="670.5" y="307.4219"/><line style="stroke:#181818;stroke-width:0.5;stroke-dasharray:5.0,5.0;" x1="22" x2="22" y1="121.2188" y2="446.8281"/><line style="stroke:#181818;stroke-width:0.5;stroke-dasharray:5.0,5.0;" x1="203" x2="203" y1="121.2188" y2="446.8281"/><line style="stroke:#181818;stroke-width:0.5;stroke-dasharray:5.0,5.0;" x1="355.5" x2="355.5" y1="121.2188" y2="446.8281"/><line style="stroke:#181818;stroke-width:0.5;stroke-dasharray:5.0,5.0;" x1="531" x2="531" y1="121.2188" y2="446.8281"/><line style="stroke:#181818;stroke-width:0.5;stroke-dasharray:5.0,5.0;" x1="675.5" x2="675.5" y1="121.2188" y2="446.8281"/><text fill="#000000" font-family="sans-serif" font-size="14" lengthAdjust="spacing" textLength="29" x="5" y="118.1426">User</text><ellipse cx="22.5" cy="52.1094" fill="#E2E2F0" rx="8" ry="8" style="stroke:#181818;stroke-width:0.5;"/><path d="M22.5,60.1094 L22.5,87.1094 M9.5,68.1094 L35.5,68.1094 M22.5,87.1094 L9.5,102.1094 M22.5,87.1094 L35.5,102.1094 " fill="none" style="stroke:#181818;stroke-width:0.5;"/><text fill="#000000" font-family="sans-serif" font-size="14" lengthAdjust="spacing" textLength="29" x="5" y="460.3613">User</text><ellipse cx="22.5" cy="471.9375" fill="#E2E2F0" rx="8" ry="8" style="stroke:#181818;stroke-width:0.5;"/><path d="M22.5,479.9375 L22.5,506.9375 M9.5,487.9375 L35.5,487.9375 M22.5,506.9375 L9.5,521.9375 M22.5,506.9375 L35.5,521.9375 " fill="none" style="stroke:#181818;stroke-width:0.5;"/><text fill="#000000" font-family="sans-serif" font-size="14" lengthAdjust="spacing" textLength="53" x="174" y="118.1426">MobileUI</text><path d="M183,75.6094 L183,99.6094 M183,87.6094 L200,87.6094 " fill="none" style="stroke:#181818;stroke-width:0.5;"/><ellipse cx="212" cy="87.6094" fill="#E2E2F0" rx="12" ry="12" style="stroke:#181818;stroke-width:0.5;"/><text fill="#000000" font-family="sans-serif" font-size="14" lengthAdjust="spacing" textLength="53" x="174" y="460.3613">MobileUI</text><path d="M183,467.4375 L183,491.4375 M183,479.4375 L200,479.4375 " fill="none" style="stroke:#181818;stroke-width:0.5;"/><ellipse cx="212" cy="479.4375" fill="#E2E2F0" rx="12" ry="12" style="stroke:#181818;stroke-width:0.5;"/><rect fill="#E2E2F0" height="49.2188" rx="2.5" ry="2.5" style="stroke:#181818;stroke-width:0.5;" width="94" x="308.5" y="71"/><text fill="#000000" font-family="sans-serif" font-size="14" lengthAdjust="spacing" textLength="80" x="315.5" y="92.5332">&#171;cordinator&#187;</text><text fill="#000000" font-family="sans-serif" font-size="14" lengthAdjust="spacing" textLength="75" x="320" y="110.1426">ApiGateway</text><rect fill="#E2E2F0" height="49.2188" rx="2.5" ry="2.5" style="stroke:#181818;stroke-width:0.5;" width="94" x="308.5" y="445.8281"/><text fill="#000000" font-family="sans-serif" font-size="14" lengthAdjust="spacing" textLength="80" x="315.5" y="467.3613">&#171;cordinator&#187;</text><text fill="#000000" font-family="sans-serif" font-size="14" lengthAdjust="spacing" textLength="75" x="320" y="484.9707">ApiGateway</text><rect fill="#E2E2F0" height="49.2188" rx="2.5" ry="2.5" style="stroke:#181818;stroke-width:0.5;" width="109" x="477" y="71"/><text fill="#000000" font-family="sans-serif" font-size="14" lengthAdjust="spacing" textLength="61" x="501" y="92.5332">&#171;service&#187;</text><text fill="#000000" font-family="sans-serif" font-size="14" lengthAdjust="spacing" textLength="91" x="488" y="110.1426">RecipeService</text><rect fill="#E2E2F0" height="49.2188" rx="2.5" ry="2.5" style="stroke:#181818;stroke-width:0.5;" width="109" x="477" y="445.8281"/><text fill="#000000" font-family="sans-serif" font-size="14" lengthAdjust="spacing" textLength="61" x="501" y="467.3613">&#171;service&#187;</text><text fill="#000000" font-family="sans-serif" font-size="14" lengthAdjust="spacing" textLength="91" x="488" y="484.9707">RecipeService</text><text fill="#000000" font-family="sans-serif" font-size="14" lengthAdjust="spacing" textLength="62" x="641.5" y="118.1426">MongoDB</text><path d="M657.5,67.6094 C657.5,57.6094 675.5,57.6094 675.5,57.6094 C675.5,57.6094 693.5,57.6094 693.5,67.6094 L693.5,93.6094 C693.5,103.6094 675.5,103.6094 675.5,103.6094 C675.5,103.6094 657.5,103.6094 657.5,93.6094 L657.5,67.6094 " fill="#E2E2F0" style="stroke:#181818;stroke-width:1.5;"/><path d="M657.5,67.6094 C657.5,77.6094 675.5,77.6094 675.5,77.6094 C675.5,77.6094 693.5,77.6094 693.5,67.6094 " fill="none" style="stroke:#181818;stroke-width:1.5;"/><text fill="#000000" font-family="sans-serif" font-size="14" lengthAdjust="spacing" textLength="62" x="641.5" y="460.3613">MongoDB</text><path d="M657.5,473.4375 C657.5,463.4375 675.5,463.4375 675.5,463.4375 C675.5,463.4375 693.5,463.4375 693.5,473.4375 L693.5,499.4375 C693.5,509.4375 675.5,509.4375 675.5,509.4375 C675.5,509.4375 657.5,509.4375 657.5,499.4375 L657.5,473.4375 " fill="#E2E2F0" style="stroke:#181818;stroke-width:1.5;"/><path d="M657.5,473.4375 C657.5,483.4375 675.5,483.4375 675.5,483.4375 C675.5,483.4375 693.5,483.4375 693.5,473.4375 " fill="none" style="stroke:#181818;stroke-width:1.5;"/><rect fill="#FFFFFF" height="258.9063" style="stroke:#181818;stroke-width:1.0;" width="10" x="198.5" y="169.9219"/><rect fill="#FFFFFF" height="198.2031" style="stroke:#181818;stroke-width:1.0;" width="10" x="350.5" y="200.2734"/><rect fill="#FFFFFF" height="91.0547" style="stroke:#181818;stroke-width:1.0;" width="10" x="526.5" y="277.0703"/><rect fill="#FFFFFF" height="30.3516" style="stroke:#181818;stroke-width:1.0;" width="10" x="670.5" y="307.4219"/><polygon fill="#181818" points="186.5,165.9219,196.5,169.9219,186.5,173.9219,190.5,169.9219" style="stroke:#181818;stroke-width:1.0;"/><line style="stroke:#181818;stroke-width:1.0;" x1="22.5" x2="192.5" y1="169.9219" y2="169.9219"/><text fill="#000000" font-family="sans-serif" font-size="13" lengthAdjust="spacing" textLength="153" x="29.5" y="148.7139">1. Enter recipe community</text><text fill="#000000" font-family="sans-serif" font-size="13" lengthAdjust="spacing" textLength="136" x="33.5" y="165.0654">or search recipe srceen</text><polygon fill="#181818" points="338.5,196.2734,348.5,200.2734,338.5,204.2734,342.5,200.2734" style="stroke:#181818;stroke-width:1.0;"/><line style="stroke:#181818;stroke-width:1.0;" x1="208.5" x2="344.5" y1="200.2734" y2="200.2734"/><text fill="#000000" font-family="sans-serif" font-size="13" lengthAdjust="spacing" textLength="104" x="215.5" y="195.417">2. Get recipe tags</text><rect fill="#FFFFFF" height="41.4453" style="stroke:#000000;stroke-width:1.5;" width="126" x="305.5" y="208.2734"/><path d="M305.5,208.2734 L367.5,208.2734 L367.5,216.2734 L357.5,226.2734 L305.5,226.2734 L305.5,208.2734 " fill="#EEEEEE" style="stroke:#000000;stroke-width:2.0;"/><text fill="#000000" font-family="sans-serif" font-size="13" font-weight="bold" lengthAdjust="spacing" textLength="17" x="318.5" y="223.7686">ref</text><text fill="#000000" font-family="sans-serif" font-size="12" lengthAdjust="spacing" textLength="118" x="309.5" y="242.7305">3. Verify access token</text><polygon fill="#181818" points="514.5,273.0703,524.5,277.0703,514.5,281.0703,518.5,277.0703" style="stroke:#181818;stroke-width:1.0;"/><line style="stroke:#181818;stroke-width:1.0;" x1="360.5" x2="520.5" y1="277.0703" y2="277.0703"/><text fill="#000000" font-family="sans-serif" font-size="13" lengthAdjust="spacing" textLength="108" x="367.5" y="272.2139">4. Forward request</text><polygon fill="#181818" points="658.5,303.4219,668.5,307.4219,658.5,311.4219,662.5,307.4219" style="stroke:#181818;stroke-width:1.0;"/><line style="stroke:#181818;stroke-width:1.0;" x1="536.5" x2="664.5" y1="307.4219" y2="307.4219"/><text fill="#000000" font-family="sans-serif" font-size="13" lengthAdjust="spacing" textLength="79" x="543.5" y="302.5654">5. Query data</text><polygon fill="#181818" points="547.5,333.7734,537.5,337.7734,547.5,341.7734,543.5,337.7734" style="stroke:#181818;stroke-width:1.0;"/><line style="stroke:#181818;stroke-width:1.0;stroke-dasharray:2.0,2.0;" x1="541.5" x2="674.5" y1="337.7734" y2="337.7734"/><text fill="#000000" font-family="sans-serif" font-size="13" lengthAdjust="spacing" textLength="110" x="553.5" y="332.917">6. Return response</text><polygon fill="#181818" points="371.5,364.125,361.5,368.125,371.5,372.125,367.5,368.125" style="stroke:#181818;stroke-width:1.0;"/><line style="stroke:#181818;stroke-width:1.0;stroke-dasharray:2.0,2.0;" x1="365.5" x2="530.5" y1="368.125" y2="368.125"/><text fill="#000000" font-family="sans-serif" font-size="13" lengthAdjust="spacing" textLength="142" x="377.5" y="363.2686">7. Return recipe tags list</text><polygon fill="#181818" points="219.5,394.4766,209.5,398.4766,219.5,402.4766,215.5,398.4766" style="stroke:#181818;stroke-width:1.0;"/><line style="stroke:#181818;stroke-width:1.0;stroke-dasharray:2.0,2.0;" x1="213.5" x2="354.5" y1="398.4766" y2="398.4766"/><text fill="#000000" font-family="sans-serif" font-size="13" lengthAdjust="spacing" textLength="118" x="225.5" y="393.6201">8. Forward response</text><polygon fill="#181818" points="33.5,424.8281,23.5,428.8281,33.5,432.8281,29.5,428.8281" style="stroke:#181818;stroke-width:1.0;"/><line style="stroke:#181818;stroke-width:1.0;stroke-dasharray:2.0,2.0;" x1="27.5" x2="202.5" y1="428.8281" y2="428.8281"/><text fill="#000000" font-family="sans-serif" font-size="13" lengthAdjust="spacing" textLength="147" x="39.5" y="423.9717">9. Display recipe tags list</text><!--SRC=[PL7BRjj03BppAmXVUWYae8-aYI4OQEh6w267r4XFlT1hnbb4tbLtgHX2aNyFAJ-L7ZcS6Gv9yL8pZcOiABJA8_Y0S-aKokp4nm1Ljd82gCZVbeFZgQTLeZN-KmmnyICdWtSruWsvvrcARLX-ZtLCk7domdtl5LwXEjyP0ZdHxaFc10jZK-hmBYvypGy_eQ4atlc6Wk2egbnCInz81PF9du3V6ZyZuGrr8wHyKhxNgVcBTzoBVh7YFDyYlMw0m9A45fHPGuHLdDu0M3Oi9eTKPsTZ_5ZYZo2AfrwCBgxNRV3IeOxGVJ9JSa_xRawEEG3i7SpjcDRyFfLenz_nxGS0UbECBphZI1tZvn9_S_AF7P9pd3DAV3Rh8yVC1okP_vSIRsFQK5hg37rW5e01QRjWlx7nBqgyRrbVOUTunwoAOayjYZ5UbZfEsXJKEJSnP1waCVP0Rvgl9vh3nbXxZNMuaGcFFgQwEbrYDwf_pZRHLcV4wnAdFZUrZl_F_mq0]--></g></svg>