<svg width="32" height="32" viewBox="0 0 32 32" fill="none" xmlns="http://www.w3.org/2000/svg">
<rect width="32" height="32" rx="16" fill="#FE724C"/>
<path d="M14.542 8.85828L22.539 16.8553C22.9086 17.2249 22.9086 17.8309 22.539 18.2079C22.1695 18.5774 21.5708 18.5848 21.1939 18.2153L21.1865 18.2079C20.8169 17.8457 20.2256 17.8531 19.8561 18.2153L15.3032 22.7681C14.9337 23.1377 14.335 23.1377 13.9655 22.7681C13.5959 22.3986 13.5959 21.7999 13.9655 21.4303L18.5405 16.8553C18.8953 16.5006 18.8953 15.9167 18.5405 15.5619L18.4962 15.5176C18.1414 15.1628 17.5575 15.1628 17.2027 15.5176L10.5878 22.1325C10.2182 22.502 9.61958 22.502 9.25003 22.1325C9.06525 21.9477 8.97656 21.7038 8.97656 21.4673C8.97656 21.2234 9.06525 20.9869 9.25003 20.8021L15.8502 14.202C16.035 14.0172 16.1236 13.7733 16.1236 13.5368C16.1236 13.2929 16.035 13.0564 15.8502 12.8716C15.4806 12.502 14.882 12.502 14.5124 12.8716L11.3195 16.0645C10.95 16.434 10.3513 16.434 9.98174 16.0645C9.79696 15.8797 9.70827 15.6358 9.70827 15.3993C9.70827 15.1554 9.80435 14.9189 9.98174 14.7341L13.1968 11.519C13.5516 11.1643 13.5516 10.5804 13.1968 10.2256L13.182 10.2108C12.9973 10.0261 12.9012 9.78215 12.9012 9.53825C12.9012 9.29434 12.9973 9.05044 13.182 8.86567C13.5664 8.48873 14.1724 8.48873 14.542 8.85828Z" fill="white"/>
<path d="M23.0782 8.32616C25.0368 10.2848 25.2659 13.3151 23.7655 15.525C23.4551 15.9832 22.8047 16.0497 22.4056 15.658L15.7463 8.99874C15.3546 8.60702 15.4137 7.95661 15.8794 7.6388C18.0893 6.13843 21.1196 6.36755 23.0782 8.32616Z" fill="white"/>
<path d="M24.7978 7.9274C25.1644 7.56083 25.1644 6.96651 24.7978 6.59995C24.4312 6.23338 23.8369 6.23339 23.4704 6.59995C23.1038 6.96651 23.1038 7.56083 23.4704 7.9274C23.8369 8.29396 24.4312 8.29396 24.7978 7.9274Z" fill="white"/>
<rect x="6.8623" y="17.9473" width="2.24076" height="1.87261" rx="0.936305" transform="rotate(-45 6.8623 17.9473)" fill="white"/>
<rect x="6.24316" y="23.8228" width="2.24076" height="1.87261" rx="0.936305" transform="rotate(-45 6.24316 23.8228)" fill="white"/>
<rect x="10.8818" y="24.4414" width="2.24076" height="1.87261" rx="0.936305" transform="rotate(-45 10.8818 24.4414)" fill="white"/>
</svg>
