<?xml version="1.0" encoding="us-ascii" standalone="no"?><svg xmlns="http://www.w3.org/2000/svg" xmlns:xlink="http://www.w3.org/1999/xlink" contentStyleType="text/css" height="789px" preserveAspectRatio="none" style="width:1122px;height:789px;background:#FFFFFF;" version="1.1" viewBox="0 0 1122 789" width="1122px" zoomAndPan="magnify"><defs/><g><text fill="#000000" font-family="sans-serif" font-size="14" font-weight="bold" lengthAdjust="spacing" textLength="69" x="528" y="29.5332">Get feeds</text><rect fill="#FFFFFF" height="528.9063" style="stroke:#181818;stroke-width:1.0;" width="10" x="221.5" y="153.5703"/><rect fill="#FFFFFF" height="468.2031" style="stroke:#181818;stroke-width:1.0;" width="10" x="389.5" y="183.9219"/><rect fill="#FFFFFF" height="361.0547" style="stroke:#181818;stroke-width:1.0;" width="10" x="578.5" y="260.7188"/><rect fill="#FFFFFF" height="91.0547" style="stroke:#181818;stroke-width:1.0;" width="10" x="850.5" y="500.3672"/><rect fill="#FFFFFF" height="30.3516" style="stroke:#181818;stroke-width:1.0;" width="10" x="1001.5" y="530.7188"/><rect fill="#FFFFFF" height="30.3516" style="stroke:#181818;stroke-width:1.0;" width="10" x="1082" y="291.0703"/><rect fill="none" height="354.0547" style="stroke:#000000;stroke-width:1.5;" width="1043" x="10" y="336.4219"/><line style="stroke:#181818;stroke-width:0.5;stroke-dasharray:5.0,5.0;" x1="37" x2="37" y1="121.2188" y2="707.4766"/><line style="stroke:#181818;stroke-width:0.5;stroke-dasharray:5.0,5.0;" x1="226" x2="226" y1="121.2188" y2="707.4766"/><line style="stroke:#181818;stroke-width:0.5;stroke-dasharray:5.0,5.0;" x1="394.5" x2="394.5" y1="121.2188" y2="707.4766"/><line style="stroke:#181818;stroke-width:0.5;stroke-dasharray:5.0,5.0;" x1="583" x2="583" y1="121.2188" y2="707.4766"/><line style="stroke:#181818;stroke-width:0.5;stroke-dasharray:5.0,5.0;" x1="855.5" x2="855.5" y1="121.2188" y2="707.4766"/><line style="stroke:#181818;stroke-width:0.5;stroke-dasharray:5.0,5.0;" x1="1006" x2="1006" y1="121.2188" y2="707.4766"/><line style="stroke:#181818;stroke-width:0.5;stroke-dasharray:5.0,5.0;" x1="1087" x2="1087" y1="121.2188" y2="707.4766"/><text fill="#000000" font-family="sans-serif" font-size="14" lengthAdjust="spacing" textLength="29" x="20" y="118.1426">User</text><ellipse cx="37.5" cy="52.1094" fill="#E2E2F0" rx="8" ry="8" style="stroke:#181818;stroke-width:0.5;"/><path d="M37.5,60.1094 L37.5,87.1094 M24.5,68.1094 L50.5,68.1094 M37.5,87.1094 L24.5,102.1094 M37.5,87.1094 L50.5,102.1094 " fill="none" style="stroke:#181818;stroke-width:0.5;"/><text fill="#000000" font-family="sans-serif" font-size="14" lengthAdjust="spacing" textLength="29" x="20" y="721.0098">User</text><ellipse cx="37.5" cy="732.5859" fill="#E2E2F0" rx="8" ry="8" style="stroke:#181818;stroke-width:0.5;"/><path d="M37.5,740.5859 L37.5,767.5859 M24.5,748.5859 L50.5,748.5859 M37.5,767.5859 L24.5,782.5859 M37.5,767.5859 L50.5,782.5859 " fill="none" style="stroke:#181818;stroke-width:0.5;"/><text fill="#000000" font-family="sans-serif" font-size="14" lengthAdjust="spacing" textLength="53" x="197" y="118.1426">MobileUI</text><path d="M206,75.6094 L206,99.6094 M206,87.6094 L223,87.6094 " fill="none" style="stroke:#181818;stroke-width:0.5;"/><ellipse cx="235" cy="87.6094" fill="#E2E2F0" rx="12" ry="12" style="stroke:#181818;stroke-width:0.5;"/><text fill="#000000" font-family="sans-serif" font-size="14" lengthAdjust="spacing" textLength="53" x="197" y="721.0098">MobileUI</text><path d="M206,728.0859 L206,752.0859 M206,740.0859 L223,740.0859 " fill="none" style="stroke:#181818;stroke-width:0.5;"/><ellipse cx="235" cy="740.0859" fill="#E2E2F0" rx="12" ry="12" style="stroke:#181818;stroke-width:0.5;"/><rect fill="#E2E2F0" height="49.2188" rx="2.5" ry="2.5" style="stroke:#181818;stroke-width:0.5;" width="94" x="347.5" y="71"/><text fill="#000000" font-family="sans-serif" font-size="14" lengthAdjust="spacing" textLength="80" x="354.5" y="92.5332">&#171;cordinator&#187;</text><text fill="#000000" font-family="sans-serif" font-size="14" lengthAdjust="spacing" textLength="75" x="357" y="110.1426">ApiGateway</text><rect fill="#E2E2F0" height="49.2188" rx="2.5" ry="2.5" style="stroke:#181818;stroke-width:0.5;" width="94" x="347.5" y="706.4766"/><text fill="#000000" font-family="sans-serif" font-size="14" lengthAdjust="spacing" textLength="80" x="354.5" y="728.0098">&#171;cordinator&#187;</text><text fill="#000000" font-family="sans-serif" font-size="14" lengthAdjust="spacing" textLength="75" x="357" y="745.6191">ApiGateway</text><rect fill="#E2E2F0" height="49.2188" rx="2.5" ry="2.5" style="stroke:#181818;stroke-width:0.5;" width="109" x="529" y="71"/><text fill="#000000" font-family="sans-serif" font-size="14" lengthAdjust="spacing" textLength="61" x="553" y="92.5332">&#171;service&#187;</text><text fill="#000000" font-family="sans-serif" font-size="14" lengthAdjust="spacing" textLength="91" x="540" y="110.1426">RecipeService</text><rect fill="#E2E2F0" height="49.2188" rx="2.5" ry="2.5" style="stroke:#181818;stroke-width:0.5;" width="109" x="529" y="706.4766"/><text fill="#000000" font-family="sans-serif" font-size="14" lengthAdjust="spacing" textLength="61" x="553" y="728.0098">&#171;service&#187;</text><text fill="#000000" font-family="sans-serif" font-size="14" lengthAdjust="spacing" textLength="91" x="540" y="745.6191">RecipeService</text><rect fill="#E2E2F0" height="49.2188" rx="2.5" ry="2.5" style="stroke:#181818;stroke-width:0.5;" width="94" x="808.5" y="71"/><text fill="#000000" font-family="sans-serif" font-size="14" lengthAdjust="spacing" textLength="61" x="825" y="92.5332">&#171;service&#187;</text><text fill="#000000" font-family="sans-serif" font-size="14" lengthAdjust="spacing" textLength="76" x="819.5" y="110.1426">UserService</text><rect fill="#E2E2F0" height="49.2188" rx="2.5" ry="2.5" style="stroke:#181818;stroke-width:0.5;" width="94" x="808.5" y="706.4766"/><text fill="#000000" font-family="sans-serif" font-size="14" lengthAdjust="spacing" textLength="61" x="825" y="728.0098">&#171;service&#187;</text><text fill="#000000" font-family="sans-serif" font-size="14" lengthAdjust="spacing" textLength="76" x="819.5" y="745.6191">UserService</text><text fill="#000000" font-family="sans-serif" font-size="14" lengthAdjust="spacing" textLength="67" x="970" y="118.1426">Postgresql</text><path d="M988.5,67.6094 C988.5,57.6094 1006.5,57.6094 1006.5,57.6094 C1006.5,57.6094 1024.5,57.6094 1024.5,67.6094 L1024.5,93.6094 C1024.5,103.6094 1006.5,103.6094 1006.5,103.6094 C1006.5,103.6094 988.5,103.6094 988.5,93.6094 L988.5,67.6094 " fill="#E2E2F0" style="stroke:#181818;stroke-width:1.5;"/><path d="M988.5,67.6094 C988.5,77.6094 1006.5,77.6094 1006.5,77.6094 C1006.5,77.6094 1024.5,77.6094 1024.5,67.6094 " fill="none" style="stroke:#181818;stroke-width:1.5;"/><text fill="#000000" font-family="sans-serif" font-size="14" lengthAdjust="spacing" textLength="67" x="970" y="721.0098">Postgresql</text><path d="M988.5,734.0859 C988.5,724.0859 1006.5,724.0859 1006.5,724.0859 C1006.5,724.0859 1024.5,724.0859 1024.5,734.0859 L1024.5,760.0859 C1024.5,770.0859 1006.5,770.0859 1006.5,770.0859 C1006.5,770.0859 988.5,770.0859 988.5,760.0859 L988.5,734.0859 " fill="#E2E2F0" style="stroke:#181818;stroke-width:1.5;"/><path d="M988.5,734.0859 C988.5,744.0859 1006.5,744.0859 1006.5,744.0859 C1006.5,744.0859 1024.5,744.0859 1024.5,734.0859 " fill="none" style="stroke:#181818;stroke-width:1.5;"/><text fill="#000000" font-family="sans-serif" font-size="14" lengthAdjust="spacing" textLength="62" x="1053" y="118.1426">MongoDB</text><path d="M1069,67.6094 C1069,57.6094 1087,57.6094 1087,57.6094 C1087,57.6094 1105,57.6094 1105,67.6094 L1105,93.6094 C1105,103.6094 1087,103.6094 1087,103.6094 C1087,103.6094 1069,103.6094 1069,93.6094 L1069,67.6094 " fill="#E2E2F0" style="stroke:#181818;stroke-width:1.5;"/><path d="M1069,67.6094 C1069,77.6094 1087,77.6094 1087,77.6094 C1087,77.6094 1105,77.6094 1105,67.6094 " fill="none" style="stroke:#181818;stroke-width:1.5;"/><text fill="#000000" font-family="sans-serif" font-size="14" lengthAdjust="spacing" textLength="62" x="1053" y="721.0098">MongoDB</text><path d="M1069,734.0859 C1069,724.0859 1087,724.0859 1087,724.0859 C1087,724.0859 1105,724.0859 1105,734.0859 L1105,760.0859 C1105,770.0859 1087,770.0859 1087,770.0859 C1087,770.0859 1069,770.0859 1069,760.0859 L1069,734.0859 " fill="#E2E2F0" style="stroke:#181818;stroke-width:1.5;"/><path d="M1069,734.0859 C1069,744.0859 1087,744.0859 1087,744.0859 C1087,744.0859 1105,744.0859 1105,734.0859 " fill="none" style="stroke:#181818;stroke-width:1.5;"/><rect fill="#FFFFFF" height="528.9063" style="stroke:#181818;stroke-width:1.0;" width="10" x="221.5" y="153.5703"/><rect fill="#FFFFFF" height="468.2031" style="stroke:#181818;stroke-width:1.0;" width="10" x="389.5" y="183.9219"/><rect fill="#FFFFFF" height="361.0547" style="stroke:#181818;stroke-width:1.0;" width="10" x="578.5" y="260.7188"/><rect fill="#FFFFFF" height="91.0547" style="stroke:#181818;stroke-width:1.0;" width="10" x="850.5" y="500.3672"/><rect fill="#FFFFFF" height="30.3516" style="stroke:#181818;stroke-width:1.0;" width="10" x="1001.5" y="530.7188"/><rect fill="#FFFFFF" height="30.3516" style="stroke:#181818;stroke-width:1.0;" width="10" x="1082" y="291.0703"/><polygon fill="#181818" points="209.5,149.5703,219.5,153.5703,209.5,157.5703,213.5,153.5703" style="stroke:#181818;stroke-width:1.0;"/><line style="stroke:#181818;stroke-width:1.0;" x1="37.5" x2="215.5" y1="153.5703" y2="153.5703"/><text fill="#000000" font-family="sans-serif" font-size="13" lengthAdjust="spacing" textLength="113" x="44.5" y="148.7139">1. Select recipe tag</text><polygon fill="#181818" points="377.5,179.9219,387.5,183.9219,377.5,187.9219,381.5,183.9219" style="stroke:#181818;stroke-width:1.0;"/><line style="stroke:#181818;stroke-width:1.0;" x1="231.5" x2="383.5" y1="183.9219" y2="183.9219"/><text fill="#000000" font-family="sans-serif" font-size="13" lengthAdjust="spacing" textLength="110" x="238.5" y="179.0654">2. Get recipe feeds</text><rect fill="#FFFFFF" height="41.4453" style="stroke:#000000;stroke-width:1.5;" width="126" x="344.5" y="191.9219"/><path d="M344.5,191.9219 L406.5,191.9219 L406.5,199.9219 L396.5,209.9219 L344.5,209.9219 L344.5,191.9219 " fill="#EEEEEE" style="stroke:#000000;stroke-width:2.0;"/><text fill="#000000" font-family="sans-serif" font-size="13" font-weight="bold" lengthAdjust="spacing" textLength="17" x="357.5" y="207.417">ref</text><text fill="#000000" font-family="sans-serif" font-size="12" lengthAdjust="spacing" textLength="118" x="348.5" y="226.3789">3. Verify access token</text><polygon fill="#181818" points="566.5,256.7188,576.5,260.7188,566.5,264.7188,570.5,260.7188" style="stroke:#181818;stroke-width:1.0;"/><line style="stroke:#181818;stroke-width:1.0;" x1="399.5" x2="572.5" y1="260.7188" y2="260.7188"/><text fill="#000000" font-family="sans-serif" font-size="13" lengthAdjust="spacing" textLength="108" x="406.5" y="255.8623">4. Forward request</text><polygon fill="#181818" points="1070,287.0703,1080,291.0703,1070,295.0703,1074,291.0703" style="stroke:#181818;stroke-width:1.0;"/><line style="stroke:#181818;stroke-width:1.0;" x1="588.5" x2="1076" y1="291.0703" y2="291.0703"/><text fill="#000000" font-family="sans-serif" font-size="13" lengthAdjust="spacing" textLength="79" x="595.5" y="286.2139">5. Query data</text><polygon fill="#181818" points="599.5,317.4219,589.5,321.4219,599.5,325.4219,595.5,321.4219" style="stroke:#181818;stroke-width:1.0;"/><line style="stroke:#181818;stroke-width:1.0;stroke-dasharray:2.0,2.0;" x1="593.5" x2="1086" y1="321.4219" y2="321.4219"/><text fill="#000000" font-family="sans-serif" font-size="13" lengthAdjust="spacing" textLength="110" x="605.5" y="316.5654">6. Return response</text><path d="M10,336.4219 L71,336.4219 L71,344.7734 L61,354.7734 L10,354.7734 L10,336.4219 " fill="#EEEEEE" style="stroke:#000000;stroke-width:1.5;"/><rect fill="none" height="354.0547" style="stroke:#000000;stroke-width:1.5;" width="1043" x="10" y="336.4219"/><text fill="#000000" font-family="sans-serif" font-size="13" font-weight="bold" lengthAdjust="spacing" textLength="16" x="25" y="350.917">alt</text><text fill="#000000" font-family="sans-serif" font-size="11" font-weight="bold" lengthAdjust="spacing" textLength="116" x="86" y="349.8408">[Recipe list is empty]</text><polygon fill="#181818" points="410.5,373.125,400.5,377.125,410.5,381.125,406.5,377.125" style="stroke:#181818;stroke-width:1.0;"/><line style="stroke:#181818;stroke-width:1.0;stroke-dasharray:2.0,2.0;" x1="404.5" x2="577.5" y1="377.125" y2="377.125"/><text fill="#000000" font-family="sans-serif" font-size="13" lengthAdjust="spacing" textLength="123" x="416.5" y="372.2686">7A. Return empty list</text><polygon fill="#181818" points="242.5,403.4766,232.5,407.4766,242.5,411.4766,238.5,407.4766" style="stroke:#181818;stroke-width:1.0;"/><line style="stroke:#181818;stroke-width:1.0;stroke-dasharray:2.0,2.0;" x1="236.5" x2="388.5" y1="407.4766" y2="407.4766"/><text fill="#000000" font-family="sans-serif" font-size="13" lengthAdjust="spacing" textLength="134" x="248.5" y="402.6201">7A.1. Foward response</text><polygon fill="#181818" points="48.5,433.8281,38.5,437.8281,48.5,441.8281,44.5,437.8281" style="stroke:#181818;stroke-width:1.0;"/><line style="stroke:#181818;stroke-width:1.0;stroke-dasharray:2.0,2.0;" x1="42.5" x2="220.5" y1="437.8281" y2="437.8281"/><text fill="#000000" font-family="sans-serif" font-size="13" lengthAdjust="spacing" textLength="139" x="54.5" y="432.9717">7A.2. Display empty list</text><line style="stroke:#000000;stroke-width:1.0;stroke-dasharray:2.0,2.0;" x1="10" x2="1053" y1="446.8281" y2="446.8281"/><text fill="#000000" font-family="sans-serif" font-size="11" font-weight="bold" lengthAdjust="spacing" textLength="137" x="15" y="458.2471">[Recipe list is not empty]</text><polygon fill="#181818" points="838.5,496.3672,848.5,500.3672,838.5,504.3672,842.5,500.3672" style="stroke:#181818;stroke-width:1.0;"/><line style="stroke:#181818;stroke-width:1.0;" x1="588.5" x2="844.5" y1="500.3672" y2="500.3672"/><text fill="#000000" font-family="sans-serif" font-size="13" lengthAdjust="spacing" textLength="148" x="595.5" y="479.1592">8. gRPC call to get user's</text><text fill="#000000" font-family="sans-serif" font-size="13" lengthAdjust="spacing" textLength="136" x="599.5" y="495.5107">information list &#171;gRPC&#187;</text><polygon fill="#181818" points="989.5,526.7188,999.5,530.7188,989.5,534.7188,993.5,530.7188" style="stroke:#181818;stroke-width:1.0;"/><line style="stroke:#181818;stroke-width:1.0;" x1="860.5" x2="995.5" y1="530.7188" y2="530.7188"/><text fill="#000000" font-family="sans-serif" font-size="13" lengthAdjust="spacing" textLength="79" x="867.5" y="525.8623">9. Query data</text><polygon fill="#181818" points="871.5,557.0703,861.5,561.0703,871.5,565.0703,867.5,561.0703" style="stroke:#181818;stroke-width:1.0;"/><line style="stroke:#181818;stroke-width:1.0;stroke-dasharray:2.0,2.0;" x1="865.5" x2="1005.5" y1="561.0703" y2="561.0703"/><text fill="#000000" font-family="sans-serif" font-size="13" lengthAdjust="spacing" textLength="117" x="877.5" y="556.2139">10. Return response</text><polygon fill="#181818" points="599.5,587.4219,589.5,591.4219,599.5,595.4219,595.5,591.4219" style="stroke:#181818;stroke-width:1.0;"/><line style="stroke:#181818;stroke-width:1.0;stroke-dasharray:2.0,2.0;" x1="593.5" x2="854.5" y1="591.4219" y2="591.4219"/><text fill="#000000" font-family="sans-serif" font-size="13" lengthAdjust="spacing" textLength="238" x="605.5" y="586.5654">11. Return user's information list &#171;gRPC&#187;</text><polygon fill="#181818" points="410.5,617.7734,400.5,621.7734,410.5,625.7734,406.5,621.7734" style="stroke:#181818;stroke-width:1.0;"/><line style="stroke:#181818;stroke-width:1.0;stroke-dasharray:2.0,2.0;" x1="404.5" x2="582.5" y1="621.7734" y2="621.7734"/><text fill="#000000" font-family="sans-serif" font-size="13" lengthAdjust="spacing" textLength="155" x="416.5" y="616.917">12. Return recipe feeds list</text><polygon fill="#181818" points="242.5,648.125,232.5,652.125,242.5,656.125,238.5,652.125" style="stroke:#181818;stroke-width:1.0;"/><line style="stroke:#181818;stroke-width:1.0;stroke-dasharray:2.0,2.0;" x1="236.5" x2="393.5" y1="652.125" y2="652.125"/><text fill="#000000" font-family="sans-serif" font-size="13" lengthAdjust="spacing" textLength="125" x="248.5" y="647.2686">13. Forward response</text><polygon fill="#181818" points="48.5,678.4766,38.5,682.4766,48.5,686.4766,44.5,682.4766" style="stroke:#181818;stroke-width:1.0;"/><line style="stroke:#181818;stroke-width:1.0;stroke-dasharray:2.0,2.0;" x1="42.5" x2="225.5" y1="682.4766" y2="682.4766"/><text fill="#000000" font-family="sans-serif" font-size="13" lengthAdjust="spacing" textLength="160" x="54.5" y="677.6201">14. Display recipe feeds list</text><!--SRC=[XLDDJ-Cm4BtxLunwuO2QtGBxLKMHW6ghFI2nLEo9YvjCinQk7MoNgbhnttV62OtJ2ZXwyjwRD_CcGGMDC9fZW1LYvKVY11PXHpMFPL3MYDppin10bQSDcX9dIjPEhk4VrG0Shj1nkNi3NCdoSUxinbJNLbi7sxygOFps8bv4_gaJ5B8CzFNUenDBHaktWnkxL1hlVub6kg1ArKWJO9JdfNMLCf88HV5WBXirbm6tSZS2wQ5_7j98-rcLo1ouGwhZegr4tg3o7fKzfiJaBIePv59wX5lhG-tGF-c-TcDDRMTNGZ03niL-ljFJAKmoMA2cDTCEsGW4MGlnYc1qFnZZppBWd3fmZ4i8MZ_OPnBliLCup-0FEhNQWInBz1w2VKGZH8zXzS7utE0YWv_MRQMhg0bbxOCG0r0xGHo9yLyo-Br1IetdFK3cu_4hT3oUmjUCseMDCwJi6siyKluwT1v0Anz0US1r4tRnL1AhB3KGdyAtoxrUf4I1oDklZrdfJeWouVcwyJeJJ8dPj7vRRWJJjcVADveC92rGKwe7feqDYV6ZXIN7malxda5zTtiDfTIQSe6Q8jqGvCG3NPeoA-lMal-yLZ_F6LqKUwU9SdznBFnZaCOXdEVhyHp9vFDn9iS3C2_HYSJ9djWPVzlrXrb6mRF4IN_S7uOQkUVfqRwNQaHVzAaUjq9J0Hsb-0y0]--></g></svg>