<?xml version="1.0" encoding="us-ascii" standalone="no"?><svg xmlns="http://www.w3.org/2000/svg" xmlns:xlink="http://www.w3.org/1999/xlink" contentStyleType="text/css" height="605px" preserveAspectRatio="none" style="width:795px;height:605px;background:#FFFFFF;" version="1.1" viewBox="0 0 795 605" width="795px" zoomAndPan="magnify"><defs/><g><text fill="#000000" font-family="sans-serif" font-size="14" font-weight="bold" lengthAdjust="spacing" textLength="93" x="352.5" y="29.5332">Search users</text><rect fill="#FFFFFF" height="344.7031" style="stroke:#181818;stroke-width:1.0;" width="10" x="283.5" y="153.5703"/><rect fill="#FFFFFF" height="284" style="stroke:#181818;stroke-width:1.0;" width="10" x="451.5" y="183.9219"/><rect fill="#FFFFFF" height="223.2969" style="stroke:#181818;stroke-width:1.0;" width="10" x="608.5" y="214.2734"/><rect fill="#FFFFFF" height="30.3516" style="stroke:#181818;stroke-width:1.0;" width="10" x="752.5" y="244.625"/><rect fill="none" height="216.2969" style="stroke:#000000;stroke-width:1.5;" width="660.5" x="10" y="289.9766"/><line style="stroke:#181818;stroke-width:0.5;stroke-dasharray:5.0,5.0;" x1="37" x2="37" y1="121.2188" y2="523.2734"/><line style="stroke:#181818;stroke-width:0.5;stroke-dasharray:5.0,5.0;" x1="288" x2="288" y1="121.2188" y2="523.2734"/><line style="stroke:#181818;stroke-width:0.5;stroke-dasharray:5.0,5.0;" x1="456.5" x2="456.5" y1="121.2188" y2="523.2734"/><line style="stroke:#181818;stroke-width:0.5;stroke-dasharray:5.0,5.0;" x1="613.5" x2="613.5" y1="121.2188" y2="523.2734"/><line style="stroke:#181818;stroke-width:0.5;stroke-dasharray:5.0,5.0;" x1="757" x2="757" y1="121.2188" y2="523.2734"/><text fill="#000000" font-family="sans-serif" font-size="14" lengthAdjust="spacing" textLength="29" x="20" y="118.1426">User</text><ellipse cx="37.5" cy="52.1094" fill="#E2E2F0" rx="8" ry="8" style="stroke:#181818;stroke-width:0.5;"/><path d="M37.5,60.1094 L37.5,87.1094 M24.5,68.1094 L50.5,68.1094 M37.5,87.1094 L24.5,102.1094 M37.5,87.1094 L50.5,102.1094 " fill="none" style="stroke:#181818;stroke-width:0.5;"/><text fill="#000000" font-family="sans-serif" font-size="14" lengthAdjust="spacing" textLength="29" x="20" y="536.8066">User</text><ellipse cx="37.5" cy="548.3828" fill="#E2E2F0" rx="8" ry="8" style="stroke:#181818;stroke-width:0.5;"/><path d="M37.5,556.3828 L37.5,583.3828 M24.5,564.3828 L50.5,564.3828 M37.5,583.3828 L24.5,598.3828 M37.5,583.3828 L50.5,598.3828 " fill="none" style="stroke:#181818;stroke-width:0.5;"/><text fill="#000000" font-family="sans-serif" font-size="14" lengthAdjust="spacing" textLength="53" x="259" y="118.1426">MobileUI</text><path d="M268,75.6094 L268,99.6094 M268,87.6094 L285,87.6094 " fill="none" style="stroke:#181818;stroke-width:0.5;"/><ellipse cx="297" cy="87.6094" fill="#E2E2F0" rx="12" ry="12" style="stroke:#181818;stroke-width:0.5;"/><text fill="#000000" font-family="sans-serif" font-size="14" lengthAdjust="spacing" textLength="53" x="259" y="536.8066">MobileUI</text><path d="M268,543.8828 L268,567.8828 M268,555.8828 L285,555.8828 " fill="none" style="stroke:#181818;stroke-width:0.5;"/><ellipse cx="297" cy="555.8828" fill="#E2E2F0" rx="12" ry="12" style="stroke:#181818;stroke-width:0.5;"/><rect fill="#E2E2F0" height="49.2188" rx="2.5" ry="2.5" style="stroke:#181818;stroke-width:0.5;" width="94" x="409.5" y="71"/><text fill="#000000" font-family="sans-serif" font-size="14" lengthAdjust="spacing" textLength="80" x="416.5" y="92.5332">&#171;cordinator&#187;</text><text fill="#000000" font-family="sans-serif" font-size="14" lengthAdjust="spacing" textLength="75" x="419" y="110.1426">ApiGateway</text><rect fill="#E2E2F0" height="49.2188" rx="2.5" ry="2.5" style="stroke:#181818;stroke-width:0.5;" width="94" x="409.5" y="522.2734"/><text fill="#000000" font-family="sans-serif" font-size="14" lengthAdjust="spacing" textLength="80" x="416.5" y="543.8066">&#171;cordinator&#187;</text><text fill="#000000" font-family="sans-serif" font-size="14" lengthAdjust="spacing" textLength="75" x="419" y="561.416">ApiGateway</text><rect fill="#E2E2F0" height="49.2188" rx="2.5" ry="2.5" style="stroke:#181818;stroke-width:0.5;" width="94" x="566.5" y="71"/><text fill="#000000" font-family="sans-serif" font-size="14" lengthAdjust="spacing" textLength="61" x="583" y="92.5332">&#171;service&#187;</text><text fill="#000000" font-family="sans-serif" font-size="14" lengthAdjust="spacing" textLength="76" x="577.5" y="110.1426">UserService</text><rect fill="#E2E2F0" height="49.2188" rx="2.5" ry="2.5" style="stroke:#181818;stroke-width:0.5;" width="94" x="566.5" y="522.2734"/><text fill="#000000" font-family="sans-serif" font-size="14" lengthAdjust="spacing" textLength="61" x="583" y="543.8066">&#171;service&#187;</text><text fill="#000000" font-family="sans-serif" font-size="14" lengthAdjust="spacing" textLength="76" x="577.5" y="561.416">UserService</text><text fill="#000000" font-family="sans-serif" font-size="14" lengthAdjust="spacing" textLength="67" x="721" y="118.1426">Postgresql</text><path d="M739.5,67.6094 C739.5,57.6094 757.5,57.6094 757.5,57.6094 C757.5,57.6094 775.5,57.6094 775.5,67.6094 L775.5,93.6094 C775.5,103.6094 757.5,103.6094 757.5,103.6094 C757.5,103.6094 739.5,103.6094 739.5,93.6094 L739.5,67.6094 " fill="#E2E2F0" style="stroke:#181818;stroke-width:1.5;"/><path d="M739.5,67.6094 C739.5,77.6094 757.5,77.6094 757.5,77.6094 C757.5,77.6094 775.5,77.6094 775.5,67.6094 " fill="none" style="stroke:#181818;stroke-width:1.5;"/><text fill="#000000" font-family="sans-serif" font-size="14" lengthAdjust="spacing" textLength="67" x="721" y="536.8066">Postgresql</text><path d="M739.5,549.8828 C739.5,539.8828 757.5,539.8828 757.5,539.8828 C757.5,539.8828 775.5,539.8828 775.5,549.8828 L775.5,575.8828 C775.5,585.8828 757.5,585.8828 757.5,585.8828 C757.5,585.8828 739.5,585.8828 739.5,575.8828 L739.5,549.8828 " fill="#E2E2F0" style="stroke:#181818;stroke-width:1.5;"/><path d="M739.5,549.8828 C739.5,559.8828 757.5,559.8828 757.5,559.8828 C757.5,559.8828 775.5,559.8828 775.5,549.8828 " fill="none" style="stroke:#181818;stroke-width:1.5;"/><rect fill="#FFFFFF" height="344.7031" style="stroke:#181818;stroke-width:1.0;" width="10" x="283.5" y="153.5703"/><rect fill="#FFFFFF" height="284" style="stroke:#181818;stroke-width:1.0;" width="10" x="451.5" y="183.9219"/><rect fill="#FFFFFF" height="223.2969" style="stroke:#181818;stroke-width:1.0;" width="10" x="608.5" y="214.2734"/><rect fill="#FFFFFF" height="30.3516" style="stroke:#181818;stroke-width:1.0;" width="10" x="752.5" y="244.625"/><polygon fill="#181818" points="271.5,149.5703,281.5,153.5703,271.5,157.5703,275.5,153.5703" style="stroke:#181818;stroke-width:1.0;"/><line style="stroke:#181818;stroke-width:1.0;" x1="37.5" x2="277.5" y1="153.5703" y2="153.5703"/><text fill="#000000" font-family="sans-serif" font-size="13" lengthAdjust="spacing" textLength="227" x="44.5" y="148.7139">1. Enter keyword in search user screen</text><polygon fill="#181818" points="439.5,179.9219,449.5,183.9219,439.5,187.9219,443.5,183.9219" style="stroke:#181818;stroke-width:1.0;"/><line style="stroke:#181818;stroke-width:1.0;" x1="293.5" x2="445.5" y1="183.9219" y2="183.9219"/><text fill="#000000" font-family="sans-serif" font-size="13" lengthAdjust="spacing" textLength="92" x="300.5" y="179.0654">2. Search users</text><polygon fill="#181818" points="596.5,210.2734,606.5,214.2734,596.5,218.2734,600.5,214.2734" style="stroke:#181818;stroke-width:1.0;"/><line style="stroke:#181818;stroke-width:1.0;" x1="461.5" x2="602.5" y1="214.2734" y2="214.2734"/><text fill="#000000" font-family="sans-serif" font-size="13" lengthAdjust="spacing" textLength="108" x="468.5" y="209.417">3. Forward request</text><polygon fill="#181818" points="740.5,240.625,750.5,244.625,740.5,248.625,744.5,244.625" style="stroke:#181818;stroke-width:1.0;"/><line style="stroke:#181818;stroke-width:1.0;" x1="618.5" x2="746.5" y1="244.625" y2="244.625"/><text fill="#000000" font-family="sans-serif" font-size="13" lengthAdjust="spacing" textLength="79" x="625.5" y="239.7686">4. Query data</text><polygon fill="#181818" points="629.5,270.9766,619.5,274.9766,629.5,278.9766,625.5,274.9766" style="stroke:#181818;stroke-width:1.0;"/><line style="stroke:#181818;stroke-width:1.0;stroke-dasharray:2.0,2.0;" x1="623.5" x2="756.5" y1="274.9766" y2="274.9766"/><text fill="#000000" font-family="sans-serif" font-size="13" lengthAdjust="spacing" textLength="110" x="635.5" y="270.1201">5. Return response</text><path d="M10,289.9766 L71,289.9766 L71,298.3281 L61,308.3281 L10,308.3281 L10,289.9766 " fill="#EEEEEE" style="stroke:#000000;stroke-width:1.5;"/><rect fill="none" height="216.2969" style="stroke:#000000;stroke-width:1.5;" width="660.5" x="10" y="289.9766"/><text fill="#000000" font-family="sans-serif" font-size="13" font-weight="bold" lengthAdjust="spacing" textLength="16" x="25" y="304.4717">alt</text><text fill="#000000" font-family="sans-serif" font-size="11" font-weight="bold" lengthAdjust="spacing" textLength="112" x="86" y="303.3955">[Users list is empty]</text><polygon fill="#181818" points="472.5,326.6797,462.5,330.6797,472.5,334.6797,468.5,330.6797" style="stroke:#181818;stroke-width:1.0;"/><line style="stroke:#181818;stroke-width:1.0;stroke-dasharray:2.0,2.0;" x1="466.5" x2="607.5" y1="330.6797" y2="330.6797"/><text fill="#000000" font-family="sans-serif" font-size="13" lengthAdjust="spacing" textLength="123" x="478.5" y="325.8232">6A. Return empty list</text><polygon fill="#181818" points="304.5,357.0313,294.5,361.0313,304.5,365.0313,300.5,361.0313" style="stroke:#181818;stroke-width:1.0;"/><line style="stroke:#181818;stroke-width:1.0;stroke-dasharray:2.0,2.0;" x1="298.5" x2="450.5" y1="361.0313" y2="361.0313"/><text fill="#000000" font-family="sans-serif" font-size="13" lengthAdjust="spacing" textLength="134" x="310.5" y="356.1748">6A.1. Foward response</text><polygon fill="#181818" points="48.5,387.3828,38.5,391.3828,48.5,395.3828,44.5,391.3828" style="stroke:#181818;stroke-width:1.0;"/><line style="stroke:#181818;stroke-width:1.0;stroke-dasharray:2.0,2.0;" x1="42.5" x2="282.5" y1="391.3828" y2="391.3828"/><text fill="#000000" font-family="sans-serif" font-size="13" lengthAdjust="spacing" textLength="139" x="54.5" y="386.5264">6A.2. Display empty list</text><line style="stroke:#000000;stroke-width:1.0;stroke-dasharray:2.0,2.0;" x1="10" x2="670.5" y1="400.3828" y2="400.3828"/><text fill="#000000" font-family="sans-serif" font-size="11" font-weight="bold" lengthAdjust="spacing" textLength="133" x="15" y="411.8018">[Users list is not empty]</text><polygon fill="#181818" points="472.5,433.5703,462.5,437.5703,472.5,441.5703,468.5,437.5703" style="stroke:#181818;stroke-width:1.0;"/><line style="stroke:#181818;stroke-width:1.0;stroke-dasharray:2.0,2.0;" x1="466.5" x2="612.5" y1="437.5703" y2="437.5703"/><text fill="#000000" font-family="sans-serif" font-size="13" lengthAdjust="spacing" textLength="110" x="478.5" y="432.7139">7. Return users list</text><polygon fill="#181818" points="304.5,463.9219,294.5,467.9219,304.5,471.9219,300.5,467.9219" style="stroke:#181818;stroke-width:1.0;"/><line style="stroke:#181818;stroke-width:1.0;stroke-dasharray:2.0,2.0;" x1="298.5" x2="455.5" y1="467.9219" y2="467.9219"/><text fill="#000000" font-family="sans-serif" font-size="13" lengthAdjust="spacing" textLength="118" x="310.5" y="463.0654">8. Forward response</text><polygon fill="#181818" points="48.5,494.2734,38.5,498.2734,48.5,502.2734,44.5,498.2734" style="stroke:#181818;stroke-width:1.0;"/><line style="stroke:#181818;stroke-width:1.0;stroke-dasharray:2.0,2.0;" x1="42.5" x2="287.5" y1="498.2734" y2="498.2734"/><text fill="#000000" font-family="sans-serif" font-size="13" lengthAdjust="spacing" textLength="115" x="54.5" y="493.417">9. Display users list</text><!--SRC=[ZL5DJyCm3BtdLrYxS40j6jzCLIK-9mv8mBGRbompMqH9Ik9ILOZ_ZXD66pXC76s_z_pyJ9egXD4CfLDhQ3mwFn8xCAEEsnuLQMj4uKDP2k3EMuD6uPMMAoTVuODx00wVqONsfWQuaEfbwcnZbfUsiWxQjIQCiq_nAOgzZQ2GYdWwvxLY4T3ITN1d5xh2-QsefIEjT2qDmQWeb7LBRIGJolB9dDTwAWbRsOr0UXZAlpJMVjSA0oSkcdtNaPNKOYb9BgH7kBUULWxzMoL4041MzfvWTtS2unok3V7W1RkMJO4s74mV87Zb48qGFOa51dzHOZ-7D7AHZ1cSs8heWnnkh6ibhtBX0Pv42c76u3aI3dDuQ92p34VzmXPPbe2pR097EJmYDSwmjg-jySXlgIYQy51fJw0zu6jDNNnWOZM89U8JE3xlnI8XqYEhpo9m1eb86OVpDjTj70HAp3x0VxWHpCbTQLzNl3vPWHK_xhTZO-bVhaC69xtjfjVOPZjmJjEdRBCTm6U3wsG3cYLmrE8B]--></g></svg>