<?xml version="1.0" encoding="us-ascii" standalone="no"?><svg xmlns="http://www.w3.org/2000/svg" xmlns:xlink="http://www.w3.org/1999/xlink" contentStyleType="text/css" height="660px" preserveAspectRatio="none" style="width:1247px;height:660px;background:#FFFFFF;" version="1.1" viewBox="0 0 1247 660" width="1247px" zoomAndPan="magnify"><defs/><g><!--cluster Ingredient-based<U+0020>food<U+0020>recommendation<U+0020>application--><g id="cluster_Ingredient-based&lt;U+0020&gt;food&lt;U+0020&gt;recommendation&lt;U+0020&gt;application"><rect fill="none" height="530" style="stroke:#181818;stroke-width:1.0;" width="1151.93" x="90" y="7"/><text fill="#000000" font-family="sans-serif" font-size="12" font-weight="bold" lengthAdjust="spacing" textLength="324" x="503.965" y="20.6016">Ingredient-based food recommendation application</text></g><g id="elem_ucLogin"><ellipse cx="886.0757" cy="270.9991" fill="#F1F1F1" rx="56.7457" ry="13.7491" style="stroke:#181818;stroke-width:0.5;"/><text fill="#000000" font-family="sans-serif" font-size="12" lengthAdjust="spacing" textLength="69" x="851.5757" y="273.5343">UC-2: Login</text></g><g id="elem_ucForgotPassword"><ellipse cx="1141.3812" cy="271.0002" fill="#F1F1F1" rx="84.5512" ry="19.3102" style="stroke:#181818;stroke-width:0.5;"/><text fill="#000000" font-family="sans-serif" font-size="12" lengthAdjust="spacing" textLength="135" x="1073.8812" y="273.5354">UC-4: Forgot password</text></g><g id="elem_ucLogout"><ellipse cx="199.6708" cy="203.0042" fill="#F1F1F1" rx="59.8208" ry="14.3642" style="stroke:#181818;stroke-width:0.5;"/><text fill="#000000" font-family="sans-serif" font-size="12" lengthAdjust="spacing" textLength="77" x="161.1708" y="205.5393">UC-8: Logout</text></g><g id="elem_ucManageSetting"><ellipse cx="199.6714" cy="272.0023" fill="#F1F1F1" rx="86.8114" ry="19.7623" style="stroke:#181818;stroke-width:0.5;"/><text fill="#000000" font-family="sans-serif" font-size="12" lengthAdjust="spacing" textLength="140" x="129.6714" y="274.5374">UC-10: Manage settings</text></g><g id="elem_ucManageProfile"><ellipse cx="199.6711" cy="135.0002" fill="#F1F1F1" rx="83.6511" ry="19.1302" style="stroke:#181818;stroke-width:0.5;"/><text fill="#000000" font-family="sans-serif" font-size="12" lengthAdjust="spacing" textLength="133" x="133.1711" y="137.5354">UC-11: Manage profile</text></g><g id="elem_ucAdmUser"><ellipse cx="199.6692" cy="346.9958" fill="#F1F1F1" rx="88.6292" ry="20.1258" style="stroke:#181818;stroke-width:0.5;"/><text fill="#000000" font-family="sans-serif" font-size="12" lengthAdjust="spacing" textLength="144" x="127.6692" y="349.531">UC-24: Administer users</text></g><g id="elem_ucAdmTags"><ellipse cx="199.6736" cy="61.0007" fill="#F1F1F1" rx="85.4536" ry="19.4907" style="stroke:#181818;stroke-width:0.5;"/><text fill="#000000" font-family="sans-serif" font-size="12" lengthAdjust="spacing" textLength="137" x="131.1736" y="63.5359">UC-25: Administer tags</text></g><g id="elem_ucAdmRecipe"><ellipse cx="199.6675" cy="423.0035" fill="#F1F1F1" rx="93.6675" ry="21.1335" style="stroke:#181818;stroke-width:0.5;"/><text fill="#000000" font-family="sans-serif" font-size="12" lengthAdjust="spacing" textLength="155" x="122.1675" y="425.5387">UC-26: Administer recipes</text></g><g id="elem_ucAdmReport"><ellipse cx="199.6675" cy="500.0035" fill="#F1F1F1" rx="93.6675" ry="21.1335" style="stroke:#181818;stroke-width:0.5;"/><text fill="#000000" font-family="sans-serif" font-size="12" lengthAdjust="spacing" textLength="155" x="122.1675" y="502.5387">UC-28: Administer reports</text></g><g id="elem_noteAdmUser"><path d="M400.34,253.94 L400.34,278.0728 L544.34,278.0728 L544.34,263.94 L534.34,253.94 L400.34,253.94 " fill="#FAFAFA" style="stroke:#181818;stroke-width:0.5;"/><path d="M534.34,253.94 L534.34,263.94 L544.34,263.94 L534.34,253.94 " fill="#FAFAFA" style="stroke:#181818;stroke-width:1.0;"/><text fill="#000000" font-family="sans-serif" font-size="12" lengthAdjust="spacing" textLength="123" x="406.34" y="270.5416">Read/Delete/Restore</text></g><g id="elem_noteAdmRecipe"><path d="M400.34,349.94 L400.34,374.0728 L544.34,374.0728 L544.34,359.94 L534.34,349.94 L400.34,349.94 " fill="#FAFAFA" style="stroke:#181818;stroke-width:0.5;"/><path d="M534.34,349.94 L534.34,359.94 L544.34,359.94 L534.34,349.94 " fill="#FAFAFA" style="stroke:#181818;stroke-width:1.0;"/><text fill="#000000" font-family="sans-serif" font-size="12" lengthAdjust="spacing" textLength="123" x="406.34" y="366.5416">Read/Delete/Restore</text></g><g id="elem_noteAdmTag"><path d="M354.34,39.94 L354.34,64.0728 L590.34,64.0728 L590.34,49.94 L580.34,39.94 L354.34,39.94 " fill="#FAFAFA" style="stroke:#181818;stroke-width:0.5;"/><path d="M580.34,39.94 L580.34,49.94 L590.34,49.94 L580.34,39.94 " fill="#FAFAFA" style="stroke:#181818;stroke-width:1.0;"/><text fill="#000000" font-family="sans-serif" font-size="12" lengthAdjust="spacing" textLength="215" x="360.34" y="56.5416">Read/Create/Update/Delete/Restore</text></g><g id="elem_noteAdmReport"><path d="M400.34,445.94 L400.34,470.0728 L544.34,470.0728 L544.34,455.94 L534.34,445.94 L400.34,445.94 " fill="#FAFAFA" style="stroke:#181818;stroke-width:0.5;"/><path d="M534.34,445.94 L534.34,455.94 L544.34,455.94 L534.34,445.94 " fill="#FAFAFA" style="stroke:#181818;stroke-width:1.0;"/><text fill="#000000" font-family="sans-serif" font-size="12" lengthAdjust="spacing" textLength="123" x="406.34" y="462.5416">Read/Delete/Restore</text></g><!--entity admin--><g id="elem_admin"><ellipse cx="24.5" cy="243.44" fill="#F1F1F1" rx="8" ry="8" style="stroke:#181818;stroke-width:0.5;"/><path d="M24.5,251.44 L24.5,278.44 M11.5,259.44 L37.5,259.44 M24.5,278.44 L11.5,293.44 M24.5,278.44 L37.5,293.44 " fill="none" style="stroke:#181818;stroke-width:0.5;"/><text fill="#000000" font-family="sans-serif" font-size="12" lengthAdjust="spacing" textLength="37" x="6" y="306.5416">Admin</text></g><!--entity cl--><g id="elem_cl"><ellipse cx="1141.38" cy="588.44" fill="#F1F1F1" rx="8" ry="8" style="stroke:#181818;stroke-width:0.5;"/><path d="M1141.38,596.44 L1141.38,623.44 M1128.38,604.44 L1154.38,604.44 M1141.38,623.44 L1128.38,638.44 M1141.38,623.44 L1154.38,638.44 " fill="none" style="stroke:#181818;stroke-width:0.5;"/><text fill="#000000" font-family="sans-serif" font-size="12" lengthAdjust="spacing" textLength="61" x="1110.88" y="651.5416">Cloudinary</text></g><!--link admin to ucAdmUser--><g id="link_admin_ucAdmUser"><path d="M43.38,283.71 C59.93,294.55 82,309 82,309 C82,309 110.4449,318.272 141.7949,328.482 " fill="none" id="admin-to-ucAdmUser" style="stroke:#181818;stroke-width:1.0;"/><polygon fill="#181818" points="147.5,330.34,140.1811,323.7496,142.7458,328.7917,137.7037,331.3564,147.5,330.34" style="stroke:#181818;stroke-width:1.0;"/></g><!--link ucAdmUser to noteAdmUser--><g id="link_ucAdmUser_noteAdmUser"><path d="M250.21,330.04 C284.25,318.39 323.34,305 323.34,305 C323.34,305 380.43,289.96 423.69,278.56 " fill="none" id="ucAdmUser-noteAdmUser" style="stroke:#181818;stroke-width:1.0;stroke-dasharray:7.0,7.0;"/></g><!--link admin to ucAdmRecipe--><g id="link_admin_ucAdmRecipe"><path d="M43.38,307.76 C59.93,340.86 82,385 82,385 C82,385 108.4952,393.6313 139.0652,403.5913 " fill="none" id="admin-to-ucAdmRecipe" style="stroke:#181818;stroke-width:1.0;"/><polygon fill="#181818" points="144.77,405.45,137.4519,398.8587,140.016,403.9011,134.9736,406.4652,144.77,405.45" style="stroke:#181818;stroke-width:1.0;"/></g><!--link ucAdmRecipe to noteAdmRecipe--><g id="link_ucAdmRecipe_noteAdmRecipe"><path d="M267.23,408 C312.93,397.7 372.89,384.19 415.98,374.48 " fill="none" id="ucAdmRecipe-noteAdmRecipe" style="stroke:#181818;stroke-width:1.0;stroke-dasharray:7.0,7.0;"/></g><!--link admin to ucAdmReport--><g id="link_admin_ucAdmReport"><path d="M36.66,309.54 C53.13,364.91 82,462 82,462 C82,462 108.4952,470.6313 139.0652,480.5913 " fill="none" id="admin-to-ucAdmReport" style="stroke:#181818;stroke-width:1.0;"/><polygon fill="#181818" points="144.77,482.45,137.4519,475.8587,140.016,480.9011,134.9736,483.4652,144.77,482.45" style="stroke:#181818;stroke-width:1.0;"/></g><!--link ucAdmReport to noteAdmReport--><g id="link_ucAdmReport_noteAdmReport"><path d="M277.87,488.02 C316.31,482.06 362.47,474.9 400.06,469.06 " fill="none" id="ucAdmReport-noteAdmReport" style="stroke:#181818;stroke-width:1.0;stroke-dasharray:7.0,7.0;"/></g><!--link admin to ucAdmTags--><g id="link_admin_ucAdmTags"><path d="M37.62,234.68 C54.22,183.55 82,98 82,98 C82,98 111.1708,88.7541 142.7908,78.7241 " fill="none" id="admin-to-ucAdmTags" style="stroke:#181818;stroke-width:1.0;"/><polygon fill="#181818" points="148.51,76.91,138.7218,75.8184,143.744,78.4218,141.1407,83.444,148.51,76.91" style="stroke:#181818;stroke-width:1.0;"/></g><!--link ucAdmTags to noteAdmTag--><g id="link_ucAdmTags_noteAdmTag"><path d="M284.45,58.22 C306.5,57.48 330.69,56.68 354.15,55.9 " fill="none" id="ucAdmTags-noteAdmTag" style="stroke:#181818;stroke-width:1.0;stroke-dasharray:7.0,7.0;"/></g><!--link admin to ucManageProfile--><g id="link_admin_ucManageProfile"><path d="M43.38,240.05 C59.93,210.46 82,171 82,171 C82,171 111.1569,162.0096 142.7769,152.2496 " fill="none" id="admin-to-ucManageProfile" style="stroke:#181818;stroke-width:1.0;"/><polygon fill="#181818" points="148.51,150.48,138.7306,149.3123,143.7324,151.9547,141.0901,156.9565,148.51,150.48" style="stroke:#181818;stroke-width:1.0;"/></g><!--link admin to ucManageSetting--><g id="link_admin_ucManageSetting"><path d="M43.38,272 C60.06,272 80.23,272 106.36,272 " fill="none" id="admin-to-ucManageSetting" style="stroke:#181818;stroke-width:1.0;"/><polygon fill="#181818" points="112.36,272,103.36,268,107.36,272,103.36,276,112.36,272" style="stroke:#181818;stroke-width:1.0;"/></g><!--link admin to ucLogout--><g id="link_admin_ucLogout"><path d="M43.38,260.3 C59.93,249.46 82,235 82,235 C82,235 119.2638,224.7874 153.0538,215.5174 " fill="none" id="admin-to-ucLogout" style="stroke:#181818;stroke-width:1.0;"/><polygon fill="#181818" points="158.84,213.93,149.1024,212.4536,154.0182,215.2528,151.219,220.1686,158.84,213.93" style="stroke:#181818;stroke-width:1.0;"/></g><!--link ucLogout to ucLogin--><g id="link_ucLogout_ucLogin"><path d="M256.5,207.73 C364.24,216.86 590.34,236 590.34,236 C590.34,236 744.1819,254.2723 828.4519,264.2823 " fill="none" id="ucLogout-to-ucLogin" style="stroke:#181818;stroke-width:1.0;stroke-dasharray:7.0,7.0;"/><polygon fill="#181818" points="834.41,264.99,825.9447,259.9563,829.4449,264.4002,825.001,267.9005,834.41,264.99" style="stroke:#181818;stroke-width:1.0;"/><text fill="#000000" font-family="sans-serif" font-size="12" lengthAdjust="spacing" textLength="53" x="652.34" y="239.9116">&#171;include&#187;</text></g><!--link ucAdmUser to ucLogin--><g id="link_ucAdmUser_ucLogin"><path d="M278.59,337.5 C358.55,327.75 471.34,314 471.34,314 C471.34,314 471.34,314 768.34,314 C768.34,314 813.2794,297.4428 847.8594,284.7128 " fill="none" id="ucAdmUser-to-ucLogin" style="stroke:#181818;stroke-width:1.0;stroke-dasharray:7.0,7.0;"/><polygon fill="#181818" points="853.49,282.64,843.6623,281.9955,848.7978,284.3673,846.426,289.5029,853.49,282.64" style="stroke:#181818;stroke-width:1.0;"/><text fill="#000000" font-family="sans-serif" font-size="12" lengthAdjust="spacing" textLength="53" x="652.34" y="310.6016">&#171;include&#187;</text></g><!--link ucAdmRecipe to ucLogin--><g id="link_ucAdmRecipe_ucLogin"><path d="M288.6,416.01 C403.53,406.86 590.34,392 590.34,392 C590.34,392 706.34,373 706.34,373 C706.34,373 809.1289,314.3439 857.2289,286.8939 " fill="none" id="ucAdmRecipe-to-ucLogin" style="stroke:#181818;stroke-width:1.0;stroke-dasharray:7.0,7.0;"/><polygon fill="#181818" points="862.44,283.92,852.6407,284.9068,858.0974,286.3983,856.6059,291.855,862.44,283.92" style="stroke:#181818;stroke-width:1.0;"/><text fill="#000000" font-family="sans-serif" font-size="12" lengthAdjust="spacing" textLength="53" x="652.34" y="369.6016">&#171;include&#187;</text></g><!--link ucAdmTags to ucLogin--><g id="link_ucAdmTags_ucLogin"><path d="M273.9,71.01 C313.48,76.42 354.34,82 354.34,82 C354.34,82 706.34,118 706.34,118 C706.34,118 768.34,133 768.34,133 C768.34,133 799.34,167 799.34,167 C799.34,167 846.8133,224.5904 870.0533,252.7804 " fill="none" id="ucAdmTags-to-ucLogin" style="stroke:#181818;stroke-width:1.0;stroke-dasharray:7.0,7.0;"/><polygon fill="#181818" points="873.87,257.41,871.2314,247.9212,870.6894,253.552,865.0586,253.0101,873.87,257.41" style="stroke:#181818;stroke-width:1.0;"/><text fill="#000000" font-family="sans-serif" font-size="12" lengthAdjust="spacing" textLength="53" x="652.34" y="108.9816">&#171;include&#187;</text></g><!--link ucManageProfile to ucLogin--><g id="link_ucManageProfile_ucLogin"><path d="M282.98,137.13 C362.61,139.19 471.34,142 471.34,142 C471.34,142 471.34,142 768.34,142 C768.34,142 838.4438,219.4714 868.5638,252.7514 " fill="none" id="ucManageProfile-to-ucLogin" style="stroke:#181818;stroke-width:1.0;stroke-dasharray:7.0,7.0;"/><polygon fill="#181818" points="872.59,257.2,869.5165,247.843,869.2349,253.4928,863.585,253.2112,872.59,257.2" style="stroke:#181818;stroke-width:1.0;"/><text fill="#000000" font-family="sans-serif" font-size="12" lengthAdjust="spacing" textLength="53" x="652.34" y="138.6016">&#171;include&#187;</text></g><!--link ucAdmReport to ucLogin--><g id="link_ucAdmReport_ucLogin"><path d="M293.01,497.16 C408.24,493.61 590.34,488 590.34,488 C590.34,488 706.34,406 706.34,406 C706.34,406 817.2924,322.2064 862.5024,288.0564 " fill="none" id="ucAdmReport-to-ucLogin" style="stroke:#181818;stroke-width:1.0;stroke-dasharray:7.0,7.0;"/><polygon fill="#181818" points="867.29,284.44,857.6976,286.6729,863.3003,287.4537,862.5195,293.0564,867.29,284.44" style="stroke:#181818;stroke-width:1.0;"/><text fill="#000000" font-family="sans-serif" font-size="12" lengthAdjust="spacing" textLength="53" x="652.34" y="402.6016">&#171;include&#187;</text></g><!--reverse link ucLogin to ucForgotPassword--><g id="link_ucLogin_ucForgotPassword"><path d="M949.3,271 C982.53,271 1019.24,271 1056.41,271 " fill="none" id="ucLogin-backto-ucForgotPassword" style="stroke:#181818;stroke-width:1.0;stroke-dasharray:7.0,7.0;"/><polygon fill="#181818" points="943.3,271,952.3,275,948.3,271,952.3,267,943.3,271" style="stroke:#181818;stroke-width:1.0;"/><text fill="#000000" font-family="sans-serif" font-size="12" lengthAdjust="spacing" textLength="52" x="973.83" y="267.6016">&#171;extend&#187;</text></g><!--reverse link ucManageProfile to cl--><g id="link_ucManageProfile_cl"><path d="M249.0722,153.8042 C273.3522,163.2442 293.34,171 293.34,171 C293.34,171 323.34,600 323.34,600 C323.34,600 471.34,645 471.34,645 C471.34,645 471.34,645 887.08,645 C887.08,645 1044.01,627.66 1110.83,620.27 " fill="none" id="ucManageProfile-backto-cl" style="stroke:#181818;stroke-width:1.0;"/><polygon fill="#181818" points="243.48,151.63,250.4188,158.6195,248.1402,153.4419,253.3178,151.1632,243.48,151.63" style="stroke:#181818;stroke-width:1.0;"/></g><!--reverse link ucAdmTags to cl--><g id="link_ucAdmTags_cl"><path d="M249.0526,80.324 C273.3326,90.014 293.34,98 293.34,98 C293.34,98 354.34,488 354.34,488 C354.34,488 471.34,574 471.34,574 C471.34,574 471.34,574 887.08,574 C887.08,574 1044.01,600.64 1110.83,611.99 " fill="none" id="ucAdmTags-backto-cl" style="stroke:#181818;stroke-width:1.0;"/><polygon fill="#181818" points="243.48,78.1,250.3562,85.1511,248.1238,79.9533,253.3216,77.7209,243.48,78.1" style="stroke:#181818;stroke-width:1.0;"/></g><!--SRC=[bPJTYjim48Nl_HH3Rejtaz2M9OJ0ah9GQ679DW-WIXElM5aIqfWsBNttZdyZszqszKKYdJcVfPcH75-qzIA84YAT3V9lq9AgqcHnY9JEElaSN8b0eS8aOhH5Edi4xyovdYGnXITH6Nfmbfxq3uJLEZDu8Y07GHVF14e7bAITpOGa5s1nhqfj5o0YY7hKotlZAgMj2ESc9arMSy8MlDsFjWYeD5hAlug8QdjyirokbxkJSyEOtQuiqIfHBzQhmdkZPIF1pmpugI9AVWSiZljylO5FhkXsKybcF3EztS232uKZy2B6RowepjwgZvquu-wQbxkABc_doSosMcxWix2YuAuWaRP5x81MVMh5ERSQE1_SIHiSOO-jbirpvdoQ5kX86EfGw1Ta-SZJEV9kX90e4k8Bp-R4-n71lT4U4-ZG27FiRe9v5sY4rKARatN4q065kls01Wbl3nZv9BLbgADfEbUvarqb_dr0mVwZL_NVwpGNud-MkcJIN0F8yzsa1KrrUWLkRcP9JS1a-mFQQWcSc6PuiwK9NciZV31DyE4S372j96XVdvGRdzK_HzCBa4Qx-zGUecx6o_6pw-yoR62xrLQQIk5kbqqBUerrAE0rvYxZVrf7QL-zaQuLVp5VQi6XBPT- -f5g_FYT-3FPswNXUbO-pr_hoCJGj_fNzXi0]--></g></svg>