<?xml version="1.0" encoding="us-ascii" standalone="no"?><svg xmlns="http://www.w3.org/2000/svg" xmlns:xlink="http://www.w3.org/1999/xlink" contentStyleType="text/css" height="2157px" preserveAspectRatio="none" style="width:2014px;height:2157px;background:#FFFFFF;" version="1.1" viewBox="0 0 2014 2157" width="2014px" zoomAndPan="magnify"><defs/><g><text fill="#000000" font-family="sans-serif" font-size="14" font-weight="bold" lengthAdjust="spacing" textLength="99" x="958.75" y="29.5332">Update recipe</text><rect fill="#FFFFFF" height="998.7188" style="stroke:#181818;stroke-width:1.0;" width="10" x="298.5" y="169.9219"/><rect fill="#FFFFFF" height="921.6641" style="stroke:#181818;stroke-width:1.0;" width="10" x="477.5" y="200.2734"/><rect fill="#FFFFFF" height="814.5156" style="stroke:#181818;stroke-width:1.0;" width="10" x="723.5" y="277.0703"/><rect fill="#FFFFFF" height="51.7031" style="stroke:#181818;stroke-width:1.0;" width="10" x="728.5" y="685.4766"/><rect fill="#FFFFFF" height="60.7031" style="stroke:#181818;stroke-width:1.0;" width="10" x="723.5" y="1437.8047"/><rect fill="#FFFFFF" height="91.0547" style="stroke:#181818;stroke-width:1.0;" width="10" x="723.5" y="1579.2109"/><rect fill="#FFFFFF" height="60.7031" style="stroke:#181818;stroke-width:1.0;" width="10" x="723.5" y="1789.0234"/><rect fill="#FFFFFF" height="60.7031" style="stroke:#181818;stroke-width:1.0;" width="10" x="723.5" y="1975.4844"/><rect fill="#FFFFFF" height="46.7031" style="stroke:#181818;stroke-width:1.0;" width="10" x="1009.5" y="737.1797"/><rect fill="#FFFFFF" height="46.7031" style="stroke:#181818;stroke-width:1.0;" width="10" x="1009.5" y="1014.5313"/><rect fill="#FFFFFF" height="76.7031" style="stroke:#181818;stroke-width:1.0;" width="10" x="1009.5" y="1361.1016"/><rect fill="#FFFFFF" height="46.7031" style="stroke:#181818;stroke-width:1.0;" width="10" x="1009.5" y="1742.3203"/><rect fill="#FFFFFF" height="46.7031" style="stroke:#181818;stroke-width:1.0;" width="10" x="1009.5" y="1928.7813"/><rect fill="#FFFFFF" height="253.6484" style="stroke:#181818;stroke-width:1.0;" width="10" x="1281.5" y="307.4219"/><rect fill="#FFFFFF" height="77.0547" style="stroke:#181818;stroke-width:1.0;" width="10" x="1281.5" y="783.8828"/><rect fill="#FFFFFF" height="30.3516" style="stroke:#181818;stroke-width:1.0;" width="10" x="1517.5" y="337.7734"/><rect fill="#FFFFFF" height="30.3516" style="stroke:#181818;stroke-width:1.0;" width="10" x="1517.5" y="830.5859"/><rect fill="#FFFFFF" height="989.9531" style="stroke:#181818;stroke-width:1.0;" width="10" x="1624.5" y="1061.2344"/><rect fill="#FFFFFF" height="167.7578" style="stroke:#181818;stroke-width:1.0;" width="10" x="1629.5" y="1223.3438"/><rect fill="#FFFFFF" height="507.3281" style="stroke:#181818;stroke-width:1.0;" width="10" x="1629.5" y="1543.8594"/><rect fill="#FFFFFF" height="30.3516" style="stroke:#181818;stroke-width:1.0;" width="10" x="1850.5" y="1258.6953"/><rect fill="#FFFFFF" height="30.3516" style="stroke:#181818;stroke-width:1.0;" width="10" x="1938.5" y="591.4219"/><rect fill="#FFFFFF" height="30.3516" style="stroke:#181818;stroke-width:1.0;" width="10" x="1938.5" y="1468.1563"/><rect fill="#FFFFFF" height="30.3516" style="stroke:#181818;stroke-width:1.0;" width="10" x="1938.5" y="1609.5625"/><rect fill="#FFFFFF" height="30.3516" style="stroke:#181818;stroke-width:1.0;" width="10" x="1938.5" y="1819.375"/><rect fill="#FFFFFF" height="30.3516" style="stroke:#181818;stroke-width:1.0;" width="10" x="1938.5" y="2005.8359"/><rect fill="none" height="1675.0625" style="stroke:#000000;stroke-width:1.5;" width="1997.5" x="10" y="383.125"/><rect fill="none" height="1414.4141" style="stroke:#000000;stroke-width:1.5;" width="1977.5" x="20" y="636.7734"/><rect fill="none" height="202.4609" style="stroke:#000000;stroke-width:1.5;" width="1323.5" x="664" y="1304.0469"/><rect fill="none" height="172.4609" style="stroke:#000000;stroke-width:1.5;" width="1323.5" x="664" y="1685.2656"/><rect fill="none" height="172.4609" style="stroke:#000000;stroke-width:1.5;" width="1323.5" x="664" y="1871.7266"/><line style="stroke:#181818;stroke-width:0.5;stroke-dasharray:5.0,5.0;" x1="47" x2="47" y1="121.2188" y2="2075.1875"/><line style="stroke:#181818;stroke-width:0.5;stroke-dasharray:5.0,5.0;" x1="303" x2="303" y1="121.2188" y2="2075.1875"/><line style="stroke:#181818;stroke-width:0.5;stroke-dasharray:5.0,5.0;" x1="482.5" x2="482.5" y1="121.2188" y2="2075.1875"/><line style="stroke:#181818;stroke-width:0.5;stroke-dasharray:5.0,5.0;" x1="728" x2="728" y1="121.2188" y2="2075.1875"/><line style="stroke:#181818;stroke-width:0.5;stroke-dasharray:5.0,5.0;" x1="1014.5" x2="1014.5" y1="121.2188" y2="2075.1875"/><line style="stroke:#181818;stroke-width:0.5;stroke-dasharray:5.0,5.0;" x1="1286.5" x2="1286.5" y1="121.2188" y2="2075.1875"/><line style="stroke:#181818;stroke-width:0.5;stroke-dasharray:5.0,5.0;" x1="1522.5" x2="1522.5" y1="121.2188" y2="2075.1875"/><line style="stroke:#181818;stroke-width:0.5;stroke-dasharray:5.0,5.0;" x1="1629.5" x2="1629.5" y1="121.2188" y2="2075.1875"/><line style="stroke:#181818;stroke-width:0.5;stroke-dasharray:5.0,5.0;" x1="1855.5" x2="1855.5" y1="121.2188" y2="2075.1875"/><line style="stroke:#181818;stroke-width:0.5;stroke-dasharray:5.0,5.0;" x1="1943.5" x2="1943.5" y1="121.2188" y2="2075.1875"/><text fill="#000000" font-family="sans-serif" font-size="14" lengthAdjust="spacing" textLength="29" x="30" y="118.1426">User</text><ellipse cx="47.5" cy="52.1094" fill="#E2E2F0" rx="8" ry="8" style="stroke:#181818;stroke-width:0.5;"/><path d="M47.5,60.1094 L47.5,87.1094 M34.5,68.1094 L60.5,68.1094 M47.5,87.1094 L34.5,102.1094 M47.5,87.1094 L60.5,102.1094 " fill="none" style="stroke:#181818;stroke-width:0.5;"/><text fill="#000000" font-family="sans-serif" font-size="14" lengthAdjust="spacing" textLength="29" x="30" y="2088.7207">User</text><ellipse cx="47.5" cy="2100.2969" fill="#E2E2F0" rx="8" ry="8" style="stroke:#181818;stroke-width:0.5;"/><path d="M47.5,2108.2969 L47.5,2135.2969 M34.5,2116.2969 L60.5,2116.2969 M47.5,2135.2969 L34.5,2150.2969 M47.5,2135.2969 L60.5,2150.2969 " fill="none" style="stroke:#181818;stroke-width:0.5;"/><text fill="#000000" font-family="sans-serif" font-size="14" lengthAdjust="spacing" textLength="53" x="274" y="118.1426">MobileUI</text><path d="M283,75.6094 L283,99.6094 M283,87.6094 L300,87.6094 " fill="none" style="stroke:#181818;stroke-width:0.5;"/><ellipse cx="312" cy="87.6094" fill="#E2E2F0" rx="12" ry="12" style="stroke:#181818;stroke-width:0.5;"/><text fill="#000000" font-family="sans-serif" font-size="14" lengthAdjust="spacing" textLength="53" x="274" y="2088.7207">MobileUI</text><path d="M283,2095.7969 L283,2119.7969 M283,2107.7969 L300,2107.7969 " fill="none" style="stroke:#181818;stroke-width:0.5;"/><ellipse cx="312" cy="2107.7969" fill="#E2E2F0" rx="12" ry="12" style="stroke:#181818;stroke-width:0.5;"/><rect fill="#E2E2F0" height="49.2188" rx="2.5" ry="2.5" style="stroke:#181818;stroke-width:0.5;" width="94" x="435.5" y="71"/><text fill="#000000" font-family="sans-serif" font-size="14" lengthAdjust="spacing" textLength="80" x="442.5" y="92.5332">&#171;cordinator&#187;</text><text fill="#000000" font-family="sans-serif" font-size="14" lengthAdjust="spacing" textLength="75" x="445" y="110.1426">ApiGateway</text><rect fill="#E2E2F0" height="49.2188" rx="2.5" ry="2.5" style="stroke:#181818;stroke-width:0.5;" width="94" x="435.5" y="2074.1875"/><text fill="#000000" font-family="sans-serif" font-size="14" lengthAdjust="spacing" textLength="80" x="442.5" y="2095.7207">&#171;cordinator&#187;</text><text fill="#000000" font-family="sans-serif" font-size="14" lengthAdjust="spacing" textLength="75" x="445" y="2113.3301">ApiGateway</text><rect fill="#E2E2F0" height="49.2188" rx="2.5" ry="2.5" style="stroke:#181818;stroke-width:0.5;" width="109" x="674" y="71"/><text fill="#000000" font-family="sans-serif" font-size="14" lengthAdjust="spacing" textLength="61" x="698" y="92.5332">&#171;service&#187;</text><text fill="#000000" font-family="sans-serif" font-size="14" lengthAdjust="spacing" textLength="91" x="685" y="110.1426">RecipeService</text><rect fill="#E2E2F0" height="49.2188" rx="2.5" ry="2.5" style="stroke:#181818;stroke-width:0.5;" width="109" x="674" y="2074.1875"/><text fill="#000000" font-family="sans-serif" font-size="14" lengthAdjust="spacing" textLength="61" x="698" y="2095.7207">&#171;service&#187;</text><text fill="#000000" font-family="sans-serif" font-size="14" lengthAdjust="spacing" textLength="91" x="685" y="2113.3301">RecipeService</text><rect fill="#E2E2F0" height="49.2188" rx="2.5" ry="2.5" style="stroke:#181818;stroke-width:0.5;" width="94" x="967.5" y="71"/><text fill="#000000" font-family="sans-serif" font-size="14" lengthAdjust="spacing" textLength="80" x="974.5" y="92.5332">&#171;cordinator&#187;</text><text fill="#000000" font-family="sans-serif" font-size="14" lengthAdjust="spacing" textLength="60" x="986.5" y="110.1426">Rabbitmq</text><rect fill="#E2E2F0" height="49.2188" rx="2.5" ry="2.5" style="stroke:#181818;stroke-width:0.5;" width="94" x="967.5" y="2074.1875"/><text fill="#000000" font-family="sans-serif" font-size="14" lengthAdjust="spacing" textLength="80" x="974.5" y="2095.7207">&#171;cordinator&#187;</text><text fill="#000000" font-family="sans-serif" font-size="14" lengthAdjust="spacing" textLength="60" x="986.5" y="2113.3301">Rabbitmq</text><rect fill="#E2E2F0" height="49.2188" rx="2.5" ry="2.5" style="stroke:#181818;stroke-width:0.5;" width="132" x="1220.5" y="71"/><text fill="#000000" font-family="sans-serif" font-size="14" lengthAdjust="spacing" textLength="61" x="1256" y="92.5332">&#171;service&#187;</text><text fill="#000000" font-family="sans-serif" font-size="14" lengthAdjust="spacing" textLength="114" x="1231.5" y="110.1426">UploadFileService</text><rect fill="#E2E2F0" height="49.2188" rx="2.5" ry="2.5" style="stroke:#181818;stroke-width:0.5;" width="132" x="1220.5" y="2074.1875"/><text fill="#000000" font-family="sans-serif" font-size="14" lengthAdjust="spacing" textLength="61" x="1256" y="2095.7207">&#171;service&#187;</text><text fill="#000000" font-family="sans-serif" font-size="14" lengthAdjust="spacing" textLength="114" x="1231.5" y="2113.3301">UploadFileService</text><rect fill="#E2E2F0" height="49.2188" rx="2.5" ry="2.5" style="stroke:#181818;stroke-width:0.5;" width="86" x="1479.5" y="71"/><text fill="#000000" font-family="sans-serif" font-size="14" lengthAdjust="spacing" textLength="61" x="1492" y="92.5332">&#171;service&#187;</text><text fill="#000000" font-family="sans-serif" font-size="14" lengthAdjust="spacing" textLength="68" x="1490.5" y="110.1426">Cloudinary</text><rect fill="#E2E2F0" height="49.2188" rx="2.5" ry="2.5" style="stroke:#181818;stroke-width:0.5;" width="86" x="1479.5" y="2074.1875"/><text fill="#000000" font-family="sans-serif" font-size="14" lengthAdjust="spacing" textLength="61" x="1492" y="2095.7207">&#171;service&#187;</text><text fill="#000000" font-family="sans-serif" font-size="14" lengthAdjust="spacing" textLength="68" x="1490.5" y="2113.3301">Cloudinary</text><rect fill="#E2E2F0" height="49.2188" rx="2.5" ry="2.5" style="stroke:#181818;stroke-width:0.5;" width="108" x="1575.5" y="71"/><text fill="#000000" font-family="sans-serif" font-size="14" lengthAdjust="spacing" textLength="61" x="1599" y="92.5332">&#171;service&#187;</text><text fill="#000000" font-family="sans-serif" font-size="14" lengthAdjust="spacing" textLength="90" x="1586.5" y="110.1426">RecipeWorker</text><rect fill="#E2E2F0" height="49.2188" rx="2.5" ry="2.5" style="stroke:#181818;stroke-width:0.5;" width="108" x="1575.5" y="2074.1875"/><text fill="#000000" font-family="sans-serif" font-size="14" lengthAdjust="spacing" textLength="61" x="1599" y="2095.7207">&#171;service&#187;</text><text fill="#000000" font-family="sans-serif" font-size="14" lengthAdjust="spacing" textLength="90" x="1586.5" y="2113.3301">RecipeWorker</text><rect fill="#E2E2F0" height="49.2188" rx="2.5" ry="2.5" style="stroke:#181818;stroke-width:0.5;" width="88" x="1811.5" y="71"/><text fill="#000000" font-family="sans-serif" font-size="14" lengthAdjust="spacing" textLength="61" x="1825" y="92.5332">&#171;service&#187;</text><text fill="#000000" font-family="sans-serif" font-size="14" lengthAdjust="spacing" textLength="70" x="1822.5" y="110.1426">GerminiAPI</text><rect fill="#E2E2F0" height="49.2188" rx="2.5" ry="2.5" style="stroke:#181818;stroke-width:0.5;" width="88" x="1811.5" y="2074.1875"/><text fill="#000000" font-family="sans-serif" font-size="14" lengthAdjust="spacing" textLength="61" x="1825" y="2095.7207">&#171;service&#187;</text><text fill="#000000" font-family="sans-serif" font-size="14" lengthAdjust="spacing" textLength="70" x="1822.5" y="2113.3301">GerminiAPI</text><text fill="#000000" font-family="sans-serif" font-size="14" lengthAdjust="spacing" textLength="62" x="1909.5" y="118.1426">MongoDB</text><path d="M1925.5,67.6094 C1925.5,57.6094 1943.5,57.6094 1943.5,57.6094 C1943.5,57.6094 1961.5,57.6094 1961.5,67.6094 L1961.5,93.6094 C1961.5,103.6094 1943.5,103.6094 1943.5,103.6094 C1943.5,103.6094 1925.5,103.6094 1925.5,93.6094 L1925.5,67.6094 " fill="#E2E2F0" style="stroke:#181818;stroke-width:1.5;"/><path d="M1925.5,67.6094 C1925.5,77.6094 1943.5,77.6094 1943.5,77.6094 C1943.5,77.6094 1961.5,77.6094 1961.5,67.6094 " fill="none" style="stroke:#181818;stroke-width:1.5;"/><text fill="#000000" font-family="sans-serif" font-size="14" lengthAdjust="spacing" textLength="62" x="1909.5" y="2088.7207">MongoDB</text><path d="M1925.5,2101.7969 C1925.5,2091.7969 1943.5,2091.7969 1943.5,2091.7969 C1943.5,2091.7969 1961.5,2091.7969 1961.5,2101.7969 L1961.5,2127.7969 C1961.5,2137.7969 1943.5,2137.7969 1943.5,2137.7969 C1943.5,2137.7969 1925.5,2137.7969 1925.5,2127.7969 L1925.5,2101.7969 " fill="#E2E2F0" style="stroke:#181818;stroke-width:1.5;"/><path d="M1925.5,2101.7969 C1925.5,2111.7969 1943.5,2111.7969 1943.5,2111.7969 C1943.5,2111.7969 1961.5,2111.7969 1961.5,2101.7969 " fill="none" style="stroke:#181818;stroke-width:1.5;"/><rect fill="#FFFFFF" height="998.7188" style="stroke:#181818;stroke-width:1.0;" width="10" x="298.5" y="169.9219"/><rect fill="#FFFFFF" height="921.6641" style="stroke:#181818;stroke-width:1.0;" width="10" x="477.5" y="200.2734"/><rect fill="#FFFFFF" height="814.5156" style="stroke:#181818;stroke-width:1.0;" width="10" x="723.5" y="277.0703"/><rect fill="#FFFFFF" height="51.7031" style="stroke:#181818;stroke-width:1.0;" width="10" x="728.5" y="685.4766"/><rect fill="#FFFFFF" height="60.7031" style="stroke:#181818;stroke-width:1.0;" width="10" x="723.5" y="1437.8047"/><rect fill="#FFFFFF" height="91.0547" style="stroke:#181818;stroke-width:1.0;" width="10" x="723.5" y="1579.2109"/><rect fill="#FFFFFF" height="60.7031" style="stroke:#181818;stroke-width:1.0;" width="10" x="723.5" y="1789.0234"/><rect fill="#FFFFFF" height="60.7031" style="stroke:#181818;stroke-width:1.0;" width="10" x="723.5" y="1975.4844"/><rect fill="#FFFFFF" height="46.7031" style="stroke:#181818;stroke-width:1.0;" width="10" x="1009.5" y="737.1797"/><rect fill="#FFFFFF" height="46.7031" style="stroke:#181818;stroke-width:1.0;" width="10" x="1009.5" y="1014.5313"/><rect fill="#FFFFFF" height="76.7031" style="stroke:#181818;stroke-width:1.0;" width="10" x="1009.5" y="1361.1016"/><rect fill="#FFFFFF" height="46.7031" style="stroke:#181818;stroke-width:1.0;" width="10" x="1009.5" y="1742.3203"/><rect fill="#FFFFFF" height="46.7031" style="stroke:#181818;stroke-width:1.0;" width="10" x="1009.5" y="1928.7813"/><rect fill="#FFFFFF" height="253.6484" style="stroke:#181818;stroke-width:1.0;" width="10" x="1281.5" y="307.4219"/><rect fill="#FFFFFF" height="77.0547" style="stroke:#181818;stroke-width:1.0;" width="10" x="1281.5" y="783.8828"/><rect fill="#FFFFFF" height="30.3516" style="stroke:#181818;stroke-width:1.0;" width="10" x="1517.5" y="337.7734"/><rect fill="#FFFFFF" height="30.3516" style="stroke:#181818;stroke-width:1.0;" width="10" x="1517.5" y="830.5859"/><rect fill="#FFFFFF" height="989.9531" style="stroke:#181818;stroke-width:1.0;" width="10" x="1624.5" y="1061.2344"/><rect fill="#FFFFFF" height="167.7578" style="stroke:#181818;stroke-width:1.0;" width="10" x="1629.5" y="1223.3438"/><rect fill="#FFFFFF" height="507.3281" style="stroke:#181818;stroke-width:1.0;" width="10" x="1629.5" y="1543.8594"/><rect fill="#FFFFFF" height="30.3516" style="stroke:#181818;stroke-width:1.0;" width="10" x="1850.5" y="1258.6953"/><rect fill="#FFFFFF" height="30.3516" style="stroke:#181818;stroke-width:1.0;" width="10" x="1938.5" y="591.4219"/><rect fill="#FFFFFF" height="30.3516" style="stroke:#181818;stroke-width:1.0;" width="10" x="1938.5" y="1468.1563"/><rect fill="#FFFFFF" height="30.3516" style="stroke:#181818;stroke-width:1.0;" width="10" x="1938.5" y="1609.5625"/><rect fill="#FFFFFF" height="30.3516" style="stroke:#181818;stroke-width:1.0;" width="10" x="1938.5" y="1819.375"/><rect fill="#FFFFFF" height="30.3516" style="stroke:#181818;stroke-width:1.0;" width="10" x="1938.5" y="2005.8359"/><polygon fill="#181818" points="286.5,165.9219,296.5,169.9219,286.5,173.9219,290.5,169.9219" style="stroke:#181818;stroke-width:1.0;"/><line style="stroke:#181818;stroke-width:1.0;" x1="47.5" x2="292.5" y1="169.9219" y2="169.9219"/><text fill="#000000" font-family="sans-serif" font-size="13" lengthAdjust="spacing" textLength="190" x="54.5" y="148.7139">1. Fill the update recipe form and</text><text fill="#000000" font-family="sans-serif" font-size="13" lengthAdjust="spacing" textLength="117" x="58.5" y="165.0654">touch Update button</text><polygon fill="#181818" points="465.5,196.2734,475.5,200.2734,465.5,204.2734,469.5,200.2734" style="stroke:#181818;stroke-width:1.0;"/><line style="stroke:#181818;stroke-width:1.0;" x1="308.5" x2="471.5" y1="200.2734" y2="200.2734"/><text fill="#000000" font-family="sans-serif" font-size="13" lengthAdjust="spacing" textLength="95" x="315.5" y="195.417">2. Update recipe</text><rect fill="#FFFFFF" height="41.4453" style="stroke:#000000;stroke-width:1.5;" width="126" x="432.5" y="208.2734"/><path d="M432.5,208.2734 L494.5,208.2734 L494.5,216.2734 L484.5,226.2734 L432.5,226.2734 L432.5,208.2734 " fill="#EEEEEE" style="stroke:#000000;stroke-width:2.0;"/><text fill="#000000" font-family="sans-serif" font-size="13" font-weight="bold" lengthAdjust="spacing" textLength="17" x="445.5" y="223.7686">ref</text><text fill="#000000" font-family="sans-serif" font-size="12" lengthAdjust="spacing" textLength="118" x="436.5" y="242.7305">3. Verify access token</text><polygon fill="#181818" points="711.5,273.0703,721.5,277.0703,711.5,281.0703,715.5,277.0703" style="stroke:#181818;stroke-width:1.0;"/><line style="stroke:#181818;stroke-width:1.0;" x1="487.5" x2="717.5" y1="277.0703" y2="277.0703"/><text fill="#000000" font-family="sans-serif" font-size="13" lengthAdjust="spacing" textLength="108" x="494.5" y="272.2139">4. Forward request</text><polygon fill="#181818" points="1269.5,303.4219,1279.5,307.4219,1269.5,311.4219,1273.5,307.4219" style="stroke:#181818;stroke-width:1.0;"/><line style="stroke:#181818;stroke-width:1.0;" x1="733.5" x2="1275.5" y1="307.4219" y2="307.4219"/><text fill="#000000" font-family="sans-serif" font-size="13" lengthAdjust="spacing" textLength="276" x="740.5" y="302.5654">5. gRPC call to upload recipe's images &#171;gRPC&#187;</text><polygon fill="#181818" points="1505.5,333.7734,1515.5,337.7734,1505.5,341.7734,1509.5,337.7734" style="stroke:#181818;stroke-width:1.0;"/><line style="stroke:#181818;stroke-width:1.0;" x1="1291.5" x2="1511.5" y1="337.7734" y2="337.7734"/><text fill="#000000" font-family="sans-serif" font-size="13" lengthAdjust="spacing" textLength="172" x="1298.5" y="332.917">6. Upload image to cloudinary</text><polygon fill="#181818" points="1302.5,364.125,1292.5,368.125,1302.5,372.125,1298.5,368.125" style="stroke:#181818;stroke-width:1.0;"/><line style="stroke:#181818;stroke-width:1.0;stroke-dasharray:2.0,2.0;" x1="1296.5" x2="1521.5" y1="368.125" y2="368.125"/><text fill="#000000" font-family="sans-serif" font-size="13" lengthAdjust="spacing" textLength="110" x="1308.5" y="363.2686">7. Return response</text><path d="M10,383.125 L71,383.125 L71,391.4766 L61,401.4766 L10,401.4766 L10,383.125 " fill="#EEEEEE" style="stroke:#000000;stroke-width:1.5;"/><rect fill="none" height="1675.0625" style="stroke:#000000;stroke-width:1.5;" width="1997.5" x="10" y="383.125"/><text fill="#000000" font-family="sans-serif" font-size="13" font-weight="bold" lengthAdjust="spacing" textLength="16" x="25" y="397.6201">alt</text><text fill="#000000" font-family="sans-serif" font-size="11" font-weight="bold" lengthAdjust="spacing" textLength="138" x="86" y="396.5439">[Upload to cloudinary fail]</text><polygon fill="#181818" points="744.5,419.8281,734.5,423.8281,744.5,427.8281,740.5,423.8281" style="stroke:#181818;stroke-width:1.0;"/><line style="stroke:#181818;stroke-width:1.0;stroke-dasharray:2.0,2.0;" x1="738.5" x2="1280.5" y1="423.8281" y2="423.8281"/><text fill="#000000" font-family="sans-serif" font-size="13" lengthAdjust="spacing" textLength="193" x="750.5" y="418.9717">8A. Return upload image fail error</text><polygon fill="#181818" points="498.5,450.1797,488.5,454.1797,498.5,458.1797,494.5,454.1797" style="stroke:#181818;stroke-width:1.0;"/><line style="stroke:#181818;stroke-width:1.0;stroke-dasharray:2.0,2.0;" x1="492.5" x2="722.5" y1="454.1797" y2="454.1797"/><text fill="#000000" font-family="sans-serif" font-size="13" lengthAdjust="spacing" textLength="204" x="504.5" y="449.3232">8A.1. Return upload image fail error</text><polygon fill="#181818" points="319.5,480.5313,309.5,484.5313,319.5,488.5313,315.5,484.5313" style="stroke:#181818;stroke-width:1.0;"/><line style="stroke:#181818;stroke-width:1.0;stroke-dasharray:2.0,2.0;" x1="313.5" x2="476.5" y1="484.5313" y2="484.5313"/><text fill="#000000" font-family="sans-serif" font-size="13" lengthAdjust="spacing" textLength="138" x="325.5" y="479.6748">8A.2. Forward response</text><polygon fill="#181818" points="58.5,510.8828,48.5,514.8828,58.5,518.8828,54.5,514.8828" style="stroke:#181818;stroke-width:1.0;"/><line style="stroke:#181818;stroke-width:1.0;stroke-dasharray:2.0,2.0;" x1="52.5" x2="297.5" y1="514.8828" y2="514.8828"/><text fill="#000000" font-family="sans-serif" font-size="13" lengthAdjust="spacing" textLength="209" x="64.5" y="510.0264">8A.3. Display upload image fail error</text><line style="stroke:#000000;stroke-width:1.0;stroke-dasharray:2.0,2.0;" x1="10" x2="2007.5" y1="523.8828" y2="523.8828"/><text fill="#000000" font-family="sans-serif" font-size="11" font-weight="bold" lengthAdjust="spacing" textLength="169" x="15" y="535.3018">[Upload to cloudinary success]</text><polygon fill="#181818" points="744.5,557.0703,734.5,561.0703,744.5,565.0703,740.5,561.0703" style="stroke:#181818;stroke-width:1.0;"/><line style="stroke:#181818;stroke-width:1.0;stroke-dasharray:2.0,2.0;" x1="738.5" x2="1285.5" y1="561.0703" y2="561.0703"/><text fill="#000000" font-family="sans-serif" font-size="13" lengthAdjust="spacing" textLength="238" x="750.5" y="556.2139">9. Return recipe's image urls list &#171;gRPC&#187;</text><polygon fill="#181818" points="1926.5,587.4219,1936.5,591.4219,1926.5,595.4219,1930.5,591.4219" style="stroke:#181818;stroke-width:1.0;"/><line style="stroke:#181818;stroke-width:1.0;" x1="733.5" x2="1932.5" y1="591.4219" y2="591.4219"/><text fill="#000000" font-family="sans-serif" font-size="13" lengthAdjust="spacing" textLength="92" x="740.5" y="586.5654">10. Update data</text><polygon fill="#181818" points="744.5,617.7734,734.5,621.7734,744.5,625.7734,740.5,621.7734" style="stroke:#181818;stroke-width:1.0;"/><line style="stroke:#181818;stroke-width:1.0;stroke-dasharray:2.0,2.0;" x1="738.5" x2="1942.5" y1="621.7734" y2="621.7734"/><text fill="#000000" font-family="sans-serif" font-size="13" lengthAdjust="spacing" textLength="117" x="750.5" y="616.917">11. Return response</text><path d="M20,636.7734 L81,636.7734 L81,645.125 L71,655.125 L20,655.125 L20,636.7734 " fill="#EEEEEE" style="stroke:#000000;stroke-width:1.5;"/><rect fill="none" height="1414.4141" style="stroke:#000000;stroke-width:1.5;" width="1977.5" x="20" y="636.7734"/><text fill="#000000" font-family="sans-serif" font-size="13" font-weight="bold" lengthAdjust="spacing" textLength="16" x="35" y="651.2686">alt</text><text fill="#000000" font-family="sans-serif" font-size="11" font-weight="bold" lengthAdjust="spacing" textLength="170" x="96" y="650.1924">[Update recipe to database fail]</text><line style="stroke:#181818;stroke-width:1.0;" x1="733.5" x2="780.5" y1="672.4766" y2="672.4766"/><line style="stroke:#181818;stroke-width:1.0;" x1="780.5" x2="780.5" y1="672.4766" y2="685.4766"/><line style="stroke:#181818;stroke-width:1.0;" x1="739.5" x2="780.5" y1="685.4766" y2="685.4766"/><polygon fill="#181818" points="749.5,681.4766,739.5,685.4766,749.5,689.4766,745.5,685.4766" style="stroke:#181818;stroke-width:1.0;"/><text fill="#000000" font-family="sans-serif" font-size="13" lengthAdjust="spacing" textLength="131" x="745.5" y="667.6201">12A. Roll back images</text><polygon fill="#181818" points="997.5,733.1797,1007.5,737.1797,997.5,741.1797,1001.5,737.1797" style="stroke:#181818;stroke-width:1.0;"/><line style="stroke:#181818;stroke-width:1.0;" x1="733.5" x2="1003.5" y1="737.1797" y2="737.1797"/><text fill="#000000" font-family="sans-serif" font-size="13" lengthAdjust="spacing" textLength="248" x="740.5" y="715.9717">12A.1. Publish "DeleteMultipleImageEvent"</text><text fill="#000000" font-family="sans-serif" font-size="13" lengthAdjust="spacing" textLength="108" x="744.5" y="732.3232">message &#171;Async&#187;</text><polygon fill="#181818" points="1269.5,779.8828,1279.5,783.8828,1269.5,787.8828,1273.5,783.8828" style="stroke:#181818;stroke-width:1.0;"/><line style="stroke:#181818;stroke-width:1.0;" x1="1014.5" x2="1275.5" y1="783.8828" y2="783.8828"/><text fill="#000000" font-family="sans-serif" font-size="13" lengthAdjust="spacing" textLength="243" x="1021.5" y="762.6748">12A.2. Deliver "DeleteMultipleImageEvent"</text><text fill="#000000" font-family="sans-serif" font-size="13" lengthAdjust="spacing" textLength="53" x="1025.5" y="779.0264">message</text><polygon fill="#181818" points="1505.5,826.5859,1515.5,830.5859,1505.5,834.5859,1509.5,830.5859" style="stroke:#181818;stroke-width:1.0;"/><line style="stroke:#181818;stroke-width:1.0;" x1="1291.5" x2="1511.5" y1="830.5859" y2="830.5859"/><text fill="#000000" font-family="sans-serif" font-size="13" lengthAdjust="spacing" textLength="203" x="1298.5" y="809.3779">12A.3. Consume message and call</text><text fill="#000000" font-family="sans-serif" font-size="13" lengthAdjust="spacing" textLength="159" x="1302.5" y="825.7295">cloudinary to delete images</text><polygon fill="#181818" points="1297.5,856.9375,1287.5,860.9375,1297.5,864.9375,1293.5,860.9375" style="stroke:#181818;stroke-width:1.0;"/><line style="stroke:#181818;stroke-width:1.0;stroke-dasharray:2.0,2.0;" x1="1291.5" x2="1521.5" y1="860.9375" y2="860.9375"/><text fill="#000000" font-family="sans-serif" font-size="13" lengthAdjust="spacing" textLength="137" x="1303.5" y="856.0811">12A.4. Return response</text><line style="stroke:#A80036;stroke-width:2.0;" x1="1277.5" x2="1295.5" y1="851.9375" y2="869.9375"/><line style="stroke:#A80036;stroke-width:2.0;" x1="1277.5" x2="1295.5" y1="869.9375" y2="851.9375"/><polygon fill="#181818" points="498.5,887.2891,488.5,891.2891,498.5,895.2891,494.5,891.2891" style="stroke:#181818;stroke-width:1.0;"/><line style="stroke:#181818;stroke-width:1.0;stroke-dasharray:2.0,2.0;" x1="492.5" x2="722.5" y1="891.2891" y2="891.2891"/><text fill="#000000" font-family="sans-serif" font-size="13" lengthAdjust="spacing" textLength="212" x="504.5" y="886.4326">12A.5. Return update recipe fail error</text><polygon fill="#181818" points="319.5,917.6406,309.5,921.6406,319.5,925.6406,315.5,921.6406" style="stroke:#181818;stroke-width:1.0;"/><line style="stroke:#181818;stroke-width:1.0;stroke-dasharray:2.0,2.0;" x1="313.5" x2="476.5" y1="921.6406" y2="921.6406"/><text fill="#000000" font-family="sans-serif" font-size="13" lengthAdjust="spacing" textLength="145" x="325.5" y="916.7842">12A.6. Forward response</text><polygon fill="#181818" points="58.5,947.9922,48.5,951.9922,58.5,955.9922,54.5,951.9922" style="stroke:#181818;stroke-width:1.0;"/><line style="stroke:#181818;stroke-width:1.0;stroke-dasharray:2.0,2.0;" x1="52.5" x2="297.5" y1="951.9922" y2="951.9922"/><text fill="#000000" font-family="sans-serif" font-size="13" lengthAdjust="spacing" textLength="221" x="64.5" y="947.1357">12A.7. Display update recipe fail error.</text><line style="stroke:#000000;stroke-width:1.0;stroke-dasharray:2.0,2.0;" x1="20" x2="1997.5" y1="960.9922" y2="960.9922"/><text fill="#000000" font-family="sans-serif" font-size="11" font-weight="bold" lengthAdjust="spacing" textLength="201" x="25" y="972.4111">[Update recipe to database success]</text><polygon fill="#181818" points="997.5,1010.5313,1007.5,1014.5313,997.5,1018.5313,1001.5,1014.5313" style="stroke:#181818;stroke-width:1.0;"/><line style="stroke:#181818;stroke-width:1.0;" x1="733.5" x2="1003.5" y1="1014.5313" y2="1014.5313"/><text fill="#000000" font-family="sans-serif" font-size="13" lengthAdjust="spacing" textLength="198" x="740.5" y="993.3232">18. Publish "ValidateRecipeEvent"</text><text fill="#000000" font-family="sans-serif" font-size="13" lengthAdjust="spacing" textLength="108" x="744.5" y="1009.6748">message &#171;Async&#187;</text><polygon fill="#181818" points="1612.5,1057.2344,1622.5,1061.2344,1612.5,1065.2344,1616.5,1061.2344" style="stroke:#181818;stroke-width:1.0;"/><line style="stroke:#181818;stroke-width:1.0;" x1="1014.5" x2="1618.5" y1="1061.2344" y2="1061.2344"/><text fill="#000000" font-family="sans-serif" font-size="13" lengthAdjust="spacing" textLength="193" x="1021.5" y="1040.0264">19. Deliver "ValidateRecipeEvent"</text><text fill="#000000" font-family="sans-serif" font-size="13" lengthAdjust="spacing" textLength="53" x="1025.5" y="1056.3779">message</text><polygon fill="#181818" points="498.5,1087.5859,488.5,1091.5859,498.5,1095.5859,494.5,1091.5859" style="stroke:#181818;stroke-width:1.0;"/><line style="stroke:#181818;stroke-width:1.0;stroke-dasharray:2.0,2.0;" x1="492.5" x2="727.5" y1="1091.5859" y2="1091.5859"/><text fill="#000000" font-family="sans-serif" font-size="13" lengthAdjust="spacing" textLength="195" x="504.5" y="1086.7295">20. Retrun update recipe success</text><polygon fill="#181818" points="319.5,1117.9375,309.5,1121.9375,319.5,1125.9375,315.5,1121.9375" style="stroke:#181818;stroke-width:1.0;"/><line style="stroke:#181818;stroke-width:1.0;stroke-dasharray:2.0,2.0;" x1="313.5" x2="481.5" y1="1121.9375" y2="1121.9375"/><text fill="#000000" font-family="sans-serif" font-size="13" lengthAdjust="spacing" textLength="125" x="325.5" y="1117.0811">21. Forward response</text><polygon fill="#181818" points="58.5,1164.6406,48.5,1168.6406,58.5,1172.6406,54.5,1168.6406" style="stroke:#181818;stroke-width:1.0;"/><line style="stroke:#181818;stroke-width:1.0;stroke-dasharray:2.0,2.0;" x1="52.5" x2="302.5" y1="1168.6406" y2="1168.6406"/><text fill="#000000" font-family="sans-serif" font-size="13" lengthAdjust="spacing" textLength="200" x="64.5" y="1147.4326">22. Display update recipe success</text><text fill="#000000" font-family="sans-serif" font-size="13" lengthAdjust="spacing" textLength="223" x="68.5" y="1163.7842">and redirect user to community screen</text><line style="stroke:#181818;stroke-width:1.0;" x1="1634.5" x2="1681.5" y1="1210.3438" y2="1210.3438"/><line style="stroke:#181818;stroke-width:1.0;" x1="1681.5" x2="1681.5" y1="1210.3438" y2="1223.3438"/><line style="stroke:#181818;stroke-width:1.0;" x1="1640.5" x2="1681.5" y1="1223.3438" y2="1223.3438"/><polygon fill="#181818" points="1650.5,1219.3438,1640.5,1223.3438,1650.5,1227.3438,1646.5,1223.3438" style="stroke:#181818;stroke-width:1.0;"/><text fill="#000000" font-family="sans-serif" font-size="13" lengthAdjust="spacing" textLength="183" x="1646.5" y="1189.1357">23. Consume message and call</text><text fill="#000000" font-family="sans-serif" font-size="13" lengthAdjust="spacing" textLength="163" x="1650.5" y="1205.4873">CheckRecipeAbuse function</text><polygon fill="#181818" points="1838.5,1254.6953,1848.5,1258.6953,1838.5,1262.6953,1842.5,1258.6953" style="stroke:#181818;stroke-width:1.0;"/><line style="stroke:#181818;stroke-width:1.0;" x1="1639.5" x2="1844.5" y1="1258.6953" y2="1258.6953"/><text fill="#000000" font-family="sans-serif" font-size="13" lengthAdjust="spacing" textLength="162" x="1646.5" y="1253.8389">24. Call API to check abuse</text><polygon fill="#181818" points="1650.5,1285.0469,1640.5,1289.0469,1650.5,1293.0469,1646.5,1289.0469" style="stroke:#181818;stroke-width:1.0;"/><line style="stroke:#181818;stroke-width:1.0;stroke-dasharray:2.0,2.0;" x1="1644.5" x2="1854.5" y1="1289.0469" y2="1289.0469"/><text fill="#000000" font-family="sans-serif" font-size="13" lengthAdjust="spacing" textLength="117" x="1656.5" y="1284.1904">25. Return response</text><path d="M664,1304.0469 L729,1304.0469 L729,1312.3984 L719,1322.3984 L664,1322.3984 L664,1304.0469 " fill="#EEEEEE" style="stroke:#000000;stroke-width:1.5;"/><rect fill="none" height="202.4609" style="stroke:#000000;stroke-width:1.5;" width="1323.5" x="664" y="1304.0469"/><text fill="#000000" font-family="sans-serif" font-size="13" font-weight="bold" lengthAdjust="spacing" textLength="20" x="679" y="1318.542">opt</text><text fill="#000000" font-family="sans-serif" font-size="11" font-weight="bold" lengthAdjust="spacing" textLength="144" x="744" y="1317.4658">[recipe has abusive word]</text><polygon fill="#181818" points="1030.5,1357.1016,1020.5,1361.1016,1030.5,1365.1016,1026.5,1361.1016" style="stroke:#181818;stroke-width:1.0;"/><line style="stroke:#181818;stroke-width:1.0;" x1="1024.5" x2="1628.5" y1="1361.1016" y2="1361.1016"/><text fill="#000000" font-family="sans-serif" font-size="13" lengthAdjust="spacing" textLength="205" x="1036.5" y="1339.8936">26A. Publish "AbusiveRecipeEvent"</text><text fill="#000000" font-family="sans-serif" font-size="13" lengthAdjust="spacing" textLength="108" x="1040.5" y="1356.2451">message &#171;Async&#187;</text><polygon fill="#181818" points="744.5,1433.8047,734.5,1437.8047,744.5,1441.8047,740.5,1437.8047" style="stroke:#181818;stroke-width:1.0;"/><line style="stroke:#181818;stroke-width:1.0;" x1="738.5" x2="1013.5" y1="1437.8047" y2="1437.8047"/><text fill="#000000" font-family="sans-serif" font-size="13" lengthAdjust="spacing" textLength="211" x="750.5" y="1416.5967">26A.1. Deliver "AbusiveRecipeEvent"</text><text fill="#000000" font-family="sans-serif" font-size="13" lengthAdjust="spacing" textLength="53" x="754.5" y="1432.9482">message</text><polygon fill="#181818" points="1926.5,1464.1563,1936.5,1468.1563,1926.5,1472.1563,1930.5,1468.1563" style="stroke:#181818;stroke-width:1.0;"/><line style="stroke:#181818;stroke-width:1.0;" x1="733.5" x2="1932.5" y1="1468.1563" y2="1468.1563"/><text fill="#000000" font-family="sans-serif" font-size="13" lengthAdjust="spacing" textLength="251" x="740.5" y="1463.2998">26A.2. Consume message and update data</text><polygon fill="#181818" points="739.5,1494.5078,729.5,1498.5078,739.5,1502.5078,735.5,1498.5078" style="stroke:#181818;stroke-width:1.0;"/><line style="stroke:#181818;stroke-width:1.0;stroke-dasharray:2.0,2.0;" x1="733.5" x2="1942.5" y1="1498.5078" y2="1498.5078"/><text fill="#000000" font-family="sans-serif" font-size="13" lengthAdjust="spacing" textLength="137" x="745.5" y="1493.6514">26A.3. Return response</text><line style="stroke:#A80036;stroke-width:2.0;" x1="719.5" x2="737.5" y1="1489.5078" y2="1507.5078"/><line style="stroke:#A80036;stroke-width:2.0;" x1="719.5" x2="737.5" y1="1507.5078" y2="1489.5078"/><line style="stroke:#181818;stroke-width:1.0;" x1="1634.5" x2="1681.5" y1="1530.8594" y2="1530.8594"/><line style="stroke:#181818;stroke-width:1.0;" x1="1681.5" x2="1681.5" y1="1530.8594" y2="1543.8594"/><line style="stroke:#181818;stroke-width:1.0;" x1="1640.5" x2="1681.5" y1="1543.8594" y2="1543.8594"/><polygon fill="#181818" points="1650.5,1539.8594,1640.5,1543.8594,1650.5,1547.8594,1646.5,1543.8594" style="stroke:#181818;stroke-width:1.0;"/><text fill="#000000" font-family="sans-serif" font-size="13" lengthAdjust="spacing" textLength="202" x="1646.5" y="1526.0029">27. Call CheckRecipeTags function</text><polygon fill="#181818" points="744.5,1575.2109,734.5,1579.2109,744.5,1583.2109,740.5,1579.2109" style="stroke:#181818;stroke-width:1.0;"/><line style="stroke:#181818;stroke-width:1.0;" x1="738.5" x2="1628.5" y1="1579.2109" y2="1579.2109"/><text fill="#000000" font-family="sans-serif" font-size="13" lengthAdjust="spacing" textLength="198" x="750.5" y="1574.3545">28. gRPC call to get tags &#171;gRPC&#187;</text><polygon fill="#181818" points="1926.5,1605.5625,1936.5,1609.5625,1926.5,1613.5625,1930.5,1609.5625" style="stroke:#181818;stroke-width:1.0;"/><line style="stroke:#181818;stroke-width:1.0;" x1="733.5" x2="1932.5" y1="1609.5625" y2="1609.5625"/><text fill="#000000" font-family="sans-serif" font-size="13" lengthAdjust="spacing" textLength="86" x="740.5" y="1604.7061">29. Query data</text><polygon fill="#181818" points="744.5,1635.9141,734.5,1639.9141,744.5,1643.9141,740.5,1639.9141" style="stroke:#181818;stroke-width:1.0;"/><line style="stroke:#181818;stroke-width:1.0;stroke-dasharray:2.0,2.0;" x1="738.5" x2="1942.5" y1="1639.9141" y2="1639.9141"/><text fill="#000000" font-family="sans-serif" font-size="13" lengthAdjust="spacing" textLength="110" x="750.5" y="1635.0576">30. Return tags list</text><polygon fill="#181818" points="1617.5,1666.2656,1627.5,1670.2656,1617.5,1674.2656,1621.5,1670.2656" style="stroke:#181818;stroke-width:1.0;"/><line style="stroke:#181818;stroke-width:1.0;stroke-dasharray:2.0,2.0;" x1="728.5" x2="1623.5" y1="1670.2656" y2="1670.2656"/><text fill="#000000" font-family="sans-serif" font-size="13" lengthAdjust="spacing" textLength="162" x="735.5" y="1665.4092">31. Return tags list &#171;gRPC&#187;</text><path d="M664,1685.2656 L729,1685.2656 L729,1693.6172 L719,1703.6172 L664,1703.6172 L664,1685.2656 " fill="#EEEEEE" style="stroke:#000000;stroke-width:1.5;"/><rect fill="none" height="172.4609" style="stroke:#000000;stroke-width:1.5;" width="1323.5" x="664" y="1685.2656"/><text fill="#000000" font-family="sans-serif" font-size="13" font-weight="bold" lengthAdjust="spacing" textLength="20" x="679" y="1699.7607">opt</text><text fill="#000000" font-family="sans-serif" font-size="11" font-weight="bold" lengthAdjust="spacing" textLength="203" x="744" y="1698.6846">[recipe has tags existed in database]</text><polygon fill="#181818" points="1030.5,1738.3203,1020.5,1742.3203,1030.5,1746.3203,1026.5,1742.3203" style="stroke:#181818;stroke-width:1.0;"/><line style="stroke:#181818;stroke-width:1.0;" x1="1024.5" x2="1628.5" y1="1742.3203" y2="1742.3203"/><text fill="#000000" font-family="sans-serif" font-size="13" lengthAdjust="spacing" textLength="218" x="1036.5" y="1721.1123">32A. Publish "AddTagToRecipeEvent"</text><text fill="#000000" font-family="sans-serif" font-size="13" lengthAdjust="spacing" textLength="108" x="1040.5" y="1737.4639">message &#171;Async&#187;</text><polygon fill="#181818" points="744.5,1785.0234,734.5,1789.0234,744.5,1793.0234,740.5,1789.0234" style="stroke:#181818;stroke-width:1.0;"/><line style="stroke:#181818;stroke-width:1.0;" x1="738.5" x2="1013.5" y1="1789.0234" y2="1789.0234"/><text fill="#000000" font-family="sans-serif" font-size="13" lengthAdjust="spacing" textLength="224" x="750.5" y="1767.8154">32A.1. Deliver "AddTagToRecipeEvent"</text><text fill="#000000" font-family="sans-serif" font-size="13" lengthAdjust="spacing" textLength="53" x="754.5" y="1784.167">message</text><polygon fill="#181818" points="1926.5,1815.375,1936.5,1819.375,1926.5,1823.375,1930.5,1819.375" style="stroke:#181818;stroke-width:1.0;"/><line style="stroke:#181818;stroke-width:1.0;" x1="733.5" x2="1932.5" y1="1819.375" y2="1819.375"/><text fill="#000000" font-family="sans-serif" font-size="13" lengthAdjust="spacing" textLength="251" x="740.5" y="1814.5186">32A.2. Consume message and update data</text><polygon fill="#181818" points="739.5,1845.7266,729.5,1849.7266,739.5,1853.7266,735.5,1849.7266" style="stroke:#181818;stroke-width:1.0;"/><line style="stroke:#181818;stroke-width:1.0;stroke-dasharray:2.0,2.0;" x1="733.5" x2="1942.5" y1="1849.7266" y2="1849.7266"/><text fill="#000000" font-family="sans-serif" font-size="13" lengthAdjust="spacing" textLength="137" x="745.5" y="1844.8701">32A.3. Return response</text><line style="stroke:#A80036;stroke-width:2.0;" x1="719.5" x2="737.5" y1="1840.7266" y2="1858.7266"/><line style="stroke:#A80036;stroke-width:2.0;" x1="719.5" x2="737.5" y1="1858.7266" y2="1840.7266"/><path d="M664,1871.7266 L729,1871.7266 L729,1880.0781 L719,1890.0781 L664,1890.0781 L664,1871.7266 " fill="#EEEEEE" style="stroke:#000000;stroke-width:1.5;"/><rect fill="none" height="172.4609" style="stroke:#000000;stroke-width:1.5;" width="1323.5" x="664" y="1871.7266"/><text fill="#000000" font-family="sans-serif" font-size="13" font-weight="bold" lengthAdjust="spacing" textLength="20" x="679" y="1886.2217">opt</text><text fill="#000000" font-family="sans-serif" font-size="11" font-weight="bold" lengthAdjust="spacing" textLength="224" x="744" y="1885.1455">[recipe has tags not existed in database]</text><polygon fill="#181818" points="1030.5,1924.7813,1020.5,1928.7813,1030.5,1932.7813,1026.5,1928.7813" style="stroke:#181818;stroke-width:1.0;"/><line style="stroke:#181818;stroke-width:1.0;" x1="1024.5" x2="1628.5" y1="1928.7813" y2="1928.7813"/><text fill="#000000" font-family="sans-serif" font-size="13" lengthAdjust="spacing" textLength="212" x="1036.5" y="1907.5732">33A. Publish "RequestAddTagEvent"</text><text fill="#000000" font-family="sans-serif" font-size="13" lengthAdjust="spacing" textLength="108" x="1040.5" y="1923.9248">message &#171;Async&#187;</text><polygon fill="#181818" points="744.5,1971.4844,734.5,1975.4844,744.5,1979.4844,740.5,1975.4844" style="stroke:#181818;stroke-width:1.0;"/><line style="stroke:#181818;stroke-width:1.0;" x1="738.5" x2="1013.5" y1="1975.4844" y2="1975.4844"/><text fill="#000000" font-family="sans-serif" font-size="13" lengthAdjust="spacing" textLength="218" x="750.5" y="1954.2764">33A.1. Deliver "RequestAddTagEvent"</text><text fill="#000000" font-family="sans-serif" font-size="13" lengthAdjust="spacing" textLength="53" x="754.5" y="1970.6279">message</text><polygon fill="#181818" points="1926.5,2001.8359,1936.5,2005.8359,1926.5,2009.8359,1930.5,2005.8359" style="stroke:#181818;stroke-width:1.0;"/><line style="stroke:#181818;stroke-width:1.0;" x1="733.5" x2="1932.5" y1="2005.8359" y2="2005.8359"/><text fill="#000000" font-family="sans-serif" font-size="13" lengthAdjust="spacing" textLength="244" x="740.5" y="2000.9795">33A.2. Consume message and insert data</text><polygon fill="#181818" points="739.5,2032.1875,729.5,2036.1875,739.5,2040.1875,735.5,2036.1875" style="stroke:#181818;stroke-width:1.0;"/><line style="stroke:#181818;stroke-width:1.0;stroke-dasharray:2.0,2.0;" x1="733.5" x2="1942.5" y1="2036.1875" y2="2036.1875"/><text fill="#000000" font-family="sans-serif" font-size="13" lengthAdjust="spacing" textLength="137" x="745.5" y="2031.3311">33A.3. Return response</text><line style="stroke:#A80036;stroke-width:2.0;" x1="719.5" x2="737.5" y1="2027.1875" y2="2045.1875"/><line style="stroke:#A80036;stroke-width:2.0;" x1="719.5" x2="737.5" y1="2045.1875" y2="2027.1875"/><!--SRC=[nLTDRzj64BtpLmnqoI6mQf7nHmn1W2AtXWy1N2TEBxsioBMqCCLLbhjsXIB_lJDBYboIIubkWzeNW-JEcw_tPaTQw9J3w66RCCr1yLXi-IXu1r_q3j_dFDP2Pi4qfyTP0FZck-5PpAy5MocsWR_n7Q3T8rVqkdm6-CJYfnibJPOiP2eLlAo5vlRRZ-17CFsb10nOhF7hGyvLiAJJJEtWiroAb3_SGh1bIWiCYMKQHjDfB5KYCeOMizcVsNmhRZ3e5xOR0SkXVcoR8VYpY3dPmBtDy4lnnjertXps2FTikHHwyxqmB1yEkNlOff8bls4whilEsqCGYrGQYa4LQTQFnzFyGwedhfmiYnU736-useXCpEzkhLdz6211s9Bb7DkJhUJrfo2Whi79hEhN-_TNC1a3vfM2NdCmBgdWKQeDi2m1zAAbYTTGacvfj4QE1LNR4R9k9e66OsWGD0YGS22VqNrzy0gYCNpZIZpkWCKnptDqyyGHk3v3q8r-4_e735cg5wOIX4Tsvpe86eV8gjCoiZmRm-h-RW4neumb9ao7oY3VvI0sRCLpc4xfr6mMT408kMueGPwFIrU5CQ76TSUx0DEJ4mVXvEGABiQOeZOgmpZohSnoB1TBzHws0GYFJAHMbSs42RNZwmekvnMsSOCa5E1AIMMnd7eJK0FQWam6mLHy812tpuWGkZqhioGRIqawlpUsfv4OroBVfXXGdqEU8hEz9SfDGQQXPQ8UV7Hwu781Z4fpI4MkQr9qOQsahCQieauhzfC4Uy8e3SZvPD9b01aL970bYObMggwOu8sdrSD9I4oGoFebplcIvvKrpdJnJ6wQexKVl1oa1Iv6VsUMMACrZAvvoZN_R58jjYc_9JU_FlDCZsY8RB0hLDFfT9xlihWi9Vqb_4W8zUVz3A-2ArzuDLy4YDp3k0HDd_u0w_YyKRNTLb-wLyF-o83XGT4XrnVOShFXLO5ewDeHXK4vnARks_3R_HioPSZL1p_FYbnphUJkG3fEDVeF7Pua5CEPCqeQjqrpbXoS9uHptZDGUeOAcLouKyNlUsmnojdIfxnom1pNXstnfIEFRomLX5fO3566Iszt9K3WZmwjVS3_bj6DpMD8OubUuQdjgpBjlhQBrTDKYp5vJK-jHTZNqj8jre34f7WYy8C6GoXqNSZDncH2usqHAquxHxEPHVRTeeT7rBfOy_YfC9al3KrfanKR-R0ojxtNwvnTgr302_A4ppOByWQC7FaHg5urXAtOcMVRsDlAhTxNRusx904ZlU05T-hgZBT63j_3yxb3-7a1CPpltjkWLII_BgefGn5C76ruOl18uvWy1joJnnO32YpqyyUqzWK_N6jl8BoeVwIxOxq_uADNByVma1Z356BJl2XPweZXArlbNItuaPnzFRniBUmhha4JLcCRErfu79M_6uvNQAF01uiRdLQLjGvf1-mNMMSUHfEkUJVebk3iIVuN7kMuyMRLZJDOV57O45-IODs_ojUfxu2oeh2bB8-3jv5M5FvSQKNXcqZBnuTCwl_6YSZbn7tnWxdetC-WHDIaX0V_ZHWHzJ92O2kLVYqZel-J4KElmaFV2Gj_GWRx__y0]--></g></svg>