<?xml version="1.0" encoding="us-ascii" standalone="no"?><svg xmlns="http://www.w3.org/2000/svg" xmlns:xlink="http://www.w3.org/1999/xlink" contentStyleType="text/css" height="1418px" preserveAspectRatio="none" style="width:2061px;height:1418px;background:#FFFFFF;" version="1.1" viewBox="0 0 2061 1418" width="2061px" zoomAndPan="magnify"><defs/><g><!--class BaseApiController--><g id="elem_BaseApiController"><rect codeLine="4" fill="#F1F1F1" height="78.8281" id="BaseApiController" rx="2.5" ry="2.5" style="stroke:#181818;stroke-width:0.5;" width="297" x="7" y="224.5"/><text fill="#000000" font-family="sans-serif" font-size="14" lengthAdjust="spacing" textLength="114" x="98.5" y="244.0332">BaseApiController</text><line style="stroke:#181818;stroke-width:0.5;" x1="8" x2="303" y1="252.1094" y2="252.1094"/><text fill="#000000" font-family="sans-serif" font-size="14" lengthAdjust="spacing" textLength="117" x="13" y="270.6426">#_sender: ISender</text><text fill="#000000" font-family="sans-serif" font-size="14" lengthAdjust="spacing" textLength="285" x="13" y="288.252">#_httpContextAccessor: HttpContextAccessor</text><line style="stroke:#181818;stroke-width:0.5;" x1="8" x2="303" y1="295.3281" y2="295.3281"/></g><!--class RecipeController--><g id="elem_RecipeController"><rect codeLine="9" fill="#F1F1F1" height="61.2188" id="RecipeController" rx="2.5" ry="2.5" style="stroke:#181818;stroke-width:0.5;" width="662" x="77.5" y="24.5"/><text fill="#000000" font-family="sans-serif" font-size="14" lengthAdjust="spacing" textLength="106" x="355.5" y="44.0332">RecipeController</text><line style="stroke:#181818;stroke-width:0.5;" x1="78.5" x2="738.5" y1="52.1094" y2="52.1094"/><line style="stroke:#181818;stroke-width:0.5;" x1="78.5" x2="738.5" y1="60.1094" y2="60.1094"/><text fill="#000000" font-family="sans-serif" font-size="14" lengthAdjust="spacing" textLength="650" x="83.5" y="78.6426">+GetRecipeDetails([FromBody] GetRecipeDetailDTO getRecipeDetailDTO): async Task&lt;IActionResult&gt;</text></g><!--class GetRecipeDetailQuery--><g id="elem_GetRecipeDetailQuery"><rect codeLine="13" fill="#F1F1F1" height="78.8281" id="GetRecipeDetailQuery" rx="2.5" ry="2.5" style="stroke:#181818;stroke-width:0.5;" width="148" x="513.5" y="224.5"/><text fill="#000000" font-family="sans-serif" font-size="14" lengthAdjust="spacing" textLength="142" x="516.5" y="244.0332">GetRecipeDetailQuery</text><line style="stroke:#181818;stroke-width:0.5;" x1="514.5" x2="660.5" y1="252.1094" y2="252.1094"/><text fill="#000000" font-family="sans-serif" font-size="14" lengthAdjust="spacing" textLength="101" x="519.5" y="270.6426">+RecipeId: Guid</text><text fill="#000000" font-family="sans-serif" font-size="14" lengthAdjust="spacing" textLength="108" x="519.5" y="288.252">+AccountId: Guid</text><line style="stroke:#181818;stroke-width:0.5;" x1="514.5" x2="660.5" y1="295.3281" y2="295.3281"/></g><!--class GetRecipeDetailQueryHandler--><g id="elem_GetRecipeDetailQueryHandler"><rect codeLine="18" fill="#F1F1F1" height="96.4375" id="GetRecipeDetailQueryHandler" rx="2.5" ry="2.5" style="stroke:#181818;stroke-width:0.5;" width="824" x="952.5" y="7"/><text fill="#000000" font-family="sans-serif" font-size="14" lengthAdjust="spacing" textLength="191" x="1269" y="26.5332">GetRecipeDetailQueryHandler</text><line style="stroke:#181818;stroke-width:0.5;" x1="953.5" x2="1775.5" y1="34.6094" y2="34.6094"/><text fill="#000000" font-family="sans-serif" font-size="14" lengthAdjust="spacing" textLength="204" x="958.5" y="53.1426">-_context: IApplicationDbContext</text><text fill="#000000" font-family="sans-serif" font-size="14" lengthAdjust="spacing" textLength="210" x="958.5" y="70.752">-_grpcUserClient: GrpcUserClient</text><line style="stroke:#181818;stroke-width:0.5;" x1="953.5" x2="1775.5" y1="77.8281" y2="77.8281"/><text fill="#000000" font-family="sans-serif" font-size="14" lengthAdjust="spacing" textLength="812" x="958.5" y="96.3613">+Handle(GetRecipeDetailQuery request, CancellationToken cancellationToken): async Task&lt;Result&lt;RecipeDetailsResponse?&gt;&gt;</text></g><!--class RecipeDetailsResponse--><g id="elem_RecipeDetailsResponse"><rect codeLine="24" fill="#F1F1F1" height="149.2656" id="RecipeDetailsResponse" rx="2.5" ry="2.5" style="stroke:#181818;stroke-width:0.5;" width="243" x="697" y="189.5"/><text fill="#000000" font-family="sans-serif" font-size="14" lengthAdjust="spacing" textLength="151" x="743" y="209.0332">RecipeDetailsResponse</text><line style="stroke:#181818;stroke-width:0.5;" x1="698" x2="939" y1="217.1094" y2="217.1094"/><text fill="#000000" font-family="sans-serif" font-size="14" lengthAdjust="spacing" textLength="104" x="703" y="235.6426">+Recipe: Recipe</text><text fill="#000000" font-family="sans-serif" font-size="14" lengthAdjust="spacing" textLength="157" x="703" y="253.252">+AuthorUsername: string</text><text fill="#000000" font-family="sans-serif" font-size="14" lengthAdjust="spacing" textLength="175" x="703" y="270.8613">+AuthorDisplayName: string</text><text fill="#000000" font-family="sans-serif" font-size="14" lengthAdjust="spacing" textLength="130" x="703" y="288.4707">+AuthorAvtUrl: string</text><text fill="#000000" font-family="sans-serif" font-size="14" lengthAdjust="spacing" textLength="190" x="703" y="306.0801">+AuthorNumberOfFollower: int</text><text fill="#000000" font-family="sans-serif" font-size="14" lengthAdjust="spacing" textLength="231" x="703" y="323.6895">+similarRecipes: List&lt;SimilarRecipe&gt;</text><line style="stroke:#181818;stroke-width:0.5;" x1="698" x2="939" y1="330.7656" y2="330.7656"/></g><!--class SimilarRecipe--><g id="elem_SimilarRecipe"><rect codeLine="33" fill="#F1F1F1" height="96.4375" id="SimilarRecipe" rx="2.5" ry="2.5" style="stroke:#181818;stroke-width:0.5;" width="118" x="626.5" y="469"/><text fill="#000000" font-family="sans-serif" font-size="14" lengthAdjust="spacing" textLength="86" x="642.5" y="488.5332">SimilarRecipe</text><line style="stroke:#181818;stroke-width:0.5;" x1="627.5" x2="743.5" y1="496.6094" y2="496.6094"/><text fill="#000000" font-family="sans-serif" font-size="14" lengthAdjust="spacing" textLength="101" x="632.5" y="515.1426">+RecipeId: Guid</text><text fill="#000000" font-family="sans-serif" font-size="14" lengthAdjust="spacing" textLength="106" x="632.5" y="532.752">+ImageUrl: string</text><text fill="#000000" font-family="sans-serif" font-size="14" lengthAdjust="spacing" textLength="70" x="632.5" y="550.3613">+Title: Title</text><line style="stroke:#181818;stroke-width:0.5;" x1="627.5" x2="743.5" y1="557.4375" y2="557.4375"/></g><!--class IApplicationDbContext--><g id="elem_IApplicationDbContext"><rect codeLine="41" fill="#F1F1F1" height="149.2656" id="IApplicationDbContext" rx="2.5" ry="2.5" style="stroke:#181818;stroke-width:0.5;" width="362" x="975.5" y="189.5"/><text fill="#000000" font-family="sans-serif" font-size="14" font-style="italic" lengthAdjust="spacing" textLength="139" x="1087" y="209.0332">IApplicationDbContext</text><line style="stroke:#181818;stroke-width:0.5;" x1="976.5" x2="1336.5" y1="217.1094" y2="217.1094"/><text fill="#000000" font-family="sans-serif" font-size="14" lengthAdjust="spacing" textLength="166" x="981.5" y="235.6426">+Recipes: DbSet&lt;Recipe&gt;</text><text fill="#000000" font-family="sans-serif" font-size="14" lengthAdjust="spacing" textLength="128" x="981.5" y="253.252">+Tags: DbSet&lt;Tag&gt;</text><text fill="#000000" font-family="sans-serif" font-size="14" lengthAdjust="spacing" textLength="216" x="981.5" y="270.8613">+RecipeTags: DbSet&lt;RecipeTag&gt;</text><text fill="#000000" font-family="sans-serif" font-size="14" lengthAdjust="spacing" textLength="350" x="981.5" y="288.4707">+UserBookmarkRecipes: DbSet&lt;UserBookmarkRecipe&gt;</text><text fill="#000000" font-family="sans-serif" font-size="14" lengthAdjust="spacing" textLength="310" x="981.5" y="306.0801">+UserReportRecipes: DbSet&lt;UserReportRecipe&gt;</text><text fill="#000000" font-family="sans-serif" font-size="14" lengthAdjust="spacing" textLength="342" x="981.5" y="323.6895">+UserReportComments: DbSet&lt;UserReportComment&gt;</text><line style="stroke:#181818;stroke-width:0.5;" x1="976.5" x2="1336.5" y1="330.7656" y2="330.7656"/></g><!--class ApplicationDbContext--><g id="elem_ApplicationDbContext"><rect codeLine="50" fill="#F1F1F1" height="184.4844" id="ApplicationDbContext" rx="2.5" ry="2.5" style="stroke:#181818;stroke-width:0.5;" width="409" x="780" y="425"/><text fill="#000000" font-family="sans-serif" font-size="14" lengthAdjust="spacing" textLength="135" x="917" y="444.5332">ApplicationDbContext</text><line style="stroke:#181818;stroke-width:0.5;" x1="781" x2="1188" y1="452.6094" y2="452.6094"/><text fill="#000000" font-family="sans-serif" font-size="14" lengthAdjust="spacing" textLength="166" x="786" y="471.1426">+Recipes: DbSet&lt;Recipe&gt;</text><text fill="#000000" font-family="sans-serif" font-size="14" lengthAdjust="spacing" textLength="128" x="786" y="488.752">+Tags: DbSet&lt;Tag&gt;</text><text fill="#000000" font-family="sans-serif" font-size="14" lengthAdjust="spacing" textLength="216" x="786" y="506.3613">+RecipeTags: DbSet&lt;RecipeTag&gt;</text><text fill="#000000" font-family="sans-serif" font-size="14" lengthAdjust="spacing" textLength="350" x="786" y="523.9707">+UserBookmarkRecipes: DbSet&lt;UserBookmarkRecipe&gt;</text><text fill="#000000" font-family="sans-serif" font-size="14" lengthAdjust="spacing" textLength="310" x="786" y="541.5801">+UserReportRecipes: DbSet&lt;UserReportRecipe&gt;</text><text fill="#000000" font-family="sans-serif" font-size="14" lengthAdjust="spacing" textLength="342" x="786" y="559.1895">+UserReportComments: DbSet&lt;UserReportComment&gt;</text><line style="stroke:#181818;stroke-width:0.5;" x1="781" x2="1188" y1="566.2656" y2="566.2656"/><text fill="#000000" font-family="sans-serif" font-size="14" lengthAdjust="spacing" textLength="397" x="786" y="584.7988">#OnConfiguring(DbContextOptionsBuilder optionsBuilder): void</text><text fill="#000000" font-family="sans-serif" font-size="14" lengthAdjust="spacing" textLength="331" x="786" y="602.4082">#OnModelCreating(ModelBuilder modelBuilder): void</text></g><!--class Result--><g id="elem_Result"><rect codeLine="61" fill="#F1F1F1" height="202.0938" id="Result" rx="2.5" ry="2.5" style="stroke:#181818;stroke-width:0.5;" width="341" x="1373" y="163"/><text fill="#000000" font-family="sans-serif" font-size="14" lengthAdjust="spacing" textLength="40" x="1523.5" y="182.5332">Result</text><line style="stroke:#181818;stroke-width:0.5;" x1="1374" x2="1713" y1="190.6094" y2="190.6094"/><text fill="#000000" font-family="sans-serif" font-size="14" lengthAdjust="spacing" textLength="93" x="1379" y="209.1426">+bool IsFailure</text><text fill="#000000" font-family="sans-serif" font-size="14" lengthAdjust="spacing" textLength="102" x="1379" y="226.752">+bool IsSuccess</text><text fill="#000000" font-family="sans-serif" font-size="14" lengthAdjust="spacing" textLength="178" x="1379" y="244.3613">+IEnumerable&lt;Error&gt; Errors</text><line style="stroke:#181818;stroke-width:0.5;" x1="1374" x2="1713" y1="251.4375" y2="251.4375"/><text fill="#000000" font-family="sans-serif" font-size="14" lengthAdjust="spacing" textLength="329" x="1379" y="269.9707">#Result(bool isSuccess, IEnumerable&lt;Error&gt; errors)</text><text fill="#000000" font-family="sans-serif" font-size="14" lengthAdjust="spacing" textLength="227" x="1379" y="287.5801">#Result(bool isSuccess, Error error)</text><text fill="#000000" font-family="sans-serif" font-size="14" lengthAdjust="spacing" textLength="142" x="1379" y="305.1895">+ThrowIfFailure(): void</text><text fill="#000000" font-family="sans-serif" font-size="14" lengthAdjust="spacing" text-decoration="underline" textLength="119" x="1379" y="322.7988">+Success(): Result</text><text fill="#000000" font-family="sans-serif" font-size="14" lengthAdjust="spacing" text-decoration="underline" textLength="164" x="1379" y="340.4082">+Failure(Error err): Result</text><text fill="#000000" font-family="sans-serif" font-size="14" lengthAdjust="spacing" text-decoration="underline" textLength="266" x="1379" y="358.0176">+Failure(IEnumerable&lt;Error&gt; errs): Result</text></g><!--class Result<T>--><g id="elem_Result&lt;T&gt;"><rect codeLine="73" fill="#F1F1F1" height="114.0469" id="Result&lt;T&gt;" rx="2.5" ry="2.5" style="stroke:#181818;stroke-width:0.5;" width="311" x="1224" y="460"/><text fill="#000000" font-family="sans-serif" font-size="14" lengthAdjust="spacing" textLength="65" x="1347" y="479.5332">Result&lt;T&gt;</text><line style="stroke:#181818;stroke-width:0.5;" x1="1225" x2="1534" y1="487.6094" y2="487.6094"/><text fill="#000000" font-family="sans-serif" font-size="14" lengthAdjust="spacing" textLength="57" x="1230" y="506.1426">+T Value</text><line style="stroke:#181818;stroke-width:0.5;" x1="1225" x2="1534" y1="513.2188" y2="513.2188"/><text fill="#000000" font-family="sans-serif" font-size="14" lengthAdjust="spacing" text-decoration="underline" textLength="191" x="1230" y="531.752">+Success(T value): Result&lt;T&gt;</text><text fill="#000000" font-family="sans-serif" font-size="14" lengthAdjust="spacing" text-decoration="underline" textLength="210" x="1230" y="549.3613">+Failure(Error error): Result&lt;T?&gt;</text><text fill="#000000" font-family="sans-serif" font-size="14" lengthAdjust="spacing" text-decoration="underline" textLength="299" x="1230" y="566.9707">+Failure(IEnumerable&lt;Error&gt; errs): Result&lt;T?&gt;</text></g><!--class Error--><g id="elem_Error"><rect codeLine="80" fill="#F1F1F1" height="78.8281" id="Error" rx="2.5" ry="2.5" style="stroke:#181818;stroke-width:0.5;" width="276" x="1570.5" y="477.5"/><text fill="#000000" font-family="sans-serif" font-size="14" lengthAdjust="spacing" textLength="32" x="1692.5" y="497.0332">Error</text><line style="stroke:#181818;stroke-width:0.5;" x1="1571.5" x2="1845.5" y1="505.1094" y2="505.1094"/><text fill="#000000" font-family="sans-serif" font-size="14" lengthAdjust="spacing" text-decoration="underline" textLength="81" x="1576.5" y="523.6426">+None: Error</text><line style="stroke:#181818;stroke-width:0.5;" x1="1571.5" x2="1845.5" y1="530.7188" y2="530.7188"/><text fill="#000000" font-family="sans-serif" font-size="14" lengthAdjust="spacing" text-decoration="underline" textLength="264" x="1576.5" y="549.252">+implicit operator Result(Error err): Result</text></g><!--class GetRecipeDetailDTO--><g id="elem_GetRecipeDetailDTO"><rect codeLine="85" fill="#F1F1F1" height="61.2188" id="GetRecipeDetailDTO" rx="2.5" ry="2.5" style="stroke:#181818;stroke-width:0.5;" width="139" x="339" y="233.5"/><text fill="#000000" font-family="sans-serif" font-size="14" lengthAdjust="spacing" textLength="133" x="342" y="253.0332">GetRecipeDetailDTO</text><line style="stroke:#181818;stroke-width:0.5;" x1="340" x2="477" y1="261.1094" y2="261.1094"/><text fill="#000000" font-family="sans-serif" font-size="14" lengthAdjust="spacing" textLength="101" x="345" y="279.6426">+RecipeId: Guid</text><line style="stroke:#181818;stroke-width:0.5;" x1="340" x2="477" y1="286.7188" y2="286.7188"/></g><!--class RecipeError--><g id="elem_RecipeError"><rect codeLine="89" fill="#F1F1F1" height="114.0469" id="RecipeError" rx="2.5" ry="2.5" style="stroke:#181818;stroke-width:0.5;" width="172" x="1717.5" y="757"/><text fill="#000000" font-family="sans-serif" font-size="14" lengthAdjust="spacing" textLength="76" x="1765.5" y="776.5332">RecipeError</text><line style="stroke:#181818;stroke-width:0.5;" x1="1718.5" x2="1888.5" y1="784.6094" y2="784.6094"/><text fill="#000000" font-family="sans-serif" font-size="14" lengthAdjust="spacing" text-decoration="underline" textLength="110" x="1723.5" y="803.1426">+NotFound: Error</text><text fill="#000000" font-family="sans-serif" font-size="14" lengthAdjust="spacing" text-decoration="underline" textLength="140" x="1723.5" y="820.752">+AddRecipeFail: Error</text><text fill="#000000" font-family="sans-serif" font-size="14" lengthAdjust="spacing" text-decoration="underline" textLength="156" x="1723.5" y="838.3613">+DeleteRecipeFail: Error</text><text fill="#000000" font-family="sans-serif" font-size="14" lengthAdjust="spacing" text-decoration="underline" textLength="160" x="1723.5" y="855.9707">+UpdateRecipeFail: Error</text><line style="stroke:#181818;stroke-width:0.5;" x1="1718.5" x2="1888.5" y1="863.0469" y2="863.0469"/></g><!--class BaseMongoDBEntity--><g id="elem_BaseMongoDBEntity"><rect codeLine="96" fill="#F1F1F1" height="61.2188" id="BaseMongoDBEntity" rx="2.5" ry="2.5" style="stroke:#181818;stroke-width:0.5;" width="135" x="495" y="1350"/><text fill="#000000" font-family="sans-serif" font-size="14" lengthAdjust="spacing" textLength="129" x="498" y="1369.5332">BaseMongoDBEntity</text><line style="stroke:#181818;stroke-width:0.5;" x1="496" x2="629" y1="1377.6094" y2="1377.6094"/><text fill="#000000" font-family="sans-serif" font-size="14" lengthAdjust="spacing" textLength="53" x="501" y="1396.1426">+Guid Id</text><line style="stroke:#181818;stroke-width:0.5;" x1="496" x2="629" y1="1403.2188" y2="1403.2188"/></g><!--class BaseMongoDBAuditableEntity--><g id="elem_BaseMongoDBAuditableEntity"><rect codeLine="100" fill="#F1F1F1" height="78.8281" id="BaseMongoDBAuditableEntity" rx="2.5" ry="2.5" style="stroke:#181818;stroke-width:0.5;" width="194" x="762.5" y="1211"/><text fill="#000000" font-family="sans-serif" font-size="14" lengthAdjust="spacing" textLength="188" x="765.5" y="1230.5332">BaseMongoDBAuditableEntity</text><line style="stroke:#181818;stroke-width:0.5;" x1="763.5" x2="955.5" y1="1238.6094" y2="1238.6094"/><text fill="#000000" font-family="sans-serif" font-size="14" lengthAdjust="spacing" textLength="137" x="768.5" y="1257.1426">+DateTime CreatedAt</text><text fill="#000000" font-family="sans-serif" font-size="14" lengthAdjust="spacing" textLength="139" x="768.5" y="1274.752">+DateTime UpdatedAt</text><line style="stroke:#181818;stroke-width:0.5;" x1="763.5" x2="955.5" y1="1281.8281" y2="1281.8281"/></g><!--class Recipe--><g id="elem_Recipe"><rect codeLine="105" fill="#F1F1F1" height="290.1406" id="Recipe" rx="2.5" ry="2.5" style="stroke:#181818;stroke-width:0.5;" width="219" x="393" y="669"/><text fill="#000000" font-family="sans-serif" font-size="14" lengthAdjust="spacing" textLength="44" x="480.5" y="688.5332">Recipe</text><line style="stroke:#181818;stroke-width:0.5;" x1="394" x2="611" y1="696.6094" y2="696.6094"/><text fill="#000000" font-family="sans-serif" font-size="14" lengthAdjust="spacing" textLength="99" x="399" y="715.1426">+AuthorId: Guid</text><text fill="#000000" font-family="sans-serif" font-size="14" lengthAdjust="spacing" textLength="78" x="399" y="732.752">+Title: string</text><text fill="#000000" font-family="sans-serif" font-size="14" lengthAdjust="spacing" textLength="122" x="399" y="750.3613">+Description: string</text><text fill="#000000" font-family="sans-serif" font-size="14" lengthAdjust="spacing" textLength="106" x="399" y="767.9707">+ImageUrl: string</text><text fill="#000000" font-family="sans-serif" font-size="14" lengthAdjust="spacing" textLength="159" x="399" y="785.5801">+Ingredients: List&lt;string&gt;</text><text fill="#000000" font-family="sans-serif" font-size="14" lengthAdjust="spacing" textLength="123" x="399" y="803.1895">+CookTime: string?</text><text fill="#000000" font-family="sans-serif" font-size="14" lengthAdjust="spacing" textLength="83" x="399" y="820.7988">+Serves: int?</text><text fill="#000000" font-family="sans-serif" font-size="14" lengthAdjust="spacing" textLength="81" x="399" y="838.4082">+VoteDiff: int</text><text fill="#000000" font-family="sans-serif" font-size="14" lengthAdjust="spacing" textLength="155" x="399" y="856.0176">+NumberOfComment: int</text><text fill="#000000" font-family="sans-serif" font-size="14" lengthAdjust="spacing" textLength="91" x="399" y="873.627">+IsActive: bool</text><text fill="#000000" font-family="sans-serif" font-size="14" lengthAdjust="spacing" textLength="92" x="399" y="891.2363">+TotalView: int</text><text fill="#000000" font-family="sans-serif" font-size="14" lengthAdjust="spacing" textLength="119" x="399" y="908.8457">+Steps: List&lt;Step&gt;</text><text fill="#000000" font-family="sans-serif" font-size="14" lengthAdjust="spacing" textLength="181" x="399" y="926.4551">+Comments: List&lt;Comment&gt;</text><text fill="#000000" font-family="sans-serif" font-size="14" lengthAdjust="spacing" textLength="207" x="399" y="944.0645">+RecipeVotes: List&lt;RecipeVote&gt;</text><line style="stroke:#181818;stroke-width:0.5;" x1="394" x2="611" y1="951.1406" y2="951.1406"/></g><!--class Step--><g id="elem_Step"><rect codeLine="122" fill="#F1F1F1" height="96.4375" id="Step" rx="2.5" ry="2.5" style="stroke:#181818;stroke-width:0.5;" width="227" x="389" y="1037"/><text fill="#000000" font-family="sans-serif" font-size="14" lengthAdjust="spacing" textLength="29" x="488" y="1056.5332">Step</text><line style="stroke:#181818;stroke-width:0.5;" x1="390" x2="615" y1="1064.6094" y2="1064.6094"/><text fill="#000000" font-family="sans-serif" font-size="14" lengthAdjust="spacing" textLength="126" x="395" y="1083.1426">+OrdinalNumber: int</text><text fill="#000000" font-family="sans-serif" font-size="14" lengthAdjust="spacing" textLength="101" x="395" y="1100.752">+Content: string</text><text fill="#000000" font-family="sans-serif" font-size="14" lengthAdjust="spacing" textLength="215" x="395" y="1118.3613">+AttachedImageUrls: List&lt;string&gt;?</text><line style="stroke:#181818;stroke-width:0.5;" x1="390" x2="615" y1="1125.4375" y2="1125.4375"/></g><!--class Comment--><g id="elem_Comment"><rect codeLine="128" fill="#F1F1F1" height="96.4375" id="Comment" rx="2.5" ry="2.5" style="stroke:#181818;stroke-width:0.5;" width="112" x="651.5" y="1037"/><text fill="#000000" font-family="sans-serif" font-size="14" lengthAdjust="spacing" textLength="60" x="677.5" y="1056.5332">Comment</text><line style="stroke:#181818;stroke-width:0.5;" x1="652.5" x2="762.5" y1="1064.6094" y2="1064.6094"/><text fill="#000000" font-family="sans-serif" font-size="14" lengthAdjust="spacing" textLength="93" x="657.5" y="1083.1426">Content: string</text><text fill="#000000" font-family="sans-serif" font-size="14" lengthAdjust="spacing" textLength="100" x="657.5" y="1100.752">AccountId: Guid</text><text fill="#000000" font-family="sans-serif" font-size="14" lengthAdjust="spacing" textLength="83" x="657.5" y="1118.3613">IsActive: bool</text><line style="stroke:#181818;stroke-width:0.5;" x1="652.5" x2="762.5" y1="1125.4375" y2="1125.4375"/></g><!--class RecipeVote--><g id="elem_RecipeVote"><rect codeLine="134" fill="#F1F1F1" height="78.8281" id="RecipeVote" rx="2.5" ry="2.5" style="stroke:#181818;stroke-width:0.5;" width="112" x="412.5" y="1211"/><text fill="#000000" font-family="sans-serif" font-size="14" lengthAdjust="spacing" textLength="73" x="432" y="1230.5332">RecipeVote</text><line style="stroke:#181818;stroke-width:0.5;" x1="413.5" x2="523.5" y1="1238.6094" y2="1238.6094"/><text fill="#000000" font-family="sans-serif" font-size="14" lengthAdjust="spacing" textLength="100" x="418.5" y="1257.1426">AccountId: Guid</text><text fill="#000000" font-family="sans-serif" font-size="14" lengthAdjust="spacing" textLength="89" x="418.5" y="1274.752">IsUpvote: bool</text><line style="stroke:#181818;stroke-width:0.5;" x1="413.5" x2="523.5" y1="1281.8281" y2="1281.8281"/></g><!--class Tag--><g id="elem_Tag"><rect codeLine="139" fill="#F1F1F1" height="131.6563" id="Tag" rx="2.5" ry="2.5" style="stroke:#181818;stroke-width:0.5;" width="121" x="799" y="1019"/><text fill="#000000" font-family="sans-serif" font-size="14" lengthAdjust="spacing" textLength="25" x="847" y="1038.5332">Tag</text><line style="stroke:#181818;stroke-width:0.5;" x1="800" x2="919" y1="1046.6094" y2="1046.6094"/><text fill="#000000" font-family="sans-serif" font-size="14" lengthAdjust="spacing" textLength="87" x="805" y="1065.1426">+Value: string</text><text fill="#000000" font-family="sans-serif" font-size="14" lengthAdjust="spacing" textLength="85" x="805" y="1082.752">+Code: string</text><text fill="#000000" font-family="sans-serif" font-size="14" lengthAdjust="spacing" textLength="109" x="805" y="1100.3613">+Category: enum</text><text fill="#000000" font-family="sans-serif" font-size="14" lengthAdjust="spacing" textLength="91" x="805" y="1117.9707">+Status: enum</text><text fill="#000000" font-family="sans-serif" font-size="14" lengthAdjust="spacing" textLength="106" x="805" y="1135.5801">+ImageUrl: string</text><line style="stroke:#181818;stroke-width:0.5;" x1="800" x2="919" y1="1142.6563" y2="1142.6563"/></g><!--class RecipeTag--><g id="elem_RecipeTag"><rect codeLine="147" fill="#F1F1F1" height="78.8281" id="RecipeTag" rx="2.5" ry="2.5" style="stroke:#181818;stroke-width:0.5;" width="113" x="955" y="1045.5"/><text fill="#000000" font-family="sans-serif" font-size="14" lengthAdjust="spacing" textLength="69" x="977" y="1065.0332">RecipeTag</text><line style="stroke:#181818;stroke-width:0.5;" x1="956" x2="1067" y1="1073.1094" y2="1073.1094"/><text fill="#000000" font-family="sans-serif" font-size="14" lengthAdjust="spacing" textLength="101" x="961" y="1091.6426">+RecipeId: Guid</text><text fill="#000000" font-family="sans-serif" font-size="14" lengthAdjust="spacing" textLength="82" x="961" y="1109.252">+TagId: Guid</text><line style="stroke:#181818;stroke-width:0.5;" x1="956" x2="1067" y1="1116.3281" y2="1116.3281"/></g><!--class UserBookmarkRecipe--><g id="elem_UserBookmarkRecipe"><rect codeLine="152" fill="#F1F1F1" height="78.8281" id="UserBookmarkRecipe" rx="2.5" ry="2.5" style="stroke:#181818;stroke-width:0.5;" width="142" x="975.5" y="774.5"/><text fill="#000000" font-family="sans-serif" font-size="14" lengthAdjust="spacing" textLength="136" x="978.5" y="794.0332">UserBookmarkRecipe</text><line style="stroke:#181818;stroke-width:0.5;" x1="976.5" x2="1116.5" y1="802.1094" y2="802.1094"/><text fill="#000000" font-family="sans-serif" font-size="14" lengthAdjust="spacing" textLength="108" x="981.5" y="820.6426">+AccountId: Guid</text><text fill="#000000" font-family="sans-serif" font-size="14" lengthAdjust="spacing" textLength="101" x="981.5" y="838.252">+RecipeId: Guid</text><line style="stroke:#181818;stroke-width:0.5;" x1="976.5" x2="1116.5" y1="845.3281" y2="845.3281"/></g><!--class UserReportRecipe--><g id="elem_UserReportRecipe"><rect codeLine="157" fill="#F1F1F1" height="114.0469" id="UserReportRecipe" rx="2.5" ry="2.5" style="stroke:#181818;stroke-width:0.5;" width="122" x="1152.5" y="757"/><text fill="#000000" font-family="sans-serif" font-size="14" lengthAdjust="spacing" textLength="116" x="1155.5" y="776.5332">UserReportRecipe</text><line style="stroke:#181818;stroke-width:0.5;" x1="1153.5" x2="1273.5" y1="784.6094" y2="784.6094"/><text fill="#000000" font-family="sans-serif" font-size="14" lengthAdjust="spacing" textLength="108" x="1158.5" y="803.1426">+AccountId: Guid</text><text fill="#000000" font-family="sans-serif" font-size="14" lengthAdjust="spacing" textLength="101" x="1158.5" y="820.752">+RecipeId: Guid</text><text fill="#000000" font-family="sans-serif" font-size="14" lengthAdjust="spacing" textLength="100" x="1158.5" y="838.3613">+Reason: string</text><text fill="#000000" font-family="sans-serif" font-size="14" lengthAdjust="spacing" textLength="91" x="1158.5" y="855.9707">+Status: enum</text><line style="stroke:#181818;stroke-width:0.5;" x1="1153.5" x2="1273.5" y1="863.0469" y2="863.0469"/></g><!--class UserReportComment--><g id="elem_UserReportComment"><rect codeLine="164" fill="#F1F1F1" height="114.0469" id="UserReportComment" rx="2.5" ry="2.5" style="stroke:#181818;stroke-width:0.5;" width="138" x="1309.5" y="757"/><text fill="#000000" font-family="sans-serif" font-size="14" lengthAdjust="spacing" textLength="132" x="1312.5" y="776.5332">UserReportComment</text><line style="stroke:#181818;stroke-width:0.5;" x1="1310.5" x2="1446.5" y1="784.6094" y2="784.6094"/><text fill="#000000" font-family="sans-serif" font-size="14" lengthAdjust="spacing" textLength="108" x="1315.5" y="803.1426">+AccountId: Guid</text><text fill="#000000" font-family="sans-serif" font-size="14" lengthAdjust="spacing" textLength="117" x="1315.5" y="820.752">+CommentId: Guid</text><text fill="#000000" font-family="sans-serif" font-size="14" lengthAdjust="spacing" textLength="100" x="1315.5" y="838.3613">+Reason: string</text><text fill="#000000" font-family="sans-serif" font-size="14" lengthAdjust="spacing" textLength="91" x="1315.5" y="855.9707">+Status: enum</text><line style="stroke:#181818;stroke-width:0.5;" x1="1310.5" x2="1446.5" y1="863.0469" y2="863.0469"/></g><!--class GrpcUserClient--><g id="elem_GrpcUserClient"><rect fill="#F1F1F1" height="43.6094" id="GrpcUserClient" rx="2.5" ry="2.5" style="stroke:#181818;stroke-width:0.5;" width="102" x="1952.5" y="242"/><text fill="#000000" font-family="sans-serif" font-size="14" lengthAdjust="spacing" textLength="96" x="1955.5" y="261.5332">GrpcUserClient</text><line style="stroke:#181818;stroke-width:0.5;" x1="1953.5" x2="2053.5" y1="269.6094" y2="269.6094"/><line style="stroke:#181818;stroke-width:0.5;" x1="1953.5" x2="2053.5" y1="277.6094" y2="277.6094"/></g><!--reverse link RecipeDetailsResponse to SimilarRecipe--><g id="link_RecipeDetailsResponse_SimilarRecipe"><path codeLine="39" d="M773.873,349.2142 C751.573,391.3142 729.88,432.25 710.45,468.91 " fill="none" id="RecipeDetailsResponse-backto-SimilarRecipe" style="stroke:#181818;stroke-width:1.0;"/><polygon fill="none" points="779.49,338.61,773.1468,342.0398,773.873,349.2142,780.2163,345.7844,779.49,338.61" style="stroke:#181818;stroke-width:1.0;"/><text fill="#000000" font-family="sans-serif" font-size="13" lengthAdjust="spacing" textLength="15" x="698.013" y="458.1606">1..</text></g><!--link RecipeController to BaseApiController--><g id="link_RecipeController_BaseApiController"><path codeLine="171" d="M372.25,85.66 C327.71,122.1 265.94,172.6302 216.83,212.8202 " fill="none" id="RecipeController-to-BaseApiController" style="stroke:#181818;stroke-width:1.0;"/><polygon fill="none" points="202.9,224.22,220.6299,217.4635,213.03,208.1769,202.9,224.22" style="stroke:#181818;stroke-width:1.0;"/></g><!--link RecipeController to GetRecipeDetailDTO--><g id="link_RecipeController_GetRecipeDetailDTO"><path codeLine="172" d="M408.5,85.66 C408.5,125.01 408.5,194.07 408.5,233.4 " fill="none" id="RecipeController-GetRecipeDetailDTO" style="stroke:#181818;stroke-width:1.0;"/><text fill="#000000" font-family="sans-serif" font-size="13" lengthAdjust="spacing" textLength="7" x="400.7781" y="107.1424">1</text><text fill="#000000" font-family="sans-serif" font-size="13" lengthAdjust="spacing" textLength="7" x="400.7344" y="222.4659">1</text></g><!--link RecipeController to GetRecipeDetailQuery--><g id="link_RecipeController_GetRecipeDetailQuery"><path codeLine="173" d="M434.15,85.66 C465.66,122.1 519.21,184.03 553.97,224.22 " fill="none" id="RecipeController-GetRecipeDetailQuery" style="stroke:#181818;stroke-width:1.0;"/><text fill="#000000" font-family="sans-serif" font-size="13" lengthAdjust="spacing" textLength="7" x="431.7184" y="107.1424">1</text><text fill="#000000" font-family="sans-serif" font-size="13" lengthAdjust="spacing" textLength="7" x="540.6055" y="213.5479">1</text></g><!--link GetRecipeDetailQueryHandler to GetRecipeDetailQuery--><g id="link_GetRecipeDetailQueryHandler_GetRecipeDetailQuery"><path codeLine="175" d="M952.31,97.74 C837.25,114.36 729.92,136.04 679.5,163 C652.56,177.4 629.33,202.83 612.96,224.43 " fill="none" id="GetRecipeDetailQueryHandler-GetRecipeDetailQuery" style="stroke:#181818;stroke-width:1.0;"/><text fill="#000000" font-family="sans-serif" font-size="13" lengthAdjust="spacing" textLength="7" x="936.8663" y="95.9399">1</text><text fill="#000000" font-family="sans-serif" font-size="13" lengthAdjust="spacing" textLength="7" x="609.8716" y="213.4983">1</text></g><!--link GetRecipeDetailQueryHandler to Result--><g id="link_GetRecipeDetailQueryHandler_Result"><path codeLine="176" d="M1405.34,103.23 C1420.72,121.01 1438.84,141.97 1456.82,162.76 " fill="none" id="GetRecipeDetailQueryHandler-Result" style="stroke:#181818;stroke-width:1.0;"/><text fill="#000000" font-family="sans-serif" font-size="13" lengthAdjust="spacing" textLength="7" x="1403.8243" y="124.9776">1</text><text fill="#000000" font-family="sans-serif" font-size="13" lengthAdjust="spacing" textLength="7" x="1443.1974" y="152.2423">1</text></g><!--link GetRecipeDetailQueryHandler to RecipeDetailsResponse--><g id="link_GetRecipeDetailQueryHandler_RecipeDetailsResponse"><path codeLine="177" d="M1126.07,103.07 C1069.39,118.48 1010.12,138.2 957.5,163 C941.9,170.35 926.24,179.5 911.34,189.26 " fill="none" id="GetRecipeDetailQueryHandler-RecipeDetailsResponse" style="stroke:#181818;stroke-width:1.0;"/><text fill="#000000" font-family="sans-serif" font-size="13" lengthAdjust="spacing" textLength="7" x="1083.5365" y="124.7941">1</text><text fill="#000000" font-family="sans-serif" font-size="13" lengthAdjust="spacing" textLength="7" x="913.1344" y="178.6146">1</text></g><!--reverse link GetRecipeDetailQueryHandler to IApplicationDbContext--><g id="link_GetRecipeDetailQueryHandler_IApplicationDbContext"><path codeLine="178" d="M1308.5348,111.6953 C1282.9948,137.1153 1259.43,160.57 1230.68,189.18 " fill="none" id="GetRecipeDetailQueryHandler-backto-IApplicationDbContext" style="stroke:#181818;stroke-width:1.0;"/><polygon fill="none" points="1317.04,103.23,1309.9656,104.6276,1308.5348,111.6953,1315.6091,110.2977,1317.04,103.23" style="stroke:#181818;stroke-width:1.0;"/><text fill="#000000" font-family="sans-serif" font-size="13" lengthAdjust="spacing" textLength="7" x="1302.5553" y="124.9776">1</text><text fill="#000000" font-family="sans-serif" font-size="13" lengthAdjust="spacing" textLength="7" x="1230.6376" y="178.5268">1</text></g><!--reverse link GetRecipeDetailQueryHandler to GrpcUserClient--><g id="link_GetRecipeDetailQueryHandler_GrpcUserClient"><path codeLine="179" d="M1728.5427,105.1772 C1817.6927,121.5472 1887.21,139.61 1925.5,163 C1956.69,182.05 1980.23,218.44 1992.92,241.68 " fill="none" id="GetRecipeDetailQueryHandler-backto-GrpcUserClient" style="stroke:#181818;stroke-width:1.0;"/><polygon fill="none" points="1716.74,103.01,1721.9189,108.0278,1728.5427,105.1772,1723.3638,100.1594,1716.74,103.01" style="stroke:#181818;stroke-width:1.0;"/><text fill="#000000" font-family="sans-serif" font-size="13" lengthAdjust="spacing" textLength="7" x="1763.1408" y="125.0751">1</text><text fill="#000000" font-family="sans-serif" font-size="13" lengthAdjust="spacing" textLength="7" x="1982.136" y="231.1263">1</text></g><!--link GetRecipeDetailQueryHandler to RecipeError--><g id="link_GetRecipeDetailQueryHandler_RecipeError"><path codeLine="180" d="M1625.62,103.05 C1663.8,117.87 1700.59,137.37 1731.5,163 C1890.72,295.05 1894.45,404.33 1864.5,609 C1857.01,660.21 1839.47,716.42 1825.11,756.84 " fill="none" id="GetRecipeDetailQueryHandler-RecipeError" style="stroke:#181818;stroke-width:1.0;"/><text fill="#000000" font-family="sans-serif" font-size="13" lengthAdjust="spacing" textLength="7" x="1656.4579" y="124.7711">1</text><text fill="#000000" font-family="sans-serif" font-size="13" lengthAdjust="spacing" textLength="7" x="1820.4303" y="746.006">1</text></g><!--reverse link IApplicationDbContext to ApplicationDbContext--><g id="link_IApplicationDbContext_ApplicationDbContext"><path codeLine="182" d="M1095.8852,353.4584 C1077.4452,380.3684 1066.54,396.29 1047.16,424.56 " fill="none" id="IApplicationDbContext-backto-ApplicationDbContext" style="stroke:#181818;stroke-width:1.0;stroke-dasharray:7.0,7.0;"/><polygon fill="none" points="1106.06,338.61,1090.9358,350.0668,1100.8347,356.85,1106.06,338.61" style="stroke:#181818;stroke-width:1.0;"/></g><!--link Result to Error--><g id="link_Result_Error"><path codeLine="184" d="M1609.42,365.28 C1635.28,404.61 1663.39,447.38 1683.05,477.28 " fill="none" id="Result-Error" style="stroke:#181818;stroke-width:1.0;"/><text fill="#000000" font-family="sans-serif" font-size="13" lengthAdjust="spacing" textLength="7" x="1606.8089" y="386.4679">1</text><text fill="#000000" font-family="sans-serif" font-size="13" lengthAdjust="spacing" textLength="20" x="1656.957" y="466.6182">1..*</text></g><!--reverse link Result to Result<T>--><g id="link_Result_Result&lt;T&gt;"><path codeLine="185" d="M1468.1339,380.3483 C1447.0739,412.5783 1434.35,432.05 1416.14,459.92 " fill="none" id="Result-backto-Result&lt;T&gt;" style="stroke:#181818;stroke-width:1.0;"/><polygon fill="none" points="1477.98,365.28,1463.1111,377.0663,1473.1567,383.6304,1477.98,365.28" style="stroke:#181818;stroke-width:1.0;"/></g><!--link Error to RecipeError--><g id="link_Error_RecipeError"><path codeLine="186" d="M1720.92,556.57 C1737.37,607.64 1766.49,698.07 1785.39,756.76 " fill="none" id="Error-RecipeError" style="stroke:#181818;stroke-width:1.0;"/><text fill="#000000" font-family="sans-serif" font-size="13" lengthAdjust="spacing" textLength="7" x="1715.3416" y="577.6883">1</text><text fill="#000000" font-family="sans-serif" font-size="13" lengthAdjust="spacing" textLength="20" x="1761.9641" y="746.3226">1..*</text></g><!--reverse link ApplicationDbContext to Recipe--><g id="link_ApplicationDbContext_Recipe"><path codeLine="188" d="M825.3844,615.3836 C753.2044,659.5536 678.29,705.41 612.14,745.9 " fill="none" id="ApplicationDbContext-backto-Recipe" style="stroke:#181818;stroke-width:1.0;"/><polygon fill="none" points="835.62,609.12,828.4143,608.8399,825.3844,615.3836,832.5901,615.6637,835.62,609.12" style="stroke:#181818;stroke-width:1.0;"/><text fill="#000000" font-family="sans-serif" font-size="13" lengthAdjust="spacing" textLength="7" x="816.001" y="630.9008">1</text><text fill="#000000" font-family="sans-serif" font-size="13" lengthAdjust="spacing" textLength="20" x="620.1783" y="738.2892">1..*</text></g><!--reverse link ApplicationDbContext to Tag--><g id="link_ApplicationDbContext_Tag"><path codeLine="189" d="M950.7023,620.8289 C944.7423,640.3889 942.34,649.55 937.5,669 C907.07,791.37 882.32,936.64 869.35,1018.8 " fill="none" id="ApplicationDbContext-backto-Tag" style="stroke:#181818;stroke-width:1.0;"/><polygon fill="none" points="954.2,609.35,948.6248,613.9236,950.7023,620.8289,956.2775,616.2554,954.2,609.35" style="stroke:#181818;stroke-width:1.0;"/><text fill="#000000" font-family="sans-serif" font-size="13" lengthAdjust="spacing" textLength="7" x="944.5066" y="630.8365">1</text><text fill="#000000" font-family="sans-serif" font-size="13" lengthAdjust="spacing" textLength="20" x="849.3336" y="1008.2175">1..*</text></g><!--reverse link ApplicationDbContext to RecipeTag--><g id="link_ApplicationDbContext_RecipeTag"><path codeLine="190" d="M962.9273,621.1861 C947.0073,711.0761 932.88,839.94 957.5,959 C963.77,989.33 977.76,1021.35 989.93,1045.39 " fill="none" id="ApplicationDbContext-backto-RecipeTag" style="stroke:#181818;stroke-width:1.0;"/><polygon fill="none" points="965.02,609.37,960.0349,614.5805,962.9273,621.1861,967.9124,615.9756,965.02,609.37" style="stroke:#181818;stroke-width:1.0;"/><text fill="#000000" font-family="sans-serif" font-size="13" lengthAdjust="spacing" textLength="7" x="956.1888" y="630.8581">1</text><text fill="#000000" font-family="sans-serif" font-size="13" lengthAdjust="spacing" textLength="20" x="964.5039" y="1034.7471">1..*</text></g><!--reverse link ApplicationDbContext to UserBookmarkRecipe--><g id="link_ApplicationDbContext_UserBookmarkRecipe"><path codeLine="191" d="M1006.1592,621.0632 C1017.8292,676.5632 1029.64,732.8 1038.41,774.5 " fill="none" id="ApplicationDbContext-backto-UserBookmarkRecipe" style="stroke:#181818;stroke-width:1.0;"/><polygon fill="none" points="1003.69,609.32,1001.0102,616.0147,1006.1592,621.0632,1008.839,614.3685,1003.69,609.32" style="stroke:#181818;stroke-width:1.0;"/><text fill="#000000" font-family="sans-serif" font-size="13" lengthAdjust="spacing" textLength="7" x="997.9893" y="631.1174">1</text><text fill="#000000" font-family="sans-serif" font-size="13" lengthAdjust="spacing" textLength="20" x="1015.1877" y="763.5808">1..*</text></g><!--reverse link ApplicationDbContext to UserReportComment--><g id="link_ApplicationDbContext_UserReportComment"><path codeLine="192" d="M1199.8905,613.3715 C1244.5005,635.3915 1273.11,652.14 1291.5,669 C1318.08,693.38 1339.27,727.75 1354.07,756.8 " fill="none" id="ApplicationDbContext-backto-UserReportComment" style="stroke:#181818;stroke-width:1.0;"/><polygon fill="none" points="1189.13,608.06,1192.7397,614.3026,1199.8905,613.3715,1196.2807,607.1289,1189.13,608.06" style="stroke:#181818;stroke-width:1.0;"/><text fill="#000000" font-family="sans-serif" font-size="13" lengthAdjust="spacing" textLength="7" x="1196.9005" y="628.825">1</text><text fill="#000000" font-family="sans-serif" font-size="13" lengthAdjust="spacing" textLength="20" x="1329.6587" y="745.9609">1..*</text></g><!--reverse link ApplicationDbContext to UserReportRecipe--><g id="link_ApplicationDbContext_UserReportRecipe"><path codeLine="193" d="M1091.5402,617.986 C1109.5902,636.876 1119.23,648.58 1134.5,669 C1154.82,696.18 1173.32,729.2 1187.3,756.77 " fill="none" id="ApplicationDbContext-backto-UserReportRecipe" style="stroke:#181818;stroke-width:1.0;"/><polygon fill="none" points="1083.25,609.31,1084.5031,616.4114,1091.5402,617.986,1090.2871,610.8846,1083.25,609.31" style="stroke:#181818;stroke-width:1.0;"/><text fill="#000000" font-family="sans-serif" font-size="13" lengthAdjust="spacing" textLength="7" x="1084.1379" y="631.1065">1</text><text fill="#000000" font-family="sans-serif" font-size="13" lengthAdjust="spacing" textLength="20" x="1162.8881" y="746.3338">1..*</text></g><!--link Recipe to BaseMongoDBAuditableEntity--><g id="link_Recipe_BaseMongoDBAuditableEntity"><path codeLine="195" d="M392.89,945.81 C350.72,1012.48 323.03,1091.76 371.5,1151 C396.11,1181.08 609.2354,1215.0134 744.4154,1234.0234 " fill="none" id="Recipe-to-BaseMongoDBAuditableEntity" style="stroke:#181818;stroke-width:1.0;"/><polygon fill="none" points="762.24,1236.53,745.2509,1228.0818,743.5798,1239.9649,762.24,1236.53" style="stroke:#181818;stroke-width:1.0;"/></g><!--link Step to BaseMongoDBAuditableEntity--><g id="link_Step_BaseMongoDBAuditableEntity"><path codeLine="196" d="M595.97,1133.08 C608.54,1139.21 621.3,1145.32 633.5,1151 C677.54,1171.51 710.4141,1186.0792 751.7841,1203.8692 " fill="none" id="Step-to-BaseMongoDBAuditableEntity" style="stroke:#181818;stroke-width:1.0;"/><polygon fill="none" points="768.32,1210.98,754.1544,1198.3572,749.4138,1209.3812,768.32,1210.98" style="stroke:#181818;stroke-width:1.0;"/></g><!--link Comment to BaseMongoDBAuditableEntity--><g id="link_Comment_BaseMongoDBAuditableEntity"><path codeLine="197" d="M751.46,1133.29 C774.35,1157.91 789.729,1174.4323 811.309,1197.6623 " fill="none" id="Comment-to-BaseMongoDBAuditableEntity" style="stroke:#181818;stroke-width:1.0;"/><polygon fill="none" points="823.56,1210.85,815.7049,1193.5787,806.9132,1201.746,823.56,1210.85" style="stroke:#181818;stroke-width:1.0;"/></g><!--link RecipeVote to BaseMongoDBEntity--><g id="link_RecipeVote_BaseMongoDBEntity"><path codeLine="198" d="M496.96,1290.25 C511.01,1309.38 517.0359,1317.5917 530.0559,1335.3217 " fill="none" id="RecipeVote-to-BaseMongoDBEntity" style="stroke:#181818;stroke-width:1.0;"/><polygon fill="none" points="540.71,1349.83,534.892,1331.7704,525.2198,1338.8731,540.71,1349.83" style="stroke:#181818;stroke-width:1.0;"/></g><!--link Tag to BaseMongoDBAuditableEntity--><g id="link_Tag_BaseMongoDBAuditableEntity"><path codeLine="199" d="M859.5,1151.09 C859.5,1171.39 859.5,1175.13 859.5,1193 " fill="none" id="Tag-to-BaseMongoDBAuditableEntity" style="stroke:#181818;stroke-width:1.0;"/><polygon fill="none" points="859.5,1211,865.5,1193,853.5,1193,859.5,1211" style="stroke:#181818;stroke-width:1.0;"/></g><!--link RecipeTag to BaseMongoDBAuditableEntity--><g id="link_RecipeTag_BaseMongoDBAuditableEntity"><path codeLine="200" d="M975.48,1124.75 C951.34,1150.72 931.9249,1171.596 907.7849,1197.566 " fill="none" id="RecipeTag-to-BaseMongoDBAuditableEntity" style="stroke:#181818;stroke-width:1.0;"/><polygon fill="none" points="895.53,1210.75,912.1796,1201.651,903.3903,1193.4811,895.53,1210.75" style="stroke:#181818;stroke-width:1.0;"/></g><!--link UserBookmarkRecipe to BaseMongoDBAuditableEntity--><g id="link_UserBookmarkRecipe_BaseMongoDBAuditableEntity"><path codeLine="201" d="M1065.98,853.71 C1096.47,920.36 1146.07,1058.52 1085.5,1151 C1056.83,1194.77 1021.303,1214.2396 973.933,1227.8196 " fill="none" id="UserBookmarkRecipe-to-BaseMongoDBAuditableEntity" style="stroke:#181818;stroke-width:1.0;"/><polygon fill="none" points="956.63,1232.78,975.5865,1233.5873,972.2795,1222.0519,956.63,1232.78" style="stroke:#181818;stroke-width:1.0;"/></g><!--link UserReportRecipe to BaseMongoDBAuditableEntity--><g id="link_UserReportRecipe_BaseMongoDBAuditableEntity"><path codeLine="202" d="M1214.13,871.14 C1211.92,944.5 1197.24,1072.8 1126.5,1151 C1082.91,1199.18 1031.2258,1219.9652 974.1758,1232.5752 " fill="none" id="UserReportRecipe-to-BaseMongoDBAuditableEntity" style="stroke:#181818;stroke-width:1.0;"/><polygon fill="none" points="956.6,1236.46,975.4707,1238.4337,972.8808,1226.7166,956.6,1236.46" style="stroke:#181818;stroke-width:1.0;"/></g><!--link UserReportComment to BaseMongoDBAuditableEntity--><g id="link_UserReportComment_BaseMongoDBAuditableEntity"><path codeLine="203" d="M1361.19,871.04 C1335.24,945.8 1279.16,1077.27 1186.5,1151 C1120.5,1203.51 1044.6446,1225.1783 974.4846,1236.6383 " fill="none" id="UserReportComment-to-BaseMongoDBAuditableEntity" style="stroke:#181818;stroke-width:1.0;"/><polygon fill="none" points="956.72,1239.54,975.4518,1242.5598,973.5174,1230.7168,956.72,1239.54" style="stroke:#181818;stroke-width:1.0;"/></g><!--reverse link Recipe to Step--><g id="link_Recipe_Step"><path codeLine="207" d="M502.5,971.34 C502.5,999.39 502.5,1014.86 502.5,1036.84 " fill="none" id="Recipe-backto-Step" style="stroke:#181818;stroke-width:1.0;"/><polygon fill="#181818" points="502.5,959.34,498.5,965.34,502.5,971.34,506.5,965.34,502.5,959.34" style="stroke:#181818;stroke-width:1.0;"/><text fill="#000000" font-family="sans-serif" font-size="13" lengthAdjust="spacing" textLength="15" x="486.3984" y="1026.0803">1..</text></g><!--reverse link Recipe to Comment--><g id="link_Recipe_Comment"><path codeLine="208" d="M619.475,968.4933 C640.995,996.7233 654.81,1014.85 671.65,1036.96 " fill="none" id="Recipe-backto-Comment" style="stroke:#181818;stroke-width:1.0;"/><polygon fill="#181818" points="612.2,958.95,612.6564,966.1466,619.475,968.4933,619.0186,961.2967,612.2,958.95" style="stroke:#181818;stroke-width:1.0;"/><text fill="#000000" font-family="sans-serif" font-size="13" lengthAdjust="spacing" textLength="15" x="650.283" y="1026.2179">1..</text></g><!--reverse link Recipe to RecipeVote--><g id="link_Recipe_RecipeVote"><path codeLine="209" d="M384.3472,909.8973 C351.0572,942.7373 327.17,974.61 309.5,1019 C287.8,1073.51 280.96,1099.74 309.5,1151 C331.3,1190.15 375.8,1215.71 412.19,1230.96 " fill="none" id="Recipe-backto-RecipeVote" style="stroke:#181818;stroke-width:1.0;"/><polygon fill="#181818" points="392.89,901.47,385.8095,902.8361,384.3472,909.8973,391.4277,908.5313,392.89,901.47" style="stroke:#181818;stroke-width:1.0;"/><text fill="#000000" font-family="sans-serif" font-size="13" lengthAdjust="spacing" textLength="15" x="389.4132" y="1225.1306">1..</text></g><!--link BaseMongoDBAuditableEntity to BaseMongoDBEntity--><g id="link_BaseMongoDBAuditableEntity_BaseMongoDBEntity"><path codeLine="211" d="M769.99,1290.08 C725.07,1309.44 688.0795,1325.3743 646.6495,1343.2343 " fill="none" id="BaseMongoDBAuditableEntity-to-BaseMongoDBEntity" style="stroke:#181818;stroke-width:1.0;"/><polygon fill="none" points="630.12,1350.36,649.0247,1348.7442,644.2743,1337.7245,630.12,1350.36" style="stroke:#181818;stroke-width:1.0;"/></g><!--SRC=[vLTHJ-Cu47xFhx2wBx2xeDlN2XML5jXAjw2ZXPVJQUKcqsBXn3dRASS2__t6iPCcZjk6Uxs-j9sPRsRyUJnZgoUMvLJIbCISAZNMMh9beM4MYspEVW7vBNfa2P2OoPX359LMv88g6ETi8Z8j1USWoMj4yFFffu8i0JaaitdvmqaVjSwDCVoZnt4CIWaq-TuLHkzLX3k8MGwT05-kGLlL53HbN1tzUIL5UY6Ibx-8fvikRicw8peU4gfUifWig7ewcurZpKHs1whWUhGDxxdwem3vKgLW5RDaIAuBbbWPBa0KcQw5UnrzfrcoNTB9pzYIWAIDyvopc9gKfal7ZJDQopo-Lo0dd466jjUj_pOBw_WecBo4lmjG-YkPq2m6piiW2_446ObzIPiZIyvPYtQKvI9JS3uQ4N_JF9CMQqDdurWhzAEGPXKPJL6diFYoTLCtPIhdzELcXtgyqVUIXpGtHRe4URkwmkeHpwOYMSMIOYdZLDf4r93ypfG-cpU5ZK9eoVSKm2obQ-Zaic2QO-Bbb_4P98Y8avF1jzFJGJjO567685SqXd1XjEiH5p9Tpg7Qfv5BWAvh1VuUDH5DNIrn5cPFBeHuIgbyylntLGtC7UH2wW2YgUZOJqIQOX4704xJs93_FHDbHxtDSEahjYvChHtLHDpcXXTrKJ2EpPU8rbyyrHlXwXKT_109y8a4f19TbFygNDhuKw4QXzoqWuhofH2SpDGL5dGXeIMR5sLNT-VZCYjIa7J9uUnIIY57fFoowa_MwL69P1NoAmcWe4GTxuMLfjRosEt-enJFivLBywX9nQlII47yJhuulD5Qnvw-GjVk3nc6qrTRM4tgm3NPnMXGCRiW3vGNi2F71TaORUqAaOUo5R9XVJxwZpcNq3flw_pLytKZCknwfSxJiDISNgQnD366HgpRmW2dksOe3l5m8_RcqAxSz1MEwYIStpX9BDZG4JQP0WSDXwpkyuI6hDwRLwWV8bkBwSLbffckhnTcAMIM12t7HSAqsHeBSOWfHbgm54XvcY4PQqzkap5oZw8gffsPxOdcPbTpd4r1nPALJQMj24-_MRQMa33RpyefQxMkwqsmTPhqAj2v5Sz1Rap7nEdd90z2mvIjLeqPNertrnKRcfaoLxeDUZLTmIr5QCeV63mtxEOQydhuu-ywgQe1bvfMrtNrPjAfz5j9yyw0xXonjp9X6UKstKRqib-Rl5it5wrf_0X9nQR7slasWalB1Wdvyk-ZHkOnuvM2MSFh7knzla4B7ujpqgsqR5RjzKnmZ7WIBCEra2z30jXbgesWkb1DIQUQl5ItGKCtCTHsEq9tLB-6B-vx-ue_lZ_WmyceyezEQ_c1IAsj3eTo9X-FrNbadPoyZRgFkwxTuDl0t5a7WTRStxXybqJHlXVIVcWlf1icFMq3r_D3K7DzBx_3hxU-QEyzzu5yxM29mc-4ixVJq-2TsUn-UP4pZkm3vFF03IcdENipkMrl9f6Tg2r0AuLW1cwHBVi-bdYE-pliQTnj0trHhSFuCL3rd7CZjpvZuPaUcUbnqCWbSj1kszixfiu2cUlffOzbb-1Ua2PH7m3qPI6goVzSFxMHvOwmsbvVlcKnYdQ7sS7mlm00]--></g></svg>