<?xml version="1.0" encoding="us-ascii" standalone="no"?><svg xmlns="http://www.w3.org/2000/svg" xmlns:xlink="http://www.w3.org/1999/xlink" contentStyleType="text/css" height="789px" preserveAspectRatio="none" style="width:1183px;height:789px;background:#FFFFFF;" version="1.1" viewBox="0 0 1183 789" width="1183px" zoomAndPan="magnify"><defs/><g><text fill="#000000" font-family="sans-serif" font-size="14" font-weight="bold" lengthAdjust="spacing" textLength="142" x="522" y="29.5332">Get recipe comment</text><rect fill="#FFFFFF" height="528.9063" style="stroke:#181818;stroke-width:1.0;" width="10" x="251.5" y="153.5703"/><rect fill="#FFFFFF" height="468.2031" style="stroke:#181818;stroke-width:1.0;" width="10" x="420.5" y="183.9219"/><rect fill="#FFFFFF" height="361.0547" style="stroke:#181818;stroke-width:1.0;" width="10" x="639.5" y="260.7188"/><rect fill="#FFFFFF" height="91.0547" style="stroke:#181818;stroke-width:1.0;" width="10" x="911.5" y="500.3672"/><rect fill="#FFFFFF" height="30.3516" style="stroke:#181818;stroke-width:1.0;" width="10" x="1062.5" y="530.7188"/><rect fill="#FFFFFF" height="30.3516" style="stroke:#181818;stroke-width:1.0;" width="10" x="1143" y="291.0703"/><rect fill="none" height="354.0547" style="stroke:#000000;stroke-width:1.5;" width="1104" x="10" y="336.4219"/><line style="stroke:#181818;stroke-width:0.5;stroke-dasharray:5.0,5.0;" x1="37" x2="37" y1="121.2188" y2="707.4766"/><line style="stroke:#181818;stroke-width:0.5;stroke-dasharray:5.0,5.0;" x1="256" x2="256" y1="121.2188" y2="707.4766"/><line style="stroke:#181818;stroke-width:0.5;stroke-dasharray:5.0,5.0;" x1="425.5" x2="425.5" y1="121.2188" y2="707.4766"/><line style="stroke:#181818;stroke-width:0.5;stroke-dasharray:5.0,5.0;" x1="644" x2="644" y1="121.2188" y2="707.4766"/><line style="stroke:#181818;stroke-width:0.5;stroke-dasharray:5.0,5.0;" x1="916.5" x2="916.5" y1="121.2188" y2="707.4766"/><line style="stroke:#181818;stroke-width:0.5;stroke-dasharray:5.0,5.0;" x1="1067" x2="1067" y1="121.2188" y2="707.4766"/><line style="stroke:#181818;stroke-width:0.5;stroke-dasharray:5.0,5.0;" x1="1148" x2="1148" y1="121.2188" y2="707.4766"/><text fill="#000000" font-family="sans-serif" font-size="14" lengthAdjust="spacing" textLength="29" x="20" y="118.1426">User</text><ellipse cx="37.5" cy="52.1094" fill="#E2E2F0" rx="8" ry="8" style="stroke:#181818;stroke-width:0.5;"/><path d="M37.5,60.1094 L37.5,87.1094 M24.5,68.1094 L50.5,68.1094 M37.5,87.1094 L24.5,102.1094 M37.5,87.1094 L50.5,102.1094 " fill="none" style="stroke:#181818;stroke-width:0.5;"/><text fill="#000000" font-family="sans-serif" font-size="14" lengthAdjust="spacing" textLength="29" x="20" y="721.0098">User</text><ellipse cx="37.5" cy="732.5859" fill="#E2E2F0" rx="8" ry="8" style="stroke:#181818;stroke-width:0.5;"/><path d="M37.5,740.5859 L37.5,767.5859 M24.5,748.5859 L50.5,748.5859 M37.5,767.5859 L24.5,782.5859 M37.5,767.5859 L50.5,782.5859 " fill="none" style="stroke:#181818;stroke-width:0.5;"/><text fill="#000000" font-family="sans-serif" font-size="14" lengthAdjust="spacing" textLength="53" x="227" y="118.1426">MobileUI</text><path d="M236,75.6094 L236,99.6094 M236,87.6094 L253,87.6094 " fill="none" style="stroke:#181818;stroke-width:0.5;"/><ellipse cx="265" cy="87.6094" fill="#E2E2F0" rx="12" ry="12" style="stroke:#181818;stroke-width:0.5;"/><text fill="#000000" font-family="sans-serif" font-size="14" lengthAdjust="spacing" textLength="53" x="227" y="721.0098">MobileUI</text><path d="M236,728.0859 L236,752.0859 M236,740.0859 L253,740.0859 " fill="none" style="stroke:#181818;stroke-width:0.5;"/><ellipse cx="265" cy="740.0859" fill="#E2E2F0" rx="12" ry="12" style="stroke:#181818;stroke-width:0.5;"/><rect fill="#E2E2F0" height="49.2188" rx="2.5" ry="2.5" style="stroke:#181818;stroke-width:0.5;" width="94" x="378.5" y="71"/><text fill="#000000" font-family="sans-serif" font-size="14" lengthAdjust="spacing" textLength="80" x="385.5" y="92.5332">&#171;cordinator&#187;</text><text fill="#000000" font-family="sans-serif" font-size="14" lengthAdjust="spacing" textLength="75" x="390" y="110.1426">ApiGateway</text><rect fill="#E2E2F0" height="49.2188" rx="2.5" ry="2.5" style="stroke:#181818;stroke-width:0.5;" width="94" x="378.5" y="706.4766"/><text fill="#000000" font-family="sans-serif" font-size="14" lengthAdjust="spacing" textLength="80" x="385.5" y="728.0098">&#171;cordinator&#187;</text><text fill="#000000" font-family="sans-serif" font-size="14" lengthAdjust="spacing" textLength="75" x="390" y="745.6191">ApiGateway</text><rect fill="#E2E2F0" height="49.2188" rx="2.5" ry="2.5" style="stroke:#181818;stroke-width:0.5;" width="109" x="590" y="71"/><text fill="#000000" font-family="sans-serif" font-size="14" lengthAdjust="spacing" textLength="61" x="614" y="92.5332">&#171;service&#187;</text><text fill="#000000" font-family="sans-serif" font-size="14" lengthAdjust="spacing" textLength="91" x="601" y="110.1426">RecipeService</text><rect fill="#E2E2F0" height="49.2188" rx="2.5" ry="2.5" style="stroke:#181818;stroke-width:0.5;" width="109" x="590" y="706.4766"/><text fill="#000000" font-family="sans-serif" font-size="14" lengthAdjust="spacing" textLength="61" x="614" y="728.0098">&#171;service&#187;</text><text fill="#000000" font-family="sans-serif" font-size="14" lengthAdjust="spacing" textLength="91" x="601" y="745.6191">RecipeService</text><rect fill="#E2E2F0" height="49.2188" rx="2.5" ry="2.5" style="stroke:#181818;stroke-width:0.5;" width="94" x="869.5" y="71"/><text fill="#000000" font-family="sans-serif" font-size="14" lengthAdjust="spacing" textLength="61" x="886" y="92.5332">&#171;service&#187;</text><text fill="#000000" font-family="sans-serif" font-size="14" lengthAdjust="spacing" textLength="76" x="880.5" y="110.1426">UserService</text><rect fill="#E2E2F0" height="49.2188" rx="2.5" ry="2.5" style="stroke:#181818;stroke-width:0.5;" width="94" x="869.5" y="706.4766"/><text fill="#000000" font-family="sans-serif" font-size="14" lengthAdjust="spacing" textLength="61" x="886" y="728.0098">&#171;service&#187;</text><text fill="#000000" font-family="sans-serif" font-size="14" lengthAdjust="spacing" textLength="76" x="880.5" y="745.6191">UserService</text><text fill="#000000" font-family="sans-serif" font-size="14" lengthAdjust="spacing" textLength="67" x="1031" y="118.1426">Postgresql</text><path d="M1049.5,67.6094 C1049.5,57.6094 1067.5,57.6094 1067.5,57.6094 C1067.5,57.6094 1085.5,57.6094 1085.5,67.6094 L1085.5,93.6094 C1085.5,103.6094 1067.5,103.6094 1067.5,103.6094 C1067.5,103.6094 1049.5,103.6094 1049.5,93.6094 L1049.5,67.6094 " fill="#E2E2F0" style="stroke:#181818;stroke-width:1.5;"/><path d="M1049.5,67.6094 C1049.5,77.6094 1067.5,77.6094 1067.5,77.6094 C1067.5,77.6094 1085.5,77.6094 1085.5,67.6094 " fill="none" style="stroke:#181818;stroke-width:1.5;"/><text fill="#000000" font-family="sans-serif" font-size="14" lengthAdjust="spacing" textLength="67" x="1031" y="721.0098">Postgresql</text><path d="M1049.5,734.0859 C1049.5,724.0859 1067.5,724.0859 1067.5,724.0859 C1067.5,724.0859 1085.5,724.0859 1085.5,734.0859 L1085.5,760.0859 C1085.5,770.0859 1067.5,770.0859 1067.5,770.0859 C1067.5,770.0859 1049.5,770.0859 1049.5,760.0859 L1049.5,734.0859 " fill="#E2E2F0" style="stroke:#181818;stroke-width:1.5;"/><path d="M1049.5,734.0859 C1049.5,744.0859 1067.5,744.0859 1067.5,744.0859 C1067.5,744.0859 1085.5,744.0859 1085.5,734.0859 " fill="none" style="stroke:#181818;stroke-width:1.5;"/><text fill="#000000" font-family="sans-serif" font-size="14" lengthAdjust="spacing" textLength="62" x="1114" y="118.1426">MongoDB</text><path d="M1130,67.6094 C1130,57.6094 1148,57.6094 1148,57.6094 C1148,57.6094 1166,57.6094 1166,67.6094 L1166,93.6094 C1166,103.6094 1148,103.6094 1148,103.6094 C1148,103.6094 1130,103.6094 1130,93.6094 L1130,67.6094 " fill="#E2E2F0" style="stroke:#181818;stroke-width:1.5;"/><path d="M1130,67.6094 C1130,77.6094 1148,77.6094 1148,77.6094 C1148,77.6094 1166,77.6094 1166,67.6094 " fill="none" style="stroke:#181818;stroke-width:1.5;"/><text fill="#000000" font-family="sans-serif" font-size="14" lengthAdjust="spacing" textLength="62" x="1114" y="721.0098">MongoDB</text><path d="M1130,734.0859 C1130,724.0859 1148,724.0859 1148,724.0859 C1148,724.0859 1166,724.0859 1166,734.0859 L1166,760.0859 C1166,770.0859 1148,770.0859 1148,770.0859 C1148,770.0859 1130,770.0859 1130,760.0859 L1130,734.0859 " fill="#E2E2F0" style="stroke:#181818;stroke-width:1.5;"/><path d="M1130,734.0859 C1130,744.0859 1148,744.0859 1148,744.0859 C1148,744.0859 1166,744.0859 1166,734.0859 " fill="none" style="stroke:#181818;stroke-width:1.5;"/><rect fill="#FFFFFF" height="528.9063" style="stroke:#181818;stroke-width:1.0;" width="10" x="251.5" y="153.5703"/><rect fill="#FFFFFF" height="468.2031" style="stroke:#181818;stroke-width:1.0;" width="10" x="420.5" y="183.9219"/><rect fill="#FFFFFF" height="361.0547" style="stroke:#181818;stroke-width:1.0;" width="10" x="639.5" y="260.7188"/><rect fill="#FFFFFF" height="91.0547" style="stroke:#181818;stroke-width:1.0;" width="10" x="911.5" y="500.3672"/><rect fill="#FFFFFF" height="30.3516" style="stroke:#181818;stroke-width:1.0;" width="10" x="1062.5" y="530.7188"/><rect fill="#FFFFFF" height="30.3516" style="stroke:#181818;stroke-width:1.0;" width="10" x="1143" y="291.0703"/><polygon fill="#181818" points="239.5,149.5703,249.5,153.5703,239.5,157.5703,243.5,153.5703" style="stroke:#181818;stroke-width:1.0;"/><line style="stroke:#181818;stroke-width:1.0;" x1="37.5" x2="245.5" y1="153.5703" y2="153.5703"/><text fill="#000000" font-family="sans-serif" font-size="13" lengthAdjust="spacing" textLength="163" x="44.5" y="148.7139">1. Enter recipe detail screen</text><polygon fill="#181818" points="408.5,179.9219,418.5,183.9219,408.5,187.9219,412.5,183.9219" style="stroke:#181818;stroke-width:1.0;"/><line style="stroke:#181818;stroke-width:1.0;" x1="261.5" x2="414.5" y1="183.9219" y2="183.9219"/><text fill="#000000" font-family="sans-serif" font-size="13" lengthAdjust="spacing" textLength="140" x="268.5" y="179.0654">2. Get recipe comments</text><rect fill="#FFFFFF" height="41.4453" style="stroke:#000000;stroke-width:1.5;" width="126" x="375.5" y="191.9219"/><path d="M375.5,191.9219 L437.5,191.9219 L437.5,199.9219 L427.5,209.9219 L375.5,209.9219 L375.5,191.9219 " fill="#EEEEEE" style="stroke:#000000;stroke-width:2.0;"/><text fill="#000000" font-family="sans-serif" font-size="13" font-weight="bold" lengthAdjust="spacing" textLength="17" x="388.5" y="207.417">ref</text><text fill="#000000" font-family="sans-serif" font-size="12" lengthAdjust="spacing" textLength="118" x="379.5" y="226.3789">3. Verify access token</text><polygon fill="#181818" points="627.5,256.7188,637.5,260.7188,627.5,264.7188,631.5,260.7188" style="stroke:#181818;stroke-width:1.0;"/><line style="stroke:#181818;stroke-width:1.0;" x1="430.5" x2="633.5" y1="260.7188" y2="260.7188"/><text fill="#000000" font-family="sans-serif" font-size="13" lengthAdjust="spacing" textLength="108" x="437.5" y="255.8623">4. Forward request</text><polygon fill="#181818" points="1131,287.0703,1141,291.0703,1131,295.0703,1135,291.0703" style="stroke:#181818;stroke-width:1.0;"/><line style="stroke:#181818;stroke-width:1.0;" x1="649.5" x2="1137" y1="291.0703" y2="291.0703"/><text fill="#000000" font-family="sans-serif" font-size="13" lengthAdjust="spacing" textLength="79" x="656.5" y="286.2139">5. Query data</text><polygon fill="#181818" points="660.5,317.4219,650.5,321.4219,660.5,325.4219,656.5,321.4219" style="stroke:#181818;stroke-width:1.0;"/><line style="stroke:#181818;stroke-width:1.0;stroke-dasharray:2.0,2.0;" x1="654.5" x2="1147" y1="321.4219" y2="321.4219"/><text fill="#000000" font-family="sans-serif" font-size="13" lengthAdjust="spacing" textLength="110" x="666.5" y="316.5654">6. Return response</text><path d="M10,336.4219 L71,336.4219 L71,344.7734 L61,354.7734 L10,354.7734 L10,336.4219 " fill="#EEEEEE" style="stroke:#000000;stroke-width:1.5;"/><rect fill="none" height="354.0547" style="stroke:#000000;stroke-width:1.5;" width="1104" x="10" y="336.4219"/><text fill="#000000" font-family="sans-serif" font-size="13" font-weight="bold" lengthAdjust="spacing" textLength="16" x="25" y="350.917">alt</text><text fill="#000000" font-family="sans-serif" font-size="11" font-weight="bold" lengthAdjust="spacing" textLength="134" x="86" y="349.8408">[Comment list is empty]</text><polygon fill="#181818" points="441.5,373.125,431.5,377.125,441.5,381.125,437.5,377.125" style="stroke:#181818;stroke-width:1.0;"/><line style="stroke:#181818;stroke-width:1.0;stroke-dasharray:2.0,2.0;" x1="435.5" x2="638.5" y1="377.125" y2="377.125"/><text fill="#000000" font-family="sans-serif" font-size="13" lengthAdjust="spacing" textLength="123" x="447.5" y="372.2686">7A. Return empty list</text><polygon fill="#181818" points="272.5,403.4766,262.5,407.4766,272.5,411.4766,268.5,407.4766" style="stroke:#181818;stroke-width:1.0;"/><line style="stroke:#181818;stroke-width:1.0;stroke-dasharray:2.0,2.0;" x1="266.5" x2="419.5" y1="407.4766" y2="407.4766"/><text fill="#000000" font-family="sans-serif" font-size="13" lengthAdjust="spacing" textLength="134" x="278.5" y="402.6201">7A.1. Foward response</text><polygon fill="#181818" points="48.5,433.8281,38.5,437.8281,48.5,441.8281,44.5,437.8281" style="stroke:#181818;stroke-width:1.0;"/><line style="stroke:#181818;stroke-width:1.0;stroke-dasharray:2.0,2.0;" x1="42.5" x2="250.5" y1="437.8281" y2="437.8281"/><text fill="#000000" font-family="sans-serif" font-size="13" lengthAdjust="spacing" textLength="139" x="54.5" y="432.9717">7A.2. Display empty list</text><line style="stroke:#000000;stroke-width:1.0;stroke-dasharray:2.0,2.0;" x1="10" x2="1114" y1="446.8281" y2="446.8281"/><text fill="#000000" font-family="sans-serif" font-size="11" font-weight="bold" lengthAdjust="spacing" textLength="155" x="15" y="458.2471">[Comment list is not empty]</text><polygon fill="#181818" points="899.5,496.3672,909.5,500.3672,899.5,504.3672,903.5,500.3672" style="stroke:#181818;stroke-width:1.0;"/><line style="stroke:#181818;stroke-width:1.0;" x1="649.5" x2="905.5" y1="500.3672" y2="500.3672"/><text fill="#000000" font-family="sans-serif" font-size="13" lengthAdjust="spacing" textLength="148" x="656.5" y="479.1592">8. gRPC call to get user's</text><text fill="#000000" font-family="sans-serif" font-size="13" lengthAdjust="spacing" textLength="136" x="660.5" y="495.5107">information list &#171;gRPC&#187;</text><polygon fill="#181818" points="1050.5,526.7188,1060.5,530.7188,1050.5,534.7188,1054.5,530.7188" style="stroke:#181818;stroke-width:1.0;"/><line style="stroke:#181818;stroke-width:1.0;" x1="921.5" x2="1056.5" y1="530.7188" y2="530.7188"/><text fill="#000000" font-family="sans-serif" font-size="13" lengthAdjust="spacing" textLength="79" x="928.5" y="525.8623">9. Query data</text><polygon fill="#181818" points="932.5,557.0703,922.5,561.0703,932.5,565.0703,928.5,561.0703" style="stroke:#181818;stroke-width:1.0;"/><line style="stroke:#181818;stroke-width:1.0;stroke-dasharray:2.0,2.0;" x1="926.5" x2="1066.5" y1="561.0703" y2="561.0703"/><text fill="#000000" font-family="sans-serif" font-size="13" lengthAdjust="spacing" textLength="117" x="938.5" y="556.2139">10. Return response</text><polygon fill="#181818" points="660.5,587.4219,650.5,591.4219,660.5,595.4219,656.5,591.4219" style="stroke:#181818;stroke-width:1.0;"/><line style="stroke:#181818;stroke-width:1.0;stroke-dasharray:2.0,2.0;" x1="654.5" x2="915.5" y1="591.4219" y2="591.4219"/><text fill="#000000" font-family="sans-serif" font-size="13" lengthAdjust="spacing" textLength="238" x="666.5" y="586.5654">11. Return user's information list &#171;gRPC&#187;</text><polygon fill="#181818" points="441.5,617.7734,431.5,621.7734,441.5,625.7734,437.5,621.7734" style="stroke:#181818;stroke-width:1.0;"/><line style="stroke:#181818;stroke-width:1.0;stroke-dasharray:2.0,2.0;" x1="435.5" x2="643.5" y1="621.7734" y2="621.7734"/><text fill="#000000" font-family="sans-serif" font-size="13" lengthAdjust="spacing" textLength="185" x="447.5" y="616.917">12. Return recipe comments list</text><polygon fill="#181818" points="272.5,648.125,262.5,652.125,272.5,656.125,268.5,652.125" style="stroke:#181818;stroke-width:1.0;"/><line style="stroke:#181818;stroke-width:1.0;stroke-dasharray:2.0,2.0;" x1="266.5" x2="424.5" y1="652.125" y2="652.125"/><text fill="#000000" font-family="sans-serif" font-size="13" lengthAdjust="spacing" textLength="125" x="278.5" y="647.2686">13. Forward response</text><polygon fill="#181818" points="48.5,678.4766,38.5,682.4766,48.5,686.4766,44.5,682.4766" style="stroke:#181818;stroke-width:1.0;"/><line style="stroke:#181818;stroke-width:1.0;stroke-dasharray:2.0,2.0;" x1="42.5" x2="255.5" y1="682.4766" y2="682.4766"/><text fill="#000000" font-family="sans-serif" font-size="13" lengthAdjust="spacing" textLength="190" x="54.5" y="677.6201">14. Display recipe comments list</text><!--SRC=[XLDDRzim3BthLn2vz534MzhkAp0CjCaMx52WQz6TTb5a9XFgIAuaDmY6_lUHiXlBoTOUHR_t-CX71nqgXD420pXKkaPGThD14qRY1Ex2ZZvwL45R8tBFpq80LHuRD0hdMgwTtC0VgW7nL-YutBq1hgHwM3ZRc79cA-jW-ri7ZD-UnRF8ttM2Ggf0N-yzEh5aj7GxkBPBNU7zTr5B5pGvaoR0AC-LTQKsaWX5ySl0PQqNCk1MxaOWVV8yv97uarOOIRTnqhks4dc3ocjKDfaIaxSePP1BwH5kh0zhX_wnwclNrgpj_4e8Pi2us0zuUZg5IGPVJQ1wbq69GUeAl7A8HeWNADFw2Pbubi5nT5u8oWBi4mdsy2cSP_0JdLxjG2g5taEm3opVOxZ1O1NSuoA3RzPjfIkf3mNlWn03K3jD78_n7pBuqI15oBCV8FFn-0Kw7a_XOqRjGkCCAVlQ6ezq35M0MJi8LDe7q1vmKuTTF9p4AsiDrAVmwN8l62bH8FBsAsHMkXIYJ7Z0RhxE1LDYKAtXbXl1jF6vzdL51f8MM574XwwD3OdpevKbfyDh-vp1-lPc1afM5IK3Qygr8SY91xexRLRMRIJ_YAr-dZEwAFPM4-N-_bZuoo2FGpWFsECvbCdxurIE1s1UeXE9apsnC_v_rs-66GNF4YU32typs4W_Jo_tjMGZ-g9Fzf_Tq9H0n_aN]--></g></svg>