<?xml version="1.0" encoding="us-ascii" standalone="no"?><svg xmlns="http://www.w3.org/2000/svg" xmlns:xlink="http://www.w3.org/1999/xlink" contentStyleType="text/css" height="867px" preserveAspectRatio="none" style="width:1461px;height:867px;background:#FFFFFF;" version="1.1" viewBox="0 0 1461 867" width="1461px" zoomAndPan="magnify"><defs/><g><text fill="#000000" font-family="sans-serif" font-size="14" font-weight="bold" lengthAdjust="spacing" textLength="98" x="683.25" y="29.5332">Search recipe</text><rect fill="#FFFFFF" height="597.125" style="stroke:#181818;stroke-width:1.0;" width="10" x="206.5" y="169.9219"/><rect fill="#FFFFFF" height="536.4219" style="stroke:#181818;stroke-width:1.0;" width="10" x="365.5" y="200.2734"/><rect fill="#FFFFFF" height="429.2734" style="stroke:#181818;stroke-width:1.0;" width="10" x="554.5" y="277.0703"/><rect fill="#FFFFFF" height="91.0547" style="stroke:#181818;stroke-width:1.0;" width="10" x="826.5" y="584.9375"/><rect fill="#FFFFFF" height="137.4063" style="stroke:#181818;stroke-width:1.0;" width="10" x="930.5" y="323.7734"/><rect fill="#FFFFFF" height="107.0547" style="stroke:#181818;stroke-width:1.0;" width="10" x="1166.5" y="431.1797"/><rect fill="#FFFFFF" height="30.3516" style="stroke:#181818;stroke-width:1.0;" width="10" x="1338.5" y="354.125"/><rect fill="#FFFFFF" height="30.3516" style="stroke:#181818;stroke-width:1.0;" width="10" x="1338.5" y="507.8828"/><rect fill="#FFFFFF" height="30.3516" style="stroke:#181818;stroke-width:1.0;" width="10" x="1419" y="615.2891"/><line style="stroke:#181818;stroke-width:0.5;stroke-dasharray:5.0,5.0;" x1="22" x2="22" y1="121.2188" y2="785.0469"/><line style="stroke:#181818;stroke-width:0.5;stroke-dasharray:5.0,5.0;" x1="211" x2="211" y1="121.2188" y2="785.0469"/><line style="stroke:#181818;stroke-width:0.5;stroke-dasharray:5.0,5.0;" x1="370.5" x2="370.5" y1="121.2188" y2="785.0469"/><line style="stroke:#181818;stroke-width:0.5;stroke-dasharray:5.0,5.0;" x1="559" x2="559" y1="121.2188" y2="785.0469"/><line style="stroke:#181818;stroke-width:0.5;stroke-dasharray:5.0,5.0;" x1="831.5" x2="831.5" y1="121.2188" y2="785.0469"/><line style="stroke:#181818;stroke-width:0.5;stroke-dasharray:5.0,5.0;" x1="935.5" x2="935.5" y1="121.2188" y2="785.0469"/><line style="stroke:#181818;stroke-width:0.5;stroke-dasharray:5.0,5.0;" x1="1171.5" x2="1171.5" y1="121.2188" y2="785.0469"/><line style="stroke:#181818;stroke-width:0.5;stroke-dasharray:5.0,5.0;" x1="1343.5" x2="1343.5" y1="121.2188" y2="785.0469"/><line style="stroke:#181818;stroke-width:0.5;stroke-dasharray:5.0,5.0;" x1="1423.5" x2="1423.5" y1="121.2188" y2="785.0469"/><text fill="#000000" font-family="sans-serif" font-size="14" lengthAdjust="spacing" textLength="29" x="5" y="118.1426">User</text><ellipse cx="22.5" cy="52.1094" fill="#E2E2F0" rx="8" ry="8" style="stroke:#181818;stroke-width:0.5;"/><path d="M22.5,60.1094 L22.5,87.1094 M9.5,68.1094 L35.5,68.1094 M22.5,87.1094 L9.5,102.1094 M22.5,87.1094 L35.5,102.1094 " fill="none" style="stroke:#181818;stroke-width:0.5;"/><text fill="#000000" font-family="sans-serif" font-size="14" lengthAdjust="spacing" textLength="29" x="5" y="798.5801">User</text><ellipse cx="22.5" cy="810.1563" fill="#E2E2F0" rx="8" ry="8" style="stroke:#181818;stroke-width:0.5;"/><path d="M22.5,818.1563 L22.5,845.1563 M9.5,826.1563 L35.5,826.1563 M22.5,845.1563 L9.5,860.1563 M22.5,845.1563 L35.5,860.1563 " fill="none" style="stroke:#181818;stroke-width:0.5;"/><text fill="#000000" font-family="sans-serif" font-size="14" lengthAdjust="spacing" textLength="53" x="182" y="118.1426">MobileUI</text><path d="M191,75.6094 L191,99.6094 M191,87.6094 L208,87.6094 " fill="none" style="stroke:#181818;stroke-width:0.5;"/><ellipse cx="220" cy="87.6094" fill="#E2E2F0" rx="12" ry="12" style="stroke:#181818;stroke-width:0.5;"/><text fill="#000000" font-family="sans-serif" font-size="14" lengthAdjust="spacing" textLength="53" x="182" y="798.5801">MobileUI</text><path d="M191,805.6563 L191,829.6563 M191,817.6563 L208,817.6563 " fill="none" style="stroke:#181818;stroke-width:0.5;"/><ellipse cx="220" cy="817.6563" fill="#E2E2F0" rx="12" ry="12" style="stroke:#181818;stroke-width:0.5;"/><rect fill="#E2E2F0" height="49.2188" rx="2.5" ry="2.5" style="stroke:#181818;stroke-width:0.5;" width="94" x="323.5" y="71"/><text fill="#000000" font-family="sans-serif" font-size="14" lengthAdjust="spacing" textLength="80" x="330.5" y="92.5332">&#171;cordinator&#187;</text><text fill="#000000" font-family="sans-serif" font-size="14" lengthAdjust="spacing" textLength="75" x="335" y="110.1426">ApiGateway</text><rect fill="#E2E2F0" height="49.2188" rx="2.5" ry="2.5" style="stroke:#181818;stroke-width:0.5;" width="94" x="323.5" y="784.0469"/><text fill="#000000" font-family="sans-serif" font-size="14" lengthAdjust="spacing" textLength="80" x="330.5" y="805.5801">&#171;cordinator&#187;</text><text fill="#000000" font-family="sans-serif" font-size="14" lengthAdjust="spacing" textLength="75" x="335" y="823.1895">ApiGateway</text><rect fill="#E2E2F0" height="49.2188" rx="2.5" ry="2.5" style="stroke:#181818;stroke-width:0.5;" width="109" x="505" y="71"/><text fill="#000000" font-family="sans-serif" font-size="14" lengthAdjust="spacing" textLength="61" x="529" y="92.5332">&#171;service&#187;</text><text fill="#000000" font-family="sans-serif" font-size="14" lengthAdjust="spacing" textLength="91" x="516" y="110.1426">RecipeService</text><rect fill="#E2E2F0" height="49.2188" rx="2.5" ry="2.5" style="stroke:#181818;stroke-width:0.5;" width="109" x="505" y="784.0469"/><text fill="#000000" font-family="sans-serif" font-size="14" lengthAdjust="spacing" textLength="61" x="529" y="805.5801">&#171;service&#187;</text><text fill="#000000" font-family="sans-serif" font-size="14" lengthAdjust="spacing" textLength="91" x="516" y="823.1895">RecipeService</text><rect fill="#E2E2F0" height="49.2188" rx="2.5" ry="2.5" style="stroke:#181818;stroke-width:0.5;" width="94" x="784.5" y="71"/><text fill="#000000" font-family="sans-serif" font-size="14" lengthAdjust="spacing" textLength="61" x="801" y="92.5332">&#171;service&#187;</text><text fill="#000000" font-family="sans-serif" font-size="14" lengthAdjust="spacing" textLength="76" x="795.5" y="110.1426">UserService</text><rect fill="#E2E2F0" height="49.2188" rx="2.5" ry="2.5" style="stroke:#181818;stroke-width:0.5;" width="94" x="784.5" y="784.0469"/><text fill="#000000" font-family="sans-serif" font-size="14" lengthAdjust="spacing" textLength="61" x="801" y="805.5801">&#171;service&#187;</text><text fill="#000000" font-family="sans-serif" font-size="14" lengthAdjust="spacing" textLength="76" x="795.5" y="823.1895">UserService</text><rect fill="#E2E2F0" height="49.2188" rx="2.5" ry="2.5" style="stroke:#181818;stroke-width:0.5;" width="94" x="888.5" y="71"/><text fill="#000000" font-family="sans-serif" font-size="14" lengthAdjust="spacing" textLength="80" x="895.5" y="92.5332">&#171;cordinator&#187;</text><text fill="#000000" font-family="sans-serif" font-size="14" lengthAdjust="spacing" textLength="60" x="907.5" y="110.1426">Rabbitmq</text><rect fill="#E2E2F0" height="49.2188" rx="2.5" ry="2.5" style="stroke:#181818;stroke-width:0.5;" width="94" x="888.5" y="784.0469"/><text fill="#000000" font-family="sans-serif" font-size="14" lengthAdjust="spacing" textLength="80" x="895.5" y="805.5801">&#171;cordinator&#187;</text><text fill="#000000" font-family="sans-serif" font-size="14" lengthAdjust="spacing" textLength="60" x="907.5" y="823.1895">Rabbitmq</text><rect fill="#E2E2F0" height="49.2188" rx="2.5" ry="2.5" style="stroke:#181818;stroke-width:0.5;" width="120" x="1111.5" y="71"/><text fill="#000000" font-family="sans-serif" font-size="14" lengthAdjust="spacing" textLength="61" x="1141" y="92.5332">&#171;service&#187;</text><text fill="#000000" font-family="sans-serif" font-size="14" lengthAdjust="spacing" textLength="102" x="1122.5" y="110.1426">TrackingService</text><rect fill="#E2E2F0" height="49.2188" rx="2.5" ry="2.5" style="stroke:#181818;stroke-width:0.5;" width="120" x="1111.5" y="784.0469"/><text fill="#000000" font-family="sans-serif" font-size="14" lengthAdjust="spacing" textLength="61" x="1141" y="805.5801">&#171;service&#187;</text><text fill="#000000" font-family="sans-serif" font-size="14" lengthAdjust="spacing" textLength="102" x="1122.5" y="823.1895">TrackingService</text><text fill="#000000" font-family="sans-serif" font-size="14" lengthAdjust="spacing" textLength="62" x="1309.5" y="118.1426">MongoDB</text><path d="M1325.5,67.6094 C1325.5,57.6094 1343.5,57.6094 1343.5,57.6094 C1343.5,57.6094 1361.5,57.6094 1361.5,67.6094 L1361.5,93.6094 C1361.5,103.6094 1343.5,103.6094 1343.5,103.6094 C1343.5,103.6094 1325.5,103.6094 1325.5,93.6094 L1325.5,67.6094 " fill="#E2E2F0" style="stroke:#181818;stroke-width:1.5;"/><path d="M1325.5,67.6094 C1325.5,77.6094 1343.5,77.6094 1343.5,77.6094 C1343.5,77.6094 1361.5,77.6094 1361.5,67.6094 " fill="none" style="stroke:#181818;stroke-width:1.5;"/><text fill="#000000" font-family="sans-serif" font-size="14" lengthAdjust="spacing" textLength="62" x="1309.5" y="798.5801">MongoDB</text><path d="M1325.5,811.6563 C1325.5,801.6563 1343.5,801.6563 1343.5,801.6563 C1343.5,801.6563 1361.5,801.6563 1361.5,811.6563 L1361.5,837.6563 C1361.5,847.6563 1343.5,847.6563 1343.5,847.6563 C1343.5,847.6563 1325.5,847.6563 1325.5,837.6563 L1325.5,811.6563 " fill="#E2E2F0" style="stroke:#181818;stroke-width:1.5;"/><path d="M1325.5,811.6563 C1325.5,821.6563 1343.5,821.6563 1343.5,821.6563 C1343.5,821.6563 1361.5,821.6563 1361.5,811.6563 " fill="none" style="stroke:#181818;stroke-width:1.5;"/><text fill="#000000" font-family="sans-serif" font-size="14" lengthAdjust="spacing" textLength="67" x="1387.5" y="118.1426">Postgresql</text><path d="M1406,67.6094 C1406,57.6094 1424,57.6094 1424,57.6094 C1424,57.6094 1442,57.6094 1442,67.6094 L1442,93.6094 C1442,103.6094 1424,103.6094 1424,103.6094 C1424,103.6094 1406,103.6094 1406,93.6094 L1406,67.6094 " fill="#E2E2F0" style="stroke:#181818;stroke-width:1.5;"/><path d="M1406,67.6094 C1406,77.6094 1424,77.6094 1424,77.6094 C1424,77.6094 1442,77.6094 1442,67.6094 " fill="none" style="stroke:#181818;stroke-width:1.5;"/><text fill="#000000" font-family="sans-serif" font-size="14" lengthAdjust="spacing" textLength="67" x="1387.5" y="798.5801">Postgresql</text><path d="M1406,811.6563 C1406,801.6563 1424,801.6563 1424,801.6563 C1424,801.6563 1442,801.6563 1442,811.6563 L1442,837.6563 C1442,847.6563 1424,847.6563 1424,847.6563 C1424,847.6563 1406,847.6563 1406,837.6563 L1406,811.6563 " fill="#E2E2F0" style="stroke:#181818;stroke-width:1.5;"/><path d="M1406,811.6563 C1406,821.6563 1424,821.6563 1424,821.6563 C1424,821.6563 1442,821.6563 1442,811.6563 " fill="none" style="stroke:#181818;stroke-width:1.5;"/><rect fill="#FFFFFF" height="597.125" style="stroke:#181818;stroke-width:1.0;" width="10" x="206.5" y="169.9219"/><rect fill="#FFFFFF" height="536.4219" style="stroke:#181818;stroke-width:1.0;" width="10" x="365.5" y="200.2734"/><rect fill="#FFFFFF" height="429.2734" style="stroke:#181818;stroke-width:1.0;" width="10" x="554.5" y="277.0703"/><rect fill="#FFFFFF" height="91.0547" style="stroke:#181818;stroke-width:1.0;" width="10" x="826.5" y="584.9375"/><rect fill="#FFFFFF" height="137.4063" style="stroke:#181818;stroke-width:1.0;" width="10" x="930.5" y="323.7734"/><rect fill="#FFFFFF" height="107.0547" style="stroke:#181818;stroke-width:1.0;" width="10" x="1166.5" y="431.1797"/><rect fill="#FFFFFF" height="30.3516" style="stroke:#181818;stroke-width:1.0;" width="10" x="1338.5" y="354.125"/><rect fill="#FFFFFF" height="30.3516" style="stroke:#181818;stroke-width:1.0;" width="10" x="1338.5" y="507.8828"/><rect fill="#FFFFFF" height="30.3516" style="stroke:#181818;stroke-width:1.0;" width="10" x="1419" y="615.2891"/><polygon fill="#181818" points="194.5,165.9219,204.5,169.9219,194.5,173.9219,198.5,169.9219" style="stroke:#181818;stroke-width:1.0;"/><line style="stroke:#181818;stroke-width:1.0;" x1="22.5" x2="200.5" y1="169.9219" y2="169.9219"/><text fill="#000000" font-family="sans-serif" font-size="13" lengthAdjust="spacing" textLength="152" x="29.5" y="148.7139">1. Enter keyword and tags</text><text fill="#000000" font-family="sans-serif" font-size="13" lengthAdjust="spacing" textLength="135" x="33.5" y="165.0654">in search recipe screen</text><polygon fill="#181818" points="353.5,196.2734,363.5,200.2734,353.5,204.2734,357.5,200.2734" style="stroke:#181818;stroke-width:1.0;"/><line style="stroke:#181818;stroke-width:1.0;" x1="216.5" x2="359.5" y1="200.2734" y2="200.2734"/><text fill="#000000" font-family="sans-serif" font-size="13" lengthAdjust="spacing" textLength="95" x="223.5" y="195.417">2. Search recipe</text><rect fill="#FFFFFF" height="41.4453" style="stroke:#000000;stroke-width:1.5;" width="126" x="320.5" y="208.2734"/><path d="M320.5,208.2734 L382.5,208.2734 L382.5,216.2734 L372.5,226.2734 L320.5,226.2734 L320.5,208.2734 " fill="#EEEEEE" style="stroke:#000000;stroke-width:2.0;"/><text fill="#000000" font-family="sans-serif" font-size="13" font-weight="bold" lengthAdjust="spacing" textLength="17" x="333.5" y="223.7686">ref</text><text fill="#000000" font-family="sans-serif" font-size="12" lengthAdjust="spacing" textLength="118" x="324.5" y="242.7305">3. Verify access token</text><polygon fill="#181818" points="542.5,273.0703,552.5,277.0703,542.5,281.0703,546.5,277.0703" style="stroke:#181818;stroke-width:1.0;"/><line style="stroke:#181818;stroke-width:1.0;" x1="375.5" x2="548.5" y1="277.0703" y2="277.0703"/><text fill="#000000" font-family="sans-serif" font-size="13" lengthAdjust="spacing" textLength="108" x="382.5" y="272.2139">4. Forward request</text><polygon fill="#181818" points="918.5,319.7734,928.5,323.7734,918.5,327.7734,922.5,323.7734" style="stroke:#181818;stroke-width:1.0;"/><line style="stroke:#181818;stroke-width:1.0;" x1="564.5" x2="924.5" y1="323.7734" y2="323.7734"/><text fill="#000000" font-family="sans-serif" font-size="13" lengthAdjust="spacing" textLength="212" x="571.5" y="302.5654">5. Publish "UserSearchRecipeEvent"</text><text fill="#000000" font-family="sans-serif" font-size="13" lengthAdjust="spacing" textLength="108" x="575.5" y="318.917">message &#171;Async&#187;</text><polygon fill="#181818" points="1326.5,350.125,1336.5,354.125,1326.5,358.125,1330.5,354.125" style="stroke:#181818;stroke-width:1.0;"/><line style="stroke:#181818;stroke-width:1.0;" x1="564.5" x2="1332.5" y1="354.125" y2="354.125"/><text fill="#000000" font-family="sans-serif" font-size="13" lengthAdjust="spacing" textLength="79" x="571.5" y="349.2686">6. Query data</text><polygon fill="#181818" points="575.5,380.4766,565.5,384.4766,575.5,388.4766,571.5,384.4766" style="stroke:#181818;stroke-width:1.0;"/><line style="stroke:#181818;stroke-width:1.0;stroke-dasharray:2.0,2.0;" x1="569.5" x2="1342.5" y1="384.4766" y2="384.4766"/><text fill="#000000" font-family="sans-serif" font-size="13" lengthAdjust="spacing" textLength="110" x="581.5" y="379.6201">7. Return response</text><polygon fill="#181818" points="1154.5,427.1797,1164.5,431.1797,1154.5,435.1797,1158.5,431.1797" style="stroke:#181818;stroke-width:1.0;"/><line style="stroke:#181818;stroke-width:1.0;" x1="940.5" x2="1160.5" y1="431.1797" y2="431.1797"/><text fill="#000000" font-family="sans-serif" font-size="13" lengthAdjust="spacing" textLength="207" x="947.5" y="409.9717">8. Deliver "UserSearchRecipeEvent"</text><text fill="#000000" font-family="sans-serif" font-size="13" lengthAdjust="spacing" textLength="53" x="951.5" y="426.3232">message</text><polygon fill="#181818" points="1326.5,503.8828,1336.5,507.8828,1326.5,511.8828,1330.5,507.8828" style="stroke:#181818;stroke-width:1.0;"/><line style="stroke:#181818;stroke-width:1.0;" x1="1176.5" x2="1332.5" y1="507.8828" y2="507.8828"/><text fill="#000000" font-family="sans-serif" font-size="13" lengthAdjust="spacing" textLength="129" x="1183.5" y="486.6748">9. Consume event and</text><text fill="#000000" font-family="sans-serif" font-size="13" lengthAdjust="spacing" textLength="139" x="1187.5" y="503.0264">add user keyword to DB</text><polygon fill="#181818" points="1182.5,534.2344,1172.5,538.2344,1182.5,542.2344,1178.5,538.2344" style="stroke:#181818;stroke-width:1.0;"/><line style="stroke:#181818;stroke-width:1.0;stroke-dasharray:2.0,2.0;" x1="1176.5" x2="1342.5" y1="538.2344" y2="538.2344"/><text fill="#000000" font-family="sans-serif" font-size="13" lengthAdjust="spacing" textLength="117" x="1188.5" y="533.3779">10. Return response</text><polygon fill="#181818" points="814.5,580.9375,824.5,584.9375,814.5,588.9375,818.5,584.9375" style="stroke:#181818;stroke-width:1.0;"/><line style="stroke:#181818;stroke-width:1.0;" x1="564.5" x2="820.5" y1="584.9375" y2="584.9375"/><text fill="#000000" font-family="sans-serif" font-size="13" lengthAdjust="spacing" textLength="155" x="571.5" y="563.7295">11. gRPC call to get user's</text><text fill="#000000" font-family="sans-serif" font-size="13" lengthAdjust="spacing" textLength="136" x="575.5" y="580.0811">information list &#171;gRPC&#187;</text><polygon fill="#181818" points="1407,611.2891,1417,615.2891,1407,619.2891,1411,615.2891" style="stroke:#181818;stroke-width:1.0;"/><line style="stroke:#181818;stroke-width:1.0;" x1="836.5" x2="1413" y1="615.2891" y2="615.2891"/><text fill="#000000" font-family="sans-serif" font-size="13" lengthAdjust="spacing" textLength="86" x="843.5" y="610.4326">12. Query data</text><polygon fill="#181818" points="847.5,641.6406,837.5,645.6406,847.5,649.6406,843.5,645.6406" style="stroke:#181818;stroke-width:1.0;"/><line style="stroke:#181818;stroke-width:1.0;stroke-dasharray:2.0,2.0;" x1="841.5" x2="1423" y1="645.6406" y2="645.6406"/><text fill="#000000" font-family="sans-serif" font-size="13" lengthAdjust="spacing" textLength="117" x="853.5" y="640.7842">13. Return response</text><polygon fill="#181818" points="575.5,671.9922,565.5,675.9922,575.5,679.9922,571.5,675.9922" style="stroke:#181818;stroke-width:1.0;"/><line style="stroke:#181818;stroke-width:1.0;stroke-dasharray:2.0,2.0;" x1="569.5" x2="830.5" y1="675.9922" y2="675.9922"/><text fill="#000000" font-family="sans-serif" font-size="13" lengthAdjust="spacing" textLength="238" x="581.5" y="671.1357">14. Return user's information list &#171;gRPC&#187;</text><polygon fill="#181818" points="386.5,702.3438,376.5,706.3438,386.5,710.3438,382.5,706.3438" style="stroke:#181818;stroke-width:1.0;"/><line style="stroke:#181818;stroke-width:1.0;stroke-dasharray:2.0,2.0;" x1="380.5" x2="558.5" y1="706.3438" y2="706.3438"/><text fill="#000000" font-family="sans-serif" font-size="13" lengthAdjust="spacing" textLength="155" x="392.5" y="701.4873">15. Return recipe feeds list</text><polygon fill="#181818" points="227.5,732.6953,217.5,736.6953,227.5,740.6953,223.5,736.6953" style="stroke:#181818;stroke-width:1.0;"/><line style="stroke:#181818;stroke-width:1.0;stroke-dasharray:2.0,2.0;" x1="221.5" x2="369.5" y1="736.6953" y2="736.6953"/><text fill="#000000" font-family="sans-serif" font-size="13" lengthAdjust="spacing" textLength="125" x="233.5" y="731.8389">16. Forward response</text><polygon fill="#181818" points="33.5,763.0469,23.5,767.0469,33.5,771.0469,29.5,767.0469" style="stroke:#181818;stroke-width:1.0;"/><line style="stroke:#181818;stroke-width:1.0;stroke-dasharray:2.0,2.0;" x1="27.5" x2="210.5" y1="767.0469" y2="767.0469"/><text fill="#000000" font-family="sans-serif" font-size="13" lengthAdjust="spacing" textLength="160" x="39.5" y="762.1904">17. Display recipe feeds list</text><!--SRC=[XLDDRzim3BthLn2vx534Mp-t1KQ0DkcA7GPawRhJBehDE48SAP7a1C7G_rvISMhPMRkZABx7H_BHAryYz1vHscm15ZErnfv8dT-NE1G03ZSLwWp7IXPMhk0lnO3ovcWvNBy1xcIsVB2cqld8bCR2Rg4yXhzdyIpIZpMXa9cdtoU7LimuMzez_30pLUBJTx6MrYjI8BM7NffcnkPAIm8CXtyqtAxLW_Iua_iUI1SzkpWYtweC0sWQEdeyH0Ak5NaFoY9ZOFJ-ZzAfdCsKNsqEzUh7UwL-MHgVqaLShXCJkVHo9XtIk7HXndTDO6ASBoowJIa4YuJ-y7McPsS3E4_WNdkABt6_8wKWTGvU5WwejDAqusZvu3ABg8KuCZ1RCslckqYWvHSXo0zWjbIXIHp0PGA_qQhv7cIMeNFWpPA9cnocRgs3sQyI-6RiJf9Eo-PpNeXMKa3LGsN0TGAJQbOgju3UOKUixG2vtwBsFUvpHGfaWP2cjswli-7m7wprP9dq9e6V5P8vUSgTpBJVFwRs-mFud50JlhAQzBgrqOu6SjJ7h9r5ClkN1CPOAfxO6v8RnI97EXgrfP4rNkfmTiH_JM14EgeL0Z9RM3WnoZo7oaL6y0R8I5soJd_ddquRZ3HrVNewrkXmWXt9ZyLqCe9CbYLBAD07MHzgGywDNKclZ0PQggUDSJOjBE9XsiRsWVMYjR4ub_jfaaDBbwSjdUuuuWYWgrTGhVPjgR79cQf57iYk8mNXxkQ8kGiqpUanj64Ak9luF6hfuUWFMpi0GoRvSgpSkYG9foLU0000]--></g></svg>