<svg width="41" height="42" viewBox="0 0 41 42" fill="none" xmlns="http://www.w3.org/2000/svg">
<g id="Group 18084">
<g id="Group 18050">
<g id="Group">
<g id="Group_2">
<path id="Vector" d="M17.9943 6.26995L34.4882 22.7639C35.2504 23.5261 35.2504 24.7761 34.4882 25.5535C33.726 26.3157 32.4913 26.3309 31.7138 25.5687L31.6986 25.5535C30.9364 24.8065 29.7169 24.8218 28.9547 25.5687L19.5644 34.959C18.8022 35.7212 17.5675 35.7212 16.8053 34.959C16.0431 34.1968 16.0431 32.962 16.8053 32.1998L26.2412 22.7639C26.973 22.0322 26.973 20.8279 26.2412 20.0962L26.1498 20.0047C25.4181 19.273 24.2138 19.273 23.4821 20.0047L9.8388 33.648C9.0766 34.4102 7.84184 34.4102 7.07965 33.648C6.69855 33.2669 6.51562 32.7639 6.51562 32.2761C6.51562 31.773 6.69855 31.2852 7.07965 30.9041L20.6925 17.2913C21.0736 16.9102 21.2565 16.4071 21.2565 15.9193C21.2565 15.4163 21.0736 14.9285 20.6925 14.5474C19.9303 13.7852 18.6955 13.7852 17.9333 14.5474L11.3479 21.1328C10.5857 21.895 9.35099 21.895 8.5888 21.1328C8.2077 20.7517 8.02477 20.2486 8.02477 19.7608C8.02477 19.2578 8.22294 18.77 8.5888 18.3889L15.2199 11.7578C15.9516 11.026 15.9516 9.82178 15.2199 9.09007L15.1894 9.05959C14.8083 8.67849 14.6101 8.17544 14.6101 7.67239C14.6101 7.16934 14.8083 6.66629 15.1894 6.28519C15.9821 5.50776 17.2321 5.50776 17.9943 6.26995Z" fill="white"/>
<path id="Vector_2" d="M35.5995 5.17231C39.6392 9.21195 40.1117 15.462 37.0172 20.0199C36.377 20.965 35.0355 21.1022 34.2123 20.2943L20.4776 6.55951C19.6697 5.75158 19.7916 4.41012 20.752 3.75463C25.3099 0.660115 31.5599 1.13268 35.5995 5.17231Z" fill="white"/>
<path id="Vector_3" d="M39.1478 4.35038C39.9038 3.59434 39.9038 2.36856 39.1478 1.61252C38.3918 0.856479 37.166 0.85648 36.4099 1.61252C35.6539 2.36856 35.6539 3.59434 36.4099 4.35037C37.166 5.10641 38.3918 5.10641 39.1478 4.35038Z" fill="white"/>
</g>
</g>
</g>
<rect id="Rectangle 4162" x="2.15332" y="25.0166" width="4.62156" height="3.86226" rx="1.34417" transform="rotate(-45 2.15332 25.0166)" fill="white"/>
<rect id="Rectangle 4163" x="0.876953" y="37.1348" width="4.62156" height="3.86226" rx="1.34417" transform="rotate(-45 0.876953 37.1348)" fill="white"/>
<rect id="Rectangle 4164" x="10.4443" y="38.4111" width="4.62156" height="3.86226" rx="1.34417" transform="rotate(-45 10.4443 38.4111)" fill="white"/>
</g>
</svg>
