<?xml version="1.0" encoding="us-ascii" standalone="no"?><svg xmlns="http://www.w3.org/2000/svg" xmlns:xlink="http://www.w3.org/1999/xlink" contentStyleType="text/css" height="1373px" preserveAspectRatio="none" style="width:2136px;height:1373px;background:#FFFFFF;" version="1.1" viewBox="0 0 2136 1373" width="2136px" zoomAndPan="magnify"><defs/><g><!--cluster Ingredient-based<U+0020>food<U+0020>recommendation<U+0020>application--><g id="cluster_Ingredient-based&lt;U+0020&gt;food&lt;U+0020&gt;recommendation&lt;U+0020&gt;application"><rect fill="none" height="1159" style="stroke:#181818;stroke-width:1.0;" width="1852" x="80" y="7"/><text fill="#000000" font-family="sans-serif" font-size="12" font-weight="bold" lengthAdjust="spacing" textLength="289" x="861.5" y="21.457">Ingredient-based food recommendation application</text></g><g id="elem_ucLogin"><ellipse cx="1520.0078" cy="752.1016" fill="#F1F1F1" rx="76.0078" ry="17.6016" style="stroke:#181818;stroke-width:0.5;"/><text fill="#000000" font-family="sans-serif" font-size="12" lengthAdjust="spacing" textLength="113" x="1463.5078" y="755.0117">UC-2: Login (Mobile)</text></g><g id="elem_ucForgotPassword"><ellipse cx="1811.8272" cy="945.1654" fill="#F1F1F1" rx="103.8272" ry="23.1654" style="stroke:#181818;stroke-width:0.5;"/><text fill="#000000" font-family="sans-serif" font-size="12" lengthAdjust="spacing" textLength="175" x="1724.3272" y="948.0756">UC-5: Forgot password (Mobile)</text></g><g id="elem_ucReportUser"><ellipse cx="926.6535" cy="283.9307" fill="#F1F1F1" rx="75.1535" ry="17.4307" style="stroke:#181818;stroke-width:0.5;"/><text fill="#000000" font-family="sans-serif" font-size="12" lengthAdjust="spacing" textLength="111" x="871.1535" y="286.8409">UC-11 Report users</text></g><g id="elem_ucLogout"><ellipse cx="572.8449" cy="760.169" fill="#F1F1F1" rx="61.3449" ry="14.669" style="stroke:#181818;stroke-width:0.5;"/><text fill="#000000" font-family="sans-serif" font-size="12" lengthAdjust="spacing" textLength="77" x="534.3449" y="763.0791">UC-12 Logout</text></g><g id="elem_ucManageSetting"><ellipse cx="573.1498" cy="911.13" fill="#F1F1F1" rx="106.1498" ry="23.63" style="stroke:#181818;stroke-width:0.5;"/><text fill="#000000" font-family="sans-serif" font-size="12" lengthAdjust="spacing" textLength="180" x="483.1498" y="914.0401">UC-13: Manage settings (Mobile)</text></g><g id="elem_ucManageProfile"><ellipse cx="573.0134" cy="1127.2027" fill="#F1F1F1" rx="101.5134" ry="22.7027" style="stroke:#181818;stroke-width:0.5;"/><text fill="#000000" font-family="sans-serif" font-size="12" lengthAdjust="spacing" textLength="170" x="488.0134" y="1130.1128">UC-15: Manage profile (Mobile)</text></g><g id="elem_ucSearch"><ellipse cx="216.7091" cy="208.9418" fill="#F1F1F1" rx="60.2091" ry="14.4418" style="stroke:#181818;stroke-width:0.5;"/><text fill="#000000" font-family="sans-serif" font-size="12" lengthAdjust="spacing" textLength="74" x="179.7091" y="211.852">UC-7: Search</text></g><g id="elem_ucBrowseRecipes"><ellipse cx="216.46" cy="428.792" fill="#F1F1F1" rx="79.46" ry="18.292" style="stroke:#181818;stroke-width:0.5;"/><text fill="#000000" font-family="sans-serif" font-size="12" lengthAdjust="spacing" textLength="121" x="155.96" y="431.7022">UC-8: Browse recipes</text></g><g id="elem_ucVoteRecipe"><ellipse cx="573.2278" cy="170.8456" fill="#F1F1F1" rx="74.7278" ry="17.3456" style="stroke:#181818;stroke-width:0.5;"/><text fill="#000000" font-family="sans-serif" font-size="12" lengthAdjust="spacing" textLength="110" x="518.2278" y="173.7557">UC-17: Vote recipes</text></g><g id="elem_ucCmtRecipe"><ellipse cx="1269.3003" cy="485.0601" fill="#F1F1F1" rx="88.3003" ry="20.0601" style="stroke:#181818;stroke-width:0.5;"/><text fill="#000000" font-family="sans-serif" font-size="12" lengthAdjust="spacing" textLength="141" x="1198.8003" y="487.9702">UC-18: Comment recipes</text></g><g id="elem_ucReportComment"><ellipse cx="1269.3003" cy="560.0601" fill="#F1F1F1" rx="88.3003" ry="20.0601" style="stroke:#181818;stroke-width:0.5;"/><text fill="#000000" font-family="sans-serif" font-size="12" lengthAdjust="spacing" textLength="141" x="1198.8003" y="562.9702">UC-19: Report comments</text></g><g id="elem_ucReportRecipe"><ellipse cx="572.8313" cy="428.9663" fill="#F1F1F1" rx="80.3313" ry="18.4663" style="stroke:#181818;stroke-width:0.5;"/><text fill="#000000" font-family="sans-serif" font-size="12" lengthAdjust="spacing" textLength="123" x="511.3313" y="431.8764">UC-20: Report recipes</text></g><g id="elem_ucBookmarkRecipe"><ellipse cx="573.249" cy="578.1498" fill="#F1F1F1" rx="88.749" ry="20.1498" style="stroke:#181818;stroke-width:0.5;"/><text fill="#000000" font-family="sans-serif" font-size="12" lengthAdjust="spacing" textLength="142" x="502.249" y="581.0599">UC-21: Bookmark recipes</text></g><g id="elem_ucViewRecipeDetail"><ellipse cx="572.9576" cy="652.7915" fill="#F1F1F1" rx="86.9576" ry="19.7915" style="stroke:#181818;stroke-width:0.5;"/><text fill="#000000" font-family="sans-serif" font-size="12" lengthAdjust="spacing" textLength="138" x="503.9576" y="655.7017">UC-22: View recipe detail</text></g><g id="elem_ucGuidedCCM"><ellipse cx="926.4149" cy="622.783" fill="#F1F1F1" rx="109.4149" ry="24.283" style="stroke:#181818;stroke-width:0.5;"/><text fill="#000000" font-family="sans-serif" font-size="12" lengthAdjust="spacing" textLength="187" x="832.9149" y="625.6931">UC-23: Use guided cooking mode</text></g><g id="elem_ucViewUSProfile"><ellipse cx="573.0326" cy="311.2065" fill="#F1F1F1" rx="124.0326" ry="27.2065" style="stroke:#181818;stroke-width:0.5;"/><text fill="#000000" font-family="sans-serif" font-size="12" lengthAdjust="spacing" textLength="218" x="464.0326" y="314.1167">UC-10: View other users' profiles (User)</text></g><g id="elem_ucViewMenu"><ellipse cx="216.276" cy="830.7552" fill="#F1F1F1" rx="71.776" ry="16.7552" style="stroke:#181818;stroke-width:0.5;"/><text fill="#000000" font-family="sans-serif" font-size="12" lengthAdjust="spacing" textLength="103" x="164.776" y="833.6653">UC-24: View menu</text></g><g id="elem_ucManageRecipe"><ellipse cx="926.5863" cy="1127.9173" fill="#F1F1F1" rx="95.0863" ry="21.4173" style="stroke:#181818;stroke-width:0.5;"/><text fill="#000000" font-family="sans-serif" font-size="12" lengthAdjust="spacing" textLength="156" x="848.5863" y="1130.8274">UC-25: Manage own recipes</text></g><g id="elem_ucViewRecentRecipes"><ellipse cx="572.9052" cy="830.781" fill="#F1F1F1" rx="91.9052" ry="20.781" style="stroke:#181818;stroke-width:0.5;"/><text fill="#000000" font-family="sans-serif" font-size="12" lengthAdjust="spacing" textLength="149" x="498.4052" y="833.6912">UC-26: View recent recipes</text></g><g id="elem_ucViewNotif"><ellipse cx="216.5113" cy="909.2023" fill="#F1F1F1" rx="86.5113" ry="19.7023" style="stroke:#181818;stroke-width:0.5;"/><text fill="#000000" font-family="sans-serif" font-size="12" lengthAdjust="spacing" textLength="137" x="148.0113" y="912.1124">UC-27: View notifications</text></g><g id="elem_ucViewFollow"><ellipse cx="926.4023" cy="969.8805" fill="#F1F1F1" rx="117.4023" ry="25.8805" style="stroke:#181818;stroke-width:0.5;"/><text fill="#000000" font-family="sans-serif" font-size="12" lengthAdjust="spacing" textLength="204" x="824.4023" y="972.7906">UC-28: View followers and followings</text></g><g id="elem_noteManageRecipe"><path d="M876.5,1031 L876.5,1071.1875 L976.5,1071.1875 L976.5,1041 L966.5,1031 L876.5,1031 " fill="#FAFAFA" style="stroke:#181818;stroke-width:0.5;"/><path d="M966.5,1031 L966.5,1041 L976.5,1041 L966.5,1031 " fill="#FAFAFA" style="stroke:#181818;stroke-width:1.0;"/><text fill="#000000" font-family="sans-serif" font-size="12" lengthAdjust="spacing" textLength="73" x="882.5" y="1048.457">Create/Read/</text><text fill="#000000" font-family="sans-serif" font-size="12" lengthAdjust="spacing" textLength="79" x="882.5" y="1063.5508">Update/Delete</text></g><g id="elem_noteManageProfile"><path d="M526,1044.5 L526,1069.5938 L620,1069.5938 L620,1054.5 L610,1044.5 L526,1044.5 " fill="#FAFAFA" style="stroke:#181818;stroke-width:0.5;"/><path d="M610,1044.5 L610,1054.5 L620,1054.5 L610,1044.5 " fill="#FAFAFA" style="stroke:#181818;stroke-width:1.0;"/><text fill="#000000" font-family="sans-serif" font-size="12" lengthAdjust="spacing" textLength="73" x="532" y="1061.957">Read/Update</text></g><g id="elem_noteVoteRecipe"><path d="M523,78 L523,118.1875 L623,118.1875 L623,88 L613,78 L523,78 " fill="#FAFAFA" style="stroke:#181818;stroke-width:0.5;"/><path d="M613,78 L613,88 L623,88 L613,78 " fill="#FAFAFA" style="stroke:#181818;stroke-width:1.0;"/><text fill="#000000" font-family="sans-serif" font-size="12" lengthAdjust="spacing" textLength="73" x="529" y="95.457">Create/Read/</text><text fill="#000000" font-family="sans-serif" font-size="12" lengthAdjust="spacing" textLength="79" x="529" y="110.5508">Update/Delete</text></g><g id="elem_noteCmtRecipe"><path d="M1219.5,390 L1219.5,430.1875 L1319.5,430.1875 L1319.5,400 L1309.5,390 L1219.5,390 " fill="#FAFAFA" style="stroke:#181818;stroke-width:0.5;"/><path d="M1309.5,390 L1309.5,400 L1319.5,400 L1309.5,390 " fill="#FAFAFA" style="stroke:#181818;stroke-width:1.0;"/><text fill="#000000" font-family="sans-serif" font-size="12" lengthAdjust="spacing" textLength="73" x="1225.5" y="407.457">Create/Read/</text><text fill="#000000" font-family="sans-serif" font-size="12" lengthAdjust="spacing" textLength="79" x="1225.5" y="422.5508">Update/Delete</text></g><g id="elem_noteBookmarkRecipe"><path d="M523,483 L523,523.1875 L623,523.1875 L623,493 L613,483 L523,483 " fill="#FAFAFA" style="stroke:#181818;stroke-width:0.5;"/><path d="M613,483 L613,493 L623,493 L613,483 " fill="#FAFAFA" style="stroke:#181818;stroke-width:1.0;"/><text fill="#000000" font-family="sans-serif" font-size="12" lengthAdjust="spacing" textLength="73" x="529" y="500.457">Create/Read/</text><text fill="#000000" font-family="sans-serif" font-size="12" lengthAdjust="spacing" textLength="79" x="529" y="515.5508">Update/Delete</text></g><g id="elem_noteViewUSProfile"><path d="M515,223.5 L515,248.5938 L631,248.5938 L631,233.5 L621,223.5 L515,223.5 " fill="#FAFAFA" style="stroke:#181818;stroke-width:0.5;"/><path d="M621,223.5 L621,233.5 L631,233.5 L621,223.5 " fill="#FAFAFA" style="stroke:#181818;stroke-width:1.0;"/><text fill="#000000" font-family="sans-serif" font-size="12" lengthAdjust="spacing" textLength="95" x="521" y="240.957">{Follow/Unfollow}</text></g><g id="elem_ucCommandVoiceCCM"><ellipse cx="1269.7092" cy="813.1418" fill="#F1F1F1" rx="113.7092" ry="25.1418" style="stroke:#181818;stroke-width:0.5;"/><text fill="#000000" font-family="sans-serif" font-size="12" lengthAdjust="spacing" textLength="147" x="1194.7092" y="808.5051">UC-29: Command by voice</text><text fill="#000000" font-family="sans-serif" font-size="12" lengthAdjust="spacing" textLength="91" x="1225.7092" y="823.5989">in cooking mode</text></g><g id="elem_ucRecognizeIngre"><ellipse cx="216.4544" cy="1001.9909" fill="#F1F1F1" rx="120.4544" ry="26.4909" style="stroke:#181818;stroke-width:0.5;"/><text fill="#000000" font-family="sans-serif" font-size="12" lengthAdjust="spacing" textLength="165" x="132.4544" y="997.3542">UC-30: Recognize ingredients</text><text fill="#000000" font-family="sans-serif" font-size="12" lengthAdjust="spacing" textLength="104" x="165.9544" y="1012.4479">by capturing image</text></g><!--entity user--><g id="elem_user"><ellipse cx="19.5" cy="802" fill="#F1F1F1" rx="8" ry="8" style="stroke:#181818;stroke-width:0.5;"/><path d="M19.5,810 L19.5,837 M6.5,818 L32.5,818 M19.5,837 L6.5,852 M19.5,837 L32.5,852 " fill="none" style="stroke:#181818;stroke-width:0.5;"/><text fill="#000000" font-family="sans-serif" font-size="12" lengthAdjust="spacing" textLength="27" x="6" y="865.957">User</text></g><!--entity gmail--><g id="elem_gmail"><ellipse cx="1812" cy="1191" fill="#F1F1F1" rx="8" ry="8" style="stroke:#181818;stroke-width:0.5;"/><path d="M1812,1199 L1812,1226 M1799,1207 L1825,1207 M1812,1226 L1799,1241 M1812,1226 L1825,1241 " fill="none" style="stroke:#181818;stroke-width:0.5;"/><text fill="#000000" font-family="sans-serif" font-size="12" lengthAdjust="spacing" textLength="33" x="1795.5" y="1254.957">Gmail</text></g><!--entity cl--><g id="elem_cl"><ellipse cx="1520" cy="1236" fill="#F1F1F1" rx="8" ry="8" style="stroke:#181818;stroke-width:0.5;"/><path d="M1520,1244 L1520,1271 M1507,1252 L1533,1252 M1520,1271 L1507,1286 M1520,1271 L1533,1286 " fill="none" style="stroke:#181818;stroke-width:0.5;"/><text fill="#000000" font-family="sans-serif" font-size="12" lengthAdjust="spacing" textLength="59" x="1490.5" y="1299.957">Cloudinary</text></g><!--entity sms--><g id="elem_sms"><ellipse cx="2085" cy="916" fill="#F1F1F1" rx="8" ry="8" style="stroke:#181818;stroke-width:0.5;"/><path d="M2085,924 L2085,951 M2072,932 L2098,932 M2085,951 L2072,966 M2085,951 L2098,966 " fill="none" style="stroke:#181818;stroke-width:0.5;"/><text fill="#000000" font-family="sans-serif" font-size="12" lengthAdjust="spacing" textLength="61" x="2041" y="979.957">SpeedSMS</text></g><!--entity gemma--><g id="elem_gemma"><ellipse cx="1269.5" cy="1191" fill="#F1F1F1" rx="8" ry="8" style="stroke:#181818;stroke-width:0.5;"/><path d="M1269.5,1199 L1269.5,1226 M1256.5,1207 L1282.5,1207 M1269.5,1226 L1256.5,1241 M1269.5,1226 L1282.5,1241 " fill="none" style="stroke:#181818;stroke-width:0.5;"/><text fill="#000000" font-family="sans-serif" font-size="12" lengthAdjust="spacing" textLength="45" x="1247" y="1254.957">Gemma</text></g><!--entity speech--><g id="elem_speech"><ellipse cx="1812" cy="1301" fill="#F1F1F1" rx="8" ry="8" style="stroke:#181818;stroke-width:0.5;"/><path d="M1812,1309 L1812,1336 M1799,1317 L1825,1317 M1812,1336 L1799,1351 M1812,1336 L1825,1351 " fill="none" style="stroke:#181818;stroke-width:0.5;"/><text fill="#000000" font-family="sans-serif" font-size="12" lengthAdjust="spacing" textLength="141" x="1741.5" y="1364.957">Expo Speech Recognition</text></g><!--link user to ucSearch--><g id="link_user_ucSearch"><path d="M24.94,793.28 C37.43,687.03 72,393 72,393 C72,393 166.7197,271.5409 200.5497,228.1709 " fill="none" id="user-to-ucSearch" style="stroke:#181818;stroke-width:1.0;"/><polygon fill="#181818" points="204.24,223.44,195.5506,228.0762,201.1648,227.3824,201.8585,232.9966,204.24,223.44" style="stroke:#181818;stroke-width:1.0;"/></g><!--link user to ucBrowseRecipes--><g id="link_user_ucBrowseRecipes"><path d="M33.14,804.93 C69.69,729.6 172.2206,518.208 203.8106,453.108 " fill="none" id="user-to-ucBrowseRecipes" style="stroke:#181818;stroke-width:1.0;"/><polygon fill="#181818" points="206.43,447.71,198.9022,454.0608,204.2472,452.2084,206.0996,457.5533,206.43,447.71" style="stroke:#181818;stroke-width:1.0;"/></g><!--reverse link ucBrowseRecipes to ucVoteRecipe--><g id="link_ucBrowseRecipes_ucVoteRecipe"><path d="M240.7612,406.5874 C296.0512,353.3274 449,206 449,206 C449,206 490.11,194.3 524.8,184.43 " fill="none" id="ucBrowseRecipes-backto-ucVoteRecipe" style="stroke:#181818;stroke-width:1.0;stroke-dasharray:7.0,7.0;"/><polygon fill="#181818" points="236.44,410.75,245.6969,407.387,240.041,407.2812,240.1468,401.6253,236.44,410.75" style="stroke:#181818;stroke-width:1.0;"/><text fill="#000000" font-family="sans-serif" font-size="12" lengthAdjust="spacing" textLength="50" x="368" y="235.457">&#171;extend&#187;</text></g><!--link ucVoteRecipe to noteVoteRecipe--><g id="link_ucVoteRecipe_noteVoteRecipe"><path d="M573,153.32 C573,149.54 573,146.67 573,146.67 C573,146.67 573,122.33 573,122.33 C573,122.33 573,120.62 573,118.09 " fill="none" id="ucVoteRecipe-noteVoteRecipe" style="stroke:#181818;stroke-width:1.0;stroke-dasharray:7.0,7.0;"/></g><!--reverse link ucBrowseRecipes to ucReportRecipe--><g id="link_ucBrowseRecipes_ucReportRecipe"><path d="M302.18,429 C360.51,429 433.74,429 492.32,429 " fill="none" id="ucBrowseRecipes-backto-ucReportRecipe" style="stroke:#181818;stroke-width:1.0;stroke-dasharray:7.0,7.0;"/><polygon fill="#181818" points="296.18,429,305.18,433,301.18,429,305.18,425,296.18,429" style="stroke:#181818;stroke-width:1.0;"/><text fill="#000000" font-family="sans-serif" font-size="12" lengthAdjust="spacing" textLength="50" x="368" y="425.457">&#171;extend&#187;</text></g><!--reverse link ucBrowseRecipes to ucViewRecipeDetail--><g id="link_ucBrowseRecipes_ucViewRecipeDetail"><path d="M244.377,450.5884 C302.317,497.1484 449,615 449,615 C449,615 486.58,626.61 520.19,636.99 " fill="none" id="ucBrowseRecipes-backto-ucViewRecipeDetail" style="stroke:#181818;stroke-width:1.0;stroke-dasharray:7.0,7.0;"/><polygon fill="#181818" points="239.7,446.83,244.2099,455.5856,243.5975,449.962,249.2211,449.3496,239.7,446.83" style="stroke:#181818;stroke-width:1.0;"/><text fill="#000000" font-family="sans-serif" font-size="12" lengthAdjust="spacing" textLength="50" x="368" y="546.457">&#171;extend&#187;</text></g><!--reverse link ucViewRecipeDetail to ucCmtRecipe--><g id="link_ucViewRecipeDetail_ucCmtRecipe"><path d="M631.5428,635.2195 C665.1528,624.8395 697,615 697,615 C697,615 727,590 727,590 C727,590 809,546 809,546 C809,546 1062.45,512.35 1192.88,495.04 " fill="none" id="ucViewRecipeDetail-backto-ucCmtRecipe" style="stroke:#181818;stroke-width:1.0;stroke-dasharray:7.0,7.0;"/><polygon fill="#181818" points="625.81,636.99,635.5896,638.1561,630.5874,635.5146,633.2289,630.5124,625.81,636.99" style="stroke:#181818;stroke-width:1.0;"/><text fill="#000000" font-family="sans-serif" font-size="12" lengthAdjust="spacing" textLength="50" x="901.5" y="512.457">&#171;extend&#187;</text></g><!--link ucCmtRecipe to noteCmtRecipe--><g id="link_ucCmtRecipe_noteCmtRecipe"><path d="M1269.5,464.82 C1269.5,461.98 1269.5,460 1269.5,460 C1269.5,460 1269.5,435 1269.5,435 C1269.5,435 1269.5,433.02 1269.5,430.18 " fill="none" id="ucCmtRecipe-noteCmtRecipe" style="stroke:#181818;stroke-width:1.0;stroke-dasharray:7.0,7.0;"/></g><!--reverse link ucViewRecipeDetail to ucReportComment--><g id="link_ucViewRecipeDetail_ucReportComment"><path d="M631.5969,635.3527 C700.8069,614.1527 809,581 809,581 C809,581 1049.61,570 1182.61,563.93 " fill="none" id="ucViewRecipeDetail-backto-ucReportComment" style="stroke:#181818;stroke-width:1.0;stroke-dasharray:7.0,7.0;"/><polygon fill="#181818" points="625.86,637.11,635.6369,638.2987,630.6407,635.6456,633.2938,630.6495,625.86,637.11" style="stroke:#181818;stroke-width:1.0;"/><text fill="#000000" font-family="sans-serif" font-size="12" lengthAdjust="spacing" textLength="50" x="901.5" y="567.457">&#171;extend&#187;</text></g><!--reverse link ucViewRecipeDetail to ucGuidedCCM--><g id="link_ucViewRecipeDetail_ucGuidedCCM"><path d="M661.0583,645.5699 C711.3383,641.2799 770.38,636.24 824.06,631.66 " fill="none" id="ucViewRecipeDetail-backto-ucGuidedCCM" style="stroke:#181818;stroke-width:1.0;stroke-dasharray:7.0,7.0;"/><polygon fill="#181818" points="655.08,646.08,664.3875,649.3004,660.0619,645.6549,663.7074,641.3294,655.08,646.08" style="stroke:#181818;stroke-width:1.0;"/><text fill="#000000" font-family="sans-serif" font-size="12" lengthAdjust="spacing" textLength="50" x="728" y="633.457">&#171;extend&#187;</text></g><!--reverse link ucBrowseRecipes to ucBookmarkRecipe--><g id="link_ucBrowseRecipes_ucBookmarkRecipe"><path d="M257.5704,448.2138 C322.1504,479.1738 449,540 449,540 C449,540 486.31,551.53 519.84,561.88 " fill="none" id="ucBrowseRecipes-backto-ucBookmarkRecipe" style="stroke:#181818;stroke-width:1.0;stroke-dasharray:7.0,7.0;"/><polygon fill="#181818" points="252.16,445.62,258.5464,453.1176,256.6687,447.7815,262.0048,445.9037,252.16,445.62" style="stroke:#181818;stroke-width:1.0;"/><text fill="#000000" font-family="sans-serif" font-size="12" lengthAdjust="spacing" textLength="50" x="368" y="497.457">&#171;extend&#187;</text></g><!--link ucBookmarkRecipe to noteBookmarkRecipe--><g id="link_ucBookmarkRecipe_noteBookmarkRecipe"><path d="M573,557.82 C573,554.98 573,553 573,553 C573,553 573,528 573,528 C573,528 573,526.02 573,523.18 " fill="none" id="ucBookmarkRecipe-noteBookmarkRecipe" style="stroke:#181818;stroke-width:1.0;stroke-dasharray:7.0,7.0;"/></g><!--reverse link ucBrowseRecipes to ucViewUSProfile--><g id="link_ucBrowseRecipes_ucViewUSProfile"><path d="M261.126,410.3192 C305.426,391.3592 367,365 367,365 C367,365 435.52,346.95 493.33,331.72 " fill="none" id="ucBrowseRecipes-backto-ucViewUSProfile" style="stroke:#181818;stroke-width:1.0;stroke-dasharray:7.0,7.0;"/><polygon fill="#181818" points="255.61,412.68,265.4579,412.8161,260.2067,410.7127,262.3102,405.4614,255.61,412.68" style="stroke:#181818;stroke-width:1.0;"/><text fill="#000000" font-family="sans-serif" font-size="12" lengthAdjust="spacing" textLength="50" x="368" y="348.457">&#171;extend&#187;</text></g><!--link ucViewUSProfile to noteViewUSProfile--><g id="link_ucViewUSProfile_noteViewUSProfile"><path d="M573,283.69 C573,277.5 573,261 573,261 C573,261 573,254.94 573,248.79 " fill="none" id="ucViewUSProfile-noteViewUSProfile" style="stroke:#181818;stroke-width:1.0;stroke-dasharray:7.0,7.0;"/></g><!--reverse link ucViewUSProfile to ucReportUser--><g id="link_ucViewUSProfile_ucReportUser"><path d="M696.0524,301.6211 C750.5424,297.4411 807.74,293.05 854.92,289.42 " fill="none" id="ucViewUSProfile-backto-ucReportUser" style="stroke:#181818;stroke-width:1.0;stroke-dasharray:7.0,7.0;"/><polygon fill="#181818" points="690.07,302.08,699.3496,305.3799,695.0554,301.6976,698.7377,297.4033,690.07,302.08" style="stroke:#181818;stroke-width:1.0;"/><text fill="#000000" font-family="sans-serif" font-size="12" lengthAdjust="spacing" textLength="50" x="728" y="292.457">&#171;extend&#187;</text></g><!--link user to ucViewMenu--><g id="link_user_ucViewMenu"><path d="M33.29,831 C55.66,831 97.41,831 138.41,831 " fill="none" id="user-to-ucViewMenu" style="stroke:#181818;stroke-width:1.0;"/><polygon fill="#181818" points="144.41,831,135.41,827,139.41,831,135.41,835,144.41,831" style="stroke:#181818;stroke-width:1.0;"/></g><!--reverse link ucViewMenu to ucManageProfile--><g id="link_ucViewMenu_ucManageProfile"><path d="M263.9657,846.946 C298.5857,858.816 337,872 337,872 C337,872 449,1087 449,1087 C449,1087 482.7,1097.96 514.82,1108.41 " fill="none" id="ucViewMenu-backto-ucManageProfile" style="stroke:#181818;stroke-width:1.0;stroke-dasharray:7.0,7.0;"/><polygon fill="#181818" points="258.29,845,265.5062,851.7028,263.0197,846.6217,268.1008,844.1352,258.29,845" style="stroke:#181818;stroke-width:1.0;"/><text fill="#000000" font-family="sans-serif" font-size="12" lengthAdjust="spacing" textLength="50" x="368" y="926.457">&#171;extend&#187;</text></g><!--link ucManageProfile to noteManageProfile--><g id="link_ucManageProfile_noteManageProfile"><path d="M573,1104.24 C573,1103.87 573,1103.67 573,1103.67 C573,1103.67 573,1080.33 573,1080.33 C573,1080.33 573,1075.21 573,1069.76 " fill="none" id="ucManageProfile-noteManageProfile" style="stroke:#181818;stroke-width:1.0;stroke-dasharray:7.0,7.0;"/></g><!--reverse link ucManageProfile to ucManageRecipe--><g id="link_ucManageProfile_ucManageRecipe"><path d="M680.73,1127.307 C730.02,1127.447 783.01,1127.59 831.39,1127.73 " fill="none" id="ucManageProfile-backto-ucManageRecipe" style="stroke:#181818;stroke-width:1.0;stroke-dasharray:7.0,7.0;"/><polygon fill="#181818" points="674.73,1127.29,683.7186,1131.3155,679.73,1127.3042,683.7413,1123.3156,674.73,1127.29" style="stroke:#181818;stroke-width:1.0;"/><text fill="#000000" font-family="sans-serif" font-size="12" lengthAdjust="spacing" textLength="50" x="728" y="1124.457">&#171;extend&#187;</text></g><!--reverse link ucManageProfile to ucViewFollow--><g id="link_ucManageProfile_ucViewFollow"><path d="M636.8856,1106.5537 C669.0056,1096.1037 697,1087 697,1087 C697,1087 809,1013 809,1013 C809,1013 836.78,1002.75 865.2,992.26 " fill="none" id="ucManageProfile-backto-ucViewFollow" style="stroke:#181818;stroke-width:1.0;stroke-dasharray:7.0,7.0;"/><polygon fill="#181818" points="631.18,1108.41,640.976,1109.4293,635.9347,1106.8631,638.5009,1101.8218,631.18,1108.41" style="stroke:#181818;stroke-width:1.0;"/><text fill="#000000" font-family="sans-serif" font-size="12" lengthAdjust="spacing" textLength="50" x="728" y="1029.457">&#171;extend&#187;</text></g><!--link ucManageRecipe to noteManageRecipe--><g id="link_ucManageRecipe_noteManageRecipe"><path d="M926.5,1106.34 C926.5,1103.94 926.5,1102.33 926.5,1102.33 C926.5,1102.33 926.5,1076.67 926.5,1076.67 C926.5,1076.67 926.5,1074.4 926.5,1071.22 " fill="none" id="ucManageRecipe-noteManageRecipe" style="stroke:#181818;stroke-width:1.0;stroke-dasharray:7.0,7.0;"/></g><!--reverse link ucViewMenu to ucManageSetting--><g id="link_ucViewMenu_ucManageSetting"><path d="M274.9027,843.9512 C335.1927,857.5612 429.63,878.87 498.17,894.34 " fill="none" id="ucViewMenu-backto-ucManageSetting" style="stroke:#181818;stroke-width:1.0;stroke-dasharray:7.0,7.0;"/><polygon fill="#181818" points="269.05,842.63,276.9483,848.5136,273.9273,843.731,278.7099,840.71,269.05,842.63" style="stroke:#181818;stroke-width:1.0;"/><text fill="#000000" font-family="sans-serif" font-size="12" lengthAdjust="spacing" textLength="50" x="368" y="863.457">&#171;extend&#187;</text></g><!--reverse link ucViewMenu to ucViewRecentRecipes--><g id="link_ucViewMenu_ucViewRecentRecipes"><path d="M294.81,831 C350.11,831 421.14,831 480.9,831 " fill="none" id="ucViewMenu-backto-ucViewRecentRecipes" style="stroke:#181818;stroke-width:1.0;stroke-dasharray:7.0,7.0;"/><polygon fill="#181818" points="288.81,831,297.81,835,293.81,831,297.81,827,288.81,831" style="stroke:#181818;stroke-width:1.0;"/><text fill="#000000" font-family="sans-serif" font-size="12" lengthAdjust="spacing" textLength="50" x="368" y="827.457">&#171;extend&#187;</text></g><!--reverse link ucViewMenu to ucLogout--><g id="link_ucViewMenu_ucLogout"><path d="M277.9933,818.8823 C347.4333,804.9823 460.22,782.39 525.53,769.31 " fill="none" id="ucViewMenu-backto-ucLogout" style="stroke:#181818;stroke-width:1.0;stroke-dasharray:7.0,7.0;"/><polygon fill="#181818" points="272.11,820.06,281.72,822.2157,277.0127,819.0786,280.1498,814.3713,272.11,820.06" style="stroke:#181818;stroke-width:1.0;"/><text fill="#000000" font-family="sans-serif" font-size="12" lengthAdjust="spacing" textLength="50" x="368" y="788.457">&#171;extend&#187;</text></g><!--link user to ucViewNotif--><g id="link_user_ucViewNotif"><path d="M33.23,839.4 C48.48,849.47 72,865 72,865 C72,865 117.5234,878.9617 158.7634,891.6017 " fill="none" id="user-to-ucViewNotif" style="stroke:#181818;stroke-width:1.0;"/><polygon fill="#181818" points="164.5,893.36,157.0673,886.8982,159.7195,891.8948,154.7229,894.547,164.5,893.36" style="stroke:#181818;stroke-width:1.0;"/></g><!--reverse link ucLogin to gmail--><g id="link_ucLogin_gmail"><path d="M1532.601,774.9126 C1565.811,840.4826 1678,1062 1678,1062 C1678,1062 1708,1166 1708,1166 C1708,1166 1766.54,1196.69 1795.36,1211.8 " fill="none" id="ucLogin-backto-gmail" style="stroke:#181818;stroke-width:1.0;"/><polygon fill="#181818" points="1529.89,769.56,1530.3881,779.3963,1532.1492,774.0205,1537.5249,775.7816,1529.89,769.56" style="stroke:#181818;stroke-width:1.0;"/></g><!--reverse link ucManageProfile to cl--><g id="link_ucManageProfile_cl"><path d="M646.295,1145.3886 C799.005,1184.2186 1156,1275 1156,1275 C1156,1275 1383,1275 1383,1275 C1383,1275 1450.61,1270.03 1490.49,1267.1 " fill="none" id="ucManageProfile-backto-cl" style="stroke:#181818;stroke-width:1.0;"/><polygon fill="#181818" points="640.48,1143.91,648.2167,1150.0045,645.3258,1145.1422,650.1882,1142.2512,640.48,1143.91" style="stroke:#181818;stroke-width:1.0;"/></g><!--reverse link ucManageRecipe to cl--><g id="link_ucManageRecipe_cl"><path d="M1022.1203,1135.6856 C1154.6303,1146.4456 1383,1165 1383,1165 C1383,1165 1450.61,1214.71 1490.49,1244.04 " fill="none" id="ucManageRecipe-backto-cl" style="stroke:#181818;stroke-width:1.0;"/><polygon fill="#181818" points="1016.14,1135.2,1024.7867,1139.9153,1021.1236,1135.6047,1025.4342,1131.9415,1016.14,1135.2" style="stroke:#181818;stroke-width:1.0;"/></g><!--reverse link ucManageRecipe to gemma--><g id="link_ucManageRecipe_gemma"><path d="M994.2529,1146.0127 C1071.6529,1166.8927 1195.47,1200.3 1246.71,1214.12 " fill="none" id="ucManageRecipe-backto-gemma" style="stroke:#181818;stroke-width:1.0;"/><polygon fill="#181818" points="988.46,1144.45,996.1075,1150.6561,993.2874,1145.7523,998.1912,1142.9322,988.46,1144.45" style="stroke:#181818;stroke-width:1.0;"/></g><!--reverse link ucForgotPassword to sms--><g id="link_ucForgotPassword_sms"><path d="M1922.23,945 C1965.45,945 2007.34,945 2040.85,945 " fill="none" id="ucForgotPassword-backto-sms" style="stroke:#181818;stroke-width:1.0;"/><polygon fill="#181818" points="1916.23,945,1925.23,949,1921.23,945,1925.23,941,1916.23,945" style="stroke:#181818;stroke-width:1.0;"/></g><!--link gmail to ucForgotPassword--><g id="link_gmail_ucForgotPassword"><path d="M1812,1182.45 C1812,1157.14 1812,1128.33 1812,1128.33 C1812,1128.33 1812,1036.67 1812,1036.67 C1812,1036.67 1812,1001.29 1812,974.13 " fill="none" id="gmail-to-ucForgotPassword" style="stroke:#181818;stroke-width:1.0;"/><polygon fill="#181818" points="1812,968.13,1808,977.13,1812,973.13,1816,977.13,1812,968.13" style="stroke:#181818;stroke-width:1.0;"/></g><!--link ucSearch to ucLogin--><g id="link_ucSearch_ucLogin"><path d="M238.86,195.25 C296.17,158.36 449,60 449,60 C449,60 697,60 697,60 C697,60 1383,363 1383,363 C1383,363 1414,448 1414,448 C1414,448 1488.5311,663.7888 1510.9411,728.6688 " fill="none" id="ucSearch-to-ucLogin" style="stroke:#181818;stroke-width:1.0;stroke-dasharray:7.0,7.0;"/><polygon fill="#181818" points="1512.9,734.34,1513.7425,724.5272,1511.2676,729.614,1506.1809,727.1391,1512.9,734.34" style="stroke:#181818;stroke-width:1.0;"/><text fill="#000000" font-family="sans-serif" font-size="12" lengthAdjust="spacing" textLength="54" x="899.5" y="107.457">&#171;include&#187;</text></g><!--link ucBrowseRecipes to ucLogin--><g id="link_ucBrowseRecipes_ucLogin"><path d="M281.77,418.25 C322.29,411.48 367,404 367,404 C367,404 449,393 449,393 C449,393 1156,372 1156,372 C1156,372 1383,372 1383,372 C1383,372 1483.9486,654.0508 1510.6886,728.7808 " fill="none" id="ucBrowseRecipes-to-ucLogin" style="stroke:#181818;stroke-width:1.0;stroke-dasharray:7.0,7.0;"/><polygon fill="#181818" points="1512.71,734.43,1513.444,724.6085,1511.0255,729.7223,1505.9117,727.3038,1512.71,734.43" style="stroke:#181818;stroke-width:1.0;"/><text fill="#000000" font-family="sans-serif" font-size="12" lengthAdjust="spacing" textLength="54" x="899.5" y="372.457">&#171;include&#187;</text></g><!--link ucViewMenu to ucLogin--><g id="link_ucViewMenu_ucLogin"><path d="M251.16,816.02 C315.37,787.46 449,728 449,728 C449,728 1074,705 1074,705 C1074,705 1126,705 1126,705 C1126,705 1334.2525,729.9075 1446.3725,743.3175 " fill="none" id="ucViewMenu-to-ucLogin" style="stroke:#181818;stroke-width:1.0;stroke-dasharray:7.0,7.0;"/><polygon fill="#181818" points="1452.33,744.03,1443.8687,738.9895,1447.3654,743.4362,1442.9187,746.9329,1452.33,744.03" style="stroke:#181818;stroke-width:1.0;"/><text fill="#000000" font-family="sans-serif" font-size="12" lengthAdjust="spacing" textLength="54" x="899.5" y="703.457">&#171;include&#187;</text></g><!--link ucViewNotif to ucLogin--><g id="link_ucViewNotif_ucLogin"><path d="M283.84,921.32 C352.25,934.03 449,952 449,952 C449,952 697,952 697,952 C697,952 809,849 809,849 C809,849 1156,770 1156,770 C1156,770 1333.4774,761.1972 1439.5474,755.9372 " fill="none" id="ucViewNotif-to-ucLogin" style="stroke:#181818;stroke-width:1.0;stroke-dasharray:7.0,7.0;"/><polygon fill="#181818" points="1445.54,755.64,1436.3529,752.0907,1440.5461,755.8876,1436.7492,760.0809,1445.54,755.64" style="stroke:#181818;stroke-width:1.0;"/><text fill="#000000" font-family="sans-serif" font-size="12" lengthAdjust="spacing" textLength="54" x="899.5" y="792.457">&#171;include&#187;</text></g><!--reverse link ucLogin to ucForgotPassword--><g id="link_ucLogin_ucForgotPassword"><path d="M1550.9746,771.9447 C1603.3146,806.7847 1719.52,884.12 1778.11,923.11 " fill="none" id="ucLogin-backto-ucForgotPassword" style="stroke:#181818;stroke-width:1.0;stroke-dasharray:7.0,7.0;"/><polygon fill="#181818" points="1545.98,768.62,1551.2555,776.9368,1550.1422,771.3906,1555.6884,770.2772,1545.98,768.62" style="stroke:#181818;stroke-width:1.0;"/><text fill="#000000" font-family="sans-serif" font-size="12" lengthAdjust="spacing" textLength="50" x="1627" y="822.457">&#171;extend&#187;</text></g><!--reverse link ucCommandVoiceCCM to speech--><g id="link_ucCommandVoiceCCM_speech"><path d="M1297.8354,841.8667 C1388.2854,937.3867 1708,1275 1708,1275 C1708,1275 1722.94,1282.98 1741.44,1292.86 " fill="none" id="ucCommandVoiceCCM-backto-speech" style="stroke:#181818;stroke-width:1.0;"/><polygon fill="#181818" points="1293.71,837.51,1296.9937,846.7953,1297.1479,841.1406,1302.8026,841.2947,1293.71,837.51" style="stroke:#181818;stroke-width:1.0;"/></g><!--link user to ucRecognizeIngre--><g id="link_user_ucRecognizeIngre"><path d="M33.1,859.13 C48.34,893.18 72,946 72,946 C72,946 111.1909,961.2878 150.7109,976.7178 " fill="none" id="user-to-ucRecognizeIngre" style="stroke:#181818;stroke-width:1.0;"/><polygon fill="#181818" points="156.3,978.9,149.3711,971.9007,151.6424,977.0815,146.4616,979.3528,156.3,978.9" style="stroke:#181818;stroke-width:1.0;"/></g><!--reverse link ucGuidedCCM to ucCommandVoiceCCM--><g id="link_ucGuidedCCM_ucCommandVoiceCCM"><path d="M982.0491,647.3453 C1013.8891,661.5553 1044,675 1044,675 C1044,675 1166.04,750.02 1230.16,789.43 " fill="none" id="ucGuidedCCM-backto-ucCommandVoiceCCM" style="stroke:#181818;stroke-width:1.0;stroke-dasharray:7.0,7.0;"/><polygon fill="#181818" points="976.57,644.9,983.1585,652.2207,981.1359,646.9377,986.4188,644.9152,976.57,644.9" style="stroke:#181818;stroke-width:1.0;"/><text fill="#000000" font-family="sans-serif" font-size="12" lengthAdjust="spacing" textLength="50" x="1075" y="692.457">&#171;extend&#187;</text></g><!--link ucRecognizeIngre to ucLogin--><g id="link_ucRecognizeIngre_ucLogin"><path d="M328.71,992.26 C470.36,979.85 697,960 697,960 C697,960 809,926 809,926 C809,926 1383,855 1383,855 C1383,855 1453.5264,801.5818 1492.0664,772.4018 " fill="none" id="ucRecognizeIngre-to-ucLogin" style="stroke:#181818;stroke-width:1.0;stroke-dasharray:7.0,7.0;"/><polygon fill="#181818" points="1496.85,768.78,1487.2601,771.0237,1492.8637,771.7982,1492.0892,777.4018,1496.85,768.78" style="stroke:#181818;stroke-width:1.0;"/><text fill="#000000" font-family="sans-serif" font-size="12" lengthAdjust="spacing" textLength="54" x="899.5" y="894.457">&#171;include&#187;</text></g><!--SRC=[bLTBZziu3BxxLmXpsIqMyMJIxIiOp67JdQB0fYWco9nwqTYA8umj6RBSD5lqlvSIvPTa9vaS0elazv4YALgkdhaegQ85gVGnP_2lUABh8e-gLbD88PEzaWKZMjMifycvOFfOCbBA_6WMFLtAThJEzRqKUiF_P-Hc4ULifucMHF5ihqdA5KiqboAYYPQAN6qhfgu8hKWD3utmKq5vRgMPUMh4grpMAHTK7QqkQHMRah5qizwGvcVrLL6rXAmeA1AQfqRyxuzI4WDEzkI19J8JtCI6Q2kE8XCl5HcawRF854iv4thsH2kMtcx_ciyNyxkTbEqpMCkYO2AbXgYHqhBCUM95v6Ta0eJT9i01-r_D5alodyou87-kvHFFsIlCHsA5WVMR9RcNAfEQbBIg3bAbFWxLNvqs8BYvWRsMKccRyig1K6Ig4G8M9ZvPwoukM8HchvTaJGNDeA6OrbnabHyPgZUe3GdUj0IbaZl0ZUE_eZ8A2DujoOPHbUoTEIu2i_TBye-I1rX1jNZ9cXIWy05bONJ0_YYr3p8YX8G8SBIotQ0zqAhGKvWFowOws4XwM2375_RGlCKDNQ5mmjlY1b8XvND1rREV32UUGaBJFd9sS2Wu-Bevif0JK23kenM7Q6WLQ3MIrJnbAUnKmWJ9OEQap55yifhLQXrcQEuyIxrd2dluZwPXeEDC2x_g1RBTJFRBucz71IcjUv0rB4FZhZlbGNZPGiLKhjvskGfxmIKB54tdXGJl786Gck_S8EdZlnXv27llO3kPv_80UI9Kf6vbZcUFuTuAqRKmNNwrKengTlt0Q7hzJMpBrAm-ifnfh96n2hQDK8j1X6VQbE9bRhmpTZbmUCuknuqqFu9_OfwkjmAp-AkBSRJL59dDxhf9v8l3YMCDXd9o6yU3GKEMvFQM_T3mbhcxQr68x5d5OxcRvkyFYd4F4t5vX_raTBujKCJzUJWDHeBEC1ufy7b7Wo7wqaZxO-ab6HfsqocldcKyrOodgz6suRaDTeRnI0-Vik-tZ1cuGqz-cmzcQaTdH8vfC1rEXJqqZ2T6ovHztzdvQenXkrbvhbK7NkBnSNaY5-wIDDLd7YPuYLo8mwlS-UfrBnZxPs_bP5QNrg2xfoOWRAHXLK9jBnNsNaucrN2Nxy0Z5rmNqMnCZnjoCvZ4vjU6RRVEHPBNANE9yW_M1O0sgnVQsdGwurEsgC5I3JSrNhBkrVy1hvxcVVzq9DybJnZv9WYmZLosdEMZiHgxShssbqlxUGJVTBpz3AeC9T0djDIrCgIyWBArDq-7iDzD62D-L7MLz3txlUTnO5Qw8OoPyKZ6KkCHdQvJz2lw3G00]--></g></svg>