<?xml version="1.0" encoding="us-ascii" standalone="no"?><svg xmlns="http://www.w3.org/2000/svg" xmlns:xlink="http://www.w3.org/1999/xlink" contentStyleType="text/css" height="1345px" preserveAspectRatio="none" style="width:1848px;height:1345px;background:#FFFFFF;" version="1.1" viewBox="0 0 1848 1345" width="1848px" zoomAndPan="magnify"><defs/><g><!--cluster Ingredient-based<U+0020>food<U+0020>recommendation<U+0020>application--><g id="cluster_Ingredient-based&lt;U+0020&gt;food&lt;U+0020&gt;recommendation&lt;U+0020&gt;application"><rect fill="none" height="1133" style="stroke:#181818;stroke-width:1.0;" width="1762.82" x="79.5" y="7"/><text fill="#000000" font-family="sans-serif" font-size="12" font-weight="bold" lengthAdjust="spacing" textLength="324" x="798.91" y="20.6016">Ingredient-based food recommendation application</text></g><g id="elem_ucLogin"><ellipse cx="1486.4657" cy="718.9991" fill="#F1F1F1" rx="56.7457" ry="13.7491" style="stroke:#181818;stroke-width:0.5;"/><text fill="#000000" font-family="sans-serif" font-size="12" lengthAdjust="spacing" textLength="69" x="1451.9657" y="721.5343">UC-2: Login</text></g><g id="elem_ucForgotPassword"><ellipse cx="1741.7712" cy="719.0002" fill="#F1F1F1" rx="84.5512" ry="19.3102" style="stroke:#181818;stroke-width:0.5;"/><text fill="#000000" font-family="sans-serif" font-size="12" lengthAdjust="spacing" textLength="135" x="1674.2712" y="721.5354">UC-4: Forgot password</text></g><g id="elem_ucReportUser"><ellipse cx="903.4614" cy="270.0023" fill="#F1F1F1" rx="73.0614" ry="17.0123" style="stroke:#181818;stroke-width:0.5;"/><text fill="#000000" font-family="sans-serif" font-size="12" lengthAdjust="spacing" textLength="109" x="848.9614" y="272.5374">UC-8 Report users</text></g><g id="elem_ucLogout"><ellipse cx="559.9385" cy="788.0037" fill="#F1F1F1" rx="58.2685" ry="14.0537" style="stroke:#181818;stroke-width:0.5;"/><text fill="#000000" font-family="sans-serif" font-size="12" lengthAdjust="spacing" textLength="73" x="523.4385" y="790.5388">UC-9 Logout</text></g><g id="elem_ucManageSetting"><ellipse cx="559.9414" cy="719.0023" fill="#F1F1F1" rx="86.8114" ry="19.7623" style="stroke:#181818;stroke-width:0.5;"/><text fill="#000000" font-family="sans-serif" font-size="12" lengthAdjust="spacing" textLength="140" x="489.9414" y="721.5374">UC-10: Manage settings</text></g><g id="elem_ucManageProfile"><ellipse cx="559.9411" cy="1105.0002" fill="#F1F1F1" rx="83.6511" ry="19.1302" style="stroke:#181818;stroke-width:0.5;"/><text fill="#000000" font-family="sans-serif" font-size="12" lengthAdjust="spacing" textLength="133" x="493.4411" y="1107.5354">UC-11: Manage profile</text></g><g id="elem_ucSearch"><ellipse cx="216.9008" cy="205.0042" fill="#F1F1F1" rx="59.8208" ry="14.3642" style="stroke:#181818;stroke-width:0.5;"/><text fill="#000000" font-family="sans-serif" font-size="12" lengthAdjust="spacing" textLength="77" x="178.4008" y="207.5393">UC-5: Search</text></g><g id="elem_ucBrowseRecipes"><ellipse cx="216.9" cy="423.004" fill="#F1F1F1" rx="80.52" ry="18.504" style="stroke:#181818;stroke-width:0.5;"/><text fill="#000000" font-family="sans-serif" font-size="12" lengthAdjust="spacing" textLength="126" x="153.9" y="425.5392">UC-6: Browse recipes</text></g><g id="elem_ucVoteRecipe"><ellipse cx="559.9418" cy="570.0044" fill="#F1F1F1" rx="77.4218" ry="17.8844" style="stroke:#181818;stroke-width:0.5;"/><text fill="#000000" font-family="sans-serif" font-size="12" lengthAdjust="spacing" textLength="119" x="500.4418" y="572.5395">UC-12: Vote recipes</text></g><g id="elem_ucCmtRecipe"><ellipse cx="903.4649" cy="605.001" fill="#F1F1F1" rx="90.4549" ry="20.491" style="stroke:#181818;stroke-width:0.5;"/><text fill="#000000" font-family="sans-serif" font-size="12" lengthAdjust="spacing" textLength="148" x="829.4649" y="607.5361">UC-13: Comment recipes</text></g><g id="elem_ucReportComment"><ellipse cx="903.4625" cy="455.0025" fill="#F1F1F1" rx="90.9125" ry="20.5825" style="stroke:#181818;stroke-width:0.5;"/><text fill="#000000" font-family="sans-serif" font-size="12" lengthAdjust="spacing" textLength="149" x="828.9625" y="457.5377">UC-14: Report comments</text></g><g id="elem_ucReportRecipe"><ellipse cx="559.9419" cy="96.0004" fill="#F1F1F1" rx="83.2019" ry="19.0404" style="stroke:#181818;stroke-width:0.5;"/><text fill="#000000" font-family="sans-serif" font-size="12" lengthAdjust="spacing" textLength="132" x="493.9419" y="98.5355">UC-15: Report recipes</text></g><g id="elem_ucBookmarkRecipe"><ellipse cx="559.9391" cy="422.9958" fill="#F1F1F1" rx="91.8291" ry="20.7658" style="stroke:#181818;stroke-width:0.5;"/><text fill="#000000" font-family="sans-serif" font-size="12" lengthAdjust="spacing" textLength="151" x="484.4391" y="425.531">UC-16: Bookmark recipes</text></g><g id="elem_ucViewRecipeDetail"><ellipse cx="559.9405" cy="644.0041" fill="#F1F1F1" rx="91.3705" ry="20.6741" style="stroke:#181818;stroke-width:0.5;"/><text fill="#000000" font-family="sans-serif" font-size="12" lengthAdjust="spacing" textLength="150" x="484.9405" y="646.5393">UC-17: View recipe detail</text></g><g id="elem_ucGuidedCCM"><ellipse cx="903.4614" cy="374.0023" fill="#F1F1F1" rx="113.3114" ry="25.0623" style="stroke:#181818;stroke-width:0.5;"/><text fill="#000000" font-family="sans-serif" font-size="12" lengthAdjust="spacing" textLength="197" x="804.9614" y="376.5374">UC-18: Use guided cooking mode</text></g><g id="elem_ucViewUSProfile"><ellipse cx="559.9351" cy="269.999" fill="#F1F1F1" rx="107.6451" ry="23.929" style="stroke:#181818;stroke-width:0.5;"/><text fill="#000000" font-family="sans-serif" font-size="12" lengthAdjust="spacing" textLength="185" x="467.4351" y="272.5342">UC-7: View other users' profiles</text></g><g id="elem_ucViewMenu"><ellipse cx="216.9036" cy="836.9987" fill="#F1F1F1" rx="73.4936" ry="17.0987" style="stroke:#181818;stroke-width:0.5;"/><text fill="#000000" font-family="sans-serif" font-size="12" lengthAdjust="spacing" textLength="110" x="161.9036" y="839.5339">UC-19: View menu</text></g><g id="elem_ucManageRecipe"><ellipse cx="903.4622" cy="1101.9984" fill="#F1F1F1" rx="98.2922" ry="22.0584" style="stroke:#181818;stroke-width:0.5;"/><text fill="#000000" font-family="sans-serif" font-size="12" lengthAdjust="spacing" textLength="165" x="820.9622" y="1104.5336">UC-20: Manage own recipes</text></g><g id="elem_ucViewRecentRecipes"><ellipse cx="559.945" cy="896.005" fill="#F1F1F1" rx="95.975" ry="21.595" style="stroke:#181818;stroke-width:0.5;"/><text fill="#000000" font-family="sans-serif" font-size="12" lengthAdjust="spacing" textLength="160" x="479.945" y="898.5402">UC-21: View recent recipes</text></g><g id="elem_ucViewNotif"><ellipse cx="216.901" cy="908.9982" fill="#F1F1F1" rx="89.541" ry="20.3082" style="stroke:#181818;stroke-width:0.5;"/><text fill="#000000" font-family="sans-serif" font-size="12" lengthAdjust="spacing" textLength="146" x="143.901" y="911.5334">UC-22: View notifications</text></g><g id="elem_ucViewFollow"><ellipse cx="903.4622" cy="945.0044" fill="#F1F1F1" rx="121.8722" ry="26.7744" style="stroke:#181818;stroke-width:0.5;"/><text fill="#000000" font-family="sans-serif" font-size="12" lengthAdjust="spacing" textLength="215" x="795.9622" y="947.5396">UC-23: View followers and followings</text></g><g id="elem_noteManageRecipe"><path d="M850.46,1006.87 L850.46,1045.1356 L956.46,1045.1356 L956.46,1016.87 L946.46,1006.87 L850.46,1006.87 " fill="#FAFAFA" style="stroke:#181818;stroke-width:0.5;"/><path d="M946.46,1006.87 L946.46,1016.87 L956.46,1016.87 L946.46,1006.87 " fill="#FAFAFA" style="stroke:#181818;stroke-width:1.0;"/><text fill="#000000" font-family="sans-serif" font-size="12" lengthAdjust="spacing" textLength="80" x="856.46" y="1023.4716">Create/Read/</text><text fill="#000000" font-family="sans-serif" font-size="12" lengthAdjust="spacing" textLength="85" x="856.46" y="1037.6044">Update/Delete</text></g><g id="elem_noteManageProfile"><path d="M510.44,1026.94 L510.44,1051.0728 L609.44,1051.0728 L609.44,1036.94 L599.44,1026.94 L510.44,1026.94 " fill="#FAFAFA" style="stroke:#181818;stroke-width:0.5;"/><path d="M599.44,1026.94 L599.44,1036.94 L609.44,1036.94 L599.44,1026.94 " fill="#FAFAFA" style="stroke:#181818;stroke-width:1.0;"/><text fill="#000000" font-family="sans-serif" font-size="12" lengthAdjust="spacing" textLength="78" x="516.44" y="1043.5416">Read/Update</text></g><g id="elem_noteVoteRecipe"><path d="M506.94,478.87 L506.94,517.1356 L612.94,517.1356 L612.94,488.87 L602.94,478.87 L506.94,478.87 " fill="#FAFAFA" style="stroke:#181818;stroke-width:0.5;"/><path d="M602.94,478.87 L602.94,488.87 L612.94,488.87 L602.94,478.87 " fill="#FAFAFA" style="stroke:#181818;stroke-width:1.0;"/><text fill="#000000" font-family="sans-serif" font-size="12" lengthAdjust="spacing" textLength="80" x="512.94" y="495.4716">Create/Read/</text><text fill="#000000" font-family="sans-serif" font-size="12" lengthAdjust="spacing" textLength="85" x="512.94" y="509.6044">Update/Delete</text></g><g id="elem_noteCmtRecipe"><path d="M850.46,510.87 L850.46,549.1356 L956.46,549.1356 L956.46,520.87 L946.46,510.87 L850.46,510.87 " fill="#FAFAFA" style="stroke:#181818;stroke-width:0.5;"/><path d="M946.46,510.87 L946.46,520.87 L956.46,520.87 L946.46,510.87 " fill="#FAFAFA" style="stroke:#181818;stroke-width:1.0;"/><text fill="#000000" font-family="sans-serif" font-size="12" lengthAdjust="spacing" textLength="80" x="856.46" y="527.4716">Create/Read/</text><text fill="#000000" font-family="sans-serif" font-size="12" lengthAdjust="spacing" textLength="85" x="856.46" y="541.6044">Update/Delete</text></g><g id="elem_noteBookmarkRecipe"><path d="M506.94,328.87 L506.94,367.1356 L612.94,367.1356 L612.94,338.87 L602.94,328.87 L506.94,328.87 " fill="#FAFAFA" style="stroke:#181818;stroke-width:0.5;"/><path d="M602.94,328.87 L602.94,338.87 L612.94,338.87 L602.94,328.87 " fill="#FAFAFA" style="stroke:#181818;stroke-width:1.0;"/><text fill="#000000" font-family="sans-serif" font-size="12" lengthAdjust="spacing" textLength="80" x="512.94" y="345.4716">Create/Read/</text><text fill="#000000" font-family="sans-serif" font-size="12" lengthAdjust="spacing" textLength="85" x="512.94" y="359.6044">Update/Delete</text></g><g id="elem_noteViewUSProfile"><path d="M500.94,186.94 L500.94,211.0728 L618.94,211.0728 L618.94,196.94 L608.94,186.94 L500.94,186.94 " fill="#FAFAFA" style="stroke:#181818;stroke-width:0.5;"/><path d="M608.94,186.94 L608.94,196.94 L618.94,196.94 L608.94,186.94 " fill="#FAFAFA" style="stroke:#181818;stroke-width:1.0;"/><text fill="#000000" font-family="sans-serif" font-size="12" lengthAdjust="spacing" textLength="97" x="506.94" y="203.5416">{Follow/Unfollow}</text></g><g id="elem_ucCommandVoiceCCM"><ellipse cx="1254.0345" cy="373.9989" fill="#F1F1F1" rx="114.6945" ry="25.3389" style="stroke:#181818;stroke-width:0.5;"/><text fill="#000000" font-family="sans-serif" font-size="12" lengthAdjust="spacing" textLength="157" x="1173.5345" y="369.4676">UC-24: Command by voice</text><text fill="#000000" font-family="sans-serif" font-size="12" lengthAdjust="spacing" textLength="95" x="1208.5345" y="383.6005">in cooking mode</text></g><g id="elem_ucRecognizeIngre"><ellipse cx="216.8994" cy="990.9999" fill="#F1F1F1" rx="121.3994" ry="26.6799" style="stroke:#181818;stroke-width:0.5;"/><text fill="#000000" font-family="sans-serif" font-size="12" lengthAdjust="spacing" textLength="174" x="127.8994" y="986.4686">UC-25: Recognize ingredients</text><text fill="#000000" font-family="sans-serif" font-size="12" lengthAdjust="spacing" textLength="111" x="163.3994" y="1000.6014">by capturing image</text></g><!--entity noteCommandVoiceCCM--><g id="elem_noteCommandVoiceCCM"><ellipse cx="1254.03" cy="248.44" fill="#F1F1F1" rx="8" ry="8" style="stroke:#181818;stroke-width:0.5;"/><path d="M1254.03,256.44 L1254.03,283.44 M1241.03,264.44 L1267.03,264.44 M1254.03,283.44 L1241.03,298.44 M1254.03,283.44 L1267.03,298.44 " fill="none" style="stroke:#181818;stroke-width:0.5;"/><text fill="#000000" font-family="sans-serif" font-size="12" lengthAdjust="spacing" textLength="141" x="1183.53" y="311.5416">noteCommandVoiceCCM</text></g><!--entity user--><g id="elem_user"><ellipse cx="19" cy="808.44" fill="#F1F1F1" rx="8" ry="8" style="stroke:#181818;stroke-width:0.5;"/><path d="M19,816.44 L19,843.44 M6,824.44 L32,824.44 M19,843.44 L6,858.44 M19,843.44 L32,858.44 " fill="none" style="stroke:#181818;stroke-width:0.5;"/><text fill="#000000" font-family="sans-serif" font-size="12" lengthAdjust="spacing" textLength="26" x="6" y="871.5416">User</text></g><!--entity gmail--><g id="elem_gmail"><ellipse cx="1741.77" cy="1164.44" fill="#F1F1F1" rx="8" ry="8" style="stroke:#181818;stroke-width:0.5;"/><path d="M1741.77,1172.44 L1741.77,1199.44 M1728.77,1180.44 L1754.77,1180.44 M1741.77,1199.44 L1728.77,1214.44 M1741.77,1199.44 L1754.77,1214.44 " fill="none" style="stroke:#181818;stroke-width:0.5;"/><text fill="#000000" font-family="sans-serif" font-size="12" lengthAdjust="spacing" textLength="33" x="1725.27" y="1227.5416">Gmail</text></g><!--entity cl--><g id="elem_cl"><ellipse cx="1741.77" cy="1273.44" fill="#F1F1F1" rx="8" ry="8" style="stroke:#181818;stroke-width:0.5;"/><path d="M1741.77,1281.44 L1741.77,1308.44 M1728.77,1289.44 L1754.77,1289.44 M1741.77,1308.44 L1728.77,1323.44 M1741.77,1308.44 L1754.77,1323.44 " fill="none" style="stroke:#181818;stroke-width:0.5;"/><text fill="#000000" font-family="sans-serif" font-size="12" lengthAdjust="spacing" textLength="61" x="1711.27" y="1336.5416">Cloudinary</text></g><!--link user to ucSearch--><g id="link_user_ucSearch"><path d="M24.26,799.8 C36.6,691.98 71.5,387 71.5,387 C71.5,387 166.8011,266.8906 200.8411,223.9806 " fill="none" id="user-to-ucSearch" style="stroke:#181818;stroke-width:1.0;"/><polygon fill="#181818" points="204.57,219.28,195.8429,223.8449,201.4626,223.1971,202.1104,228.8168,204.57,219.28" style="stroke:#181818;stroke-width:1.0;"/></g><!--link user to ucBrowseRecipes--><g id="link_user_ucBrowseRecipes"><path d="M32.85,809.84 C69.8,731.77 173.0635,513.5234 204.4535,447.1934 " fill="none" id="user-to-ucBrowseRecipes" style="stroke:#181818;stroke-width:1.0;"/><polygon fill="#181818" points="207.02,441.77,199.5546,448.194,204.8812,446.2895,206.7857,451.6161,207.02,441.77" style="stroke:#181818;stroke-width:1.0;"/></g><!--reverse link ucBrowseRecipes to ucVoteRecipe--><g id="link_ucBrowseRecipes_ucVoteRecipe"><path d="M258.6637,442.4769 C324.1437,473.7669 452.3,535 452.3,535 C452.3,535 484.88,545.7 514.03,555.26 " fill="none" id="ucBrowseRecipes-backto-ucVoteRecipe" style="stroke:#181818;stroke-width:1.0;stroke-dasharray:7.0,7.0;"/><polygon fill="#181818" points="253.25,439.89,259.6459,447.3795,257.7614,442.0458,263.0951,440.1613,253.25,439.89" style="stroke:#181818;stroke-width:1.0;"/><text fill="#000000" font-family="sans-serif" font-size="12" lengthAdjust="spacing" textLength="52" x="369.3" y="492.1816">&#171;extend&#187;</text></g><!--link ucVoteRecipe to noteVoteRecipe--><g id="link_ucVoteRecipe_noteVoteRecipe"><path d="M559.94,551.81 C559.94,548.47 559.94,546 559.94,546 C559.94,546 559.94,522 559.94,522 C559.94,522 559.94,520.11 559.94,517.38 " fill="none" id="ucVoteRecipe-noteVoteRecipe" style="stroke:#181818;stroke-width:1.0;stroke-dasharray:7.0,7.0;"/></g><!--reverse link ucBrowseRecipes to ucReportRecipe--><g id="link_ucBrowseRecipes_ucReportRecipe"><path d="M233.1407,399.4534 C263.6007,352.4034 338.3,237 338.3,237 C338.3,237 368.3,142 368.3,142 C368.3,142 445.35,123.41 501.49,109.87 " fill="none" id="ucBrowseRecipes-backto-ucReportRecipe" style="stroke:#181818;stroke-width:1.0;stroke-dasharray:7.0,7.0;"/><polygon fill="#181818" points="229.88,404.49,238.1288,399.1088,232.5973,400.2928,231.4133,394.7612,229.88,404.49" style="stroke:#181818;stroke-width:1.0;"/><text fill="#000000" font-family="sans-serif" font-size="12" lengthAdjust="spacing" textLength="52" x="369.3" y="126.2716">&#171;extend&#187;</text></g><!--reverse link ucBrowseRecipes to ucViewRecipeDetail--><g id="link_ucBrowseRecipes_ucViewRecipeDetail"><path d="M245.1101,444.712 C287.0601,478.182 368.3,543 368.3,543 C368.3,543 452.3,605 452.3,605 C452.3,605 482.18,615.93 510.3,626.22 " fill="none" id="ucBrowseRecipes-backto-ucViewRecipeDetail" style="stroke:#181818;stroke-width:1.0;stroke-dasharray:7.0,7.0;"/><polygon fill="#181818" points="240.42,440.97,244.9605,449.7098,244.3284,444.0884,249.9499,443.4563,240.42,440.97" style="stroke:#181818;stroke-width:1.0;"/><text fill="#000000" font-family="sans-serif" font-size="12" lengthAdjust="spacing" textLength="52" x="369.3" y="539.6016">&#171;extend&#187;</text></g><!--reverse link ucViewRecipeDetail to ucCmtRecipe--><g id="link_ucViewRecipeDetail_ucCmtRecipe"><path d="M648.2712,634.029 C702.6312,627.819 767.85,620.38 822.01,614.19 " fill="none" id="ucViewRecipeDetail-backto-ucCmtRecipe" style="stroke:#181818;stroke-width:1.0;stroke-dasharray:7.0,7.0;"/><polygon fill="#181818" points="642.31,634.71,651.7058,637.6627,647.2777,634.1425,650.7978,629.7143,642.31,634.71" style="stroke:#181818;stroke-width:1.0;"/><text fill="#000000" font-family="sans-serif" font-size="12" lengthAdjust="spacing" textLength="52" x="698.59" y="619.9316">&#171;extend&#187;</text></g><!--link ucCmtRecipe to noteCmtRecipe--><g id="link_ucCmtRecipe_noteCmtRecipe"><path d="M903.46,584.36 C903.46,581.77 903.46,580 903.46,580 C903.46,580 903.46,555 903.46,555 C903.46,555 903.46,552.56 903.46,549.21 " fill="none" id="ucCmtRecipe-noteCmtRecipe" style="stroke:#181818;stroke-width:1.0;stroke-dasharray:7.0,7.0;"/></g><!--reverse link ucViewRecipeDetail to ucReportComment--><g id="link_ucViewRecipeDetail_ucReportComment"><path d="M615.2246,624.1581 C643.3446,613.8681 667.59,605 667.59,605 C667.59,605 781.59,493 781.59,493 C781.59,493 816.71,481.96 849.09,471.78 " fill="none" id="ucViewRecipeDetail-backto-ucReportComment" style="stroke:#181818;stroke-width:1.0;stroke-dasharray:7.0,7.0;"/><polygon fill="#181818" points="609.59,626.22,619.4165,626.8836,614.2855,624.5018,616.6673,619.3708,609.59,626.22" style="stroke:#181818;stroke-width:1.0;"/><text fill="#000000" font-family="sans-serif" font-size="12" lengthAdjust="spacing" textLength="52" x="698.59" y="519.6416">&#171;extend&#187;</text></g><!--reverse link ucViewRecipeDetail to ucGuidedCCM--><g id="link_ucViewRecipeDetail_ucGuidedCCM"><path d="M615.2246,624.1581 C643.3446,613.8681 667.59,605 667.59,605 C667.59,605 697.59,499 697.59,499 C697.59,499 781.59,417 781.59,417 C781.59,417 811.81,406.25 842.03,395.5 " fill="none" id="ucViewRecipeDetail-backto-ucGuidedCCM" style="stroke:#181818;stroke-width:1.0;stroke-dasharray:7.0,7.0;"/><polygon fill="#181818" points="609.59,626.22,619.4165,626.8836,614.2855,624.5018,616.6673,619.3708,609.59,626.22" style="stroke:#181818;stroke-width:1.0;"/><text fill="#000000" font-family="sans-serif" font-size="12" lengthAdjust="spacing" textLength="52" x="698.59" y="444.8516">&#171;extend&#187;</text></g><!--reverse link ucBrowseRecipes to ucBookmarkRecipe--><g id="link_ucBrowseRecipes_ucBookmarkRecipe"><path d="M303.86,423 C354.75,423 414.81,423 467.74,423 " fill="none" id="ucBrowseRecipes-backto-ucBookmarkRecipe" style="stroke:#181818;stroke-width:1.0;stroke-dasharray:7.0,7.0;"/><polygon fill="#181818" points="297.86,423,306.86,427,302.86,423,306.86,419,297.86,423" style="stroke:#181818;stroke-width:1.0;"/><text fill="#000000" font-family="sans-serif" font-size="12" lengthAdjust="spacing" textLength="52" x="369.3" y="419.6016">&#171;extend&#187;</text></g><!--link ucBookmarkRecipe to noteBookmarkRecipe--><g id="link_ucBookmarkRecipe_noteBookmarkRecipe"><path d="M559.94,401.91 C559.94,399.57 559.94,398 559.94,398 C559.94,398 559.94,373 559.94,373 C559.94,373 559.94,370.56 559.94,367.21 " fill="none" id="ucBookmarkRecipe-noteBookmarkRecipe" style="stroke:#181818;stroke-width:1.0;stroke-dasharray:7.0,7.0;"/></g><!--reverse link ucBrowseRecipes to ucViewUSProfile--><g id="link_ucBrowseRecipes_ucViewUSProfile"><path d="M258.664,403.5237 C324.144,372.2437 452.3,311 452.3,311 C452.3,311 478.34,300.99 504.68,290.86 " fill="none" id="ucBrowseRecipes-backto-ucViewUSProfile" style="stroke:#181818;stroke-width:1.0;stroke-dasharray:7.0,7.0;"/><polygon fill="#181818" points="253.25,406.11,263.0952,405.8399,257.7617,403.9548,259.6468,398.6213,253.25,406.11" style="stroke:#181818;stroke-width:1.0;"/><text fill="#000000" font-family="sans-serif" font-size="12" lengthAdjust="spacing" textLength="52" x="369.3" y="323.8616">&#171;extend&#187;</text></g><!--link ucViewUSProfile to noteViewUSProfile--><g id="link_ucViewUSProfile_noteViewUSProfile"><path d="M559.94,245.75 C559.94,242.11 559.94,222.67 559.94,222.67 C559.94,222.67 559.94,217.12 559.94,211.39 " fill="none" id="ucViewUSProfile-noteViewUSProfile" style="stroke:#181818;stroke-width:1.0;stroke-dasharray:7.0,7.0;"/></g><!--reverse link ucViewUSProfile to ucReportUser--><g id="link_ucViewUSProfile_ucReportUser"><path d="M674.07,270 C726.78,270 782.95,270 830,270 " fill="none" id="ucViewUSProfile-backto-ucReportUser" style="stroke:#181818;stroke-width:1.0;stroke-dasharray:7.0,7.0;"/><polygon fill="#181818" points="668.07,270,677.07,274,673.07,270,677.07,266,668.07,270" style="stroke:#181818;stroke-width:1.0;"/><text fill="#000000" font-family="sans-serif" font-size="12" lengthAdjust="spacing" textLength="52" x="698.59" y="266.6016">&#171;extend&#187;</text></g><!--link user to ucViewMenu--><g id="link_user_ucViewMenu"><path d="M32.85,837 C55.07,837 96.2,837 137.08,837 " fill="none" id="user-to-ucViewMenu" style="stroke:#181818;stroke-width:1.0;"/><polygon fill="#181818" points="143.08,837,134.08,833,138.08,837,134.08,841,143.08,837" style="stroke:#181818;stroke-width:1.0;"/></g><!--reverse link ucViewMenu to ucManageProfile--><g id="link_ucViewMenu_ucManageProfile"><path d="M270.914,851.9714 C304.644,861.5014 338.3,871 338.3,871 C338.3,871 452.3,1069 452.3,1069 C452.3,1069 483.06,1079.39 511.55,1089 " fill="none" id="ucViewMenu-backto-ucManageProfile" style="stroke:#181818;stroke-width:1.0;stroke-dasharray:7.0,7.0;"/><polygon fill="#181818" points="265.14,850.34,272.7134,856.6364,269.9516,851.6995,274.8885,848.9377,265.14,850.34" style="stroke:#181818;stroke-width:1.0;"/><text fill="#000000" font-family="sans-serif" font-size="12" lengthAdjust="spacing" textLength="52" x="369.3" y="920.7116">&#171;extend&#187;</text></g><!--link ucManageProfile to noteManageProfile--><g id="link_ucManageProfile_noteManageProfile"><path d="M559.94,1085.7 C559.94,1084.06 559.94,1083 559.94,1083 C559.94,1083 559.94,1061 559.94,1061 C559.94,1061 559.94,1056.49 559.94,1051.55 " fill="none" id="ucManageProfile-noteManageProfile" style="stroke:#181818;stroke-width:1.0;stroke-dasharray:7.0,7.0;"/></g><!--reverse link ucManageProfile to ucManageRecipe--><g id="link_ucManageProfile_ucManageRecipe"><path d="M649.6198,1104.2269 C698.1798,1103.7969 753.83,1103.31 804.78,1102.86 " fill="none" id="ucManageProfile-backto-ucManageRecipe" style="stroke:#181818;stroke-width:1.0;stroke-dasharray:7.0,7.0;"/><polygon fill="#181818" points="643.62,1104.28,652.6551,1108.2002,648.6198,1104.2357,652.5842,1100.2005,643.62,1104.28" style="stroke:#181818;stroke-width:1.0;"/><text fill="#000000" font-family="sans-serif" font-size="12" lengthAdjust="spacing" textLength="52" x="698.59" y="1100.0116">&#171;extend&#187;</text></g><!--reverse link ucManageProfile to ucViewFollow--><g id="link_ucManageProfile_ucViewFollow"><path d="M614.0251,1087.0817 C642.5051,1077.4717 667.59,1069 667.59,1069 C667.59,1069 781.59,989 781.59,989 C781.59,989 809.72,978.76 838.84,968.16 " fill="none" id="ucManageProfile-backto-ucViewFollow" style="stroke:#181818;stroke-width:1.0;stroke-dasharray:7.0,7.0;"/><polygon fill="#181818" points="608.34,1089,618.1465,1089.9126,613.0776,1087.4014,615.5887,1082.3325,608.34,1089" style="stroke:#181818;stroke-width:1.0;"/><text fill="#000000" font-family="sans-serif" font-size="12" lengthAdjust="spacing" textLength="52" x="698.59" y="1007.0616">&#171;extend&#187;</text></g><!--link ucManageRecipe to noteManageRecipe--><g id="link_ucManageRecipe_noteManageRecipe"><path d="M903.46,1079.78 C903.46,1077.88 903.46,1076.67 903.46,1076.67 C903.46,1076.67 903.46,1051.34 903.46,1051.34 C903.46,1051.34 903.46,1048.86 903.46,1045.46 " fill="none" id="ucManageRecipe-noteManageRecipe" style="stroke:#181818;stroke-width:1.0;stroke-dasharray:7.0,7.0;"/></g><!--reverse link ucViewMenu to ucManageSetting--><g id="link_ucViewMenu_ucManageSetting"><path d="M264.2587,820.6653 C308.7987,804.9653 368.3,784 368.3,784 C368.3,784 453.86,754.83 510.34,735.57 " fill="none" id="ucViewMenu-backto-ucManageSetting" style="stroke:#181818;stroke-width:1.0;stroke-dasharray:7.0,7.0;"/><polygon fill="#181818" points="258.6,822.66,268.4179,823.4405,263.3156,820.9978,265.7583,815.8955,258.6,822.66" style="stroke:#181818;stroke-width:1.0;"/><text fill="#000000" font-family="sans-serif" font-size="12" lengthAdjust="spacing" textLength="52" x="369.3" y="763.1716">&#171;extend&#187;</text></g><!--reverse link ucViewMenu to ucViewRecentRecipes--><g id="link_ucViewMenu_ucViewRecentRecipes"><path d="M282.8322,848.2327 C339.8322,858.0927 420.53,872.06 482.72,882.82 " fill="none" id="ucViewMenu-backto-ucViewRecentRecipes" style="stroke:#181818;stroke-width:1.0;stroke-dasharray:7.0,7.0;"/><polygon fill="#181818" points="276.92,847.21,285.1065,852.6855,281.8468,848.0623,286.4701,844.8026,276.92,847.21" style="stroke:#181818;stroke-width:1.0;"/><text fill="#000000" font-family="sans-serif" font-size="12" lengthAdjust="spacing" textLength="52" x="369.3" y="861.3316">&#171;extend&#187;</text></g><!--reverse link ucViewMenu to ucLogout--><g id="link_ucViewMenu_ucLogout"><path d="M286.389,827.1667 C352.159,817.7167 448.38,803.89 508.98,795.18 " fill="none" id="ucViewMenu-backto-ucLogout" style="stroke:#181818;stroke-width:1.0;stroke-dasharray:7.0,7.0;"/><polygon fill="#181818" points="280.45,828.02,289.9274,830.6993,285.3992,827.3089,288.7896,822.7807,280.45,828.02" style="stroke:#181818;stroke-width:1.0;"/><text fill="#000000" font-family="sans-serif" font-size="12" lengthAdjust="spacing" textLength="52" x="369.3" y="804.7116">&#171;extend&#187;</text></g><!--link user to ucViewNotif--><g id="link_user_ucViewNotif"><path d="M33,845.84 C48.25,856.2 71.5,872 71.5,872 C71.5,872 110.7478,882.0608 150.5178,892.2508 " fill="none" id="user-to-ucViewNotif" style="stroke:#181818;stroke-width:1.0;"/><polygon fill="#181818" points="156.33,893.74,148.6045,887.6313,151.4865,892.499,146.6188,895.381,156.33,893.74" style="stroke:#181818;stroke-width:1.0;"/></g><!--reverse link ucLogin to gmail--><g id="link_ucLogin_gmail"><path d="M1495.3634,738.5748 C1524.8134,811.6248 1657.21,1140 1657.21,1140 C1657.21,1140 1700.85,1167.68 1725.05,1183.03 " fill="none" id="ucLogin-backto-gmail" style="stroke:#181818;stroke-width:1.0;"/><polygon fill="#181818" points="1493.12,733.01,1492.7753,742.8528,1494.9895,737.6473,1500.195,739.8616,1493.12,733.01" style="stroke:#181818;stroke-width:1.0;"/></g><!--reverse link ucManageProfile to cl--><g id="link_ucManageProfile_cl"><path d="M597.3572,1126.0081 C681.6572,1174.6381 902.46,1302 902.46,1302 C902.46,1302 902.46,1302 1487.47,1302 C1487.47,1302 1644.4,1302 1711.21,1302 " fill="none" id="ucManageProfile-backto-cl" style="stroke:#181818;stroke-width:1.0;"/><polygon fill="#181818" points="592.16,1123.01,597.9571,1130.972,596.491,1125.5084,601.9546,1124.0424,592.16,1123.01" style="stroke:#181818;stroke-width:1.0;"/></g><!--reverse link ucManageRecipe to cl--><g id="link_ucManageRecipe_cl"><path d="M978.0254,1119.5956 C1149.7054,1160.6556 1590.96,1266.18 1710.83,1294.84 " fill="none" id="ucManageRecipe-backto-cl" style="stroke:#181818;stroke-width:1.0;"/><polygon fill="#181818" points="972.19,1118.2,980.0127,1124.1837,977.0529,1119.363,981.8736,1116.4032,972.19,1118.2" style="stroke:#181818;stroke-width:1.0;"/></g><!--link ucSearch to ucLogin--><g id="link_ucSearch_ucLogin"><path d="M238.81,191.24 C280.14,164.04 368.3,106 368.3,106 C368.3,106 452.3,59 452.3,59 C452.3,59 667.59,59 667.59,59 C667.59,59 1368.72,142 1368.72,142 C1368.72,142 1463.6201,611.0292 1481.4501,699.1492 " fill="none" id="ucSearch-to-ucLogin" style="stroke:#181818;stroke-width:1.0;stroke-dasharray:7.0,7.0;"/><polygon fill="#181818" points="1482.64,705.03,1484.7757,695.4155,1481.6484,700.1293,1476.9346,697.002,1482.64,705.03" style="stroke:#181818;stroke-width:1.0;"/><text fill="#000000" font-family="sans-serif" font-size="12" lengthAdjust="spacing" textLength="53" x="876.96" y="69.4116">&#171;include&#187;</text></g><!--link ucBrowseRecipes to ucLogin--><g id="link_ucBrowseRecipes_ucLogin"><path d="M234.76,404.74 C288.5,346.5 452.3,169 452.3,169 C452.3,169 558.94,151 558.94,151 C558.94,151 558.94,151 1255.03,151 C1255.03,151 1368.72,222 1368.72,222 C1368.72,222 1461.7879,618.209 1480.7879,699.089 " fill="none" id="ucBrowseRecipes-to-ucLogin" style="stroke:#181818;stroke-width:1.0;stroke-dasharray:7.0,7.0;"/><polygon fill="#181818" points="1482.16,704.93,1483.9958,695.2537,1481.0165,700.0625,1476.2078,697.0833,1482.16,704.93" style="stroke:#181818;stroke-width:1.0;"/><text fill="#000000" font-family="sans-serif" font-size="12" lengthAdjust="spacing" textLength="53" x="876.96" y="147.6016">&#171;include&#187;</text></g><!--link ucViewMenu to ucLogin--><g id="link_ucViewMenu_ucLogin"><path d="M289.65,834.29 C416.61,829.49 667.59,820 667.59,820 C667.59,820 781.59,738 781.59,738 C781.59,738 1257.1722,725.1618 1423.6522,720.6718 " fill="none" id="ucViewMenu-to-ucLogin" style="stroke:#181818;stroke-width:1.0;stroke-dasharray:7.0,7.0;"/><polygon fill="#181818" points="1429.65,720.51,1420.5454,716.7541,1424.6518,720.6448,1420.7611,724.7512,1429.65,720.51" style="stroke:#181818;stroke-width:1.0;"/><text fill="#000000" font-family="sans-serif" font-size="12" lengthAdjust="spacing" textLength="53" x="876.96" y="728.0416">&#171;include&#187;</text></g><!--link ucViewNotif to ucLogin--><g id="link_ucViewNotif_ucLogin"><path d="M298.24,917.91 C366.09,925.44 452.3,935 452.3,935 C452.3,935 667.59,935 667.59,935 C667.59,935 781.59,824 781.59,824 C781.59,824 1272.7057,750.7454 1431.4257,727.0654 " fill="none" id="ucViewNotif-to-ucLogin" style="stroke:#181818;stroke-width:1.0;stroke-dasharray:7.0,7.0;"/><polygon fill="#181818" points="1437.36,726.18,1427.8683,723.5518,1432.4147,726.9178,1429.0488,731.4643,1437.36,726.18" style="stroke:#181818;stroke-width:1.0;"/><text fill="#000000" font-family="sans-serif" font-size="12" lengthAdjust="spacing" textLength="53" x="876.96" y="784.3116">&#171;include&#187;</text></g><!--reverse link ucLogin to ucForgotPassword--><g id="link_ucLogin_ucForgotPassword"><path d="M1549.68,719 C1582.91,719 1619.63,719 1656.79,719 " fill="none" id="ucLogin-backto-ucForgotPassword" style="stroke:#181818;stroke-width:1.0;stroke-dasharray:7.0,7.0;"/><polygon fill="#181818" points="1543.68,719,1552.68,723,1548.68,719,1552.68,715,1543.68,719" style="stroke:#181818;stroke-width:1.0;"/><text fill="#000000" font-family="sans-serif" font-size="12" lengthAdjust="spacing" textLength="52" x="1574.21" y="715.6016">&#171;extend&#187;</text></g><!--link user to ucRecognizeIngre--><g id="link_user_ucRecognizeIngre"><path d="M33,864.76 C48.25,897.35 71.5,947 71.5,947 C71.5,947 102.4303,956.4319 138.8103,967.5119 " fill="none" id="user-to-ucRecognizeIngre" style="stroke:#181818;stroke-width:1.0;"/><polygon fill="#181818" points="144.55,969.26,137.1059,962.8114,139.7669,967.8033,134.7751,970.4643,144.55,969.26" style="stroke:#181818;stroke-width:1.0;"/></g><!--reverse link ucGuidedCCM to ucCommandVoiceCCM--><g id="link_ucGuidedCCM_ucCommandVoiceCCM"><path d="M1023.15,374 C1062.13,374 1099.84,374 1138.94,374 " fill="none" id="ucGuidedCCM-backto-ucCommandVoiceCCM" style="stroke:#181818;stroke-width:1.0;stroke-dasharray:7.0,7.0;"/><polygon fill="#181818" points="1017.15,374,1026.15,378,1022.15,374,1026.15,370,1017.15,374" style="stroke:#181818;stroke-width:1.0;"/><text fill="#000000" font-family="sans-serif" font-size="12" lengthAdjust="spacing" textLength="52" x="1056.33" y="370.6016">&#171;extend&#187;</text></g><!--link ucCommandVoiceCCM to noteCommandVoiceCCM--><g id="link_ucCommandVoiceCCM_noteCommandVoiceCCM"><path d="M1254.03,348.21 C1254.03,344.37 1254.03,341.67 1254.03,341.67 C1254.03,341.67 1254.03,323.48 1254.03,314.39 " fill="none" id="ucCommandVoiceCCM-noteCommandVoiceCCM" style="stroke:#181818;stroke-width:1.0;stroke-dasharray:7.0,7.0;"/></g><!--link ucRecognizeIngre to ucLogin--><g id="link_ucRecognizeIngre_ucLogin"><path d="M326.76,979.38 C459.84,965.18 667.59,943 667.59,943 C667.59,943 751.59,914 751.59,914 C751.59,914 781.59,901 781.59,901 C781.59,901 1368.72,779 1368.72,779 C1368.72,779 1421.1034,752.0823 1455.3734,734.4723 " fill="none" id="ucRecognizeIngre-to-ucLogin" style="stroke:#181818;stroke-width:1.0;stroke-dasharray:7.0,7.0;"/><polygon fill="#181818" points="1460.71,731.73,1450.8768,732.2857,1456.2628,734.0152,1454.5332,739.4012,1460.71,731.73" style="stroke:#181818;stroke-width:1.0;"/><text fill="#000000" font-family="sans-serif" font-size="12" lengthAdjust="spacing" textLength="53" x="876.96" y="847.3216">&#171;include&#187;</text></g><!--SRC=[dLTBRzim3BxxLmYzx334JT9sQuqWXwLeCM0TXWRfgHVLLXoXjcJ8yhAiw7-VNdv8ifrqEGGM-NqaHLAqNBvYKa06Sr3oGuR4FyCnh_8iA1jDJWcDTupc271MeOucmmJnGu50GRE3N7Hq2Th2AkDtbF0r_el0R1vaQCi1fu3XTCT1WXcAEQOaW36d39njIiJE02n19HvguNqESQQagNognQkCLWaca1sKBiw2G5g391MR-4vIXXAC29-ym18bYytdwNG-NMufRPu5ckOv8WcK8THIM1GPZfK8l0L0_4GiiR0XebjDvX7uGLDCT92nUlP0bn6ueoob71ImBFUK9GQkfR-CqEDTWqTKKCRLxal3qIAP60z_8sEX5M-34GiFDPj6u04Ic8hI8iunIMlJMhhMGfytQtW5erkS8OlsIyi2ZtSLWJM2BDuPk5vui2yH-CReNgn47N21wg2qy57B_A140PueTqbIf2a-uo82ArLdxf1MEH_YY0gQKkWMuNOrZ3sVTzNmR5TQEEHDfeBIrnooLpSPHZp4_2goWT7UiCI1u_LH4JaH2isxLMAVVHq1qLSWhN224h5JAavkAivwKbVwNcbMgmUFMpkcV8UOxjTFTPkKdG0swy4-cTqO6oALLOVo89R-kMkRcEw9aoMj6CZHVDRcoEy1aoIXg3lEDp0t1WZbU6j6GvV_KyfzseMXRMcMqRr8480aCQlE8PIOEoNKhedixhCLGv2ZyqS4a_DdiYaIkRf56UAwDXBbRLjJ5KSp76XTYe-vSSxMwKJxV9tEwsbwJNxJUJhV49t5zpR6tbPZO39PjXF85VkJHW5iELY4eJLWG0GM2_I7Y_V6SjcmDBE32ljoDso_Eo3wFGp4vHpoqUXSh3RHb6cOg_ajCEofxr4_rkZyZpYROVIH_DYzDERLGOP3hJXUYwO9Zssm1OOz7Jo6xsPJNWjiJswJMnErDIT5nf8r6yR2je7Xm60PmdUT7Qz67xUTbCSwrV8IzW_BaLoO6z5GdpaSxnLo8azVruvNhtszg3zr1mQJgb20zW8Q2w6KAh5VbXwrIORsQOOa2EMliQoYmoJEgWIPlRYzVmAXsVY9MBLZ0nx3QetEfdsrThBglvmlzQLGlf5V3k0tnJ42pmG8SptN88DyagY-oz1SNVjYcXBvbOERJuzIcXJcOrZmYacZE1TvR-w4Xg6-LGAlzevURxaTWcPusw4DjPuBCmFSsPVnOJiUBrhm7lm3]--></g></svg>