<?xml version="1.0" encoding="us-ascii" standalone="no"?><svg xmlns="http://www.w3.org/2000/svg" xmlns:xlink="http://www.w3.org/1999/xlink" contentStyleType="text/css" height="976px" preserveAspectRatio="none" style="width:1196px;height:976px;background:#FFFFFF;" version="1.1" viewBox="0 0 1196 976" width="1196px" zoomAndPan="magnify"><defs/><g><text fill="#000000" font-family="sans-serif" font-size="14" font-weight="bold" lengthAdjust="spacing" textLength="242" x="478" y="29.5332">Get user view recipe detail history</text><rect fill="#FFFFFF" height="699.3672" style="stroke:#181818;stroke-width:1.0;" width="10" x="200.5" y="169.9219"/><rect fill="#FFFFFF" height="638.6641" style="stroke:#181818;stroke-width:1.0;" width="10" x="368.5" y="200.2734"/><rect fill="#FFFFFF" height="531.5156" style="stroke:#181818;stroke-width:1.0;" width="10" x="529.5" y="277.0703"/><rect fill="#FFFFFF" height="261.5156" style="stroke:#181818;stroke-width:1.0;" width="10" x="720.5" y="516.7188"/><rect fill="#FFFFFF" height="107.4063" style="stroke:#181818;stroke-width:1.0;" width="10" x="908.5" y="624.125"/><rect fill="#FFFFFF" height="30.3516" style="stroke:#181818;stroke-width:1.0;" width="10" x="1059.5" y="654.4766"/><rect fill="#FFFFFF" height="30.3516" style="stroke:#181818;stroke-width:1.0;" width="10" x="1140" y="307.4219"/><rect fill="#FFFFFF" height="30.3516" style="stroke:#181818;stroke-width:1.0;" width="10" x="1140" y="547.0703"/><rect fill="none" height="524.5156" style="stroke:#000000;stroke-width:1.5;" width="1179" x="10" y="352.7734"/><line style="stroke:#181818;stroke-width:0.5;stroke-dasharray:5.0,5.0;" x1="37" x2="37" y1="121.2188" y2="894.2891"/><line style="stroke:#181818;stroke-width:0.5;stroke-dasharray:5.0,5.0;" x1="205" x2="205" y1="121.2188" y2="894.2891"/><line style="stroke:#181818;stroke-width:0.5;stroke-dasharray:5.0,5.0;" x1="373.5" x2="373.5" y1="121.2188" y2="894.2891"/><line style="stroke:#181818;stroke-width:0.5;stroke-dasharray:5.0,5.0;" x1="534.5" x2="534.5" y1="121.2188" y2="894.2891"/><line style="stroke:#181818;stroke-width:0.5;stroke-dasharray:5.0,5.0;" x1="725" x2="725" y1="121.2188" y2="894.2891"/><line style="stroke:#181818;stroke-width:0.5;stroke-dasharray:5.0,5.0;" x1="913.5" x2="913.5" y1="121.2188" y2="894.2891"/><line style="stroke:#181818;stroke-width:0.5;stroke-dasharray:5.0,5.0;" x1="1064" x2="1064" y1="121.2188" y2="894.2891"/><line style="stroke:#181818;stroke-width:0.5;stroke-dasharray:5.0,5.0;" x1="1145" x2="1145" y1="121.2188" y2="894.2891"/><text fill="#000000" font-family="sans-serif" font-size="14" lengthAdjust="spacing" textLength="29" x="20" y="118.1426">User</text><ellipse cx="37.5" cy="52.1094" fill="#E2E2F0" rx="8" ry="8" style="stroke:#181818;stroke-width:0.5;"/><path d="M37.5,60.1094 L37.5,87.1094 M24.5,68.1094 L50.5,68.1094 M37.5,87.1094 L24.5,102.1094 M37.5,87.1094 L50.5,102.1094 " fill="none" style="stroke:#181818;stroke-width:0.5;"/><text fill="#000000" font-family="sans-serif" font-size="14" lengthAdjust="spacing" textLength="29" x="20" y="907.8223">User</text><ellipse cx="37.5" cy="919.3984" fill="#E2E2F0" rx="8" ry="8" style="stroke:#181818;stroke-width:0.5;"/><path d="M37.5,927.3984 L37.5,954.3984 M24.5,935.3984 L50.5,935.3984 M37.5,954.3984 L24.5,969.3984 M37.5,954.3984 L50.5,969.3984 " fill="none" style="stroke:#181818;stroke-width:0.5;"/><text fill="#000000" font-family="sans-serif" font-size="14" lengthAdjust="spacing" textLength="53" x="176" y="118.1426">MobileUI</text><path d="M185,75.6094 L185,99.6094 M185,87.6094 L202,87.6094 " fill="none" style="stroke:#181818;stroke-width:0.5;"/><ellipse cx="214" cy="87.6094" fill="#E2E2F0" rx="12" ry="12" style="stroke:#181818;stroke-width:0.5;"/><text fill="#000000" font-family="sans-serif" font-size="14" lengthAdjust="spacing" textLength="53" x="176" y="907.8223">MobileUI</text><path d="M185,914.8984 L185,938.8984 M185,926.8984 L202,926.8984 " fill="none" style="stroke:#181818;stroke-width:0.5;"/><ellipse cx="214" cy="926.8984" fill="#E2E2F0" rx="12" ry="12" style="stroke:#181818;stroke-width:0.5;"/><rect fill="#E2E2F0" height="49.2188" rx="2.5" ry="2.5" style="stroke:#181818;stroke-width:0.5;" width="94" x="326.5" y="71"/><text fill="#000000" font-family="sans-serif" font-size="14" lengthAdjust="spacing" textLength="80" x="333.5" y="92.5332">&#171;cordinator&#187;</text><text fill="#000000" font-family="sans-serif" font-size="14" lengthAdjust="spacing" textLength="75" x="336" y="110.1426">ApiGateway</text><rect fill="#E2E2F0" height="49.2188" rx="2.5" ry="2.5" style="stroke:#181818;stroke-width:0.5;" width="94" x="326.5" y="893.2891"/><text fill="#000000" font-family="sans-serif" font-size="14" lengthAdjust="spacing" textLength="80" x="333.5" y="914.8223">&#171;cordinator&#187;</text><text fill="#000000" font-family="sans-serif" font-size="14" lengthAdjust="spacing" textLength="75" x="336" y="932.4316">ApiGateway</text><rect fill="#E2E2F0" height="49.2188" rx="2.5" ry="2.5" style="stroke:#181818;stroke-width:0.5;" width="120" x="474.5" y="71"/><text fill="#000000" font-family="sans-serif" font-size="14" lengthAdjust="spacing" textLength="61" x="504" y="92.5332">&#171;service&#187;</text><text fill="#000000" font-family="sans-serif" font-size="14" lengthAdjust="spacing" textLength="102" x="485.5" y="110.1426">TrackingService</text><rect fill="#E2E2F0" height="49.2188" rx="2.5" ry="2.5" style="stroke:#181818;stroke-width:0.5;" width="120" x="474.5" y="893.2891"/><text fill="#000000" font-family="sans-serif" font-size="14" lengthAdjust="spacing" textLength="61" x="504" y="914.8223">&#171;service&#187;</text><text fill="#000000" font-family="sans-serif" font-size="14" lengthAdjust="spacing" textLength="102" x="485.5" y="932.4316">TrackingService</text><rect fill="#E2E2F0" height="49.2188" rx="2.5" ry="2.5" style="stroke:#181818;stroke-width:0.5;" width="109" x="671" y="71"/><text fill="#000000" font-family="sans-serif" font-size="14" lengthAdjust="spacing" textLength="61" x="695" y="92.5332">&#171;service&#187;</text><text fill="#000000" font-family="sans-serif" font-size="14" lengthAdjust="spacing" textLength="91" x="682" y="110.1426">RecipeService</text><rect fill="#E2E2F0" height="49.2188" rx="2.5" ry="2.5" style="stroke:#181818;stroke-width:0.5;" width="109" x="671" y="893.2891"/><text fill="#000000" font-family="sans-serif" font-size="14" lengthAdjust="spacing" textLength="61" x="695" y="914.8223">&#171;service&#187;</text><text fill="#000000" font-family="sans-serif" font-size="14" lengthAdjust="spacing" textLength="91" x="682" y="932.4316">RecipeService</text><rect fill="#E2E2F0" height="49.2188" rx="2.5" ry="2.5" style="stroke:#181818;stroke-width:0.5;" width="94" x="866.5" y="71"/><text fill="#000000" font-family="sans-serif" font-size="14" lengthAdjust="spacing" textLength="61" x="883" y="92.5332">&#171;service&#187;</text><text fill="#000000" font-family="sans-serif" font-size="14" lengthAdjust="spacing" textLength="76" x="877.5" y="110.1426">UserService</text><rect fill="#E2E2F0" height="49.2188" rx="2.5" ry="2.5" style="stroke:#181818;stroke-width:0.5;" width="94" x="866.5" y="893.2891"/><text fill="#000000" font-family="sans-serif" font-size="14" lengthAdjust="spacing" textLength="61" x="883" y="914.8223">&#171;service&#187;</text><text fill="#000000" font-family="sans-serif" font-size="14" lengthAdjust="spacing" textLength="76" x="877.5" y="932.4316">UserService</text><text fill="#000000" font-family="sans-serif" font-size="14" lengthAdjust="spacing" textLength="67" x="1028" y="118.1426">Postgresql</text><path d="M1046.5,67.6094 C1046.5,57.6094 1064.5,57.6094 1064.5,57.6094 C1064.5,57.6094 1082.5,57.6094 1082.5,67.6094 L1082.5,93.6094 C1082.5,103.6094 1064.5,103.6094 1064.5,103.6094 C1064.5,103.6094 1046.5,103.6094 1046.5,93.6094 L1046.5,67.6094 " fill="#E2E2F0" style="stroke:#181818;stroke-width:1.5;"/><path d="M1046.5,67.6094 C1046.5,77.6094 1064.5,77.6094 1064.5,77.6094 C1064.5,77.6094 1082.5,77.6094 1082.5,67.6094 " fill="none" style="stroke:#181818;stroke-width:1.5;"/><text fill="#000000" font-family="sans-serif" font-size="14" lengthAdjust="spacing" textLength="67" x="1028" y="907.8223">Postgresql</text><path d="M1046.5,920.8984 C1046.5,910.8984 1064.5,910.8984 1064.5,910.8984 C1064.5,910.8984 1082.5,910.8984 1082.5,920.8984 L1082.5,946.8984 C1082.5,956.8984 1064.5,956.8984 1064.5,956.8984 C1064.5,956.8984 1046.5,956.8984 1046.5,946.8984 L1046.5,920.8984 " fill="#E2E2F0" style="stroke:#181818;stroke-width:1.5;"/><path d="M1046.5,920.8984 C1046.5,930.8984 1064.5,930.8984 1064.5,930.8984 C1064.5,930.8984 1082.5,930.8984 1082.5,920.8984 " fill="none" style="stroke:#181818;stroke-width:1.5;"/><text fill="#000000" font-family="sans-serif" font-size="14" lengthAdjust="spacing" textLength="62" x="1111" y="118.1426">MongoDB</text><path d="M1127,67.6094 C1127,57.6094 1145,57.6094 1145,57.6094 C1145,57.6094 1163,57.6094 1163,67.6094 L1163,93.6094 C1163,103.6094 1145,103.6094 1145,103.6094 C1145,103.6094 1127,103.6094 1127,93.6094 L1127,67.6094 " fill="#E2E2F0" style="stroke:#181818;stroke-width:1.5;"/><path d="M1127,67.6094 C1127,77.6094 1145,77.6094 1145,77.6094 C1145,77.6094 1163,77.6094 1163,67.6094 " fill="none" style="stroke:#181818;stroke-width:1.5;"/><text fill="#000000" font-family="sans-serif" font-size="14" lengthAdjust="spacing" textLength="62" x="1111" y="907.8223">MongoDB</text><path d="M1127,920.8984 C1127,910.8984 1145,910.8984 1145,910.8984 C1145,910.8984 1163,910.8984 1163,920.8984 L1163,946.8984 C1163,956.8984 1145,956.8984 1145,956.8984 C1145,956.8984 1127,956.8984 1127,946.8984 L1127,920.8984 " fill="#E2E2F0" style="stroke:#181818;stroke-width:1.5;"/><path d="M1127,920.8984 C1127,930.8984 1145,930.8984 1145,930.8984 C1145,930.8984 1163,930.8984 1163,920.8984 " fill="none" style="stroke:#181818;stroke-width:1.5;"/><rect fill="#FFFFFF" height="699.3672" style="stroke:#181818;stroke-width:1.0;" width="10" x="200.5" y="169.9219"/><rect fill="#FFFFFF" height="638.6641" style="stroke:#181818;stroke-width:1.0;" width="10" x="368.5" y="200.2734"/><rect fill="#FFFFFF" height="531.5156" style="stroke:#181818;stroke-width:1.0;" width="10" x="529.5" y="277.0703"/><rect fill="#FFFFFF" height="261.5156" style="stroke:#181818;stroke-width:1.0;" width="10" x="720.5" y="516.7188"/><rect fill="#FFFFFF" height="107.4063" style="stroke:#181818;stroke-width:1.0;" width="10" x="908.5" y="624.125"/><rect fill="#FFFFFF" height="30.3516" style="stroke:#181818;stroke-width:1.0;" width="10" x="1059.5" y="654.4766"/><rect fill="#FFFFFF" height="30.3516" style="stroke:#181818;stroke-width:1.0;" width="10" x="1140" y="307.4219"/><rect fill="#FFFFFF" height="30.3516" style="stroke:#181818;stroke-width:1.0;" width="10" x="1140" y="547.0703"/><polygon fill="#181818" points="188.5,165.9219,198.5,169.9219,188.5,173.9219,192.5,169.9219" style="stroke:#181818;stroke-width:1.0;"/><line style="stroke:#181818;stroke-width:1.0;" x1="37.5" x2="194.5" y1="169.9219" y2="169.9219"/><text fill="#000000" font-family="sans-serif" font-size="13" lengthAdjust="spacing" textLength="139" x="44.5" y="148.7139">1. Touch on history icon</text><text fill="#000000" font-family="sans-serif" font-size="13" lengthAdjust="spacing" textLength="117" x="48.5" y="165.0654">in user detail screen</text><polygon fill="#181818" points="356.5,196.2734,366.5,200.2734,356.5,204.2734,360.5,200.2734" style="stroke:#181818;stroke-width:1.0;"/><line style="stroke:#181818;stroke-width:1.0;" x1="210.5" x2="362.5" y1="200.2734" y2="200.2734"/><text fill="#000000" font-family="sans-serif" font-size="13" lengthAdjust="spacing" textLength="110" x="217.5" y="195.417">2. Get recipe feeds</text><rect fill="#FFFFFF" height="41.4453" style="stroke:#000000;stroke-width:1.5;" width="126" x="323.5" y="208.2734"/><path d="M323.5,208.2734 L385.5,208.2734 L385.5,216.2734 L375.5,226.2734 L323.5,226.2734 L323.5,208.2734 " fill="#EEEEEE" style="stroke:#000000;stroke-width:2.0;"/><text fill="#000000" font-family="sans-serif" font-size="13" font-weight="bold" lengthAdjust="spacing" textLength="17" x="336.5" y="223.7686">ref</text><text fill="#000000" font-family="sans-serif" font-size="12" lengthAdjust="spacing" textLength="118" x="327.5" y="242.7305">3. Verify access token</text><polygon fill="#181818" points="517.5,273.0703,527.5,277.0703,517.5,281.0703,521.5,277.0703" style="stroke:#181818;stroke-width:1.0;"/><line style="stroke:#181818;stroke-width:1.0;" x1="378.5" x2="523.5" y1="277.0703" y2="277.0703"/><text fill="#000000" font-family="sans-serif" font-size="13" lengthAdjust="spacing" textLength="108" x="385.5" y="272.2139">4. Forward request</text><polygon fill="#181818" points="1128,303.4219,1138,307.4219,1128,311.4219,1132,307.4219" style="stroke:#181818;stroke-width:1.0;"/><line style="stroke:#181818;stroke-width:1.0;" x1="539.5" x2="1134" y1="307.4219" y2="307.4219"/><text fill="#000000" font-family="sans-serif" font-size="13" lengthAdjust="spacing" textLength="79" x="546.5" y="302.5654">5. Query data</text><polygon fill="#181818" points="550.5,333.7734,540.5,337.7734,550.5,341.7734,546.5,337.7734" style="stroke:#181818;stroke-width:1.0;"/><line style="stroke:#181818;stroke-width:1.0;stroke-dasharray:2.0,2.0;" x1="544.5" x2="1144" y1="337.7734" y2="337.7734"/><text fill="#000000" font-family="sans-serif" font-size="13" lengthAdjust="spacing" textLength="110" x="556.5" y="332.917">6. Return response</text><path d="M10,352.7734 L71,352.7734 L71,361.125 L61,371.125 L10,371.125 L10,352.7734 " fill="#EEEEEE" style="stroke:#000000;stroke-width:1.5;"/><rect fill="none" height="524.5156" style="stroke:#000000;stroke-width:1.5;" width="1179" x="10" y="352.7734"/><text fill="#000000" font-family="sans-serif" font-size="13" font-weight="bold" lengthAdjust="spacing" textLength="16" x="25" y="367.2686">alt</text><text fill="#000000" font-family="sans-serif" font-size="11" font-weight="bold" lengthAdjust="spacing" textLength="107" x="86" y="366.1924">[View list is empty]</text><polygon fill="#181818" points="389.5,389.4766,379.5,393.4766,389.5,397.4766,385.5,393.4766" style="stroke:#181818;stroke-width:1.0;"/><line style="stroke:#181818;stroke-width:1.0;stroke-dasharray:2.0,2.0;" x1="383.5" x2="528.5" y1="393.4766" y2="393.4766"/><text fill="#000000" font-family="sans-serif" font-size="13" lengthAdjust="spacing" textLength="123" x="395.5" y="388.6201">7A. Return empty list</text><polygon fill="#181818" points="221.5,419.8281,211.5,423.8281,221.5,427.8281,217.5,423.8281" style="stroke:#181818;stroke-width:1.0;"/><line style="stroke:#181818;stroke-width:1.0;stroke-dasharray:2.0,2.0;" x1="215.5" x2="367.5" y1="423.8281" y2="423.8281"/><text fill="#000000" font-family="sans-serif" font-size="13" lengthAdjust="spacing" textLength="134" x="227.5" y="418.9717">7A.1. Foward response</text><polygon fill="#181818" points="48.5,450.1797,38.5,454.1797,48.5,458.1797,44.5,454.1797" style="stroke:#181818;stroke-width:1.0;"/><line style="stroke:#181818;stroke-width:1.0;stroke-dasharray:2.0,2.0;" x1="42.5" x2="199.5" y1="454.1797" y2="454.1797"/><text fill="#000000" font-family="sans-serif" font-size="13" lengthAdjust="spacing" textLength="139" x="54.5" y="449.3232">7A.2. Display empty list</text><line style="stroke:#000000;stroke-width:1.0;stroke-dasharray:2.0,2.0;" x1="10" x2="1189" y1="463.1797" y2="463.1797"/><text fill="#000000" font-family="sans-serif" font-size="11" font-weight="bold" lengthAdjust="spacing" textLength="128" x="15" y="474.5986">[View list is not empty]</text><polygon fill="#181818" points="708.5,512.7188,718.5,516.7188,708.5,520.7188,712.5,516.7188" style="stroke:#181818;stroke-width:1.0;"/><line style="stroke:#181818;stroke-width:1.0;" x1="539.5" x2="714.5" y1="516.7188" y2="516.7188"/><text fill="#000000" font-family="sans-serif" font-size="13" lengthAdjust="spacing" textLength="158" x="546.5" y="495.5107">8. gRPC call to get recipe's</text><text fill="#000000" font-family="sans-serif" font-size="13" lengthAdjust="spacing" textLength="136" x="550.5" y="511.8623">information list &#171;gRPC&#187;</text><polygon fill="#181818" points="1128,543.0703,1138,547.0703,1128,551.0703,1132,547.0703" style="stroke:#181818;stroke-width:1.0;"/><line style="stroke:#181818;stroke-width:1.0;" x1="730.5" x2="1134" y1="547.0703" y2="547.0703"/><text fill="#000000" font-family="sans-serif" font-size="13" lengthAdjust="spacing" textLength="79" x="737.5" y="542.2139">9. Query data</text><polygon fill="#181818" points="741.5,573.4219,731.5,577.4219,741.5,581.4219,737.5,577.4219" style="stroke:#181818;stroke-width:1.0;"/><line style="stroke:#181818;stroke-width:1.0;stroke-dasharray:2.0,2.0;" x1="735.5" x2="1144" y1="577.4219" y2="577.4219"/><text fill="#000000" font-family="sans-serif" font-size="13" lengthAdjust="spacing" textLength="117" x="747.5" y="572.5654">10. Return response</text><polygon fill="#181818" points="896.5,620.125,906.5,624.125,896.5,628.125,900.5,624.125" style="stroke:#181818;stroke-width:1.0;"/><line style="stroke:#181818;stroke-width:1.0;" x1="730.5" x2="902.5" y1="624.125" y2="624.125"/><text fill="#000000" font-family="sans-serif" font-size="13" lengthAdjust="spacing" textLength="155" x="737.5" y="602.917">11. gRPC call to get user's</text><text fill="#000000" font-family="sans-serif" font-size="13" lengthAdjust="spacing" textLength="136" x="741.5" y="619.2686">information list &#171;gRPC&#187;</text><polygon fill="#181818" points="1047.5,650.4766,1057.5,654.4766,1047.5,658.4766,1051.5,654.4766" style="stroke:#181818;stroke-width:1.0;"/><line style="stroke:#181818;stroke-width:1.0;" x1="918.5" x2="1053.5" y1="654.4766" y2="654.4766"/><text fill="#000000" font-family="sans-serif" font-size="13" lengthAdjust="spacing" textLength="86" x="925.5" y="649.6201">12. Query data</text><polygon fill="#181818" points="929.5,680.8281,919.5,684.8281,929.5,688.8281,925.5,684.8281" style="stroke:#181818;stroke-width:1.0;"/><line style="stroke:#181818;stroke-width:1.0;stroke-dasharray:2.0,2.0;" x1="923.5" x2="1063.5" y1="684.8281" y2="684.8281"/><text fill="#000000" font-family="sans-serif" font-size="13" lengthAdjust="spacing" textLength="117" x="935.5" y="679.9717">13. Return repsonse</text><polygon fill="#181818" points="741.5,727.5313,731.5,731.5313,741.5,735.5313,737.5,731.5313" style="stroke:#181818;stroke-width:1.0;"/><line style="stroke:#181818;stroke-width:1.0;stroke-dasharray:2.0,2.0;" x1="735.5" x2="912.5" y1="731.5313" y2="731.5313"/><text fill="#000000" font-family="sans-serif" font-size="13" lengthAdjust="spacing" textLength="98" x="747.5" y="710.3232">14. Return user's</text><text fill="#000000" font-family="sans-serif" font-size="13" lengthAdjust="spacing" textLength="136" x="751.5" y="726.6748">information list &#171;gRPC&#187;</text><polygon fill="#181818" points="550.5,774.2344,540.5,778.2344,550.5,782.2344,546.5,778.2344" style="stroke:#181818;stroke-width:1.0;"/><line style="stroke:#181818;stroke-width:1.0;stroke-dasharray:2.0,2.0;" x1="544.5" x2="724.5" y1="778.2344" y2="778.2344"/><text fill="#000000" font-family="sans-serif" font-size="13" lengthAdjust="spacing" textLength="108" x="556.5" y="757.0264">15. Return recipe's</text><text fill="#000000" font-family="sans-serif" font-size="13" lengthAdjust="spacing" textLength="136" x="560.5" y="773.3779">information list &#171;gRPC&#187;</text><polygon fill="#181818" points="389.5,804.5859,379.5,808.5859,389.5,812.5859,385.5,808.5859" style="stroke:#181818;stroke-width:1.0;"/><line style="stroke:#181818;stroke-width:1.0;stroke-dasharray:2.0,2.0;" x1="383.5" x2="533.5" y1="808.5859" y2="808.5859"/><text fill="#000000" font-family="sans-serif" font-size="13" lengthAdjust="spacing" textLength="127" x="395.5" y="803.7295">16. Return recipes list</text><polygon fill="#181818" points="221.5,834.9375,211.5,838.9375,221.5,842.9375,217.5,838.9375" style="stroke:#181818;stroke-width:1.0;"/><line style="stroke:#181818;stroke-width:1.0;stroke-dasharray:2.0,2.0;" x1="215.5" x2="372.5" y1="838.9375" y2="838.9375"/><text fill="#000000" font-family="sans-serif" font-size="13" lengthAdjust="spacing" textLength="125" x="227.5" y="834.0811">17. Forward response</text><polygon fill="#181818" points="48.5,865.2891,38.5,869.2891,48.5,873.2891,44.5,869.2891" style="stroke:#181818;stroke-width:1.0;"/><line style="stroke:#181818;stroke-width:1.0;stroke-dasharray:2.0,2.0;" x1="42.5" x2="204.5" y1="869.2891" y2="869.2891"/><text fill="#000000" font-family="sans-serif" font-size="13" lengthAdjust="spacing" textLength="132" x="54.5" y="864.4326">18. Display recipes list</text><!--SRC=[ZLFBRjim4BppAnQ-v11OhVEk8HZ80mrw293cTUg5eTOE4PbKI3g6KUJVkqlP5YKRhezQxSpkx0o33YL2xnO3p3mw-DGu1uTALmW51gbBUDC-MBVeYGDu30lgzgY2jaRadZz70gZoCKEZy4RBYPDJ-4ir89enEYullm6kf7g_TNPcYcjRMWVpDnqm_liINoB_jYGKKj54UAQ5n2jtIxU0E_kgItp-9IhfWgO5fGdGotDbNQ6D9C1ezCTSLlfM1fpBHG-aX-Qp2oFkJwsGCV3aQ2zj9ezrBI8xjLtmXtYk5Dogx8Aon1IOV8j21lagFSAzzM7Yq7-KJUtEceczkHA24T0VhSzpU3Y4GGPFTgRUm9gLUw0LVT14RMgZb-PwvH2D42iuKpL7OxAZ33WToqoC4Gil15aBzfDecjuX76VmWawF5o2LGkyXs7VcRdgOlNDO7d6ImK_hvj8LD8QIv8CGdRPQOjJCYDCCVi-GPF51DdhpVd_LtEyFuImZGyBC6MBtbJKUAM5bW1VEUadt0Uq1frLOn2Wcwp9HXtm8vvThlWYA516vFYBZqiiGPC0QbnANIp0asbVlMsDZCztyHlkgf1MI4LYIyQsbZGt9ubjErWeY7-uYWyd3_JKeMPRa3qpMrXxuEXvZwwQIttSz9S-vVpIA4rfq7Kj-j2pPxEwOClY-nPMjCv8t4SCzs2A18xsFW8IBgPkN5PcFDYIa_IoW0KGDnuc6ogzDtHIUy4JWoHgup-PRtMNQrg18V9fij8-hUoG-yfvrUFr_KnzXv-dBtXNxs7tHnBur1Kq1z635Fm00]--></g></svg>