<?xml version="1.0" encoding="us-ascii" standalone="no"?><svg xmlns="http://www.w3.org/2000/svg" xmlns:xlink="http://www.w3.org/1999/xlink" contentStyleType="text/css" height="680px" preserveAspectRatio="none" style="width:943px;height:680px;background:#FFFFFF;" version="1.1" viewBox="0 0 943 680" width="943px" zoomAndPan="magnify"><defs/><g><text fill="#000000" font-family="sans-serif" font-size="14" font-weight="bold" lengthAdjust="spacing" textLength="160" x="393" y="29.5332">Get current user detail</text><rect fill="#FFFFFF" height="427.0156" style="stroke:#181818;stroke-width:1.0;" width="10" x="194.5" y="153.5703"/><rect fill="#FFFFFF" height="366.3125" style="stroke:#181818;stroke-width:1.0;" width="10" x="367.5" y="183.9219"/><rect fill="#FFFFFF" height="245.1641" style="stroke:#181818;stroke-width:1.0;" width="10" x="525.5" y="274.7188"/><rect fill="#FFFFFF" height="60.4453" style="stroke:#181818;stroke-width:1.0;" width="10" x="756.5" y="183.9219"/><rect fill="#FFFFFF" height="107.4063" style="stroke:#181818;stroke-width:1.0;" width="10" x="756.5" y="382.125"/><rect fill="#FFFFFF" height="30.3516" style="stroke:#181818;stroke-width:1.0;" width="10" x="900.5" y="305.0703"/><rect fill="#FFFFFF" height="30.3516" style="stroke:#181818;stroke-width:1.0;" width="10" x="900.5" y="412.4766"/><line style="stroke:#181818;stroke-width:0.5;stroke-dasharray:5.0,5.0;" x1="22" x2="22" y1="121.2188" y2="598.5859"/><line style="stroke:#181818;stroke-width:0.5;stroke-dasharray:5.0,5.0;" x1="199" x2="199" y1="121.2188" y2="598.5859"/><line style="stroke:#181818;stroke-width:0.5;stroke-dasharray:5.0,5.0;" x1="372.5" x2="372.5" y1="121.2188" y2="598.5859"/><line style="stroke:#181818;stroke-width:0.5;stroke-dasharray:5.0,5.0;" x1="530.5" x2="530.5" y1="121.2188" y2="598.5859"/><line style="stroke:#181818;stroke-width:0.5;stroke-dasharray:5.0,5.0;" x1="761.5" x2="761.5" y1="121.2188" y2="598.5859"/><line style="stroke:#181818;stroke-width:0.5;stroke-dasharray:5.0,5.0;" x1="905" x2="905" y1="121.2188" y2="598.5859"/><text fill="#000000" font-family="sans-serif" font-size="14" lengthAdjust="spacing" textLength="29" x="5" y="118.1426">User</text><ellipse cx="22.5" cy="52.1094" fill="#E2E2F0" rx="8" ry="8" style="stroke:#181818;stroke-width:0.5;"/><path d="M22.5,60.1094 L22.5,87.1094 M9.5,68.1094 L35.5,68.1094 M22.5,87.1094 L9.5,102.1094 M22.5,87.1094 L35.5,102.1094 " fill="none" style="stroke:#181818;stroke-width:0.5;"/><text fill="#000000" font-family="sans-serif" font-size="14" lengthAdjust="spacing" textLength="29" x="5" y="612.1191">User</text><ellipse cx="22.5" cy="623.6953" fill="#E2E2F0" rx="8" ry="8" style="stroke:#181818;stroke-width:0.5;"/><path d="M22.5,631.6953 L22.5,658.6953 M9.5,639.6953 L35.5,639.6953 M22.5,658.6953 L9.5,673.6953 M22.5,658.6953 L35.5,673.6953 " fill="none" style="stroke:#181818;stroke-width:0.5;"/><text fill="#000000" font-family="sans-serif" font-size="14" lengthAdjust="spacing" textLength="53" x="170" y="118.1426">MobileUI</text><path d="M179,75.6094 L179,99.6094 M179,87.6094 L196,87.6094 " fill="none" style="stroke:#181818;stroke-width:0.5;"/><ellipse cx="208" cy="87.6094" fill="#E2E2F0" rx="12" ry="12" style="stroke:#181818;stroke-width:0.5;"/><text fill="#000000" font-family="sans-serif" font-size="14" lengthAdjust="spacing" textLength="53" x="170" y="612.1191">MobileUI</text><path d="M179,619.1953 L179,643.1953 M179,631.1953 L196,631.1953 " fill="none" style="stroke:#181818;stroke-width:0.5;"/><ellipse cx="208" cy="631.1953" fill="#E2E2F0" rx="12" ry="12" style="stroke:#181818;stroke-width:0.5;"/><rect fill="#E2E2F0" height="49.2188" rx="2.5" ry="2.5" style="stroke:#181818;stroke-width:0.5;" width="94" x="325.5" y="71"/><text fill="#000000" font-family="sans-serif" font-size="14" lengthAdjust="spacing" textLength="80" x="332.5" y="92.5332">&#171;cordinator&#187;</text><text fill="#000000" font-family="sans-serif" font-size="14" lengthAdjust="spacing" textLength="75" x="335" y="110.1426">ApiGateway</text><rect fill="#E2E2F0" height="49.2188" rx="2.5" ry="2.5" style="stroke:#181818;stroke-width:0.5;" width="94" x="325.5" y="597.5859"/><text fill="#000000" font-family="sans-serif" font-size="14" lengthAdjust="spacing" textLength="80" x="332.5" y="619.1191">&#171;cordinator&#187;</text><text fill="#000000" font-family="sans-serif" font-size="14" lengthAdjust="spacing" textLength="75" x="335" y="636.7285">ApiGateway</text><rect fill="#E2E2F0" height="49.2188" rx="2.5" ry="2.5" style="stroke:#181818;stroke-width:0.5;" width="94" x="483.5" y="71"/><text fill="#000000" font-family="sans-serif" font-size="14" lengthAdjust="spacing" textLength="61" x="500" y="92.5332">&#171;service&#187;</text><text fill="#000000" font-family="sans-serif" font-size="14" lengthAdjust="spacing" textLength="76" x="494.5" y="110.1426">UserService</text><rect fill="#E2E2F0" height="49.2188" rx="2.5" ry="2.5" style="stroke:#181818;stroke-width:0.5;" width="94" x="483.5" y="597.5859"/><text fill="#000000" font-family="sans-serif" font-size="14" lengthAdjust="spacing" textLength="61" x="500" y="619.1191">&#171;service&#187;</text><text fill="#000000" font-family="sans-serif" font-size="14" lengthAdjust="spacing" textLength="76" x="494.5" y="636.7285">UserService</text><rect fill="#E2E2F0" height="49.2188" rx="2.5" ry="2.5" style="stroke:#181818;stroke-width:0.5;" width="110" x="706.5" y="71"/><text fill="#000000" font-family="sans-serif" font-size="14" lengthAdjust="spacing" textLength="61" x="731" y="92.5332">&#171;service&#187;</text><text fill="#000000" font-family="sans-serif" font-size="14" lengthAdjust="spacing" textLength="92" x="717.5" y="110.1426">IdentityService</text><rect fill="#E2E2F0" height="49.2188" rx="2.5" ry="2.5" style="stroke:#181818;stroke-width:0.5;" width="110" x="706.5" y="597.5859"/><text fill="#000000" font-family="sans-serif" font-size="14" lengthAdjust="spacing" textLength="61" x="731" y="619.1191">&#171;service&#187;</text><text fill="#000000" font-family="sans-serif" font-size="14" lengthAdjust="spacing" textLength="92" x="717.5" y="636.7285">IdentityService</text><text fill="#000000" font-family="sans-serif" font-size="14" lengthAdjust="spacing" textLength="67" x="869" y="118.1426">Postgresql</text><path d="M887.5,67.6094 C887.5,57.6094 905.5,57.6094 905.5,57.6094 C905.5,57.6094 923.5,57.6094 923.5,67.6094 L923.5,93.6094 C923.5,103.6094 905.5,103.6094 905.5,103.6094 C905.5,103.6094 887.5,103.6094 887.5,93.6094 L887.5,67.6094 " fill="#E2E2F0" style="stroke:#181818;stroke-width:1.5;"/><path d="M887.5,67.6094 C887.5,77.6094 905.5,77.6094 905.5,77.6094 C905.5,77.6094 923.5,77.6094 923.5,67.6094 " fill="none" style="stroke:#181818;stroke-width:1.5;"/><text fill="#000000" font-family="sans-serif" font-size="14" lengthAdjust="spacing" textLength="67" x="869" y="612.1191">Postgresql</text><path d="M887.5,625.1953 C887.5,615.1953 905.5,615.1953 905.5,615.1953 C905.5,615.1953 923.5,615.1953 923.5,625.1953 L923.5,651.1953 C923.5,661.1953 905.5,661.1953 905.5,661.1953 C905.5,661.1953 887.5,661.1953 887.5,651.1953 L887.5,625.1953 " fill="#E2E2F0" style="stroke:#181818;stroke-width:1.5;"/><path d="M887.5,625.1953 C887.5,635.1953 905.5,635.1953 905.5,635.1953 C905.5,635.1953 923.5,635.1953 923.5,625.1953 " fill="none" style="stroke:#181818;stroke-width:1.5;"/><rect fill="#FFFFFF" height="427.0156" style="stroke:#181818;stroke-width:1.0;" width="10" x="194.5" y="153.5703"/><rect fill="#FFFFFF" height="366.3125" style="stroke:#181818;stroke-width:1.0;" width="10" x="367.5" y="183.9219"/><rect fill="#FFFFFF" height="245.1641" style="stroke:#181818;stroke-width:1.0;" width="10" x="525.5" y="274.7188"/><rect fill="#FFFFFF" height="60.4453" style="stroke:#181818;stroke-width:1.0;" width="10" x="756.5" y="183.9219"/><rect fill="#FFFFFF" height="107.4063" style="stroke:#181818;stroke-width:1.0;" width="10" x="756.5" y="382.125"/><rect fill="#FFFFFF" height="30.3516" style="stroke:#181818;stroke-width:1.0;" width="10" x="900.5" y="305.0703"/><rect fill="#FFFFFF" height="30.3516" style="stroke:#181818;stroke-width:1.0;" width="10" x="900.5" y="412.4766"/><polygon fill="#181818" points="182.5,149.5703,192.5,153.5703,182.5,157.5703,186.5,153.5703" style="stroke:#181818;stroke-width:1.0;"/><line style="stroke:#181818;stroke-width:1.0;" x1="22.5" x2="188.5" y1="153.5703" y2="153.5703"/><text fill="#000000" font-family="sans-serif" font-size="13" lengthAdjust="spacing" textLength="153" x="29.5" y="148.7139">1. Enter user detail screen</text><polygon fill="#181818" points="355.5,179.9219,365.5,183.9219,355.5,187.9219,359.5,183.9219" style="stroke:#181818;stroke-width:1.0;"/><line style="stroke:#181818;stroke-width:1.0;" x1="204.5" x2="361.5" y1="183.9219" y2="183.9219"/><text fill="#000000" font-family="sans-serif" font-size="13" lengthAdjust="spacing" textLength="144" x="211.5" y="179.0654">2. Get current user detail</text><rect fill="#FFFFFF" height="41.4453" style="stroke:#000000;stroke-width:1.5;" width="497" x="322.5" y="191.9219"/><path d="M322.5,191.9219 L384.5,191.9219 L384.5,199.9219 L374.5,209.9219 L322.5,209.9219 L322.5,191.9219 " fill="#EEEEEE" style="stroke:#000000;stroke-width:2.0;"/><text fill="#000000" font-family="sans-serif" font-size="13" font-weight="bold" lengthAdjust="spacing" textLength="17" x="335.5" y="207.417">ref</text><text fill="#000000" font-family="sans-serif" font-size="12" lengthAdjust="spacing" textLength="108" x="517" y="226.3789">3. Get access token</text><polygon fill="#181818" points="513.5,270.7188,523.5,274.7188,513.5,278.7188,517.5,274.7188" style="stroke:#181818;stroke-width:1.0;"/><line style="stroke:#181818;stroke-width:1.0;" x1="377.5" x2="519.5" y1="274.7188" y2="274.7188"/><text fill="#000000" font-family="sans-serif" font-size="13" lengthAdjust="spacing" textLength="108" x="384.5" y="269.8623">4. Forward request</text><polygon fill="#181818" points="888.5,301.0703,898.5,305.0703,888.5,309.0703,892.5,305.0703" style="stroke:#181818;stroke-width:1.0;"/><line style="stroke:#181818;stroke-width:1.0;" x1="535.5" x2="894.5" y1="305.0703" y2="305.0703"/><text fill="#000000" font-family="sans-serif" font-size="13" lengthAdjust="spacing" textLength="79" x="542.5" y="300.2139">5. Query data</text><polygon fill="#181818" points="546.5,331.4219,536.5,335.4219,546.5,339.4219,542.5,335.4219" style="stroke:#181818;stroke-width:1.0;"/><line style="stroke:#181818;stroke-width:1.0;stroke-dasharray:2.0,2.0;" x1="540.5" x2="904.5" y1="335.4219" y2="335.4219"/><text fill="#000000" font-family="sans-serif" font-size="13" lengthAdjust="spacing" textLength="110" x="552.5" y="330.5654">6. Return response</text><polygon fill="#181818" points="744.5,378.125,754.5,382.125,744.5,386.125,748.5,382.125" style="stroke:#181818;stroke-width:1.0;"/><line style="stroke:#181818;stroke-width:1.0;" x1="535.5" x2="750.5" y1="382.125" y2="382.125"/><text fill="#000000" font-family="sans-serif" font-size="13" lengthAdjust="spacing" textLength="198" x="542.5" y="360.917">7. gRPC call to get user's account</text><text fill="#000000" font-family="sans-serif" font-size="13" lengthAdjust="spacing" textLength="115" x="546.5" y="377.2686">information &#171;gRPC&#187;</text><polygon fill="#181818" points="888.5,408.4766,898.5,412.4766,888.5,416.4766,892.5,412.4766" style="stroke:#181818;stroke-width:1.0;"/><line style="stroke:#181818;stroke-width:1.0;" x1="766.5" x2="894.5" y1="412.4766" y2="412.4766"/><text fill="#000000" font-family="sans-serif" font-size="13" lengthAdjust="spacing" textLength="79" x="773.5" y="407.6201">8. Query data</text><polygon fill="#181818" points="777.5,438.8281,767.5,442.8281,777.5,446.8281,773.5,442.8281" style="stroke:#181818;stroke-width:1.0;"/><line style="stroke:#181818;stroke-width:1.0;stroke-dasharray:2.0,2.0;" x1="771.5" x2="904.5" y1="442.8281" y2="442.8281"/><text fill="#000000" font-family="sans-serif" font-size="13" lengthAdjust="spacing" textLength="110" x="783.5" y="437.9717">9. Return response</text><polygon fill="#181818" points="546.5,485.5313,536.5,489.5313,546.5,493.5313,542.5,489.5313" style="stroke:#181818;stroke-width:1.0;"/><line style="stroke:#181818;stroke-width:1.0;stroke-dasharray:2.0,2.0;" x1="540.5" x2="760.5" y1="489.5313" y2="489.5313"/><text fill="#000000" font-family="sans-serif" font-size="13" lengthAdjust="spacing" textLength="110" x="552.5" y="468.3232">10. Return account</text><text fill="#000000" font-family="sans-serif" font-size="13" lengthAdjust="spacing" textLength="115" x="556.5" y="484.6748">information &#171;gRPC&#187;</text><polygon fill="#181818" points="388.5,515.8828,378.5,519.8828,388.5,523.8828,384.5,519.8828" style="stroke:#181818;stroke-width:1.0;"/><line style="stroke:#181818;stroke-width:1.0;stroke-dasharray:2.0,2.0;" x1="382.5" x2="529.5" y1="519.8828" y2="519.8828"/><text fill="#000000" font-family="sans-serif" font-size="13" lengthAdjust="spacing" textLength="124" x="394.5" y="515.0264">11. Return user detail</text><polygon fill="#181818" points="215.5,546.2344,205.5,550.2344,215.5,554.2344,211.5,550.2344" style="stroke:#181818;stroke-width:1.0;"/><line style="stroke:#181818;stroke-width:1.0;stroke-dasharray:2.0,2.0;" x1="209.5" x2="371.5" y1="550.2344" y2="550.2344"/><text fill="#000000" font-family="sans-serif" font-size="13" lengthAdjust="spacing" textLength="125" x="221.5" y="545.3779">12. Forward response</text><polygon fill="#181818" points="33.5,576.5859,23.5,580.5859,33.5,584.5859,29.5,580.5859" style="stroke:#181818;stroke-width:1.0;"/><line style="stroke:#181818;stroke-width:1.0;stroke-dasharray:2.0,2.0;" x1="27.5" x2="198.5" y1="580.5859" y2="580.5859"/><text fill="#000000" font-family="sans-serif" font-size="13" lengthAdjust="spacing" textLength="129" x="39.5" y="575.7295">13. Display user detail</text><!--SRC=[XLDDJnin4BtxLunouK1tsz0FscYrKWjjnA4I1N5gUvXuXs2ns8ljJHHL_7V63kmwJccFOx_tvitps2lV4apcv47srfBsq3koq917rKw4E81Bls688-cLqQ9oeQm5yCbzJrhIgSAbnJlumsS0bgx9XkEd6k0BojkvDRrkJanhBAnlbATuzo0UHFNwIL2Wz7nxnTt58g3HRk2xMQYMhiv4XzOhgJfaWvEgaiOsIYCJwlgN_jofENfQusO2w60iSnfhhvIam8cDBhTrP2NrlsXd3MUa_2QbPcUYGOyBT0Jdnlcb9NVV2X7qeQY7aU3mS0RJ4hvgpnT9wE2a9T9Y039f72dIZafuuSLYZ6h5s3rN_39WLemSnLxbe1cytKgZbEGSU7FBJfBknSyRrJ3dDvlQ6vjUxBqZKQTPntdUbV3Ds3NQXlU7jyfvaKAOCIOP2UzB-D4JBqY8UWTR5KK2BeePV2ZXWdnlDMkxpcX78bVFx8OEnoKiByvFG6BRSWomf6tE1ovam_lfWRT1wMjZxp3y3AYgGAXhaQdznVx77VivVdS423DysfyX7pfJ2Qpfcu7sFy_f0mMrH3qgJGUbTDc65GsKKI4oZj8tJJn7x3Cn8ddbJfNhMcwTYZy2]--></g></svg>