<?xml version="1.0" encoding="us-ascii" standalone="no"?><svg xmlns="http://www.w3.org/2000/svg" xmlns:xlink="http://www.w3.org/1999/xlink" contentStyleType="text/css" height="960px" preserveAspectRatio="none" style="width:1465px;height:960px;background:#FFFFFF;" version="1.1" viewBox="0 0 1465 960" width="1465px" zoomAndPan="magnify"><defs/><g><text fill="#000000" font-family="sans-serif" font-size="14" font-weight="bold" lengthAdjust="spacing" textLength="117" x="675.25" y="29.5332">Get recipe detail</text><rect fill="#FFFFFF" height="699.3672" style="stroke:#181818;stroke-width:1.0;" width="10" x="200.5" y="153.5703"/><rect fill="#FFFFFF" height="638.6641" style="stroke:#181818;stroke-width:1.0;" width="10" x="368.5" y="183.9219"/><rect fill="#FFFFFF" height="531.5156" style="stroke:#181818;stroke-width:1.0;" width="10" x="551.5" y="260.7188"/><rect fill="#FFFFFF" height="91.0547" style="stroke:#181818;stroke-width:1.0;" width="10" x="797.5" y="670.8281"/><rect fill="#FFFFFF" height="46.7031" style="stroke:#181818;stroke-width:1.0;" width="10" x="901.5" y="500.3672"/><rect fill="#FFFFFF" height="77.0547" style="stroke:#181818;stroke-width:1.0;" width="10" x="1157.5" y="547.0703"/><rect fill="#FFFFFF" height="30.3516" style="stroke:#181818;stroke-width:1.0;" width="10" x="1326.5" y="291.0703"/><rect fill="#FFFFFF" height="30.3516" style="stroke:#181818;stroke-width:1.0;" width="10" x="1326.5" y="593.7734"/><rect fill="#FFFFFF" height="30.3516" style="stroke:#181818;stroke-width:1.0;" width="10" x="1407" y="701.1797"/><rect fill="none" height="524.5156" style="stroke:#000000;stroke-width:1.5;" width="1448.5" x="10" y="336.4219"/><line style="stroke:#181818;stroke-width:0.5;stroke-dasharray:5.0,5.0;" x1="37" x2="37" y1="121.2188" y2="877.9375"/><line style="stroke:#181818;stroke-width:0.5;stroke-dasharray:5.0,5.0;" x1="205" x2="205" y1="121.2188" y2="877.9375"/><line style="stroke:#181818;stroke-width:0.5;stroke-dasharray:5.0,5.0;" x1="373.5" x2="373.5" y1="121.2188" y2="877.9375"/><line style="stroke:#181818;stroke-width:0.5;stroke-dasharray:5.0,5.0;" x1="556" x2="556" y1="121.2188" y2="877.9375"/><line style="stroke:#181818;stroke-width:0.5;stroke-dasharray:5.0,5.0;" x1="802.5" x2="802.5" y1="121.2188" y2="877.9375"/><line style="stroke:#181818;stroke-width:0.5;stroke-dasharray:5.0,5.0;" x1="906.5" x2="906.5" y1="121.2188" y2="877.9375"/><line style="stroke:#181818;stroke-width:0.5;stroke-dasharray:5.0,5.0;" x1="1162.5" x2="1162.5" y1="121.2188" y2="877.9375"/><line style="stroke:#181818;stroke-width:0.5;stroke-dasharray:5.0,5.0;" x1="1331.5" x2="1331.5" y1="121.2188" y2="877.9375"/><line style="stroke:#181818;stroke-width:0.5;stroke-dasharray:5.0,5.0;" x1="1411.5" x2="1411.5" y1="121.2188" y2="877.9375"/><text fill="#000000" font-family="sans-serif" font-size="14" lengthAdjust="spacing" textLength="29" x="20" y="118.1426">User</text><ellipse cx="37.5" cy="52.1094" fill="#E2E2F0" rx="8" ry="8" style="stroke:#181818;stroke-width:0.5;"/><path d="M37.5,60.1094 L37.5,87.1094 M24.5,68.1094 L50.5,68.1094 M37.5,87.1094 L24.5,102.1094 M37.5,87.1094 L50.5,102.1094 " fill="none" style="stroke:#181818;stroke-width:0.5;"/><text fill="#000000" font-family="sans-serif" font-size="14" lengthAdjust="spacing" textLength="29" x="20" y="891.4707">User</text><ellipse cx="37.5" cy="903.0469" fill="#E2E2F0" rx="8" ry="8" style="stroke:#181818;stroke-width:0.5;"/><path d="M37.5,911.0469 L37.5,938.0469 M24.5,919.0469 L50.5,919.0469 M37.5,938.0469 L24.5,953.0469 M37.5,938.0469 L50.5,953.0469 " fill="none" style="stroke:#181818;stroke-width:0.5;"/><text fill="#000000" font-family="sans-serif" font-size="14" lengthAdjust="spacing" textLength="53" x="176" y="118.1426">MobileUI</text><path d="M185,75.6094 L185,99.6094 M185,87.6094 L202,87.6094 " fill="none" style="stroke:#181818;stroke-width:0.5;"/><ellipse cx="214" cy="87.6094" fill="#E2E2F0" rx="12" ry="12" style="stroke:#181818;stroke-width:0.5;"/><text fill="#000000" font-family="sans-serif" font-size="14" lengthAdjust="spacing" textLength="53" x="176" y="891.4707">MobileUI</text><path d="M185,898.5469 L185,922.5469 M185,910.5469 L202,910.5469 " fill="none" style="stroke:#181818;stroke-width:0.5;"/><ellipse cx="214" cy="910.5469" fill="#E2E2F0" rx="12" ry="12" style="stroke:#181818;stroke-width:0.5;"/><rect fill="#E2E2F0" height="49.2188" rx="2.5" ry="2.5" style="stroke:#181818;stroke-width:0.5;" width="94" x="326.5" y="71"/><text fill="#000000" font-family="sans-serif" font-size="14" lengthAdjust="spacing" textLength="80" x="333.5" y="92.5332">&#171;cordinator&#187;</text><text fill="#000000" font-family="sans-serif" font-size="14" lengthAdjust="spacing" textLength="75" x="338" y="110.1426">ApiGateway</text><rect fill="#E2E2F0" height="49.2188" rx="2.5" ry="2.5" style="stroke:#181818;stroke-width:0.5;" width="94" x="326.5" y="876.9375"/><text fill="#000000" font-family="sans-serif" font-size="14" lengthAdjust="spacing" textLength="80" x="333.5" y="898.4707">&#171;cordinator&#187;</text><text fill="#000000" font-family="sans-serif" font-size="14" lengthAdjust="spacing" textLength="75" x="338" y="916.0801">ApiGateway</text><rect fill="#E2E2F0" height="49.2188" rx="2.5" ry="2.5" style="stroke:#181818;stroke-width:0.5;" width="109" x="502" y="71"/><text fill="#000000" font-family="sans-serif" font-size="14" lengthAdjust="spacing" textLength="61" x="526" y="92.5332">&#171;service&#187;</text><text fill="#000000" font-family="sans-serif" font-size="14" lengthAdjust="spacing" textLength="91" x="513" y="110.1426">RecipeService</text><rect fill="#E2E2F0" height="49.2188" rx="2.5" ry="2.5" style="stroke:#181818;stroke-width:0.5;" width="109" x="502" y="876.9375"/><text fill="#000000" font-family="sans-serif" font-size="14" lengthAdjust="spacing" textLength="61" x="526" y="898.4707">&#171;service&#187;</text><text fill="#000000" font-family="sans-serif" font-size="14" lengthAdjust="spacing" textLength="91" x="513" y="916.0801">RecipeService</text><rect fill="#E2E2F0" height="49.2188" rx="2.5" ry="2.5" style="stroke:#181818;stroke-width:0.5;" width="94" x="755.5" y="71"/><text fill="#000000" font-family="sans-serif" font-size="14" lengthAdjust="spacing" textLength="61" x="772" y="92.5332">&#171;service&#187;</text><text fill="#000000" font-family="sans-serif" font-size="14" lengthAdjust="spacing" textLength="76" x="766.5" y="110.1426">UserService</text><rect fill="#E2E2F0" height="49.2188" rx="2.5" ry="2.5" style="stroke:#181818;stroke-width:0.5;" width="94" x="755.5" y="876.9375"/><text fill="#000000" font-family="sans-serif" font-size="14" lengthAdjust="spacing" textLength="61" x="772" y="898.4707">&#171;service&#187;</text><text fill="#000000" font-family="sans-serif" font-size="14" lengthAdjust="spacing" textLength="76" x="766.5" y="916.0801">UserService</text><rect fill="#E2E2F0" height="49.2188" rx="2.5" ry="2.5" style="stroke:#181818;stroke-width:0.5;" width="94" x="859.5" y="71"/><text fill="#000000" font-family="sans-serif" font-size="14" lengthAdjust="spacing" textLength="80" x="866.5" y="92.5332">&#171;cordinator&#187;</text><text fill="#000000" font-family="sans-serif" font-size="14" lengthAdjust="spacing" textLength="60" x="878.5" y="110.1426">Rabbitmq</text><rect fill="#E2E2F0" height="49.2188" rx="2.5" ry="2.5" style="stroke:#181818;stroke-width:0.5;" width="94" x="859.5" y="876.9375"/><text fill="#000000" font-family="sans-serif" font-size="14" lengthAdjust="spacing" textLength="80" x="866.5" y="898.4707">&#171;cordinator&#187;</text><text fill="#000000" font-family="sans-serif" font-size="14" lengthAdjust="spacing" textLength="60" x="878.5" y="916.0801">Rabbitmq</text><rect fill="#E2E2F0" height="49.2188" rx="2.5" ry="2.5" style="stroke:#181818;stroke-width:0.5;" width="120" x="1102.5" y="71"/><text fill="#000000" font-family="sans-serif" font-size="14" lengthAdjust="spacing" textLength="61" x="1132" y="92.5332">&#171;service&#187;</text><text fill="#000000" font-family="sans-serif" font-size="14" lengthAdjust="spacing" textLength="102" x="1113.5" y="110.1426">TrackingService</text><rect fill="#E2E2F0" height="49.2188" rx="2.5" ry="2.5" style="stroke:#181818;stroke-width:0.5;" width="120" x="1102.5" y="876.9375"/><text fill="#000000" font-family="sans-serif" font-size="14" lengthAdjust="spacing" textLength="61" x="1132" y="898.4707">&#171;service&#187;</text><text fill="#000000" font-family="sans-serif" font-size="14" lengthAdjust="spacing" textLength="102" x="1113.5" y="916.0801">TrackingService</text><text fill="#000000" font-family="sans-serif" font-size="14" lengthAdjust="spacing" textLength="62" x="1297.5" y="118.1426">MongoDB</text><path d="M1313.5,67.6094 C1313.5,57.6094 1331.5,57.6094 1331.5,57.6094 C1331.5,57.6094 1349.5,57.6094 1349.5,67.6094 L1349.5,93.6094 C1349.5,103.6094 1331.5,103.6094 1331.5,103.6094 C1331.5,103.6094 1313.5,103.6094 1313.5,93.6094 L1313.5,67.6094 " fill="#E2E2F0" style="stroke:#181818;stroke-width:1.5;"/><path d="M1313.5,67.6094 C1313.5,77.6094 1331.5,77.6094 1331.5,77.6094 C1331.5,77.6094 1349.5,77.6094 1349.5,67.6094 " fill="none" style="stroke:#181818;stroke-width:1.5;"/><text fill="#000000" font-family="sans-serif" font-size="14" lengthAdjust="spacing" textLength="62" x="1297.5" y="891.4707">MongoDB</text><path d="M1313.5,904.5469 C1313.5,894.5469 1331.5,894.5469 1331.5,894.5469 C1331.5,894.5469 1349.5,894.5469 1349.5,904.5469 L1349.5,930.5469 C1349.5,940.5469 1331.5,940.5469 1331.5,940.5469 C1331.5,940.5469 1313.5,940.5469 1313.5,930.5469 L1313.5,904.5469 " fill="#E2E2F0" style="stroke:#181818;stroke-width:1.5;"/><path d="M1313.5,904.5469 C1313.5,914.5469 1331.5,914.5469 1331.5,914.5469 C1331.5,914.5469 1349.5,914.5469 1349.5,904.5469 " fill="none" style="stroke:#181818;stroke-width:1.5;"/><text fill="#000000" font-family="sans-serif" font-size="14" lengthAdjust="spacing" textLength="67" x="1375.5" y="118.1426">Postgresql</text><path d="M1394,67.6094 C1394,57.6094 1412,57.6094 1412,57.6094 C1412,57.6094 1430,57.6094 1430,67.6094 L1430,93.6094 C1430,103.6094 1412,103.6094 1412,103.6094 C1412,103.6094 1394,103.6094 1394,93.6094 L1394,67.6094 " fill="#E2E2F0" style="stroke:#181818;stroke-width:1.5;"/><path d="M1394,67.6094 C1394,77.6094 1412,77.6094 1412,77.6094 C1412,77.6094 1430,77.6094 1430,67.6094 " fill="none" style="stroke:#181818;stroke-width:1.5;"/><text fill="#000000" font-family="sans-serif" font-size="14" lengthAdjust="spacing" textLength="67" x="1375.5" y="891.4707">Postgresql</text><path d="M1394,904.5469 C1394,894.5469 1412,894.5469 1412,894.5469 C1412,894.5469 1430,894.5469 1430,904.5469 L1430,930.5469 C1430,940.5469 1412,940.5469 1412,940.5469 C1412,940.5469 1394,940.5469 1394,930.5469 L1394,904.5469 " fill="#E2E2F0" style="stroke:#181818;stroke-width:1.5;"/><path d="M1394,904.5469 C1394,914.5469 1412,914.5469 1412,914.5469 C1412,914.5469 1430,914.5469 1430,904.5469 " fill="none" style="stroke:#181818;stroke-width:1.5;"/><rect fill="#FFFFFF" height="699.3672" style="stroke:#181818;stroke-width:1.0;" width="10" x="200.5" y="153.5703"/><rect fill="#FFFFFF" height="638.6641" style="stroke:#181818;stroke-width:1.0;" width="10" x="368.5" y="183.9219"/><rect fill="#FFFFFF" height="531.5156" style="stroke:#181818;stroke-width:1.0;" width="10" x="551.5" y="260.7188"/><rect fill="#FFFFFF" height="91.0547" style="stroke:#181818;stroke-width:1.0;" width="10" x="797.5" y="670.8281"/><rect fill="#FFFFFF" height="46.7031" style="stroke:#181818;stroke-width:1.0;" width="10" x="901.5" y="500.3672"/><rect fill="#FFFFFF" height="77.0547" style="stroke:#181818;stroke-width:1.0;" width="10" x="1157.5" y="547.0703"/><rect fill="#FFFFFF" height="30.3516" style="stroke:#181818;stroke-width:1.0;" width="10" x="1326.5" y="291.0703"/><rect fill="#FFFFFF" height="30.3516" style="stroke:#181818;stroke-width:1.0;" width="10" x="1326.5" y="593.7734"/><rect fill="#FFFFFF" height="30.3516" style="stroke:#181818;stroke-width:1.0;" width="10" x="1407" y="701.1797"/><polygon fill="#181818" points="188.5,149.5703,198.5,153.5703,188.5,157.5703,192.5,153.5703" style="stroke:#181818;stroke-width:1.0;"/><line style="stroke:#181818;stroke-width:1.0;" x1="37.5" x2="194.5" y1="153.5703" y2="153.5703"/><text fill="#000000" font-family="sans-serif" font-size="13" lengthAdjust="spacing" textLength="128" x="44.5" y="148.7139">1. Touch a recipe feed</text><polygon fill="#181818" points="356.5,179.9219,366.5,183.9219,356.5,187.9219,360.5,183.9219" style="stroke:#181818;stroke-width:1.0;"/><line style="stroke:#181818;stroke-width:1.0;" x1="210.5" x2="362.5" y1="183.9219" y2="183.9219"/><text fill="#000000" font-family="sans-serif" font-size="13" lengthAdjust="spacing" textLength="110" x="217.5" y="179.0654">2. Get recipe detail</text><rect fill="#FFFFFF" height="41.4453" style="stroke:#000000;stroke-width:1.5;" width="126" x="323.5" y="191.9219"/><path d="M323.5,191.9219 L385.5,191.9219 L385.5,199.9219 L375.5,209.9219 L323.5,209.9219 L323.5,191.9219 " fill="#EEEEEE" style="stroke:#000000;stroke-width:2.0;"/><text fill="#000000" font-family="sans-serif" font-size="13" font-weight="bold" lengthAdjust="spacing" textLength="17" x="336.5" y="207.417">ref</text><text fill="#000000" font-family="sans-serif" font-size="12" lengthAdjust="spacing" textLength="118" x="327.5" y="226.3789">3. Verify access token</text><polygon fill="#181818" points="539.5,256.7188,549.5,260.7188,539.5,264.7188,543.5,260.7188" style="stroke:#181818;stroke-width:1.0;"/><line style="stroke:#181818;stroke-width:1.0;" x1="378.5" x2="545.5" y1="260.7188" y2="260.7188"/><text fill="#000000" font-family="sans-serif" font-size="13" lengthAdjust="spacing" textLength="108" x="385.5" y="255.8623">4. Forward request</text><polygon fill="#181818" points="1314.5,287.0703,1324.5,291.0703,1314.5,295.0703,1318.5,291.0703" style="stroke:#181818;stroke-width:1.0;"/><line style="stroke:#181818;stroke-width:1.0;" x1="561.5" x2="1320.5" y1="291.0703" y2="291.0703"/><text fill="#000000" font-family="sans-serif" font-size="13" lengthAdjust="spacing" textLength="79" x="568.5" y="286.2139">5. Query data</text><polygon fill="#181818" points="572.5,317.4219,562.5,321.4219,572.5,325.4219,568.5,321.4219" style="stroke:#181818;stroke-width:1.0;"/><line style="stroke:#181818;stroke-width:1.0;stroke-dasharray:2.0,2.0;" x1="566.5" x2="1330.5" y1="321.4219" y2="321.4219"/><text fill="#000000" font-family="sans-serif" font-size="13" lengthAdjust="spacing" textLength="110" x="578.5" y="316.5654">6. Return response</text><path d="M10,336.4219 L71,336.4219 L71,344.7734 L61,354.7734 L10,354.7734 L10,336.4219 " fill="#EEEEEE" style="stroke:#000000;stroke-width:1.5;"/><rect fill="none" height="524.5156" style="stroke:#000000;stroke-width:1.5;" width="1448.5" x="10" y="336.4219"/><text fill="#000000" font-family="sans-serif" font-size="13" font-weight="bold" lengthAdjust="spacing" textLength="16" x="25" y="350.917">alt</text><text fill="#000000" font-family="sans-serif" font-size="11" font-weight="bold" lengthAdjust="spacing" textLength="123" x="86" y="349.8408">[Recipe is not existed]</text><polygon fill="#181818" points="389.5,373.125,379.5,377.125,389.5,381.125,385.5,377.125" style="stroke:#181818;stroke-width:1.0;"/><line style="stroke:#181818;stroke-width:1.0;stroke-dasharray:2.0,2.0;" x1="383.5" x2="550.5" y1="377.125" y2="377.125"/><text fill="#000000" font-family="sans-serif" font-size="13" lengthAdjust="spacing" textLength="149" x="395.5" y="372.2686">7A. Return not found error</text><polygon fill="#181818" points="221.5,403.4766,211.5,407.4766,221.5,411.4766,217.5,407.4766" style="stroke:#181818;stroke-width:1.0;"/><line style="stroke:#181818;stroke-width:1.0;stroke-dasharray:2.0,2.0;" x1="215.5" x2="367.5" y1="407.4766" y2="407.4766"/><text fill="#000000" font-family="sans-serif" font-size="13" lengthAdjust="spacing" textLength="134" x="227.5" y="402.6201">7A.1. Foward response</text><polygon fill="#181818" points="48.5,433.8281,38.5,437.8281,48.5,441.8281,44.5,437.8281" style="stroke:#181818;stroke-width:1.0;"/><line style="stroke:#181818;stroke-width:1.0;stroke-dasharray:2.0,2.0;" x1="42.5" x2="367.5" y1="437.8281" y2="437.8281"/><text fill="#000000" font-family="sans-serif" font-size="13" lengthAdjust="spacing" textLength="163" x="54.5" y="432.9717">7a.2. Display not found error</text><line style="stroke:#000000;stroke-width:1.0;stroke-dasharray:2.0,2.0;" x1="10" x2="1458.5" y1="446.8281" y2="446.8281"/><text fill="#000000" font-family="sans-serif" font-size="11" font-weight="bold" lengthAdjust="spacing" textLength="102" x="15" y="458.2471">[Recipe is existed]</text><polygon fill="#181818" points="889.5,496.3672,899.5,500.3672,889.5,504.3672,893.5,500.3672" style="stroke:#181818;stroke-width:1.0;"/><line style="stroke:#181818;stroke-width:1.0;" x1="561.5" x2="895.5" y1="500.3672" y2="500.3672"/><text fill="#000000" font-family="sans-serif" font-size="13" lengthAdjust="spacing" textLength="232" x="568.5" y="479.1592">8. Publish "UserViewRecipeDetailEvent"</text><text fill="#000000" font-family="sans-serif" font-size="13" lengthAdjust="spacing" textLength="108" x="572.5" y="495.5107">message &#171;Async&#187;</text><polygon fill="#181818" points="1145.5,543.0703,1155.5,547.0703,1145.5,551.0703,1149.5,547.0703" style="stroke:#181818;stroke-width:1.0;"/><line style="stroke:#181818;stroke-width:1.0;stroke-dasharray:2.0,2.0;" x1="906.5" x2="1151.5" y1="547.0703" y2="547.0703"/><text fill="#000000" font-family="sans-serif" font-size="13" lengthAdjust="spacing" textLength="227" x="913.5" y="525.8623">9. Deliver "UserViewRecipeDetailEvent"</text><text fill="#000000" font-family="sans-serif" font-size="13" lengthAdjust="spacing" textLength="53" x="917.5" y="542.2139">message</text><polygon fill="#181818" points="1314.5,589.7734,1324.5,593.7734,1314.5,597.7734,1318.5,593.7734" style="stroke:#181818;stroke-width:1.0;"/><line style="stroke:#181818;stroke-width:1.0;" x1="1167.5" x2="1320.5" y1="593.7734" y2="593.7734"/><text fill="#000000" font-family="sans-serif" font-size="13" lengthAdjust="spacing" textLength="136" x="1174.5" y="572.5654">10. Consume event and</text><text fill="#000000" font-family="sans-serif" font-size="13" lengthAdjust="spacing" textLength="124" x="1178.5" y="588.917">add user's view to DB</text><polygon fill="#181818" points="1173.5,620.125,1163.5,624.125,1173.5,628.125,1169.5,624.125" style="stroke:#181818;stroke-width:1.0;"/><line style="stroke:#181818;stroke-width:1.0;stroke-dasharray:2.0,2.0;" x1="1167.5" x2="1330.5" y1="624.125" y2="624.125"/><text fill="#000000" font-family="sans-serif" font-size="13" lengthAdjust="spacing" textLength="117" x="1179.5" y="619.2686">11. Return response</text><line style="stroke:#A80036;stroke-width:2.0;" x1="1153.5" x2="1171.5" y1="615.125" y2="633.125"/><line style="stroke:#A80036;stroke-width:2.0;" x1="1153.5" x2="1171.5" y1="633.125" y2="615.125"/><polygon fill="#181818" points="785.5,666.8281,795.5,670.8281,785.5,674.8281,789.5,670.8281" style="stroke:#181818;stroke-width:1.0;"/><line style="stroke:#181818;stroke-width:1.0;" x1="561.5" x2="791.5" y1="670.8281" y2="670.8281"/><text fill="#000000" font-family="sans-serif" font-size="13" lengthAdjust="spacing" textLength="155" x="568.5" y="649.6201">12. gRPC call to get user's</text><text fill="#000000" font-family="sans-serif" font-size="13" lengthAdjust="spacing" textLength="115" x="572.5" y="665.9717">information &#171;gRPC&#187;</text><polygon fill="#181818" points="1395,697.1797,1405,701.1797,1395,705.1797,1399,701.1797" style="stroke:#181818;stroke-width:1.0;"/><line style="stroke:#181818;stroke-width:1.0;" x1="807.5" x2="1401" y1="701.1797" y2="701.1797"/><text fill="#000000" font-family="sans-serif" font-size="13" lengthAdjust="spacing" textLength="86" x="814.5" y="696.3232">13. Query data</text><polygon fill="#181818" points="818.5,727.5313,808.5,731.5313,818.5,735.5313,814.5,731.5313" style="stroke:#181818;stroke-width:1.0;"/><line style="stroke:#181818;stroke-width:1.0;stroke-dasharray:2.0,2.0;" x1="812.5" x2="1411" y1="731.5313" y2="731.5313"/><text fill="#000000" font-family="sans-serif" font-size="13" lengthAdjust="spacing" textLength="112" x="824.5" y="726.6748">14. return response</text><polygon fill="#181818" points="572.5,757.8828,562.5,761.8828,572.5,765.8828,568.5,761.8828" style="stroke:#181818;stroke-width:1.0;"/><line style="stroke:#181818;stroke-width:1.0;stroke-dasharray:2.0,2.0;" x1="566.5" x2="801.5" y1="761.8828" y2="761.8828"/><text fill="#000000" font-family="sans-serif" font-size="13" lengthAdjust="spacing" textLength="212" x="578.5" y="757.0264">15. return user's information &#171;gRPC&#187;</text><polygon fill="#181818" points="389.5,788.2344,379.5,792.2344,389.5,796.2344,385.5,792.2344" style="stroke:#181818;stroke-width:1.0;"/><line style="stroke:#181818;stroke-width:1.0;stroke-dasharray:2.0,2.0;" x1="383.5" x2="555.5" y1="792.2344" y2="792.2344"/><text fill="#000000" font-family="sans-serif" font-size="13" lengthAdjust="spacing" textLength="129" x="395.5" y="787.3779">16. return recipe detail</text><polygon fill="#181818" points="221.5,818.5859,211.5,822.5859,221.5,826.5859,217.5,822.5859" style="stroke:#181818;stroke-width:1.0;"/><line style="stroke:#181818;stroke-width:1.0;stroke-dasharray:2.0,2.0;" x1="215.5" x2="372.5" y1="822.5859" y2="822.5859"/><text fill="#000000" font-family="sans-serif" font-size="13" lengthAdjust="spacing" textLength="125" x="227.5" y="817.7295">17. Forward response</text><polygon fill="#181818" points="48.5,848.9375,38.5,852.9375,48.5,856.9375,44.5,852.9375" style="stroke:#181818;stroke-width:1.0;"/><line style="stroke:#181818;stroke-width:1.0;stroke-dasharray:2.0,2.0;" x1="42.5" x2="204.5" y1="852.9375" y2="852.9375"/><text fill="#000000" font-family="sans-serif" font-size="13" lengthAdjust="spacing" textLength="139" x="54.5" y="848.0811">18. Display recipe detail</text><!--SRC=[XLHBRnen4BxxLuouv12nBKtpA498IMXH3vKeUPnwCRl3nifY4ziBHLN-UsUy2siMH8uUp_VDDq-lV87G6QC7YwbQ8cJefIewuWmU_8R-7APU6Iq6Zfz30MHvAr6dE58ojt81_yW619-ZPNFz1hYJwUlOcb9dzwOm5jOlocFuUnVlOl2f9XGozVJxvD2A6NjBku5VPgOAVFefbj9wHSAazj0P359ZCwKb0OR3FnfkbseiFQxbfWFIHSysZiXNAiK0ceP47ofBmErPJa5PP0oCtXyedShPJFd5MnMlVfmAzMYfV4hdSRYMJMJIovbqIENIkHdTDOQ9SJwtwDuA8GIhXEvmLzJpypxq4dWqPVe2SjluEM8cnDQ7_PjoCk9B0WTZ8WIr7SoA-1ldFbmay8nMpJSWqnIT0szUKGlH-33zNjKvmjS4VXYxbZQZA3HZpWknvrGb4L9b_yi4VfT8qy9fjpm7tUxMjTljmrL2uNnfDJ6xfT4EQUuANsi0vK0R3_XNEKzLu1cDj3BN7diVhcztX0oSyzm2Mcji0E-goD2uCeJhSPPrahKKXeGc7RZBXCe-KcvPa8vs92oeqqq6iVg3icr7Zkjsay2ad1NAlK27mpuhN5U0KUZgznLgtm4QmWKrJ-PKpS6js-XqEAp8Qoxe4d5h9llmZGHZeNWcJh0tv84oGxe2QaLvDyl1zfsrFVhysRArfgFtEO5xAc-vG42E2P8gHt5bba59miuSh4WR3IVGwXmZR0rHhtSuHPLuvwtP7DKO9TR-FjwewAI4BAZ_-NHo3wai2fQQqmxMwYaNfUV6BYHVQ6eIEzOzYcYOjRa7WVHYRtFQ_fns0mYPqshQ8vaVxbp44u2NEs0j-gZY3pSkS5r58k8ZT6BZ0kuwlYl7LcuB3jutpSBjXq4Q7xePGlm7]--></g></svg>