<?xml version="1.0" encoding="us-ascii" standalone="no"?><svg xmlns="http://www.w3.org/2000/svg" xmlns:xlink="http://www.w3.org/1999/xlink" contentStyleType="text/css" height="1097px" preserveAspectRatio="none" style="width:1619px;height:1097px;background:#FFFFFF;" version="1.1" viewBox="0 0 1619 1097" width="1619px" zoomAndPan="magnify"><defs/><g><text fill="#000000" font-family="sans-serif" font-size="14" font-weight="bold" lengthAdjust="spacing" textLength="115" x="753.75" y="29.5332">Comment recipe</text><rect fill="#FFFFFF" height="443.3672" style="stroke:#181818;stroke-width:1.0;" width="10" x="276.5" y="153.5703"/><rect fill="#FFFFFF" height="382.6641" style="stroke:#181818;stroke-width:1.0;" width="10" x="435.5" y="183.9219"/><rect fill="#FFFFFF" height="275.5156" style="stroke:#181818;stroke-width:1.0;" width="10" x="626.5" y="260.7188"/><rect fill="#FFFFFF" height="90.7031" style="stroke:#181818;stroke-width:1.0;" width="10" x="626.5" y="899.4531"/><rect fill="#FFFFFF" height="91.0547" style="stroke:#181818;stroke-width:1.0;" width="10" x="877.5" y="368.125"/><rect fill="#FFFFFF" height="167.7578" style="stroke:#181818;stroke-width:1.0;" width="10" x="981.5" y="505.8828"/><rect fill="#FFFFFF" height="106.7031" style="stroke:#181818;stroke-width:1.0;" width="10" x="981.5" y="822.75"/><rect fill="#FFFFFF" height="209.1094" style="stroke:#181818;stroke-width:1.0;" width="10" x="1239.5" y="643.6406"/><rect fill="#FFFFFF" height="30.3516" style="stroke:#181818;stroke-width:1.0;" width="10" x="1408.5" y="720.3438"/><rect fill="#FFFFFF" height="30.3516" style="stroke:#181818;stroke-width:1.0;" width="10" x="1496.5" y="291.0703"/><rect fill="#FFFFFF" height="30.3516" style="stroke:#181818;stroke-width:1.0;" width="10" x="1496.5" y="959.8047"/><rect fill="#FFFFFF" height="30.3516" style="stroke:#181818;stroke-width:1.0;" width="10" x="1577" y="398.4766"/><rect fill="none" height="232.4609" style="stroke:#000000;stroke-width:1.5;" width="978.5" x="567" y="765.6953"/><line style="stroke:#181818;stroke-width:0.5;stroke-dasharray:5.0,5.0;" x1="22" x2="22" y1="121.2188" y2="1015.1563"/><line style="stroke:#181818;stroke-width:0.5;stroke-dasharray:5.0,5.0;" x1="281" x2="281" y1="121.2188" y2="1015.1563"/><line style="stroke:#181818;stroke-width:0.5;stroke-dasharray:5.0,5.0;" x1="440.5" x2="440.5" y1="121.2188" y2="1015.1563"/><line style="stroke:#181818;stroke-width:0.5;stroke-dasharray:5.0,5.0;" x1="631" x2="631" y1="121.2188" y2="1015.1563"/><line style="stroke:#181818;stroke-width:0.5;stroke-dasharray:5.0,5.0;" x1="882.5" x2="882.5" y1="121.2188" y2="1015.1563"/><line style="stroke:#181818;stroke-width:0.5;stroke-dasharray:5.0,5.0;" x1="986.5" x2="986.5" y1="121.2188" y2="1015.1563"/><line style="stroke:#181818;stroke-width:0.5;stroke-dasharray:5.0,5.0;" x1="1244.5" x2="1244.5" y1="121.2188" y2="1015.1563"/><line style="stroke:#181818;stroke-width:0.5;stroke-dasharray:5.0,5.0;" x1="1413.5" x2="1413.5" y1="121.2188" y2="1015.1563"/><line style="stroke:#181818;stroke-width:0.5;stroke-dasharray:5.0,5.0;" x1="1501.5" x2="1501.5" y1="121.2188" y2="1015.1563"/><line style="stroke:#181818;stroke-width:0.5;stroke-dasharray:5.0,5.0;" x1="1581.5" x2="1581.5" y1="121.2188" y2="1015.1563"/><text fill="#000000" font-family="sans-serif" font-size="14" lengthAdjust="spacing" textLength="29" x="5" y="118.1426">User</text><ellipse cx="22.5" cy="52.1094" fill="#E2E2F0" rx="8" ry="8" style="stroke:#181818;stroke-width:0.5;"/><path d="M22.5,60.1094 L22.5,87.1094 M9.5,68.1094 L35.5,68.1094 M22.5,87.1094 L9.5,102.1094 M22.5,87.1094 L35.5,102.1094 " fill="none" style="stroke:#181818;stroke-width:0.5;"/><text fill="#000000" font-family="sans-serif" font-size="14" lengthAdjust="spacing" textLength="29" x="5" y="1028.6895">User</text><ellipse cx="22.5" cy="1040.2656" fill="#E2E2F0" rx="8" ry="8" style="stroke:#181818;stroke-width:0.5;"/><path d="M22.5,1048.2656 L22.5,1075.2656 M9.5,1056.2656 L35.5,1056.2656 M22.5,1075.2656 L9.5,1090.2656 M22.5,1075.2656 L35.5,1090.2656 " fill="none" style="stroke:#181818;stroke-width:0.5;"/><text fill="#000000" font-family="sans-serif" font-size="14" lengthAdjust="spacing" textLength="53" x="252" y="118.1426">MobileUI</text><path d="M261,75.6094 L261,99.6094 M261,87.6094 L278,87.6094 " fill="none" style="stroke:#181818;stroke-width:0.5;"/><ellipse cx="290" cy="87.6094" fill="#E2E2F0" rx="12" ry="12" style="stroke:#181818;stroke-width:0.5;"/><text fill="#000000" font-family="sans-serif" font-size="14" lengthAdjust="spacing" textLength="53" x="252" y="1028.6895">MobileUI</text><path d="M261,1035.7656 L261,1059.7656 M261,1047.7656 L278,1047.7656 " fill="none" style="stroke:#181818;stroke-width:0.5;"/><ellipse cx="290" cy="1047.7656" fill="#E2E2F0" rx="12" ry="12" style="stroke:#181818;stroke-width:0.5;"/><rect fill="#E2E2F0" height="49.2188" rx="2.5" ry="2.5" style="stroke:#181818;stroke-width:0.5;" width="94" x="393.5" y="71"/><text fill="#000000" font-family="sans-serif" font-size="14" lengthAdjust="spacing" textLength="80" x="400.5" y="92.5332">&#171;cordinator&#187;</text><text fill="#000000" font-family="sans-serif" font-size="14" lengthAdjust="spacing" textLength="75" x="403" y="110.1426">ApiGateway</text><rect fill="#E2E2F0" height="49.2188" rx="2.5" ry="2.5" style="stroke:#181818;stroke-width:0.5;" width="94" x="393.5" y="1014.1563"/><text fill="#000000" font-family="sans-serif" font-size="14" lengthAdjust="spacing" textLength="80" x="400.5" y="1035.6895">&#171;cordinator&#187;</text><text fill="#000000" font-family="sans-serif" font-size="14" lengthAdjust="spacing" textLength="75" x="403" y="1053.2988">ApiGateway</text><rect fill="#E2E2F0" height="49.2188" rx="2.5" ry="2.5" style="stroke:#181818;stroke-width:0.5;" width="109" x="577" y="71"/><text fill="#000000" font-family="sans-serif" font-size="14" lengthAdjust="spacing" textLength="61" x="601" y="92.5332">&#171;service&#187;</text><text fill="#000000" font-family="sans-serif" font-size="14" lengthAdjust="spacing" textLength="91" x="588" y="110.1426">RecipeService</text><rect fill="#E2E2F0" height="49.2188" rx="2.5" ry="2.5" style="stroke:#181818;stroke-width:0.5;" width="109" x="577" y="1014.1563"/><text fill="#000000" font-family="sans-serif" font-size="14" lengthAdjust="spacing" textLength="61" x="601" y="1035.6895">&#171;service&#187;</text><text fill="#000000" font-family="sans-serif" font-size="14" lengthAdjust="spacing" textLength="91" x="588" y="1053.2988">RecipeService</text><rect fill="#E2E2F0" height="49.2188" rx="2.5" ry="2.5" style="stroke:#181818;stroke-width:0.5;" width="94" x="835.5" y="71"/><text fill="#000000" font-family="sans-serif" font-size="14" lengthAdjust="spacing" textLength="61" x="852" y="92.5332">&#171;service&#187;</text><text fill="#000000" font-family="sans-serif" font-size="14" lengthAdjust="spacing" textLength="76" x="846.5" y="110.1426">UserService</text><rect fill="#E2E2F0" height="49.2188" rx="2.5" ry="2.5" style="stroke:#181818;stroke-width:0.5;" width="94" x="835.5" y="1014.1563"/><text fill="#000000" font-family="sans-serif" font-size="14" lengthAdjust="spacing" textLength="61" x="852" y="1035.6895">&#171;service&#187;</text><text fill="#000000" font-family="sans-serif" font-size="14" lengthAdjust="spacing" textLength="76" x="846.5" y="1053.2988">UserService</text><rect fill="#E2E2F0" height="49.2188" rx="2.5" ry="2.5" style="stroke:#181818;stroke-width:0.5;" width="94" x="939.5" y="71"/><text fill="#000000" font-family="sans-serif" font-size="14" lengthAdjust="spacing" textLength="80" x="946.5" y="92.5332">&#171;cordinator&#187;</text><text fill="#000000" font-family="sans-serif" font-size="14" lengthAdjust="spacing" textLength="60" x="958.5" y="110.1426">Rabbitmq</text><rect fill="#E2E2F0" height="49.2188" rx="2.5" ry="2.5" style="stroke:#181818;stroke-width:0.5;" width="94" x="939.5" y="1014.1563"/><text fill="#000000" font-family="sans-serif" font-size="14" lengthAdjust="spacing" textLength="80" x="946.5" y="1035.6895">&#171;cordinator&#187;</text><text fill="#000000" font-family="sans-serif" font-size="14" lengthAdjust="spacing" textLength="60" x="958.5" y="1053.2988">Rabbitmq</text><rect fill="#E2E2F0" height="49.2188" rx="2.5" ry="2.5" style="stroke:#181818;stroke-width:0.5;" width="108" x="1190.5" y="71"/><text fill="#000000" font-family="sans-serif" font-size="14" lengthAdjust="spacing" textLength="61" x="1214" y="92.5332">&#171;service&#187;</text><text fill="#000000" font-family="sans-serif" font-size="14" lengthAdjust="spacing" textLength="90" x="1201.5" y="110.1426">RecipeWorker</text><rect fill="#E2E2F0" height="49.2188" rx="2.5" ry="2.5" style="stroke:#181818;stroke-width:0.5;" width="108" x="1190.5" y="1014.1563"/><text fill="#000000" font-family="sans-serif" font-size="14" lengthAdjust="spacing" textLength="61" x="1214" y="1035.6895">&#171;service&#187;</text><text fill="#000000" font-family="sans-serif" font-size="14" lengthAdjust="spacing" textLength="90" x="1201.5" y="1053.2988">RecipeWorker</text><rect fill="#E2E2F0" height="49.2188" rx="2.5" ry="2.5" style="stroke:#181818;stroke-width:0.5;" width="88" x="1369.5" y="71"/><text fill="#000000" font-family="sans-serif" font-size="14" lengthAdjust="spacing" textLength="61" x="1383" y="92.5332">&#171;service&#187;</text><text fill="#000000" font-family="sans-serif" font-size="14" lengthAdjust="spacing" textLength="70" x="1380.5" y="110.1426">GerminiAPI</text><rect fill="#E2E2F0" height="49.2188" rx="2.5" ry="2.5" style="stroke:#181818;stroke-width:0.5;" width="88" x="1369.5" y="1014.1563"/><text fill="#000000" font-family="sans-serif" font-size="14" lengthAdjust="spacing" textLength="61" x="1383" y="1035.6895">&#171;service&#187;</text><text fill="#000000" font-family="sans-serif" font-size="14" lengthAdjust="spacing" textLength="70" x="1380.5" y="1053.2988">GerminiAPI</text><text fill="#000000" font-family="sans-serif" font-size="14" lengthAdjust="spacing" textLength="62" x="1467.5" y="118.1426">MongoDB</text><path d="M1483.5,67.6094 C1483.5,57.6094 1501.5,57.6094 1501.5,57.6094 C1501.5,57.6094 1519.5,57.6094 1519.5,67.6094 L1519.5,93.6094 C1519.5,103.6094 1501.5,103.6094 1501.5,103.6094 C1501.5,103.6094 1483.5,103.6094 1483.5,93.6094 L1483.5,67.6094 " fill="#E2E2F0" style="stroke:#181818;stroke-width:1.5;"/><path d="M1483.5,67.6094 C1483.5,77.6094 1501.5,77.6094 1501.5,77.6094 C1501.5,77.6094 1519.5,77.6094 1519.5,67.6094 " fill="none" style="stroke:#181818;stroke-width:1.5;"/><text fill="#000000" font-family="sans-serif" font-size="14" lengthAdjust="spacing" textLength="62" x="1467.5" y="1028.6895">MongoDB</text><path d="M1483.5,1041.7656 C1483.5,1031.7656 1501.5,1031.7656 1501.5,1031.7656 C1501.5,1031.7656 1519.5,1031.7656 1519.5,1041.7656 L1519.5,1067.7656 C1519.5,1077.7656 1501.5,1077.7656 1501.5,1077.7656 C1501.5,1077.7656 1483.5,1077.7656 1483.5,1067.7656 L1483.5,1041.7656 " fill="#E2E2F0" style="stroke:#181818;stroke-width:1.5;"/><path d="M1483.5,1041.7656 C1483.5,1051.7656 1501.5,1051.7656 1501.5,1051.7656 C1501.5,1051.7656 1519.5,1051.7656 1519.5,1041.7656 " fill="none" style="stroke:#181818;stroke-width:1.5;"/><text fill="#000000" font-family="sans-serif" font-size="14" lengthAdjust="spacing" textLength="67" x="1545.5" y="118.1426">Postgresql</text><path d="M1564,67.6094 C1564,57.6094 1582,57.6094 1582,57.6094 C1582,57.6094 1600,57.6094 1600,67.6094 L1600,93.6094 C1600,103.6094 1582,103.6094 1582,103.6094 C1582,103.6094 1564,103.6094 1564,93.6094 L1564,67.6094 " fill="#E2E2F0" style="stroke:#181818;stroke-width:1.5;"/><path d="M1564,67.6094 C1564,77.6094 1582,77.6094 1582,77.6094 C1582,77.6094 1600,77.6094 1600,67.6094 " fill="none" style="stroke:#181818;stroke-width:1.5;"/><text fill="#000000" font-family="sans-serif" font-size="14" lengthAdjust="spacing" textLength="67" x="1545.5" y="1028.6895">Postgresql</text><path d="M1564,1041.7656 C1564,1031.7656 1582,1031.7656 1582,1031.7656 C1582,1031.7656 1600,1031.7656 1600,1041.7656 L1600,1067.7656 C1600,1077.7656 1582,1077.7656 1582,1077.7656 C1582,1077.7656 1564,1077.7656 1564,1067.7656 L1564,1041.7656 " fill="#E2E2F0" style="stroke:#181818;stroke-width:1.5;"/><path d="M1564,1041.7656 C1564,1051.7656 1582,1051.7656 1582,1051.7656 C1582,1051.7656 1600,1051.7656 1600,1041.7656 " fill="none" style="stroke:#181818;stroke-width:1.5;"/><rect fill="#FFFFFF" height="443.3672" style="stroke:#181818;stroke-width:1.0;" width="10" x="276.5" y="153.5703"/><rect fill="#FFFFFF" height="382.6641" style="stroke:#181818;stroke-width:1.0;" width="10" x="435.5" y="183.9219"/><rect fill="#FFFFFF" height="275.5156" style="stroke:#181818;stroke-width:1.0;" width="10" x="626.5" y="260.7188"/><rect fill="#FFFFFF" height="90.7031" style="stroke:#181818;stroke-width:1.0;" width="10" x="626.5" y="899.4531"/><rect fill="#FFFFFF" height="91.0547" style="stroke:#181818;stroke-width:1.0;" width="10" x="877.5" y="368.125"/><rect fill="#FFFFFF" height="167.7578" style="stroke:#181818;stroke-width:1.0;" width="10" x="981.5" y="505.8828"/><rect fill="#FFFFFF" height="106.7031" style="stroke:#181818;stroke-width:1.0;" width="10" x="981.5" y="822.75"/><rect fill="#FFFFFF" height="209.1094" style="stroke:#181818;stroke-width:1.0;" width="10" x="1239.5" y="643.6406"/><rect fill="#FFFFFF" height="30.3516" style="stroke:#181818;stroke-width:1.0;" width="10" x="1408.5" y="720.3438"/><rect fill="#FFFFFF" height="30.3516" style="stroke:#181818;stroke-width:1.0;" width="10" x="1496.5" y="291.0703"/><rect fill="#FFFFFF" height="30.3516" style="stroke:#181818;stroke-width:1.0;" width="10" x="1496.5" y="959.8047"/><rect fill="#FFFFFF" height="30.3516" style="stroke:#181818;stroke-width:1.0;" width="10" x="1577" y="398.4766"/><polygon fill="#181818" points="264.5,149.5703,274.5,153.5703,264.5,157.5703,268.5,153.5703" style="stroke:#181818;stroke-width:1.0;"/><line style="stroke:#181818;stroke-width:1.0;" x1="22.5" x2="270.5" y1="153.5703" y2="153.5703"/><text fill="#000000" font-family="sans-serif" font-size="13" lengthAdjust="spacing" textLength="235" x="29.5" y="148.7139">1. Enter comment in recipe detail screen</text><polygon fill="#181818" points="423.5,179.9219,433.5,183.9219,423.5,187.9219,427.5,183.9219" style="stroke:#181818;stroke-width:1.0;"/><line style="stroke:#181818;stroke-width:1.0;" x1="286.5" x2="429.5" y1="183.9219" y2="183.9219"/><text fill="#000000" font-family="sans-serif" font-size="13" lengthAdjust="spacing" textLength="110" x="293.5" y="179.0654">2. Comment recipe</text><rect fill="#FFFFFF" height="41.4453" style="stroke:#000000;stroke-width:1.5;" width="126" x="390.5" y="191.9219"/><path d="M390.5,191.9219 L452.5,191.9219 L452.5,199.9219 L442.5,209.9219 L390.5,209.9219 L390.5,191.9219 " fill="#EEEEEE" style="stroke:#000000;stroke-width:2.0;"/><text fill="#000000" font-family="sans-serif" font-size="13" font-weight="bold" lengthAdjust="spacing" textLength="17" x="403.5" y="207.417">ref</text><text fill="#000000" font-family="sans-serif" font-size="12" lengthAdjust="spacing" textLength="118" x="394.5" y="226.3789">3. Verify access token</text><polygon fill="#181818" points="614.5,256.7188,624.5,260.7188,614.5,264.7188,618.5,260.7188" style="stroke:#181818;stroke-width:1.0;"/><line style="stroke:#181818;stroke-width:1.0;" x1="445.5" x2="620.5" y1="260.7188" y2="260.7188"/><text fill="#000000" font-family="sans-serif" font-size="13" lengthAdjust="spacing" textLength="108" x="452.5" y="255.8623">4. Forward request</text><polygon fill="#181818" points="1484.5,287.0703,1494.5,291.0703,1484.5,295.0703,1488.5,291.0703" style="stroke:#181818;stroke-width:1.0;"/><line style="stroke:#181818;stroke-width:1.0;" x1="636.5" x2="1490.5" y1="291.0703" y2="291.0703"/><text fill="#000000" font-family="sans-serif" font-size="13" lengthAdjust="spacing" textLength="76" x="643.5" y="286.2139">5. Insert data</text><polygon fill="#181818" points="647.5,317.4219,637.5,321.4219,647.5,325.4219,643.5,321.4219" style="stroke:#181818;stroke-width:1.0;"/><line style="stroke:#181818;stroke-width:1.0;stroke-dasharray:2.0,2.0;" x1="641.5" x2="1500.5" y1="321.4219" y2="321.4219"/><text fill="#000000" font-family="sans-serif" font-size="13" lengthAdjust="spacing" textLength="110" x="653.5" y="316.5654">6. Return response</text><polygon fill="#181818" points="865.5,364.125,875.5,368.125,865.5,372.125,869.5,368.125" style="stroke:#181818;stroke-width:1.0;"/><line style="stroke:#181818;stroke-width:1.0;" x1="636.5" x2="871.5" y1="368.125" y2="368.125"/><text fill="#000000" font-family="sans-serif" font-size="13" lengthAdjust="spacing" textLength="148" x="643.5" y="346.917">7. gRPC call to get user's</text><text fill="#000000" font-family="sans-serif" font-size="13" lengthAdjust="spacing" textLength="115" x="647.5" y="363.2686">information &#171;gRPC&#187;</text><polygon fill="#181818" points="1565,394.4766,1575,398.4766,1565,402.4766,1569,398.4766" style="stroke:#181818;stroke-width:1.0;"/><line style="stroke:#181818;stroke-width:1.0;" x1="887.5" x2="1571" y1="398.4766" y2="398.4766"/><text fill="#000000" font-family="sans-serif" font-size="13" lengthAdjust="spacing" textLength="79" x="894.5" y="393.6201">8. Query data</text><polygon fill="#181818" points="898.5,424.8281,888.5,428.8281,898.5,432.8281,894.5,428.8281" style="stroke:#181818;stroke-width:1.0;"/><line style="stroke:#181818;stroke-width:1.0;stroke-dasharray:2.0,2.0;" x1="892.5" x2="1581" y1="428.8281" y2="428.8281"/><text fill="#000000" font-family="sans-serif" font-size="13" lengthAdjust="spacing" textLength="110" x="904.5" y="423.9717">9. Return response</text><polygon fill="#181818" points="647.5,455.1797,637.5,459.1797,647.5,463.1797,643.5,459.1797" style="stroke:#181818;stroke-width:1.0;"/><line style="stroke:#181818;stroke-width:1.0;stroke-dasharray:2.0,2.0;" x1="641.5" x2="881.5" y1="459.1797" y2="459.1797"/><text fill="#000000" font-family="sans-serif" font-size="13" lengthAdjust="spacing" textLength="217" x="653.5" y="454.3232">10. Return user's information &#171;gRPC&#187;</text><polygon fill="#181818" points="969.5,501.8828,979.5,505.8828,969.5,509.8828,973.5,505.8828" style="stroke:#181818;stroke-width:1.0;"/><line style="stroke:#181818;stroke-width:1.0;" x1="636.5" x2="975.5" y1="505.8828" y2="505.8828"/><text fill="#000000" font-family="sans-serif" font-size="13" lengthAdjust="spacing" textLength="234" x="643.5" y="484.6748">11. Publish "UserCommentRecipeEvent"</text><text fill="#000000" font-family="sans-serif" font-size="13" lengthAdjust="spacing" textLength="108" x="647.5" y="501.0264">message &#171;Async&#187;</text><polygon fill="#181818" points="456.5,532.2344,446.5,536.2344,456.5,540.2344,452.5,536.2344" style="stroke:#181818;stroke-width:1.0;"/><line style="stroke:#181818;stroke-width:1.0;stroke-dasharray:2.0,2.0;" x1="450.5" x2="630.5" y1="536.2344" y2="536.2344"/><text fill="#000000" font-family="sans-serif" font-size="13" lengthAdjust="spacing" textLength="157" x="462.5" y="531.3779">12. Return recipe comment</text><polygon fill="#181818" points="297.5,562.5859,287.5,566.5859,297.5,570.5859,293.5,566.5859" style="stroke:#181818;stroke-width:1.0;"/><line style="stroke:#181818;stroke-width:1.0;stroke-dasharray:2.0,2.0;" x1="291.5" x2="439.5" y1="566.5859" y2="566.5859"/><text fill="#000000" font-family="sans-serif" font-size="13" lengthAdjust="spacing" textLength="125" x="303.5" y="561.7295">13. Forward response</text><polygon fill="#181818" points="33.5,592.9375,23.5,596.9375,33.5,600.9375,29.5,596.9375" style="stroke:#181818;stroke-width:1.0;"/><line style="stroke:#181818;stroke-width:1.0;stroke-dasharray:2.0,2.0;" x1="27.5" x2="280.5" y1="596.9375" y2="596.9375"/><text fill="#000000" font-family="sans-serif" font-size="13" lengthAdjust="spacing" textLength="162" x="39.5" y="592.0811">14. Display recipe comment</text><polygon fill="#181818" points="1227.5,639.6406,1237.5,643.6406,1227.5,647.6406,1231.5,643.6406" style="stroke:#181818;stroke-width:1.0;"/><line style="stroke:#181818;stroke-width:1.0;" x1="991.5" x2="1233.5" y1="643.6406" y2="643.6406"/><text fill="#000000" font-family="sans-serif" font-size="13" lengthAdjust="spacing" textLength="229" x="998.5" y="622.4326">15. Deliver "UserCommentRecipeEvent"</text><text fill="#000000" font-family="sans-serif" font-size="13" lengthAdjust="spacing" textLength="53" x="1002.5" y="638.7842">message</text><polygon fill="#181818" points="1396.5,716.3438,1406.5,720.3438,1396.5,724.3438,1400.5,720.3438" style="stroke:#181818;stroke-width:1.0;"/><line style="stroke:#181818;stroke-width:1.0;" x1="1249.5" x2="1402.5" y1="720.3438" y2="720.3438"/><text fill="#000000" font-family="sans-serif" font-size="13" lengthAdjust="spacing" textLength="136" x="1256.5" y="699.1357">16. Consume event and</text><text fill="#000000" font-family="sans-serif" font-size="13" lengthAdjust="spacing" textLength="134" x="1260.5" y="715.4873">call api to check abuse</text><polygon fill="#181818" points="1260.5,746.6953,1250.5,750.6953,1260.5,754.6953,1256.5,750.6953" style="stroke:#181818;stroke-width:1.0;"/><line style="stroke:#181818;stroke-width:1.0;stroke-dasharray:2.0,2.0;" x1="1254.5" x2="1412.5" y1="750.6953" y2="750.6953"/><text fill="#000000" font-family="sans-serif" font-size="13" lengthAdjust="spacing" textLength="117" x="1266.5" y="745.8389">17. Return response</text><path d="M567,765.6953 L632,765.6953 L632,774.0469 L622,784.0469 L567,784.0469 L567,765.6953 " fill="#EEEEEE" style="stroke:#000000;stroke-width:1.5;"/><rect fill="none" height="232.4609" style="stroke:#000000;stroke-width:1.5;" width="978.5" x="567" y="765.6953"/><text fill="#000000" font-family="sans-serif" font-size="13" font-weight="bold" lengthAdjust="spacing" textLength="20" x="582" y="780.1904">opt</text><text fill="#000000" font-family="sans-serif" font-size="11" font-weight="bold" lengthAdjust="spacing" textLength="164" x="647" y="779.1143">[Comment has abusive word]</text><polygon fill="#181818" points="1002.5,818.75,992.5,822.75,1002.5,826.75,998.5,822.75" style="stroke:#181818;stroke-width:1.0;"/><line style="stroke:#181818;stroke-width:1.0;" x1="996.5" x2="1238.5" y1="822.75" y2="822.75"/><text fill="#000000" font-family="sans-serif" font-size="13" lengthAdjust="spacing" textLength="221" x="1008.5" y="801.542">18A. Publish "AbusiveCommentEvent"</text><text fill="#000000" font-family="sans-serif" font-size="13" lengthAdjust="spacing" textLength="108" x="1012.5" y="817.8936">message &#171;Async&#187;</text><polygon fill="#181818" points="647.5,895.4531,637.5,899.4531,647.5,903.4531,643.5,899.4531" style="stroke:#181818;stroke-width:1.0;"/><line style="stroke:#181818;stroke-width:1.0;" x1="641.5" x2="980.5" y1="899.4531" y2="899.4531"/><text fill="#000000" font-family="sans-serif" font-size="13" lengthAdjust="spacing" textLength="227" x="653.5" y="878.2451">18A.1. Deliver "AbusiveCommentEvent"</text><text fill="#000000" font-family="sans-serif" font-size="13" lengthAdjust="spacing" textLength="53" x="657.5" y="894.5967">message</text><polygon fill="#181818" points="1484.5,955.8047,1494.5,959.8047,1484.5,963.8047,1488.5,959.8047" style="stroke:#181818;stroke-width:1.0;"/><line style="stroke:#181818;stroke-width:1.0;" x1="636.5" x2="1490.5" y1="959.8047" y2="959.8047"/><text fill="#000000" font-family="sans-serif" font-size="13" lengthAdjust="spacing" textLength="251" x="643.5" y="954.9482">18A.2. Consume message and update data</text><polygon fill="#181818" points="642.5,986.1563,632.5,990.1563,642.5,994.1563,638.5,990.1563" style="stroke:#181818;stroke-width:1.0;"/><line style="stroke:#181818;stroke-width:1.0;stroke-dasharray:2.0,2.0;" x1="636.5" x2="1500.5" y1="990.1563" y2="990.1563"/><text fill="#000000" font-family="sans-serif" font-size="13" lengthAdjust="spacing" textLength="141" x="648.5" y="985.2998">18A.3. Return response.</text><!--SRC=[XLLDRzim3BthLn2vx534MzjjxOeWGDfqHGy3iWxTBhieDfi8iILNaXC4G__xIDc9b8zbjqWc7zyZdnYlV8dGkpDLXTg3nLpLs1C3vzSb3WM0mzS6TOvZ9MTMLl27xe3YNj3oTNS6k9Nvui6QHXTtfZGMLdFbCNnx4szYyBu353BtzFNPeHLJZfPs3T_CL9Nu_2XgQRqY1fAez0Q3tDX2QKa9m-5lFQhLW_IuakiUI0Vnk9z6s4kL8-V0Kn3qexq9UJitfrAPOvgOd4yJXISvdIfVlRRrkiF_MVuoTe4s8TbUd4fyG5ifhKQJnv0MZwAGNawbGsgkdfdnRRoO6ETd5jrhAGHhWlvmEu6piniup-1UUxhFErCetVa22lHIbU1oYwY5s6GnGXm7Ornai6if8SWoO9O46oDlu3A3dsZLonfadgDpuCs2aMCCO- -CZE4_Pl3Ls9Mq1S6JFvqNOYUerHI4S_od31urIVN0NTWB7VJxczX-_mO-PrJFDvP5kzfGsX7in0kCVvN1x6bo1xaiIv80C_JGKCWx1pGafL-ChQHNHiDWm873eKWG630EXV6kC_ZU8BsCG3SDPR8nblb-EUHxg2-1u9pp3zkaZkPHZeUwDsOEFY6ZJ9ffgTmSUboWctYRTB-adpsMNz5SvOnu34PkhNF6JSRBx7RA17uNYQZWlCwBqNAS5s52qcNgYguLmU3jXDl444d-6IjNbrH_3rzi54RVjQymA2OVZR5KxE9_AOw2HO6qxDII6COb859ChX6VRAZmcH-ETas5W8m7KXVSnE0iMIjsLpx7V05oscn7tS6npeWNb5uTSREf_VPrpcbhC19fWXLjiR2nzpdkJFrwb8nzrAPsQATcphXfGz855seUz3rvNrpqFEdziR99u_ThRPeVjHrV4rpc8WvW8u97qDG5GuNtU0Ypjq8Ov_AWyTdn7cp-Kf2gq6J-0W00]--></g></svg>