<?xml version="1.0" encoding="us-ascii" standalone="no"?><svg xmlns="http://www.w3.org/2000/svg" xmlns:xlink="http://www.w3.org/1999/xlink" contentStyleType="text/css" height="965px" preserveAspectRatio="none" style="width:1192px;height:965px;background:#FFFFFF;" version="1.1" viewBox="0 0 1192 965" width="1192px" zoomAndPan="magnify"><defs/><g><!--cluster Ingredient-based<U+0020>food<U+0020>recommendation<U+0020>application--><g id="cluster_Ingredient-based&lt;U+0020&gt;food&lt;U+0020&gt;recommendation&lt;U+0020&gt;application"><rect fill="none" height="862" style="stroke:#181818;stroke-width:1.0;" width="1059.93" x="127" y="7"/><text fill="#000000" font-family="sans-serif" font-size="12" font-weight="bold" lengthAdjust="spacing" textLength="324" x="494.965" y="20.6016">Ingredient-based food recommendation application</text></g><g id="elem_ucLogin"><ellipse cx="831.0757" cy="377.9991" fill="#F1F1F1" rx="56.7457" ry="13.7491" style="stroke:#181818;stroke-width:0.5;"/><text fill="#000000" font-family="sans-serif" font-size="12" lengthAdjust="spacing" textLength="69" x="796.5757" y="380.5343">UC-2: Login</text></g><g id="elem_ucForgotPassword"><ellipse cx="1086.3812" cy="378.0002" fill="#F1F1F1" rx="84.5512" ry="19.3102" style="stroke:#181818;stroke-width:0.5;"/><text fill="#000000" font-family="sans-serif" font-size="12" lengthAdjust="spacing" textLength="135" x="1018.8812" y="380.5354">UC-4: Forgot password</text></g><g id="elem_ucLogout"><ellipse cx="236.6708" cy="201.0042" fill="#F1F1F1" rx="59.8208" ry="14.3642" style="stroke:#181818;stroke-width:0.5;"/><text fill="#000000" font-family="sans-serif" font-size="12" lengthAdjust="spacing" textLength="77" x="198.1708" y="203.5393">UC-8: Logout</text></g><g id="elem_ucManageProfile"><ellipse cx="236.6711" cy="133.0002" fill="#F1F1F1" rx="83.6511" ry="19.1302" style="stroke:#181818;stroke-width:0.5;"/><text fill="#000000" font-family="sans-serif" font-size="12" lengthAdjust="spacing" textLength="133" x="170.1711" y="135.5354">UC-11: Manage profile</text></g><g id="elem_ucManageSetting"><ellipse cx="236.6714" cy="270.0023" fill="#F1F1F1" rx="86.8114" ry="19.7623" style="stroke:#181818;stroke-width:0.5;"/><text fill="#000000" font-family="sans-serif" font-size="12" lengthAdjust="spacing" textLength="140" x="166.6714" y="272.5374">UC-10: Manage settings</text></g><g id="elem_ucAdmUser"><ellipse cx="236.6692" cy="344.9958" fill="#F1F1F1" rx="88.6292" ry="20.1258" style="stroke:#181818;stroke-width:0.5;"/><text fill="#000000" font-family="sans-serif" font-size="12" lengthAdjust="spacing" textLength="144" x="164.6692" y="347.531">UC-24: Administer users</text></g><g id="elem_ucAdmTags"><ellipse cx="236.6736" cy="59.0007" fill="#F1F1F1" rx="85.4536" ry="19.4907" style="stroke:#181818;stroke-width:0.5;"/><text fill="#000000" font-family="sans-serif" font-size="12" lengthAdjust="spacing" textLength="137" x="168.1736" y="61.5359">UC-25: Administer tags</text></g><g id="elem_ucAdmRecipe"><ellipse cx="236.6675" cy="421.0035" fill="#F1F1F1" rx="93.6675" ry="21.1335" style="stroke:#181818;stroke-width:0.5;"/><text fill="#000000" font-family="sans-serif" font-size="12" lengthAdjust="spacing" textLength="155" x="159.1675" y="423.5387">UC-26: Administer recipes</text></g><g id="elem_ucViewStatistic"><ellipse cx="236.6654" cy="496.0031" fill="#F1F1F1" rx="80.9654" ry="18.5931" style="stroke:#181818;stroke-width:0.5;"/><text fill="#000000" font-family="sans-serif" font-size="12" lengthAdjust="spacing" textLength="127" x="173.1654" y="498.5382">UC-27: View statistics</text></g><g id="elem_ucAdmReport"><ellipse cx="236.6675" cy="571.0035" fill="#F1F1F1" rx="93.6675" ry="21.1335" style="stroke:#181818;stroke-width:0.5;"/><text fill="#000000" font-family="sans-serif" font-size="12" lengthAdjust="spacing" textLength="155" x="159.1675" y="573.5387">UC-28: Administer reports</text></g><g id="elem_ucAdmAdmin"><ellipse cx="236.6675" cy="648.0035" fill="#F1F1F1" rx="93.6675" ry="21.1335" style="stroke:#181818;stroke-width:0.5;"/><text fill="#000000" font-family="sans-serif" font-size="12" lengthAdjust="spacing" textLength="155" x="159.1675" y="650.5387">UC-29: Administer admins</text></g><g id="elem_ucViewActivityLog"><ellipse cx="236.6657" cy="724.0011" fill="#F1F1F1" rx="85.9057" ry="19.5811" style="stroke:#181818;stroke-width:0.5;"/><text fill="#000000" font-family="sans-serif" font-size="12" lengthAdjust="spacing" textLength="138" x="167.6657" y="726.5363">UC-30: View activity log</text></g><g id="elem_noteAdmUser"><path d="M391.34,360.94 L391.34,385.0728 L535.34,385.0728 L535.34,370.94 L525.34,360.94 L391.34,360.94 " fill="#FAFAFA" style="stroke:#181818;stroke-width:0.5;"/><path d="M525.34,360.94 L525.34,370.94 L535.34,370.94 L525.34,360.94 " fill="#FAFAFA" style="stroke:#181818;stroke-width:1.0;"/><text fill="#000000" font-family="sans-serif" font-size="12" lengthAdjust="spacing" textLength="123" x="397.34" y="377.5416">Read/Delete/Restore</text></g><g id="elem_noteAdmRecipe"><path d="M391.34,456.94 L391.34,481.0728 L535.34,481.0728 L535.34,466.94 L525.34,456.94 L391.34,456.94 " fill="#FAFAFA" style="stroke:#181818;stroke-width:0.5;"/><path d="M525.34,456.94 L525.34,466.94 L535.34,466.94 L525.34,456.94 " fill="#FAFAFA" style="stroke:#181818;stroke-width:1.0;"/><text fill="#000000" font-family="sans-serif" font-size="12" lengthAdjust="spacing" textLength="123" x="397.34" y="473.5416">Read/Delete/Restore</text></g><g id="elem_noteAdmTag"><path d="M407.34,76.8 L407.34,129.1984 L519.34,129.1984 L519.34,86.8 L509.34,76.8 L407.34,76.8 " fill="#FAFAFA" style="stroke:#181818;stroke-width:0.5;"/><path d="M509.34,76.8 L509.34,86.8 L519.34,86.8 L509.34,76.8 " fill="#FAFAFA" style="stroke:#181818;stroke-width:1.0;"/><text fill="#000000" font-family="sans-serif" font-size="12" lengthAdjust="spacing" textLength="80" x="413.34" y="93.4016">Create/Read/</text><text fill="#000000" font-family="sans-serif" font-size="12" lengthAdjust="spacing" textLength="91" x="413.34" y="107.5344">Update/Delete/</text><text fill="#000000" font-family="sans-serif" font-size="12" lengthAdjust="spacing" textLength="44" x="413.34" y="121.6672">Restore</text></g><g id="elem_noteAdmAdmin"><path d="M409.34,648.87 L409.34,687.1356 L517.34,687.1356 L517.34,658.87 L507.34,648.87 L409.34,648.87 " fill="#FAFAFA" style="stroke:#181818;stroke-width:0.5;"/><path d="M507.34,648.87 L507.34,658.87 L517.34,658.87 L507.34,648.87 " fill="#FAFAFA" style="stroke:#181818;stroke-width:1.0;"/><text fill="#000000" font-family="sans-serif" font-size="12" lengthAdjust="spacing" textLength="80" x="415.34" y="665.4716">Create/Read/</text><text fill="#000000" font-family="sans-serif" font-size="12" lengthAdjust="spacing" textLength="87" x="415.34" y="679.6044">Delete/Restore</text></g><g id="elem_noteAdmReport"><path d="M391.34,552.94 L391.34,577.0728 L535.34,577.0728 L535.34,562.94 L525.34,552.94 L391.34,552.94 " fill="#FAFAFA" style="stroke:#181818;stroke-width:0.5;"/><path d="M525.34,552.94 L525.34,562.94 L535.34,562.94 L525.34,552.94 " fill="#FAFAFA" style="stroke:#181818;stroke-width:1.0;"/><text fill="#000000" font-family="sans-serif" font-size="12" lengthAdjust="spacing" textLength="123" x="397.34" y="569.5416">Read/Delete/Restore</text></g><!--entity ucAdmEvent--><g id="elem_ucAdmEvent"><ellipse cx="236.67" cy="787.44" fill="#F1F1F1" rx="8" ry="8" style="stroke:#181818;stroke-width:0.5;"/><path d="M236.67,795.44 L236.67,822.44 M223.67,803.44 L249.67,803.44 M236.67,822.44 L223.67,837.44 M236.67,822.44 L249.67,837.44 " fill="none" style="stroke:#181818;stroke-width:0.5;"/><text fill="#000000" font-family="sans-serif" font-size="12" lengthAdjust="spacing" textLength="71" x="201.17" y="850.5416">ucAdmEvent</text></g><!--entity admin--><g id="elem_admin"><ellipse cx="43" cy="363.44" fill="#F1F1F1" rx="8" ry="8" style="stroke:#181818;stroke-width:0.5;"/><path d="M43,371.44 L43,398.44 M30,379.44 L56,379.44 M43,398.44 L30,413.44 M43,398.44 L56,413.44 " fill="none" style="stroke:#181818;stroke-width:0.5;"/><text fill="#000000" font-family="sans-serif" font-size="12" lengthAdjust="spacing" textLength="74" x="6" y="426.5416">Super Admin</text></g><!--entity cl--><g id="elem_cl"><ellipse cx="1086.38" cy="893.44" fill="#F1F1F1" rx="8" ry="8" style="stroke:#181818;stroke-width:0.5;"/><path d="M1086.38,901.44 L1086.38,928.44 M1073.38,909.44 L1099.38,909.44 M1086.38,928.44 L1073.38,943.44 M1086.38,928.44 L1099.38,943.44 " fill="none" style="stroke:#181818;stroke-width:0.5;"/><text fill="#000000" font-family="sans-serif" font-size="12" lengthAdjust="spacing" textLength="61" x="1055.88" y="956.5416">Cloudinary</text></g><!--link admin to ucAdmUser--><g id="link_admin_ucAdmUser"><path d="M80.05,383.16 C106.84,376.6 138.1625,368.9085 169.4525,361.2385 " fill="none" id="admin-to-ucAdmUser" style="stroke:#181818;stroke-width:1.0;"/><polygon fill="#181818" points="175.28,359.81,165.5865,358.0677,170.4238,361.0004,167.4911,365.8377,175.28,359.81" style="stroke:#181818;stroke-width:1.0;"/></g><!--link ucAdmUser to noteAdmUser--><g id="link_ucAdmUser_noteAdmUser"><path d="M315.3,354.68 C339.91,357.75 366.97,361.12 391.11,364.13 " fill="none" id="ucAdmUser-noteAdmUser" style="stroke:#181818;stroke-width:1.0;stroke-dasharray:7.0,7.0;"/></g><!--link admin to ucAdmRecipe--><g id="link_admin_ucAdmRecipe"><path d="M80.05,397.46 C102.06,400.79 125.1476,404.282 152.1676,408.372 " fill="none" id="admin-to-ucAdmRecipe" style="stroke:#181818;stroke-width:1.0;"/><polygon fill="#181818" points="158.1,409.27,149.8,403.9681,153.1563,408.5217,148.6027,411.878,158.1,409.27" style="stroke:#181818;stroke-width:1.0;"/></g><!--link ucAdmRecipe to noteAdmRecipe--><g id="link_ucAdmRecipe_noteAdmRecipe"><path d="M305.99,435.6 C337.23,442.28 373.87,450.1 403.82,456.5 " fill="none" id="ucAdmRecipe-noteAdmRecipe" style="stroke:#181818;stroke-width:1.0;stroke-dasharray:7.0,7.0;"/></g><!--link admin to ucAdmReport--><g id="link_admin_ucAdmReport"><path d="M64.1,429.52 C86.31,470.99 119,532 119,532 C119,532 146.2396,541.1077 177.1096,551.4277 " fill="none" id="admin-to-ucAdmReport" style="stroke:#181818;stroke-width:1.0;"/><polygon fill="#181818" points="182.8,553.33,175.5326,546.6829,178.058,551.7447,172.9961,554.2701,182.8,553.33" style="stroke:#181818;stroke-width:1.0;"/></g><!--link ucAdmReport to noteAdmReport--><g id="link_ucAdmReport_noteAdmReport"><path d="M330.02,568.54 C350.35,567.99 371.59,567.43 390.95,566.91 " fill="none" id="ucAdmReport-noteAdmReport" style="stroke:#181818;stroke-width:1.0;stroke-dasharray:7.0,7.0;"/></g><!--link admin to ucAdmTags--><g id="link_admin_ucAdmTags"><path d="M53.5,354.52 C73.68,274.87 119,96 119,96 C119,96 148.1708,86.7541 179.7908,76.7241 " fill="none" id="admin-to-ucAdmTags" style="stroke:#181818;stroke-width:1.0;"/><polygon fill="#181818" points="185.51,74.91,175.7218,73.8184,180.744,76.4218,178.1407,81.444,185.51,74.91" style="stroke:#181818;stroke-width:1.0;"/></g><!--link ucAdmTags to noteAdmTag--><g id="link_ucAdmTags_noteAdmTag"><path d="M302.65,71.73 C335.7,78.2 375.44,85.98 407,92.17 " fill="none" id="ucAdmTags-noteAdmTag" style="stroke:#181818;stroke-width:1.0;stroke-dasharray:7.0,7.0;"/></g><!--link admin to ucViewStatistic--><g id="link_admin_ucViewStatistic"><path d="M80.18,424.81 C99.36,442.2 119,460 119,460 C119,460 149.1665,469.3117 181.1365,479.1717 " fill="none" id="admin-to-ucViewStatistic" style="stroke:#181818;stroke-width:1.0;"/><polygon fill="#181818" points="186.87,480.94,179.4486,474.4652,182.0921,479.4664,177.0909,482.1099,186.87,480.94" style="stroke:#181818;stroke-width:1.0;"/></g><!--link admin to ucViewActivityLog--><g id="link_admin_ucViewActivityLog"><path d="M53.5,429.37 C73.68,508.75 119,687 119,687 C119,687 147.9208,696.1761 179.4508,706.1761 " fill="none" id="admin-to-ucViewActivityLog" style="stroke:#181818;stroke-width:1.0;"/><polygon fill="#181818" points="185.17,707.99,177.8004,701.4563,180.404,706.4784,175.3819,709.082,185.17,707.99" style="stroke:#181818;stroke-width:1.0;"/></g><!--link admin to ucManageProfile--><g id="link_admin_ucManageProfile"><path d="M56.55,354.68 C77.9,291.2 119,169 119,169 C119,169 148.1569,160.0096 179.7769,150.2496 " fill="none" id="admin-to-ucManageProfile" style="stroke:#181818;stroke-width:1.0;"/><polygon fill="#181818" points="185.51,148.48,175.7306,147.3123,180.7324,149.9547,178.0901,154.9565,185.51,148.48" style="stroke:#181818;stroke-width:1.0;"/></g><!--link admin to ucManageSetting--><g id="link_admin_ucManageSetting"><path d="M77.11,354.47 C97.21,331.7 119,307 119,307 C119,307 147.4306,297.9834 178.7806,288.0434 " fill="none" id="admin-to-ucManageSetting" style="stroke:#181818;stroke-width:1.0;"/><polygon fill="#181818" points="184.5,286.23,174.712,285.1372,179.7338,287.7412,177.1299,292.7631,184.5,286.23" style="stroke:#181818;stroke-width:1.0;"/></g><!--link admin to ucLogout--><g id="link_admin_ucLogout"><path d="M61.58,354.73 C83.75,307.73 119,233 119,233 C119,233 156.2638,222.7874 190.0538,213.5174 " fill="none" id="admin-to-ucLogout" style="stroke:#181818;stroke-width:1.0;"/><polygon fill="#181818" points="195.84,211.93,186.1024,210.4536,191.0182,213.2528,188.219,218.1686,195.84,211.93" style="stroke:#181818;stroke-width:1.0;"/></g><!--link admin to ucAdmAdmin--><g id="link_admin_ucAdmAdmin"><path d="M56.89,429.48 C78.34,491.81 119,610 119,610 C119,610 145.4952,618.6313 176.0652,628.5913 " fill="none" id="admin-to-ucAdmAdmin" style="stroke:#181818;stroke-width:1.0;"/><polygon fill="#181818" points="181.77,630.45,174.4519,623.8587,177.016,628.9011,171.9736,631.4652,181.77,630.45" style="stroke:#181818;stroke-width:1.0;"/></g><!--link ucAdmAdmin to noteAdmAdmin--><g id="link_ucAdmAdmin_noteAdmAdmin"><path d="M324.53,655.74 C353.05,658.28 383.89,661.02 409.15,663.27 " fill="none" id="ucAdmAdmin-noteAdmAdmin" style="stroke:#181818;stroke-width:1.0;stroke-dasharray:7.0,7.0;"/></g><!--link ucLogout to ucLogin--><g id="link_ucLogout_ucLogin"><path d="M282.59,210.6 C348.16,224.61 462.34,249 462.34,249 C462.34,249 462.34,249 713.34,249 C713.34,249 783.4438,326.4714 813.5638,359.7514 " fill="none" id="ucLogout-to-ucLogin" style="stroke:#181818;stroke-width:1.0;stroke-dasharray:7.0,7.0;"/><polygon fill="#181818" points="817.59,364.2,814.5165,354.843,814.2349,360.4928,808.585,360.2112,817.59,364.2" style="stroke:#181818;stroke-width:1.0;"/><text fill="#000000" font-family="sans-serif" font-size="12" lengthAdjust="spacing" textLength="53" x="597.34" y="245.6016">&#171;include&#187;</text></g><!--link ucViewStatistic to ucLogin--><g id="link_ucViewStatistic_ucLogin"><path d="M312.17,502.97 C377.57,509.08 462.34,517 462.34,517 C462.34,517 462.34,517 713.34,517 C713.34,517 785.0712,431.5945 814.6012,396.4345 " fill="none" id="ucViewStatistic-to-ucLogin" style="stroke:#181818;stroke-width:1.0;stroke-dasharray:7.0,7.0;"/><polygon fill="#181818" points="818.46,391.84,809.6088,396.1592,815.2443,395.6688,815.7348,401.3043,818.46,391.84" style="stroke:#181818;stroke-width:1.0;"/><text fill="#000000" font-family="sans-serif" font-size="12" lengthAdjust="spacing" textLength="53" x="597.34" y="513.6016">&#171;include&#187;</text></g><!--link ucAdmUser to ucLogin--><g id="link_ucAdmUser_ucLogin"><path d="M325.27,343.86 C359.78,343.41 391.34,343 391.34,343 C391.34,343 535.34,343 535.34,343 C535.34,343 689.1819,361.2723 773.4519,371.2823 " fill="none" id="ucAdmUser-to-ucLogin" style="stroke:#181818;stroke-width:1.0;stroke-dasharray:7.0,7.0;"/><polygon fill="#181818" points="779.41,371.99,770.9447,366.9563,774.4449,371.4002,770.001,374.9005,779.41,371.99" style="stroke:#181818;stroke-width:1.0;"/><text fill="#000000" font-family="sans-serif" font-size="12" lengthAdjust="spacing" textLength="53" x="597.34" y="346.9116">&#171;include&#187;</text></g><!--link ucAdmRecipe to ucLogin--><g id="link_ucAdmRecipe_ucLogin"><path d="M330.67,421 C392.48,421 462.34,421 462.34,421 C462.34,421 462.34,421 713.34,421 C713.34,421 758.2794,404.4428 792.8594,391.7128 " fill="none" id="ucAdmRecipe-to-ucLogin" style="stroke:#181818;stroke-width:1.0;stroke-dasharray:7.0,7.0;"/><polygon fill="#181818" points="798.49,389.64,788.6623,388.9955,793.7978,391.3673,791.426,396.5029,798.49,389.64" style="stroke:#181818;stroke-width:1.0;"/><text fill="#000000" font-family="sans-serif" font-size="12" lengthAdjust="spacing" textLength="53" x="597.34" y="417.6016">&#171;include&#187;</text></g><!--link ucAdmTags to ucLogin--><g id="link_ucAdmTags_ucLogin"><path d="M322.57,59 C410.55,59 535.34,59 535.34,59 C535.34,59 713.34,231 713.34,231 C713.34,231 744.34,264 744.34,264 C744.34,264 793.5829,329.4853 816.3029,359.6853 " fill="none" id="ucAdmTags-to-ucLogin" style="stroke:#181818;stroke-width:1.0;stroke-dasharray:7.0,7.0;"/><polygon fill="#181818" points="819.91,364.48,817.6958,354.8833,816.9041,360.4844,811.3029,359.6927,819.91,364.48" style="stroke:#181818;stroke-width:1.0;"/><text fill="#000000" font-family="sans-serif" font-size="12" lengthAdjust="spacing" textLength="53" x="597.34" y="114.6916">&#171;include&#187;</text></g><!--link ucManageProfile to ucLogin--><g id="link_ucManageProfile_ucLogin"><path d="M297.82,146.38 C412.55,171.9 651.34,225 651.34,225 C651.34,225 713.34,240 713.34,240 C713.34,240 744.34,274 744.34,274 C744.34,274 791.8133,331.5904 815.0533,359.7804 " fill="none" id="ucManageProfile-to-ucLogin" style="stroke:#181818;stroke-width:1.0;stroke-dasharray:7.0,7.0;"/><polygon fill="#181818" points="818.87,364.41,816.2314,354.9212,815.6894,360.552,810.0586,360.0101,818.87,364.41" style="stroke:#181818;stroke-width:1.0;"/><text fill="#000000" font-family="sans-serif" font-size="12" lengthAdjust="spacing" textLength="53" x="597.34" y="209.4416">&#171;include&#187;</text></g><!--link ucViewActivityLog to ucLogin--><g id="link_ucViewActivityLog_ucLogin"><path d="M322.93,723.62 C386.48,723.34 462.34,723 462.34,723 C462.34,723 462.34,723 713.34,723 C713.34,723 801.5968,462.1834 823.4368,397.6434 " fill="none" id="ucViewActivityLog-to-ucLogin" style="stroke:#181818;stroke-width:1.0;stroke-dasharray:7.0,7.0;"/><polygon fill="#181818" points="825.36,391.96,818.6862,399.203,823.7573,396.6962,826.2641,401.7673,825.36,391.96" style="stroke:#181818;stroke-width:1.0;"/><text fill="#000000" font-family="sans-serif" font-size="12" lengthAdjust="spacing" textLength="53" x="597.34" y="719.6016">&#171;include&#187;</text></g><!--link ucAdmAdmin to ucLogin--><g id="link_ucAdmAdmin_ucLogin"><path d="M314.67,636.01 C379.71,625.88 462.34,613 462.34,613 C462.34,613 462.34,613 713.34,613 C713.34,613 795.3199,447.9631 820.4599,397.3731 " fill="none" id="ucAdmAdmin-to-ucLogin" style="stroke:#181818;stroke-width:1.0;stroke-dasharray:7.0,7.0;"/><polygon fill="#181818" points="823.13,392,815.5428,398.2796,820.9049,396.4776,822.7069,401.8398,823.13,392" style="stroke:#181818;stroke-width:1.0;"/><text fill="#000000" font-family="sans-serif" font-size="12" lengthAdjust="spacing" textLength="53" x="597.34" y="609.6016">&#171;include&#187;</text></g><!--reverse link ucLogin to ucForgotPassword--><g id="link_ucLogin_ucForgotPassword"><path d="M894.3,378 C927.53,378 964.24,378 1001.41,378 " fill="none" id="ucLogin-backto-ucForgotPassword" style="stroke:#181818;stroke-width:1.0;stroke-dasharray:7.0,7.0;"/><polygon fill="#181818" points="888.3,378,897.3,382,893.3,378,897.3,374,888.3,378" style="stroke:#181818;stroke-width:1.0;"/><text fill="#000000" font-family="sans-serif" font-size="12" lengthAdjust="spacing" textLength="52" x="918.83" y="374.6016">&#171;extend&#187;</text></g><!--reverse link ucManageProfile to cl--><g id="link_ucManageProfile_cl"><path d="M286.0722,151.8042 C310.3522,161.2442 330.34,169 330.34,169 C330.34,169 360.34,837 360.34,837 C360.34,837 462.34,882 462.34,882 C462.34,882 462.34,882 832.08,882 C832.08,882 989.01,906.79 1055.83,917.34 " fill="none" id="ucManageProfile-backto-cl" style="stroke:#181818;stroke-width:1.0;"/><polygon fill="#181818" points="280.48,149.63,287.4188,156.6195,285.1402,151.4419,290.3178,149.1632,280.48,149.63" style="stroke:#181818;stroke-width:1.0;"/></g><!--reverse link ucAdmEvent to cl--><g id="link_ucAdmEvent_cl"><path d="M277.2902,845.7198 C313.5602,872.9198 360.34,908 360.34,908 C360.34,908 462.34,953 462.34,953 C462.34,953 462.34,953 832.08,953 C832.08,953 989.01,933.8 1055.83,925.62 " fill="none" id="ucAdmEvent-backto-cl" style="stroke:#181818;stroke-width:1.0;"/><polygon fill="#181818" points="272.49,842.12,277.2904,850.7198,276.4901,845.1198,282.0901,844.3196,272.49,842.12" style="stroke:#181818;stroke-width:1.0;"/></g><!--reverse link ucAdmTags to cl--><g id="link_ucAdmTags_cl"><path d="M286.0526,78.324 C310.3326,88.014 330.34,96 330.34,96 C330.34,96 391.34,705 391.34,705 C391.34,705 462.34,811 462.34,811 C462.34,811 462.34,811 832.08,811 C832.08,811 989.01,879.77 1055.83,909.05 " fill="none" id="ucAdmTags-backto-cl" style="stroke:#181818;stroke-width:1.0;"/><polygon fill="#181818" points="280.48,76.1,287.3562,83.1511,285.1238,77.9533,290.3216,75.7209,280.48,76.1" style="stroke:#181818;stroke-width:1.0;"/></g><!--SRC=[ZPLTRvim58Rl-HL7kPtI9jbN5qMHgcoL9crIrJIxweq79zIQiP5jscNJ_liE1eF1pGON4NxF-nYVZu3vmMN9D2l0s9D0-jKyjLKX4jD52YLL-gXLWM1rXK54S8dsL2AKIfpgHH3ByCWgOM-Kj7l-2s6vIWGUBLW5ckUF5ZAkCRLSoOIbLccOxQiIDLnd1PSpO0POVUU3Ew6gZ4kcJowMYYIfSIPpElLdcMlCE4ex_yuCPfl3gyLYjTWUbUhkoQsA0cN6wcTwbPMbuAcJu7S2T5K6Kze3PeVTVBM6BoflZrEbxZuolLd3ZTAvib0oOvwLpbfxezwsOiHTkSrLPVlTQH7PbiirV6MIvLHbhOvSOEjlnDj6Yx55XncqbilS3BXz8oPnpfIFwm4tbjf18Ur9aW-qZ96t0yIoF23kQHKJxmO4zOQN641tJeYnzslunl6PnfHQPYnFFLEhUo_6tDNeSQNITl2uMeYn3mFCpMD0kL04lLwqPwJ1vK_Sda2eF3ZbTIjJkvlYIsM9l4EMNNv4WHOlxz3Gp3TzhgDXtIUvW_8r_fr6vgo4FSX3cTMhbd-GB-n0NJkBdtzkNv69ntHbTu0hBipdsz6SkV9w1IukeeACm23r3csq00vC4TvDGe3NsW3lJ2Ey6_OEhfK0zNKDkNXsnz5mPiRn-3KGH_sVVHmDNZcZHFfETfauAKYbiJJpt-v4KRgs_bK9QzXik4n5bU5sspe7sKu1-jvFiNQzdc9kc_DVww36KvCCcZRnEBx2__3svQRGXfen_imuF_wqzA7pzbHGNwjoVcvU-hZl_gSd-fI-mFe9_vFy1G00]--></g></svg>