<?xml version="1.0" encoding="us-ascii" standalone="no"?><svg xmlns="http://www.w3.org/2000/svg" xmlns:xlink="http://www.w3.org/1999/xlink" contentStyleType="text/css" height="346px" preserveAspectRatio="none" style="width:950px;height:346px;background:#FFFFFF;" version="1.1" viewBox="0 0 950 346" width="950px" zoomAndPan="magnify"><defs/><g><!--cluster Ingredient-based<U+0020>food<U+0020>recommendation<U+0020>application--><g id="cluster_Ingredient-based&lt;U+0020&gt;food&lt;U+0020&gt;recommendation&lt;U+0020&gt;application"><rect fill="none" height="278" style="stroke:#181818;stroke-width:1.0;" width="777.13" x="86" y="7"/><text fill="#000000" font-family="sans-serif" font-size="12" font-weight="bold" lengthAdjust="spacing" textLength="324" x="312.565" y="20.6016">Ingredient-based food recommendation application</text></g><g id="elem_ucViewWelcome"><ellipse cx="198.9008" cy="158.0002" fill="#F1F1F1" rx="96.9008" ry="21.7802" style="stroke:#181818;stroke-width:0.5;"/><text fill="#000000" font-family="sans-serif" font-size="12" lengthAdjust="spacing" textLength="162" x="117.9008" y="160.5353">UC-1: View welcome screen</text></g><g id="elem_ucLogin"><ellipse cx="437.3157" cy="189.9991" fill="#F1F1F1" rx="56.7457" ry="13.7491" style="stroke:#181818;stroke-width:0.5;"/><text fill="#000000" font-family="sans-serif" font-size="12" lengthAdjust="spacing" textLength="69" x="402.8157" y="192.5343">UC-2: Login</text></g><g id="elem_ucRegister"><ellipse cx="437.3199" cy="254.002" fill="#F1F1F1" rx="63.4099" ry="15.082" style="stroke:#181818;stroke-width:0.5;"/><text fill="#000000" font-family="sans-serif" font-size="12" lengthAdjust="spacing" textLength="86" x="394.3199" y="256.5371">UC-3: Register</text></g><g id="elem_ucForgotPassword"><ellipse cx="739.4912" cy="182.0002" fill="#F1F1F1" rx="84.5512" ry="19.3102" style="stroke:#181818;stroke-width:0.5;"/><text fill="#000000" font-family="sans-serif" font-size="12" lengthAdjust="spacing" textLength="135" x="671.9912" y="184.5354">UC-4: Forgot password</text></g><g id="elem_ucSearch"><ellipse cx="437.3208" cy="127.0042" fill="#F1F1F1" rx="59.8208" ry="14.3642" style="stroke:#181818;stroke-width:0.5;"/><text fill="#000000" font-family="sans-serif" font-size="12" lengthAdjust="spacing" textLength="77" x="398.8208" y="129.5393">UC-5: Search</text></g><g id="elem_ucBrowseRecipes"><ellipse cx="437.32" cy="59.004" fill="#F1F1F1" rx="80.52" ry="18.504" style="stroke:#181818;stroke-width:0.5;"/><text fill="#000000" font-family="sans-serif" font-size="12" lengthAdjust="spacing" textLength="126" x="374.32" y="61.5392">UC-6: Browse recipes</text></g><g id="elem_ucViewUSProfile"><ellipse cx="739.4851" cy="103.999" fill="#F1F1F1" rx="107.6451" ry="23.929" style="stroke:#181818;stroke-width:0.5;"/><text fill="#000000" font-family="sans-serif" font-size="12" lengthAdjust="spacing" textLength="185" x="646.9851" y="106.5342">UC-7: View other users' profiles</text></g><!--entity guest--><g id="elem_guest"><ellipse cx="22.5" cy="129.44" fill="#F1F1F1" rx="8" ry="8" style="stroke:#181818;stroke-width:0.5;"/><path d="M22.5,137.44 L22.5,164.44 M9.5,145.44 L35.5,145.44 M22.5,164.44 L9.5,179.44 M22.5,164.44 L35.5,179.44 " fill="none" style="stroke:#181818;stroke-width:0.5;"/><text fill="#000000" font-family="sans-serif" font-size="12" lengthAdjust="spacing" textLength="33" x="6" y="192.5416">Guest</text></g><!--entity gmail--><g id="elem_gmail"><ellipse cx="926.63" cy="143.44" fill="#F1F1F1" rx="8" ry="8" style="stroke:#181818;stroke-width:0.5;"/><path d="M926.63,151.44 L926.63,178.44 M913.63,159.44 L939.63,159.44 M926.63,178.44 L913.63,193.44 M926.63,178.44 L939.63,193.44 " fill="none" style="stroke:#181818;stroke-width:0.5;"/><text fill="#000000" font-family="sans-serif" font-size="12" lengthAdjust="spacing" textLength="33" x="910.13" y="206.5416">Gmail</text></g><!--entity twilio--><g id="elem_twilio"><ellipse cx="926.63" cy="274.44" fill="#F1F1F1" rx="8" ry="8" style="stroke:#181818;stroke-width:0.5;"/><path d="M926.63,282.44 L926.63,309.44 M913.63,290.44 L939.63,290.44 M926.63,309.44 L913.63,324.44 M926.63,309.44 L939.63,324.44 " fill="none" style="stroke:#181818;stroke-width:0.5;"/><text fill="#000000" font-family="sans-serif" font-size="12" lengthAdjust="spacing" textLength="33" x="910.13" y="337.5416">Twilio</text></g><!--link guest to ucViewWelcome--><g id="link_guest_ucViewWelcome"><path d="M39.28,158 C54.04,158 71.4,158 95.69,158 " fill="none" id="guest-to-ucViewWelcome" style="stroke:#181818;stroke-width:1.0;"/><polygon fill="#181818" points="101.69,158,92.69,154,96.69,158,92.69,162,101.69,158" style="stroke:#181818;stroke-width:1.0;"/></g><!--link ucViewWelcome to ucLogin--><g id="link_ucViewWelcome_ucLogin"><path d="M282.92,169.24 C317.65,173.94 350.8844,178.4336 380.9644,182.5136 " fill="none" id="ucViewWelcome-to-ucLogin" style="stroke:#181818;stroke-width:1.0;"/><polygon fill="#181818" points="386.91,183.32,378.5293,178.1466,381.9554,182.648,377.454,186.074,386.91,183.32" style="stroke:#181818;stroke-width:1.0;"/></g><!--reverse link ucLogin to ucForgotPassword--><g id="link_ucLogin_ucForgotPassword"><path d="M500.0779,188.3597 C545.3379,187.1497 603.87,185.59 655.25,184.22 " fill="none" id="ucLogin-backto-ucForgotPassword" style="stroke:#181818;stroke-width:1.0;stroke-dasharray:7.0,7.0;"/><polygon fill="#181818" points="494.08,188.52,503.1837,192.278,499.0782,188.3864,502.9699,184.2809,494.08,188.52" style="stroke:#181818;stroke-width:1.0;"/><text fill="#000000" font-family="sans-serif" font-size="12" lengthAdjust="spacing" textLength="52" x="548.84" y="182.3616">&#171;extend&#187;</text></g><!--link ucViewWelcome to ucRegister--><g id="link_ucViewWelcome_ucRegister"><path d="M247.46,177.32 C293.98,196.2 358.0008,222.2028 398.4408,238.6228 " fill="none" id="ucViewWelcome-to-ucRegister" style="stroke:#181818;stroke-width:1.0;"/><polygon fill="#181818" points="404,240.88,397.166,233.788,399.3673,238.999,394.1564,241.2003,404,240.88" style="stroke:#181818;stroke-width:1.0;"/></g><!--link ucViewWelcome to ucSearch--><g id="link_ucViewWelcome_ucSearch"><path d="M283.59,147.03 C317.06,142.64 348.6308,138.499 378.1108,134.639 " fill="none" id="ucViewWelcome-to-ucSearch" style="stroke:#181818;stroke-width:1.0;"/><polygon fill="#181818" points="384.06,133.86,374.6169,131.0623,379.1023,134.5091,375.6555,138.9946,384.06,133.86" style="stroke:#181818;stroke-width:1.0;"/></g><!--link ucViewWelcome to ucBrowseRecipes--><g id="link_ucViewWelcome_ucBrowseRecipes"><path d="M246.33,138.56 C290.3,120.15 350.0653,95.1167 391.5153,77.7667 " fill="none" id="ucViewWelcome-to-ucBrowseRecipes" style="stroke:#181818;stroke-width:1.0;"/><polygon fill="#181818" points="397.05,75.45,387.2035,75.2352,392.4377,77.3806,390.2924,82.6148,397.05,75.45" style="stroke:#181818;stroke-width:1.0;"/></g><!--reverse link ucBrowseRecipes to ucViewUSProfile--><g id="link_ucBrowseRecipes_ucViewUSProfile"><path d="M511.6137,69.9897 C553.9637,76.3397 603.16,83.72 649.14,90.61 " fill="none" id="ucBrowseRecipes-backto-ucViewUSProfile" style="stroke:#181818;stroke-width:1.0;stroke-dasharray:7.0,7.0;"/><polygon fill="#181818" points="505.68,69.1,513.9874,74.3903,510.6247,69.8414,515.1736,66.4788,505.68,69.1" style="stroke:#181818;stroke-width:1.0;"/><text fill="#000000" font-family="sans-serif" font-size="12" lengthAdjust="spacing" textLength="52" x="548.84" y="72.7516">&#171;extend&#187;</text></g><!--reverse link ucLogin to gmail--><g id="link_ucLogin_gmail"><path d="M473.971,176.1027 C496.491,167.3327 517.84,159 517.84,159 C517.84,159 547.84,52 547.84,52 C547.84,52 601.84,52 601.84,52 C601.84,52 871.13,63 871.13,63 C871.13,63 893.64,108.01 909.72,140.18 " fill="none" id="ucLogin-backto-gmail" style="stroke:#181818;stroke-width:1.0;"/><polygon fill="#181818" points="468.38,178.28,478.218,178.7414,473.0392,176.4656,475.315,171.2867,468.38,178.28" style="stroke:#181818;stroke-width:1.0;"/></g><!--reverse link ucForgotPassword to twilio--><g id="link_ucForgotPassword_twilio"><path d="M773.6326,203.6622 C813.0826,229.4422 878.52,272.21 909.85,292.69 " fill="none" id="ucForgotPassword-backto-twilio" style="stroke:#181818;stroke-width:1.0;"/><polygon fill="#181818" points="768.61,200.38,773.9558,208.6518,772.7955,203.1152,778.3321,201.9549,768.61,200.38" style="stroke:#181818;stroke-width:1.0;"/></g><!--reverse link ucForgotPassword to gmail--><g id="link_ucForgotPassword_gmail"><path d="M828.2213,177.2663 C861.3513,175.4763 890.37,173.91 909.96,172.85 " fill="none" id="ucForgotPassword-backto-gmail" style="stroke:#181818;stroke-width:1.0;"/><polygon fill="#181818" points="822.23,177.59,831.4327,181.0986,827.2227,177.3202,831.0011,173.1103,822.23,177.59" style="stroke:#181818;stroke-width:1.0;"/></g><!--reverse link ucRegister to twilio--><g id="link_ucRegister_twilio"><path d="M489.3379,266.1155 C519.5079,273.2755 547.84,280 547.84,280 C547.84,280 838.38,297.69 909.88,302.04 " fill="none" id="ucRegister-backto-twilio" style="stroke:#181818;stroke-width:1.0;"/><polygon fill="#181818" points="483.5,264.73,491.3331,270.7001,488.3649,265.8845,493.1804,262.9163,483.5,264.73" style="stroke:#181818;stroke-width:1.0;"/></g><!--reverse link ucRegister to gmail--><g id="link_ucRegister_gmail"><path d="M504.0305,248.6864 C622.7605,239.0864 871.13,219 871.13,219 C871.13,219 893.77,199.48 909.87,185.6 " fill="none" id="ucRegister-backto-gmail" style="stroke:#181818;stroke-width:1.0;"/><polygon fill="#181818" points="498.05,249.17,507.3431,252.4317,503.0337,248.767,506.6984,244.4577,498.05,249.17" style="stroke:#181818;stroke-width:1.0;"/></g><!--SRC=[TL9DRzim3BthLn2vz52uIDDz04QGmmPqAD13qIpRMPCPHwWi2X8DBnlstoTRjcV7cGy6-TuZGJugl6dhf9SL13uRZ7-l5TUL4M5aAhAaJfug1FOrJXYZBVBP8JWovpQPS0KUPMtuaIplzI-4-uqmU6HW0g_B4qEXFIhMP8LKJ1vMNseCl08Pe6oZ4QwaDWbkem7-scYZQHLXxY8XsdRIbd6B9rjwB3HQpdx8WCNsSBjURzQx8z4OHpLL5Tf2jZCCg7JEQDL1y5j0_Eg0AlQ0rU5pTf_3DuqDD6XKQqTG7j5sizMgPRudOb6uoU6PIZr8ktWXUiZX5KiT67sl6zA5z5qEZ-HBOd0oX8PyqLSazAK75tNlSzYZzEhKorEoa7t8uPEd9cRH9UqmzF84lYPiKVMnTuVuXBvbVBW1v-cepTYX5HpsBmaKVuJeJWrPjhlcu1JfDV-iIuekX-tTtM9vo66xnPySJxpR_RVVtE8hWgb5L-Yb9Kavm_lvPilFnnFTsuQiTfCjqyCUmOlRpYiko8lISSjvqG3_1G00]--></g></svg>