<?xml version="1.0" encoding="us-ascii" standalone="no"?><svg xmlns="http://www.w3.org/2000/svg" xmlns:xlink="http://www.w3.org/1999/xlink" contentStyleType="text/css" height="528px" preserveAspectRatio="none" style="width:779px;height:528px;background:#FFFFFF;" version="1.1" viewBox="0 0 779 528" width="779px" zoomAndPan="magnify"><defs/><g><text fill="#000000" font-family="sans-serif" font-size="14" font-weight="bold" lengthAdjust="spacing" textLength="81" x="350.75" y="29.5332">Vote recipe</text><rect fill="#FFFFFF" height="258.9063" style="stroke:#181818;stroke-width:1.0;" width="10" x="265.5" y="169.9219"/><rect fill="#FFFFFF" height="198.2031" style="stroke:#181818;stroke-width:1.0;" width="10" x="417.5" y="200.2734"/><rect fill="#FFFFFF" height="91.0547" style="stroke:#181818;stroke-width:1.0;" width="10" x="570.5" y="277.0703"/><rect fill="#FFFFFF" height="30.3516" style="stroke:#181818;stroke-width:1.0;" width="10" x="739.5" y="307.4219"/><line style="stroke:#181818;stroke-width:0.5;stroke-dasharray:5.0,5.0;" x1="22" x2="22" y1="121.2188" y2="446.8281"/><line style="stroke:#181818;stroke-width:0.5;stroke-dasharray:5.0,5.0;" x1="270" x2="270" y1="121.2188" y2="446.8281"/><line style="stroke:#181818;stroke-width:0.5;stroke-dasharray:5.0,5.0;" x1="422.5" x2="422.5" y1="121.2188" y2="446.8281"/><line style="stroke:#181818;stroke-width:0.5;stroke-dasharray:5.0,5.0;" x1="575" x2="575" y1="121.2188" y2="446.8281"/><line style="stroke:#181818;stroke-width:0.5;stroke-dasharray:5.0,5.0;" x1="744.5" x2="744.5" y1="121.2188" y2="446.8281"/><text fill="#000000" font-family="sans-serif" font-size="14" lengthAdjust="spacing" textLength="29" x="5" y="118.1426">User</text><ellipse cx="22.5" cy="52.1094" fill="#E2E2F0" rx="8" ry="8" style="stroke:#181818;stroke-width:0.5;"/><path d="M22.5,60.1094 L22.5,87.1094 M9.5,68.1094 L35.5,68.1094 M22.5,87.1094 L9.5,102.1094 M22.5,87.1094 L35.5,102.1094 " fill="none" style="stroke:#181818;stroke-width:0.5;"/><text fill="#000000" font-family="sans-serif" font-size="14" lengthAdjust="spacing" textLength="29" x="5" y="460.3613">User</text><ellipse cx="22.5" cy="471.9375" fill="#E2E2F0" rx="8" ry="8" style="stroke:#181818;stroke-width:0.5;"/><path d="M22.5,479.9375 L22.5,506.9375 M9.5,487.9375 L35.5,487.9375 M22.5,506.9375 L9.5,521.9375 M22.5,506.9375 L35.5,521.9375 " fill="none" style="stroke:#181818;stroke-width:0.5;"/><text fill="#000000" font-family="sans-serif" font-size="14" lengthAdjust="spacing" textLength="53" x="241" y="118.1426">MobileUI</text><path d="M250,75.6094 L250,99.6094 M250,87.6094 L267,87.6094 " fill="none" style="stroke:#181818;stroke-width:0.5;"/><ellipse cx="279" cy="87.6094" fill="#E2E2F0" rx="12" ry="12" style="stroke:#181818;stroke-width:0.5;"/><text fill="#000000" font-family="sans-serif" font-size="14" lengthAdjust="spacing" textLength="53" x="241" y="460.3613">MobileUI</text><path d="M250,467.4375 L250,491.4375 M250,479.4375 L267,479.4375 " fill="none" style="stroke:#181818;stroke-width:0.5;"/><ellipse cx="279" cy="479.4375" fill="#E2E2F0" rx="12" ry="12" style="stroke:#181818;stroke-width:0.5;"/><rect fill="#E2E2F0" height="49.2188" rx="2.5" ry="2.5" style="stroke:#181818;stroke-width:0.5;" width="94" x="375.5" y="71"/><text fill="#000000" font-family="sans-serif" font-size="14" lengthAdjust="spacing" textLength="80" x="382.5" y="92.5332">&#171;cordinator&#187;</text><text fill="#000000" font-family="sans-serif" font-size="14" lengthAdjust="spacing" textLength="75" x="385" y="110.1426">ApiGateway</text><rect fill="#E2E2F0" height="49.2188" rx="2.5" ry="2.5" style="stroke:#181818;stroke-width:0.5;" width="94" x="375.5" y="445.8281"/><text fill="#000000" font-family="sans-serif" font-size="14" lengthAdjust="spacing" textLength="80" x="382.5" y="467.3613">&#171;cordinator&#187;</text><text fill="#000000" font-family="sans-serif" font-size="14" lengthAdjust="spacing" textLength="75" x="385" y="484.9707">ApiGateway</text><rect fill="#E2E2F0" height="49.2188" rx="2.5" ry="2.5" style="stroke:#181818;stroke-width:0.5;" width="109" x="521" y="71"/><text fill="#000000" font-family="sans-serif" font-size="14" lengthAdjust="spacing" textLength="61" x="545" y="92.5332">&#171;service&#187;</text><text fill="#000000" font-family="sans-serif" font-size="14" lengthAdjust="spacing" textLength="91" x="532" y="110.1426">RecipeService</text><rect fill="#E2E2F0" height="49.2188" rx="2.5" ry="2.5" style="stroke:#181818;stroke-width:0.5;" width="109" x="521" y="445.8281"/><text fill="#000000" font-family="sans-serif" font-size="14" lengthAdjust="spacing" textLength="61" x="545" y="467.3613">&#171;service&#187;</text><text fill="#000000" font-family="sans-serif" font-size="14" lengthAdjust="spacing" textLength="91" x="532" y="484.9707">RecipeService</text><text fill="#000000" font-family="sans-serif" font-size="14" lengthAdjust="spacing" textLength="62" x="710.5" y="118.1426">MongoDB</text><path d="M726.5,67.6094 C726.5,57.6094 744.5,57.6094 744.5,57.6094 C744.5,57.6094 762.5,57.6094 762.5,67.6094 L762.5,93.6094 C762.5,103.6094 744.5,103.6094 744.5,103.6094 C744.5,103.6094 726.5,103.6094 726.5,93.6094 L726.5,67.6094 " fill="#E2E2F0" style="stroke:#181818;stroke-width:1.5;"/><path d="M726.5,67.6094 C726.5,77.6094 744.5,77.6094 744.5,77.6094 C744.5,77.6094 762.5,77.6094 762.5,67.6094 " fill="none" style="stroke:#181818;stroke-width:1.5;"/><text fill="#000000" font-family="sans-serif" font-size="14" lengthAdjust="spacing" textLength="62" x="710.5" y="460.3613">MongoDB</text><path d="M726.5,473.4375 C726.5,463.4375 744.5,463.4375 744.5,463.4375 C744.5,463.4375 762.5,463.4375 762.5,473.4375 L762.5,499.4375 C762.5,509.4375 744.5,509.4375 744.5,509.4375 C744.5,509.4375 726.5,509.4375 726.5,499.4375 L726.5,473.4375 " fill="#E2E2F0" style="stroke:#181818;stroke-width:1.5;"/><path d="M726.5,473.4375 C726.5,483.4375 744.5,483.4375 744.5,483.4375 C744.5,483.4375 762.5,483.4375 762.5,473.4375 " fill="none" style="stroke:#181818;stroke-width:1.5;"/><rect fill="#FFFFFF" height="258.9063" style="stroke:#181818;stroke-width:1.0;" width="10" x="265.5" y="169.9219"/><rect fill="#FFFFFF" height="198.2031" style="stroke:#181818;stroke-width:1.0;" width="10" x="417.5" y="200.2734"/><rect fill="#FFFFFF" height="91.0547" style="stroke:#181818;stroke-width:1.0;" width="10" x="570.5" y="277.0703"/><rect fill="#FFFFFF" height="30.3516" style="stroke:#181818;stroke-width:1.0;" width="10" x="739.5" y="307.4219"/><polygon fill="#181818" points="253.5,165.9219,263.5,169.9219,253.5,173.9219,257.5,169.9219" style="stroke:#181818;stroke-width:1.0;"/><line style="stroke:#181818;stroke-width:1.0;" x1="22.5" x2="259.5" y1="169.9219" y2="169.9219"/><text fill="#000000" font-family="sans-serif" font-size="13" lengthAdjust="spacing" textLength="209" x="29.5" y="148.7139">1. Touch on upvote or downvote icon</text><text fill="#000000" font-family="sans-serif" font-size="13" lengthAdjust="spacing" textLength="220" x="33.5" y="165.0654">in a recipe feed or recipe detail screen</text><polygon fill="#181818" points="405.5,196.2734,415.5,200.2734,405.5,204.2734,409.5,200.2734" style="stroke:#181818;stroke-width:1.0;"/><line style="stroke:#181818;stroke-width:1.0;" x1="275.5" x2="411.5" y1="200.2734" y2="200.2734"/><text fill="#000000" font-family="sans-serif" font-size="13" lengthAdjust="spacing" textLength="81" x="282.5" y="195.417">2. Vote recipe</text><rect fill="#FFFFFF" height="41.4453" style="stroke:#000000;stroke-width:1.5;" width="126" x="372.5" y="208.2734"/><path d="M372.5,208.2734 L434.5,208.2734 L434.5,216.2734 L424.5,226.2734 L372.5,226.2734 L372.5,208.2734 " fill="#EEEEEE" style="stroke:#000000;stroke-width:2.0;"/><text fill="#000000" font-family="sans-serif" font-size="13" font-weight="bold" lengthAdjust="spacing" textLength="17" x="385.5" y="223.7686">ref</text><text fill="#000000" font-family="sans-serif" font-size="12" lengthAdjust="spacing" textLength="118" x="376.5" y="242.7305">3. Verify access token</text><polygon fill="#181818" points="558.5,273.0703,568.5,277.0703,558.5,281.0703,562.5,277.0703" style="stroke:#181818;stroke-width:1.0;"/><line style="stroke:#181818;stroke-width:1.0;" x1="427.5" x2="564.5" y1="277.0703" y2="277.0703"/><text fill="#000000" font-family="sans-serif" font-size="13" lengthAdjust="spacing" textLength="108" x="434.5" y="272.2139">4. Forward request</text><polygon fill="#181818" points="727.5,303.4219,737.5,307.4219,727.5,311.4219,731.5,307.4219" style="stroke:#181818;stroke-width:1.0;"/><line style="stroke:#181818;stroke-width:1.0;" x1="580.5" x2="733.5" y1="307.4219" y2="307.4219"/><text fill="#000000" font-family="sans-serif" font-size="13" lengthAdjust="spacing" textLength="140" x="587.5" y="302.5654">5. Query and insert data</text><polygon fill="#181818" points="591.5,333.7734,581.5,337.7734,591.5,341.7734,587.5,337.7734" style="stroke:#181818;stroke-width:1.0;"/><line style="stroke:#181818;stroke-width:1.0;stroke-dasharray:2.0,2.0;" x1="585.5" x2="743.5" y1="337.7734" y2="337.7734"/><text fill="#000000" font-family="sans-serif" font-size="13" lengthAdjust="spacing" textLength="110" x="597.5" y="332.917">6. Return response</text><polygon fill="#181818" points="438.5,364.125,428.5,368.125,438.5,372.125,434.5,368.125" style="stroke:#181818;stroke-width:1.0;"/><line style="stroke:#181818;stroke-width:1.0;stroke-dasharray:2.0,2.0;" x1="432.5" x2="574.5" y1="368.125" y2="368.125"/><text fill="#000000" font-family="sans-serif" font-size="13" lengthAdjust="spacing" textLength="119" x="444.5" y="363.2686">7. Return recipe vote</text><polygon fill="#181818" points="286.5,394.4766,276.5,398.4766,286.5,402.4766,282.5,398.4766" style="stroke:#181818;stroke-width:1.0;"/><line style="stroke:#181818;stroke-width:1.0;stroke-dasharray:2.0,2.0;" x1="280.5" x2="421.5" y1="398.4766" y2="398.4766"/><text fill="#000000" font-family="sans-serif" font-size="13" lengthAdjust="spacing" textLength="118" x="292.5" y="393.6201">8. Forward response</text><polygon fill="#181818" points="33.5,424.8281,23.5,428.8281,33.5,432.8281,29.5,428.8281" style="stroke:#181818;stroke-width:1.0;"/><line style="stroke:#181818;stroke-width:1.0;stroke-dasharray:2.0,2.0;" x1="27.5" x2="269.5" y1="428.8281" y2="428.8281"/><text fill="#000000" font-family="sans-serif" font-size="13" lengthAdjust="spacing" textLength="124" x="39.5" y="423.9717">9. Display recipe vote</text><!--SRC=[PL5DRy8m3BtdLrXSKJljUqCLqXWQsc67VR3JBYOr4D4bNPA2qBJ_FhkKbR9ROh_t_FmSJIm8Ukyk4dZIfgIUoaBS5ZHK086-AhAQnWON7Z_Xcsl0k3bvAJT_W17grSIxokRthd0UDaiJgUxzg1-LdJI22dNaxZIGLpD1ez_2avkPWgQFgaGV3Jj06w6NPThvt5Xamd3uOUzACy586zps00EqtsCQQw-D9k70IxtGwwvIypeLbMF46GPY3tRXnYEbn1eampzJ_Vu0JbDuSvLUWhDGbMj9YfV8tSRMRwEvpiEC1MmYX3bHBg3ccrD4Kq3GdiWgjHUNGUqYCkeiXODBACL9WrkpfHOsW7C6aJVpBQ3M5094jnBP5YF2dKr5-oA51-Stw7EMvxE6gFu7q67jWgWR8d2PmdD5V36qEM_BIKKGWIDIbYHxLf8Cu2fbAx7obgU6qZ6jurJG7RvmhWyuTO0IT1kRS5e98TmSxjPCgK-vCxFZ2V0sXR49PS6J3wH_0G00]--></g></svg>