<svg width="16" height="16" viewBox="0 0 16 16" fill="none" xmlns="http://www.w3.org/2000/svg">
<g id="Icon">
<path d="M15.9124 6.85264C15.8397 6.71698 15.7261 6.60252 15.5844 6.52242C15.4427 6.44232 15.2787 6.39984 15.1114 6.39985H11.5556V0.799981C11.5556 0.587813 11.462 0.384335 11.2953 0.234309C11.1286 0.0842835 10.9025 0 10.6667 0H5.33304C5.09728 0 4.87117 0.0842835 4.70446 0.234309C4.53775 0.384335 4.44409 0.587813 4.44409 0.799981V6.39985H0.88832C0.720962 6.40011 0.557076 6.44283 0.41548 6.52312C0.273884 6.60341 0.160318 6.718 0.0878213 6.85375C0.0153246 6.98949 -0.0131638 7.14088 0.00562729 7.29054C0.0244184 7.4402 0.0897272 7.58205 0.194055 7.69982L7.3056 15.6996C7.38888 15.7934 7.49452 15.869 7.6147 15.921C7.73488 15.973 7.86652 16 7.99987 16C8.13322 16 8.26486 15.973 8.38503 15.921C8.50521 15.869 8.61086 15.7934 8.69413 15.6996L15.8057 7.69982C16.019 7.45903 16.0599 7.13023 15.9124 6.85264ZM7.99987 13.9189L2.73821 7.99981H6.22198V1.59996H9.77776V7.99981H13.2615L7.99987 13.9189Z" fill="currentColor"/>
<path d="M7.99987 13.9189L2.73821 7.99981H6.22198V1.59996H9.77776V7.99981H13.2615L7.99987 13.9189Z" fill="currentColor"/>
</g>
</svg>
