<svg width="28" height="28" viewBox="0 0 28 28" fill="none" xmlns="http://www.w3.org/2000/svg">
<path d="M3.29003 14L12.2909 23.002C12.462 23.1731 12.5468 23.3784 12.5452 23.618C12.5436 23.8576 12.4565 24.0633 12.2839 24.2352C12.1112 24.4071 11.9055 24.493 11.6667 24.493C11.4279 24.493 11.2222 24.4071 11.0495 24.2352L2.13503 15.3265C1.94681 15.1375 1.80914 14.9275 1.72203 14.6965C1.6357 14.4639 1.59253 14.2318 1.59253 14C1.59253 13.7682 1.6357 13.5364 1.72203 13.3047C1.80914 13.0729 1.94681 12.8629 2.13503 12.6747L11.0484 3.75667C11.2203 3.58478 11.4271 3.5 11.669 3.50234C11.9101 3.50467 12.117 3.59178 12.2897 3.76367C12.4608 3.93556 12.5464 4.14128 12.5464 4.38084C12.5464 4.62039 12.4608 4.82611 12.2897 4.998L3.29003 14Z" fill="currentColor"/>
</svg>
