<svg width="16" height="16" viewBox="0 0 16 16" fill="none" xmlns="http://www.w3.org/2000/svg">
<g id="Icon">
<path d="M15.9124 9.14736C15.8397 9.28302 15.7261 9.39748 15.5844 9.47758C15.4427 9.55768 15.2787 9.60016 15.1114 9.60015H11.5556V15.2C11.5556 15.4122 11.462 15.6157 11.2953 15.7657C11.1286 15.9157 10.9025 16 10.6667 16H5.33304C5.09728 16 4.87117 15.9157 4.70446 15.7657C4.53775 15.6157 4.44409 15.4122 4.44409 15.2V9.60015H0.88832C0.720962 9.59989 0.557076 9.55717 0.41548 9.47688C0.273884 9.39659 0.160318 9.282 0.0878213 9.14625C0.0153246 9.01051 -0.0131638 8.85912 0.00562729 8.70946C0.0244184 8.5598 0.0897272 8.41795 0.194055 8.30018L7.3056 0.300367C7.38888 0.206646 7.49452 0.130987 7.6147 0.0789928C7.73488 0.0269985 7.86652 0 7.99987 0C8.13322 0 8.26486 0.0269985 8.38503 0.0789928C8.50521 0.130987 8.61086 0.206646 8.69413 0.300367L15.8057 8.30018C16.019 8.54097 16.0599 8.86977 15.9124 9.14736ZM7.99987 2.08113L2.73821 8.00019H6.22198V14.4H9.77776V8.00019H13.2615L7.99987 2.08113Z" fill="currentColor"/>
<path d="M7.99987 2.08113L2.73821 8.00019H6.22198V14.4H9.77776V8.00019H13.2615L7.99987 2.08113Z" fill="currentColor"/>
</g>
</svg>
