<svg width="28" height="28" viewBox="0 0 28 28" fill="none" xmlns="http://www.w3.org/2000/svg">
<path d="M14 28C21.732 28 28 21.732 28 14C28 6.26801 21.732 0 14 0C6.26801 0 0 6.26801 0 14C0 21.732 6.26801 28 14 28Z" fill="#FE724C"/>
<path d="M16.5908 8C15.9705 8.00011 15.3614 8.1653 14.8261 8.47862C14.2908 8.79193 13.8486 9.24208 13.5448 9.78283C13.2409 9.24195 12.7985 8.79172 12.263 8.4784C11.7275 8.16507 11.1183 7.99995 10.4979 8C9.54772 8.05132 8.65391 8.46697 8.00239 9.1605C7.35087 9.85403 6.99181 10.772 6.99989 11.7236C6.99989 16.5758 13.5448 19.961 13.5448 19.961C13.5448 19.961 20.0896 16.5776 20.0896 11.7236C20.0977 10.7719 19.7385 9.85377 19.0868 9.16022C18.4351 8.46666 17.5411 8.0511 16.5908 8V8Z" fill="white"/>
</svg>
