<svg width="28" height="28" viewBox="0 0 28 28" fill="none" xmlns="http://www.w3.org/2000/svg">
<path d="M27.5 14C27.5 21.4558 21.4558 27.5 14 27.5C6.54416 27.5 0.5 21.4558 0.5 14C0.5 6.54416 6.54416 0.5 14 0.5C21.4558 0.5 27.5 6.54416 27.5 14Z" fill="white" stroke="#FE724C"/>
<path d="M16.591 8C15.9707 8.00011 15.3617 8.1653 14.8264 8.47862C14.2911 8.79193 13.8488 9.24208 13.545 9.78283C13.2411 9.24195 12.7987 8.79172 12.2632 8.4784C11.7278 8.16507 11.1185 7.99995 10.4981 8C9.54796 8.05132 8.65415 8.46697 8.00263 9.1605C7.35111 9.85403 6.99205 10.772 7.00013 11.7236C7.00013 16.5758 13.545 19.961 13.545 19.961C13.545 19.961 20.0899 16.5776 20.0899 11.7236C20.0979 10.7719 19.7388 9.85377 19.0871 9.16022C18.4354 8.46666 17.5413 8.0511 16.591 8V8Z" fill="#FE724C"/>
</svg>
