<svg width="28" height="28" viewBox="0 0 28 28" fill="none" xmlns="http://www.w3.org/2000/svg">
<g id="ph:camera-plus">
<path id="Vector" d="M18.375 14.875C18.375 15.1071 18.2828 15.3296 18.1187 15.4937C17.9546 15.6578 17.7321 15.75 17.5 15.75H14.875V18.375C14.875 18.6071 14.7828 18.8296 14.6187 18.9937C14.4546 19.1578 14.2321 19.25 14 19.25C13.7679 19.25 13.5454 19.1578 13.3813 18.9937C13.2172 18.8296 13.125 18.6071 13.125 18.375V15.75H10.5C10.2679 15.75 10.0454 15.6578 9.88128 15.4937C9.71719 15.3296 9.625 15.1071 9.625 14.875C9.625 14.6429 9.71719 14.4204 9.88128 14.2563C10.0454 14.0922 10.2679 14 10.5 14H13.125V11.375C13.125 11.1429 13.2172 10.9204 13.3813 10.7563C13.5454 10.5922 13.7679 10.5 14 10.5C14.2321 10.5 14.4546 10.5922 14.6187 10.7563C14.7828 10.9204 14.875 11.1429 14.875 11.375V14H17.5C17.7321 14 17.9546 14.0922 18.1187 14.2563C18.2828 14.4204 18.375 14.6429 18.375 14.875ZM25.375 8.75V21C25.375 21.6962 25.0984 22.3639 24.6062 22.8562C24.1139 23.3484 23.4462 23.625 22.75 23.625H5.25C4.55381 23.625 3.88613 23.3484 3.39384 22.8562C2.90156 22.3639 2.625 21.6962 2.625 21V8.75C2.625 8.05381 2.90156 7.38613 3.39384 6.89384C3.88613 6.40156 4.55381 6.125 5.25 6.125H8.28188L9.51562 4.27875C9.67516 4.03964 9.89113 3.84351 10.1445 3.70768C10.3978 3.57186 10.6807 3.50053 10.9681 3.5H17.0319C17.3193 3.50053 17.6022 3.57186 17.8555 3.70768C18.1089 3.84351 18.3248 4.03964 18.4844 4.27875L19.7181 6.125H22.75C23.4462 6.125 24.1139 6.40156 24.6062 6.89384C25.0984 7.38613 25.375 8.05381 25.375 8.75ZM23.625 8.75C23.625 8.51794 23.5328 8.29538 23.3687 8.13128C23.2046 7.96719 22.9821 7.875 22.75 7.875H19.25C19.1059 7.87509 18.964 7.8396 18.8369 7.77167C18.7099 7.70375 18.6015 7.60549 18.5216 7.48563L17.0319 5.25H10.9681L9.47844 7.48563C9.39847 7.60549 9.29013 7.70375 9.16305 7.77167C9.03598 7.8396 8.89409 7.87509 8.75 7.875H5.25C5.01794 7.875 4.79538 7.96719 4.63128 8.13128C4.46719 8.29538 4.375 8.51794 4.375 8.75V21C4.375 21.2321 4.46719 21.4546 4.63128 21.6187C4.79538 21.7828 5.01794 21.875 5.25 21.875H22.75C22.9821 21.875 23.2046 21.7828 23.3687 21.6187C23.5328 21.4546 23.625 21.2321 23.625 21V8.75Z" fill="currentColor"/>
</g>
</svg>
