<svg width="16" height="18" viewBox="0 0 16 18" fill="none" xmlns="http://www.w3.org/2000/svg">
<path d="M1 1.125V16.875H8V18H0V0H8.71094L13 4.8252V11.25H12V5.625H8V1.125H1ZM9 1.9248V4.5H11.2891L9 1.9248ZM2 4.5H7V5.625H2V4.5ZM11 6.75V7.875H2V6.75H11ZM2 10.125V9H11V10.125H2ZM2 12.375V11.25H8V12.375H2ZM2 14.625V13.5H8V14.625H2ZM11 12.375H16V13.5H11V12.375ZM11 15.75V14.625H16V15.75H11ZM11 18V16.875H16V18H11ZM9 13.5V12.375H10V13.5H9ZM9 15.75V14.625H10V15.75H9ZM9 18V16.875H10V18H9Z" fill="currentColor"/>
</svg>
