<svg width="4" height="5" viewBox="0 0 4 5" fill="none" xmlns="http://www.w3.org/2000/svg">
<g id="dot">
<path id="Vector" d="M3.3125 2.37112C3.3125 2.63071 3.23552 2.88447 3.0913 3.10031C2.94708 3.31615 2.7421 3.48438 2.50227 3.58372C2.26244 3.68306 1.99854 3.70905 1.74394 3.65841C1.48934 3.60776 1.25548 3.48276 1.07192 3.2992C0.888366 3.11564 0.763363 2.88178 0.71272 2.62718C0.662077 2.37258 0.688069 2.10868 0.787409 1.86885C0.886749 1.62902 1.05498 1.42404 1.27082 1.27982C1.48665 1.1356 1.74041 1.05862 2 1.05862C2.3481 1.05862 2.68194 1.1969 2.92808 1.44305C3.17422 1.68919 3.3125 2.02303 3.3125 2.37112Z" fill="currentColor"/>
</g>
</svg>
