<svg width="93" height="93" viewBox="0 0 93 93" fill="none" xmlns="http://www.w3.org/2000/svg">
<rect width="93" height="93" rx="24" fill="white"/>
<path d="M42.2646 25.738L65.506 48.9794C66.58 50.0534 66.58 51.8147 65.506 52.9102C64.432 53.9842 62.6921 54.0057 61.5966 52.9317L61.5752 52.9102C60.5011 51.8577 58.7827 51.8792 57.7087 52.9317L44.477 66.1634C43.403 67.2374 41.6631 67.2374 40.5891 66.1634C39.5151 65.0894 39.5151 63.3495 40.5891 62.2755L53.8853 48.9794C54.9163 47.9483 54.9163 46.2514 53.8853 45.2204L53.7564 45.0915C52.7254 44.0604 51.0284 44.0604 49.9974 45.0915L30.7727 64.3161C29.6987 65.3901 27.9589 65.3901 26.8848 64.3161C26.3478 63.7791 26.0901 63.0703 26.0901 62.3829C26.0901 61.6741 26.3478 60.9867 26.8848 60.4497L46.0665 41.268C46.6035 40.731 46.8613 40.0222 46.8613 39.3348C46.8613 38.626 46.6035 37.9386 46.0665 37.4016C44.9925 36.3276 43.2527 36.3276 42.1787 37.4016L32.8993 46.681C31.8253 47.755 30.0854 47.755 29.0114 46.681C28.4744 46.144 28.2166 45.4352 28.2166 44.7478C28.2166 44.039 28.4959 43.3516 29.0114 42.8146L38.3552 33.4708C39.3862 32.4397 39.3862 30.7428 38.3552 29.7118L38.3122 29.6688C37.7752 29.1318 37.496 28.423 37.496 27.7141C37.496 27.0053 37.7752 26.2964 38.3122 25.7594C39.4292 24.664 41.1906 24.664 42.2646 25.738Z" fill="#FE724C"/>
<path d="M67.0727 24.1914C72.7649 29.8836 73.4308 38.6904 69.0704 45.1129C68.1682 46.4447 66.2779 46.638 65.118 45.4996L45.7645 26.146C44.6261 25.0076 44.7979 23.1174 46.1511 22.1937C52.5737 17.8333 61.3805 18.4991 67.0727 24.1914Z" fill="#FE724C"/>
<path d="M72.071 23.0324C73.1363 21.9671 73.1363 20.2399 72.071 19.1745C71.0057 18.1092 69.2784 18.1092 68.2131 19.1745C67.1478 20.2399 67.1478 21.9671 68.2131 23.0324C69.2785 24.0978 71.0057 24.0978 72.071 23.0324Z" fill="#FE724C"/>
<rect x="19.9431" y="52.1569" width="6.5122" height="5.44227" rx="2.72114" transform="rotate(-45 19.9431 52.1569)" fill="#FE724C"/>
<rect x="18.1455" y="69.2335" width="6.5122" height="5.44227" rx="2.72114" transform="rotate(-45 18.1455 69.2335)" fill="#FE724C"/>
<rect x="31.6272" y="71.0311" width="6.5122" height="5.44227" rx="2.72114" transform="rotate(-45 31.6272 71.0311)" fill="#FE724C"/>
</svg>
