<svg width="28" height="29" viewBox="0 0 28 29" fill="none" xmlns="http://www.w3.org/2000/svg">
<path d="M14 25C11.0833 25 8.60417 23.9792 6.5625 21.9375C4.52083 19.8958 3.5 17.4167 3.5 14.5C3.5 11.5833 4.52083 9.10417 6.5625 7.0625C8.60417 5.02083 11.0833 4 14 4C14.2722 4 14.5398 4.00972 14.8027 4.02917C15.0656 4.04861 15.323 4.07778 15.575 4.11667C14.7778 4.68056 14.1408 5.41478 13.664 6.31933C13.1872 7.22389 12.9492 8.20078 12.95 9.25C12.95 11 13.5625 12.4875 14.7875 13.7125C16.0125 14.9375 17.5 15.55 19.25 15.55C20.3194 15.55 21.3014 15.3116 22.1958 14.8348C23.0903 14.3581 23.8194 13.7214 24.3833 12.925C24.4222 13.1778 24.4514 13.4352 24.4708 13.6973C24.4903 13.9594 24.5 14.227 24.5 14.5C24.5 17.4167 23.4792 19.8958 21.4375 21.9375C19.3958 23.9792 16.9167 25 14 25Z" fill="currentColor"/>
</svg>
