<svg width="22" height="22" viewBox="0 0 22 22" fill="none" xmlns="http://www.w3.org/2000/svg">
<path fill-rule="evenodd" clip-rule="evenodd" d="M4.58329 8.25001C4.58329 6.5482 5.25933 4.9161 6.46269 3.71274C7.66605 2.50938 9.29815 1.83334 11 1.83334C12.7018 1.83334 14.3339 2.50938 15.5372 3.71274C16.7406 4.9161 17.4166 6.5482 17.4166 8.25001V11.7003L19.0868 15.0407C19.1637 15.1944 19.2 15.3653 19.1923 15.537C19.1845 15.7087 19.133 15.8756 19.0427 16.0218C18.9523 16.168 18.826 16.2887 18.6759 16.3724C18.5257 16.4561 18.3567 16.5 18.1848 16.5H14.5511C14.3472 17.2867 13.8878 17.9835 13.2451 18.4809C12.6024 18.9782 11.8127 19.2481 11 19.2481C10.1872 19.2481 9.39753 18.9782 8.7548 18.4809C8.11206 17.9835 7.65269 17.2867 7.44879 16.5H3.81512C3.64323 16.5 3.47418 16.4561 3.32403 16.3724C3.17389 16.2887 3.04763 16.168 2.95726 16.0218C2.86688 15.8756 2.81538 15.7087 2.80766 15.537C2.79994 15.3653 2.83624 15.1944 2.91312 15.0407L4.58329 11.7003V8.25001ZM9.41229 16.5C9.5732 16.7787 9.80464 17.0101 10.0833 17.171C10.362 17.3319 10.6782 17.4166 11 17.4166C11.3218 17.4166 11.6379 17.3319 11.9166 17.171C12.1953 17.0101 12.4267 16.7787 12.5876 16.5H9.41229ZM11 3.66668C9.78438 3.66668 8.61859 4.14956 7.75905 5.0091C6.89951 5.86865 6.41662 7.03443 6.41662 8.25001V11.7003C6.4166 11.9848 6.35039 12.2654 6.22321 12.5198L5.15071 14.6667H16.8501L15.7776 12.5198C15.6501 12.2655 15.5836 11.9849 15.5833 11.7003V8.25001C15.5833 7.03443 15.1004 5.86865 14.2409 5.0091C13.3813 4.14956 12.2155 3.66668 11 3.66668Z" fill="black"/>
</svg>
