<svg width="28" height="28" viewBox="0 0 28 28" fill="none" xmlns="http://www.w3.org/2000/svg">
<path d="M14 13.44C13.16 13.44 12.6 14 12.6 14.84C12.6 15.4 13.02 15.82 13.44 15.96L13.02 17.92H14.84L14.42 15.96C14.98 15.82 15.26 15.4 15.26 14.84C15.4 14 14.84 13.44 14 13.44ZM14.14 7.41999C13.16 7.41999 12.18 8.11999 12.18 9.09999V11.2H15.96V9.09999C15.82 8.11999 15.12 7.41999 14.14 7.41999ZM14 2.79999L4.19995 6.99999V11.2C4.33995 17.36 8.25995 22.82 14 25.06C19.74 22.82 23.66 17.36 23.8 11.2V6.99999L14 2.79999ZM19.6 18.2C19.6 19.04 19.04 19.6 18.2 19.6H9.79995C8.95995 19.6 8.39995 19.04 8.39995 18.2V12.6C8.39995 11.76 8.95995 11.2 9.79995 11.2H10.22V9.09999C10.36 7.13999 12.04 5.59999 14 5.59999C15.96 5.59999 17.64 7.13999 17.78 9.09999V11.2H18.2C19.04 11.2 19.6 11.76 19.6 12.6V18.2Z" fill="black"/>
</svg>
