<svg width="28" height="29" viewBox="0 0 28 29" fill="none" xmlns="http://www.w3.org/2000/svg">
<g id="tabler:bookmark-filled">
<path id="Vector" d="M16.3335 2.83331C17.8806 2.83331 19.3643 3.44789 20.4583 4.54186C21.5522 5.63582 22.1668 7.11955 22.1668 8.66665V25C22.1669 25.2112 22.1096 25.4185 22.001 25.5997C21.8925 25.7809 21.7368 25.9292 21.5506 26.0288C21.3643 26.1285 21.1545 26.1757 20.9436 26.1654C20.7326 26.1552 20.5284 26.0879 20.3527 25.9706L14.0002 21.7356L7.64883 25.9706C7.48234 26.0821 7.28996 26.1487 7.09023 26.1642C6.8905 26.1798 6.69014 26.1436 6.50845 26.0592C6.32676 25.9748 6.16986 25.845 6.05288 25.6824C5.93589 25.5198 5.86274 25.3297 5.8405 25.1306L5.8335 25V8.66665C5.8335 7.11955 6.44808 5.63582 7.54204 4.54186C8.636 3.44789 10.1197 2.83331 11.6668 2.83331H16.3335Z" fill="#FE724C"/>
</g>
</svg>
