<svg width="37" height="36" viewBox="0 0 37 36" fill="none" xmlns="http://www.w3.org/2000/svg">
<path d="M6.3999 2.60002C5.52469 2.60002 4.68532 2.9477 4.06645 3.56657C3.44758 4.18544 3.0999 5.02481 3.0999 5.90002V10.3C3.0999 10.5918 2.98401 10.8716 2.77772 11.0778C2.57143 11.2841 2.29164 11.4 1.9999 11.4C1.70816 11.4 1.42838 11.2841 1.22209 11.0778C1.0158 10.8716 0.899902 10.5918 0.899902 10.3V5.90002C0.899902 4.44133 1.47936 3.04239 2.51082 2.01094C3.54227 0.979487 4.94121 0.400024 6.3999 0.400024H10.7999C11.0916 0.400024 11.3714 0.515917 11.5777 0.722207C11.784 0.928497 11.8999 1.20829 11.8999 1.50002C11.8999 1.79176 11.784 2.07155 11.5777 2.27784C11.3714 2.48413 11.0916 2.60002 10.7999 2.60002H6.3999ZM6.3999 33.4C5.52469 33.4 4.68532 33.0523 4.06645 32.4335C3.44758 31.8146 3.0999 30.9752 3.0999 30.1V25.7C3.0999 25.4083 2.98401 25.1285 2.77772 24.9222C2.57143 24.7159 2.29164 24.6 1.9999 24.6C1.70816 24.6 1.42838 24.7159 1.22209 24.9222C1.0158 25.1285 0.899902 25.4083 0.899902 25.7V30.1C0.899902 31.5587 1.47936 32.9577 2.51082 33.9891C3.54227 35.0206 4.94121 35.6 6.3999 35.6H10.7999C11.0916 35.6 11.3714 35.4841 11.5777 35.2778C11.784 35.0716 11.8999 34.7918 11.8999 34.5C11.8999 34.2083 11.784 33.9285 11.5777 33.7222C11.3714 33.5159 11.0916 33.4 10.7999 33.4H6.3999ZM33.8999 5.90002C33.8999 5.02481 33.5522 4.18544 32.9334 3.56657C32.3145 2.9477 31.4751 2.60002 30.5999 2.60002H26.1999C25.9082 2.60002 25.6284 2.48413 25.4221 2.27784C25.2158 2.07155 25.0999 1.79176 25.0999 1.50002C25.0999 1.20829 25.2158 0.928497 25.4221 0.722207C25.6284 0.515917 25.9082 0.400024 26.1999 0.400024H30.5999C32.0586 0.400024 33.4575 0.979487 34.489 2.01094C35.5204 3.04239 36.0999 4.44133 36.0999 5.90002V10.3C36.0999 10.5918 35.984 10.8716 35.7777 11.0778C35.5714 11.2841 35.2916 11.4 34.9999 11.4C34.7082 11.4 34.4284 11.2841 34.2221 11.0778C34.0158 10.8716 33.8999 10.5918 33.8999 10.3V5.90002ZM30.5999 33.4C31.4751 33.4 32.3145 33.0523 32.9334 32.4335C33.5522 31.8146 33.8999 30.9752 33.8999 30.1V25.7C33.8999 25.4083 34.0158 25.1285 34.2221 24.9222C34.4284 24.7159 34.7082 24.6 34.9999 24.6C35.2916 24.6 35.5714 24.7159 35.7777 24.9222C35.984 25.1285 36.0999 25.4083 36.0999 25.7V30.1C36.0999 31.5587 35.5204 32.9577 34.489 33.9891C33.4575 35.0206 32.0586 35.6 30.5999 35.6H26.1999C25.9082 35.6 25.6284 35.4841 25.4221 35.2778C25.2158 35.0716 25.0999 34.7918 25.0999 34.5C25.0999 34.2083 25.2158 33.9285 25.4221 33.7222C25.6284 33.5159 25.9082 33.4 26.1999 33.4H30.5999ZM21.2499 18.6776C21.2499 20.1736 20.0179 21.3836 18.4999 21.3836C18.1417 21.3865 17.7863 21.3188 17.4543 21.1844C17.1222 21.05 16.8198 20.8515 16.5644 20.6002C16.3091 20.3489 16.1057 20.0498 15.966 19.7199C15.8262 19.39 15.7528 19.0359 15.7499 18.6776C15.7499 17.1816 16.9819 15.9694 18.4999 15.9694C20.0179 15.9694 21.2499 17.1838 21.2499 18.6776ZM7.4999 15.9694V24.0918C7.4999 25.59 8.7319 26.8 10.2499 26.8H26.7499C28.2679 26.8 29.4999 25.5878 29.4999 24.094V15.9672C29.4999 14.4712 28.2679 13.2612 26.7499 13.2612H23.9999L22.0661 10.4034C21.8126 10.0307 21.4713 9.72596 21.0723 9.51611C20.6733 9.30626 20.2289 9.19771 19.7781 9.20002H17.2217C16.3021 9.20002 15.4441 9.65322 14.9337 10.4056L12.9999 13.2612H10.2499C8.7319 13.2612 7.4999 14.4756 7.4999 15.9694ZM18.4999 13.2612C21.5359 13.2612 23.9999 15.6834 23.9999 18.6732C23.9999 21.6652 21.5359 24.0896 18.4999 24.0896C15.4639 24.0896 12.9999 21.6652 12.9999 18.6754C12.9999 15.6834 15.4639 13.259 18.4999 13.259" fill="black"/>
</svg>
