<svg width="28" height="29" viewBox="0 0 28 29" fill="none" xmlns="http://www.w3.org/2000/svg">
<g id="lsicon:setting-filled">
<path id="Vector" fill-rule="evenodd" clip-rule="evenodd" d="M12.0275 2.24998H15.93C16.518 2.24123 17.0938 2.43373 17.5575 2.79598C18.0248 3.16348 18.3485 3.67973 18.4675 4.26073L18.8088 5.89698C18.957 5.97631 19.1028 6.05798 19.2463 6.14198L20.9 5.59948C21.2403 5.48968 21.5995 5.45149 21.9552 5.48733C22.3109 5.52318 22.6553 5.63226 22.9668 5.80773C23.3518 6.02473 23.6755 6.33623 23.9013 6.71773L25.87 9.96573C26.1883 10.469 26.3138 11.0704 26.2234 11.659C26.1331 12.2476 25.8329 12.7836 25.3783 13.1682H25.3748L24.0763 14.276V14.7275L25.359 15.8702C25.8048 16.2486 26.1018 16.7729 26.197 17.3498C26.2922 17.9268 26.1794 18.5187 25.8788 19.0202L23.9713 22.2752V22.2787C23.7443 22.6585 23.4225 22.9729 23.0375 23.191C22.6526 23.4091 22.2175 23.5235 21.775 23.523C21.5014 23.5245 21.2292 23.4831 20.9683 23.4005L20.9595 23.397L19.3198 22.8562C19.174 22.9426 19.0258 23.0248 18.8753 23.103L18.5358 24.7375C18.416 25.3188 18.0934 25.8385 17.6258 26.204C17.1609 26.5677 16.585 26.7605 15.9948 26.75H12.0608C11.4718 26.7597 10.8973 26.567 10.4333 26.204C9.966 25.839 9.64351 25.3199 9.52329 24.7392L9.18204 23.1012C9.03428 23.0231 8.8884 22.9414 8.74454 22.8562L7.09079 23.3987C6.75058 23.5085 6.39132 23.5467 6.03562 23.5109C5.67993 23.475 5.33551 23.3659 5.02404 23.1905C4.63851 22.9754 4.31626 22.6628 4.08954 22.284L2.11904 19.029C1.8135 18.5359 1.69146 17.9509 1.77435 17.3767C1.85724 16.8026 2.13976 16.276 2.57229 15.8895L3.87954 14.241L2.63179 13.1297C2.18539 12.751 1.8882 12.2259 1.7933 11.6482C1.69841 11.0705 1.81201 10.4779 2.11379 9.97623L2.11729 9.97273L4.08954 6.71773C4.31324 6.34146 4.63047 6.02946 5.0104 5.81205C5.39034 5.59463 5.82005 5.47921 6.25779 5.47698C6.52146 5.46298 6.78162 5.48806 7.03829 5.55223L7.07679 5.56273L8.71304 6.13848C8.85654 6.05448 9.00237 5.97398 9.15054 5.89698L9.49004 4.26248C9.60988 3.6812 9.9324 3.16144 10.4 2.79598C10.862 2.43373 11.4395 2.24123 12.0275 2.24998ZM13.9998 11C13.0715 11 12.1813 11.3687 11.5249 12.0251C10.8685 12.6815 10.4998 13.5717 10.4998 14.5C10.4998 15.4282 10.8685 16.3185 11.5249 16.9749C12.1813 17.6312 13.0715 18 13.9998 18C14.928 18 15.8183 17.6312 16.4747 16.9749C17.131 16.3185 17.4998 15.4282 17.4998 14.5C17.4998 13.5717 17.131 12.6815 16.4747 12.0251C15.8183 11.3687 14.928 11 13.9998 11ZM8.74979 14.5C8.74979 13.1076 9.30291 11.7722 10.2875 10.7877C11.272 9.8031 12.6074 9.24998 13.9998 9.24998C15.3922 9.24998 16.7275 9.8031 17.7121 10.7877C18.6967 11.7722 19.2498 13.1076 19.2498 14.5C19.2498 15.8924 18.6967 17.2277 17.7121 18.2123C16.7275 19.1969 15.3922 19.75 13.9998 19.75C12.6074 19.75 11.272 19.1969 10.2875 18.2123C9.30291 17.2277 8.74979 15.8924 8.74979 14.5Z" fill="#FE724C"/>
</g>
</svg>
