<svg width="28" height="28" viewBox="0 0 28 28" fill="none" xmlns="http://www.w3.org/2000/svg">
<g id="share">
<path id="Vector" d="M25.325 13.1752L15.9917 3.84183C15.8285 3.67872 15.6206 3.56764 15.3944 3.52265C15.1681 3.47765 14.9335 3.50076 14.7204 3.58904C14.5072 3.67732 14.3251 3.82682 14.1969 4.01863C14.0687 4.21044 14.0002 4.43595 14.0002 4.66666V8.8025C10.8132 9.09742 7.85093 10.571 5.69313 12.9349C3.53534 15.2987 2.33731 18.3827 2.3335 21.5833V23.3333C2.33368 23.5755 2.40922 23.8116 2.54965 24.0089C2.69007 24.2062 2.88842 24.355 3.11718 24.4345C3.34593 24.514 3.59376 24.5203 3.82628 24.4526C4.0588 24.3849 4.2645 24.2465 4.41483 24.0567C5.55798 22.6976 6.96043 21.58 8.54028 20.7689C10.1201 19.9579 11.8457 19.4697 13.6163 19.3328C13.6747 19.3258 13.8205 19.3142 14.0002 19.3025V23.3333C14.0002 23.564 14.0687 23.7896 14.1969 23.9814C14.3251 24.1732 14.5072 24.3227 14.7204 24.411C14.9335 24.4992 15.1681 24.5223 15.3944 24.4773C15.6206 24.4323 15.8285 24.3213 15.9917 24.1582L25.325 14.8248C25.5437 14.606 25.6666 14.3094 25.6666 14C25.6666 13.6906 25.5437 13.3939 25.325 13.1752ZM16.3335 20.517V18.0833C16.3335 17.7739 16.2106 17.4772 15.9918 17.2584C15.773 17.0396 15.4762 16.9167 15.1668 16.9167C14.8693 16.9167 13.6548 16.975 13.3445 17.0158C10.2001 17.3052 7.20698 18.4999 4.7275 20.4552C5.00895 17.882 6.22963 15.5031 8.15581 13.7738C10.082 12.0446 12.5783 11.0866 15.1668 11.0833C15.4762 11.0833 15.773 10.9604 15.9918 10.7416C16.2106 10.5228 16.3335 10.2261 16.3335 9.91666V7.483L22.8505 14L16.3335 20.517Z" fill="currentColor"/>
</g>
</svg>
