<svg width="28" height="29" viewBox="0 0 28 29" fill="none" xmlns="http://www.w3.org/2000/svg">
<path d="M24.5 6.625C24.5 6.85706 24.4078 7.07962 24.2437 7.24372C24.0796 7.40781 23.8571 7.5 23.625 7.5H22.75V23.25C22.7495 23.714 22.5649 24.1588 22.2369 24.4869C21.9088 24.8149 21.464 24.9995 21 25H7C6.53603 24.9995 6.09122 24.8149 5.76315 24.4869C5.43508 24.1588 5.25053 23.714 5.25 23.25V7.5H4.375C4.14294 7.5 3.92038 7.40781 3.75628 7.24372C3.59219 7.07962 3.5 6.85706 3.5 6.625C3.5 6.39294 3.59219 6.17038 3.75628 6.00628C3.92038 5.84219 4.14294 5.75 4.375 5.75H23.625C23.8571 5.75 24.0796 5.84219 24.2437 6.00628C24.4078 6.17038 24.5 6.39294 24.5 6.625V6.625ZM9.62543 4H18.3754C18.6075 4 18.8301 3.90781 18.9941 3.74372C19.1582 3.57962 19.2504 3.35706 19.2504 3.125C19.2504 2.89294 19.1582 2.67038 18.9941 2.50628C18.8301 2.34219 18.6075 2.25 18.3754 2.25H9.62543C9.39336 2.25 9.1708 2.34219 9.00671 2.50628C8.84261 2.67038 8.75043 2.89294 8.75043 3.125C8.75043 3.35706 8.84261 3.57962 9.00671 3.74372C9.1708 3.90781 9.39336 4 9.62543 4Z" fill="#FE724C"/>
</svg>
