<svg width="29" height="29" viewBox="0 0 29 29" fill="none" xmlns="http://www.w3.org/2000/svg">
<path d="M17.125 24.4688H24.125C24.9899 24.4688 25.7249 24.2667 26.3352 23.9146L17.125 18.2242V24.4688ZM28.3512 20.9389C28.451 20.4781 28.5017 19.9901 28.5017 19.4839V17.2183H22.3286L28.3495 20.9389M0.653123 8.04705C0.54931 8.52912 0.497949 9.02171 0.499998 9.51562V11.7812H6.69675L0.653123 8.04705ZM11.875 4.53125H4.875C4.01619 4.53125 3.286 4.73063 2.67831 5.07772L11.875 10.7599V4.53125ZM2.70631 23.9368C3.30831 24.2739 4.02887 24.4688 4.875 24.4688H11.875V18.2718L2.70631 23.9368ZM0.499998 17.2188V19.4844C0.499998 20.0059 0.553373 20.5084 0.65881 20.981L6.74837 17.2188H0.499998ZM26.3628 5.09992C25.7477 4.73833 25.0026 4.53125 24.125 4.53125H17.125V10.8075L26.3628 5.09992ZM28.5 11.7812V9.51562C28.5 9.01991 28.4506 8.54186 28.3547 8.08964L22.3802 11.7812H28.5Z" fill="#2E3192"/>
<path d="M22.3803 11.7812L28.3547 8.08964C28.0809 6.79189 27.4141 5.71753 26.3628 5.09992L17.125 10.8075V4.53125H16.25V12.6875H28.5V11.7812H22.3803ZM0.5 16.3125V17.2188H6.74837L0.658813 20.981C0.948 22.2747 1.63488 23.3368 2.70631 23.9368L11.875 18.2718V24.4688H12.75V16.3125H0.5ZM28.5 16.3125H16.25V24.4688H17.125V18.2242L26.3352 23.915C27.3944 23.3042 28.0695 22.2358 28.3495 20.9398L22.3286 17.2188H28.5V16.3125ZM11.875 4.53125V10.7599L2.67831 5.07772C1.61519 5.68491 0.93575 6.75156 0.652688 8.04705L6.69675 11.7812H0.5V12.6875H12.75V4.53125H11.875Z" fill="#E6E7E8"/>
<path d="M16.25 12.6875V4.53125H12.75V12.6875H0.5V16.3125H12.75V24.4688H16.25V16.3125H28.5V12.6875H16.25Z" fill="#BE1E2D"/>
<path d="M10.0979 11.7812L1.32602 6.35775C1.13746 6.64775 0.986087 6.96675 0.860962 7.30659L8.10027 11.7812H10.0966M28.1019 21.7907L20.7462 17.2187H18.7092L27.5961 22.7554C27.8017 22.4569 27.9716 22.1335 28.1019 21.7925M27.0646 5.61462L17.1115 11.7812L19.1323 11.7826L27.7208 6.45698C27.5292 6.09584 27.3271 5.86294 27.0646 5.61462ZM1.29321 22.5996C1.49003 22.91 1.72687 23.1911 1.99715 23.4351L11.9026 17.2187H9.90627L1.29321 22.5996Z" fill="#BE1E2D"/>
</svg>
