<svg xmlns="http://www.w3.org/2000/svg" width="63" height="51" viewBox="0 0 63 51" fill="none"><path fill-rule="evenodd" clip-rule="evenodd" d="M18.855 32.578c.748 0 1.355.553 1.355 1.237v3.299c0 .227.202.412.451.412H42.34c.25 0 .451-.185.451-.412v-3.3c0-.683.607-1.236 1.355-1.236s1.355.553 1.355 1.237v3.299c0 1.594-1.415 2.886-3.161 2.886H20.66c-1.746 0-3.161-1.292-3.161-2.886v-3.3c0-.683.607-1.236 1.355-1.236m10.366-.203c-.93 0-1.704-.648-1.785-1.494a55 55 0 0 1-.147-8.693 83 83 0 0 1-1.338-.078l-2.69-.18c-1.038-.068-1.618-1.124-1.058-1.925 1.918-2.741 4.39-5.125 7.284-7.023l1.078-.707a1.73 1.73 0 0 1 1.872 0l1.078.707c2.893 1.898 5.366 4.282 7.284 7.023.56.8-.02 1.857-1.057 1.926l-2.691.179q-.669.045-1.338.078c.18 2.897.131 5.802-.147 8.693-.08.846-.856 1.494-1.785 1.494z" fill="currentColor"/></svg>
