<svg width="22" height="25" viewBox="0 0 22 25" fill="none" xmlns="http://www.w3.org/2000/svg">
<g id="Group">
<path id="Vector" d="M10.9998 13.6667C14.2215 13.6667 16.8332 11.055 16.8332 7.83333C16.8332 4.61167 14.2215 2 10.9998 2C7.77818 2 5.1665 4.61167 5.1665 7.83333C5.1665 11.055 7.77818 13.6667 10.9998 13.6667Z" fill="#FE724C" stroke="#FE724C" stroke-width="2.33333" stroke-linecap="round" stroke-linejoin="round"/>
<path id="Vector_2" d="M20.3332 23C20.3332 20.5247 19.3498 18.1507 17.5995 16.4004C15.8492 14.65 13.4752 13.6667 10.9998 13.6667C8.52448 13.6667 6.15051 14.65 4.40017 16.4004C2.64983 18.1507 1.6665 20.5247 1.6665 23" stroke="#FE724C" stroke-width="2.33333" stroke-linecap="round" stroke-linejoin="round"/>
<path id="Vector_3" d="M10.9998 13.6667C8.52448 13.6667 6.15051 14.65 4.40017 16.4004C2.64983 18.1507 1.6665 20.5247 1.6665 23H20.3332C20.3332 20.5247 19.3498 18.1507 17.5995 16.4004C15.8492 14.65 13.4752 13.6667 10.9998 13.6667Z" fill="#FE724C" stroke="#FE724C" stroke-width="2.33333" stroke-linecap="round" stroke-linejoin="round"/>
</g>
</svg>
