<svg width="26" height="26" viewBox="0 0 26 26" fill="none" xmlns="http://www.w3.org/2000/svg">
<path d="M1 5.5H5M5 5.5C5 4.102 5 3.403 5.20267 2.8525C5.33668 2.48827 5.53319 2.15733 5.78096 1.87859C6.02874 1.59984 6.32291 1.37877 6.64667 1.228C7.136 1 7.75733 1 9 1C10.2427 1 10.864 1 11.3533 1.228C11.6771 1.37877 11.9713 1.59984 12.219 1.87859C12.4668 2.15733 12.6633 2.48827 12.7973 2.8525C13 3.403 13 4.102 13 5.5C13 6.898 13 7.597 12.7973 8.1475C12.6633 8.51173 12.4668 8.84267 12.219 9.12141C11.9713 9.40016 11.6771 9.62123 11.3533 9.772C10.864 10 10.2427 10 9 10C7.75733 10 7.136 10 6.64667 9.772C6.32291 9.62123 6.02874 9.40016 5.78096 9.12141C5.53319 8.84267 5.33668 8.51173 5.20267 8.1475C5 7.597 5 6.898 5 5.5ZM1 20.5H9M21 20.5H25M21 20.5C21 19.102 21 18.403 20.7973 17.8525C20.6633 17.4883 20.4668 17.1573 20.219 16.8786C19.9713 16.5998 19.6771 16.3788 19.3533 16.228C18.864 16 18.2427 16 17 16C15.7573 16 15.136 16 14.6467 16.228C14.3229 16.3788 14.0287 16.5998 13.781 16.8786C13.5332 17.1573 13.3367 17.4883 13.2027 17.8525C13 18.403 13 19.102 13 20.5C13 21.898 13 22.597 13.2027 23.1475C13.3367 23.5117 13.5332 23.8427 13.781 24.1214C14.0287 24.4002 14.3229 24.6212 14.6467 24.772C15.136 25 15.7573 25 17 25C18.2427 25 18.864 25 19.3533 24.772C19.6771 24.6212 19.9713 24.4002 20.219 24.1214C20.4668 23.8427 20.6633 23.5117 20.7973 23.1475C21 22.597 21 21.898 21 20.5ZM17 5.5H25" stroke="currentColor" stroke-width="1.5" stroke-linecap="round" stroke-linejoin="round"/>
</svg>
