<svg width="28" height="28" viewBox="0 0 28 28" fill="none" xmlns="http://www.w3.org/2000/svg">
<path d="M24.8889 3.88889H3.11111C2.28599 3.88889 1.49467 4.21666 0.911223 4.80011C0.327777 5.38356 0 6.17488 0 7L0 21C0 21.8251 0.327777 22.6164 0.911223 23.1999C1.49467 23.7833 2.28599 24.1111 3.11111 24.1111H24.8889C25.714 24.1111 26.5053 23.7833 27.0888 23.1999C27.6722 22.6164 28 21.8251 28 21V7C28 6.17488 27.6722 5.38356 27.0888 4.80011C26.5053 4.21666 25.714 3.88889 24.8889 3.88889Z" fill="#DA251D"/>
<path d="M15.3635 12.4732L14.0001 8.27711L12.6367 12.4732H8.2251L11.7943 15.0656L10.4309 19.2617L14.0001 16.6686L17.5693 19.2617L16.2059 15.0656L19.7751 12.4732H15.3635Z" fill="#EAB308"/>
</svg>
