<svg width="26" height="23" viewBox="0 0 26 23" fill="none" xmlns="http://www.w3.org/2000/svg">
<g id="Mask group">
<mask id="mask0_3810_1390" style="mask-type:luminance" maskUnits="userSpaceOnUse" x="0" y="0" width="26" height="23">
<g id="Group">
<g id="Group_2">
<path id="Vector" d="M1.6268 7.04684L6.30105 1.97534C6.41814 1.85064 6.5597 1.75145 6.71689 1.684C6.87408 1.61655 7.04351 1.58228 7.21455 1.58334H18.7856C18.9566 1.58228 19.126 1.61655 19.2832 1.684C19.4404 1.75145 19.582 1.85064 19.6991 1.97534L24.3733 7.04684C24.5652 7.25072 24.6703 7.52119 24.6665 7.80113C24.6627 8.08108 24.5502 8.34859 24.3529 8.54717L13.4376 20.9208C13.3828 20.9829 13.3155 21.0326 13.2401 21.0667C13.1646 21.1007 13.0828 21.1183 13.0001 21.1183C12.9173 21.1183 12.8355 21.1007 12.76 21.0667C12.6846 21.0326 12.6173 20.9829 12.5626 20.9208L1.64722 8.54717C1.44986 8.34859 1.33741 8.08108 1.3336 7.80113C1.32979 7.52119 1.43492 7.25072 1.6268 7.04684Z" fill="#FE724C" stroke="white" stroke-width="2.33333" stroke-linecap="round" stroke-linejoin="round"/>
<path id="Vector_2" d="M8.3335 9.16669L13.0002 14.4167L17.6668 9.16669" stroke="currentColor" stroke-width="2.33333" stroke-linecap="round" stroke-linejoin="round"/>
</g>
</g>
</mask>
<g mask="url(#mask0_3810_1390)">
<path id="Vector_3" d="M-1 -2.5H27V25.5H-1V-2.5Z" fill="#FE724C"/>
</g>
</g>
</svg>
