<?xml version="1.0" encoding="us-ascii" standalone="no"?><svg xmlns="http://www.w3.org/2000/svg" xmlns:xlink="http://www.w3.org/1999/xlink" contentStyleType="text/css" height="2157px" preserveAspectRatio="none" style="width:2006px;height:2157px;background:#FFFFFF;" version="1.1" viewBox="0 0 2006 2157" width="2006px" zoomAndPan="magnify"><defs/><g><text fill="#000000" font-family="sans-serif" font-size="14" font-weight="bold" lengthAdjust="spacing" textLength="96" x="956.25" y="29.5332">Create recipe</text><rect fill="#FFFFFF" height="998.7188" style="stroke:#181818;stroke-width:1.0;" width="10" x="298.5" y="169.9219"/><rect fill="#FFFFFF" height="921.6641" style="stroke:#181818;stroke-width:1.0;" width="10" x="477.5" y="200.2734"/><rect fill="#FFFFFF" height="814.5156" style="stroke:#181818;stroke-width:1.0;" width="10" x="715.5" y="277.0703"/><rect fill="#FFFFFF" height="51.7031" style="stroke:#181818;stroke-width:1.0;" width="10" x="720.5" y="685.4766"/><rect fill="#FFFFFF" height="60.7031" style="stroke:#181818;stroke-width:1.0;" width="10" x="715.5" y="1437.8047"/><rect fill="#FFFFFF" height="91.0547" style="stroke:#181818;stroke-width:1.0;" width="10" x="715.5" y="1579.2109"/><rect fill="#FFFFFF" height="60.7031" style="stroke:#181818;stroke-width:1.0;" width="10" x="715.5" y="1789.0234"/><rect fill="#FFFFFF" height="60.7031" style="stroke:#181818;stroke-width:1.0;" width="10" x="715.5" y="1975.4844"/><rect fill="#FFFFFF" height="46.7031" style="stroke:#181818;stroke-width:1.0;" width="10" x="1001.5" y="737.1797"/><rect fill="#FFFFFF" height="46.7031" style="stroke:#181818;stroke-width:1.0;" width="10" x="1001.5" y="1014.5313"/><rect fill="#FFFFFF" height="76.7031" style="stroke:#181818;stroke-width:1.0;" width="10" x="1001.5" y="1361.1016"/><rect fill="#FFFFFF" height="46.7031" style="stroke:#181818;stroke-width:1.0;" width="10" x="1001.5" y="1742.3203"/><rect fill="#FFFFFF" height="46.7031" style="stroke:#181818;stroke-width:1.0;" width="10" x="1001.5" y="1928.7813"/><rect fill="#FFFFFF" height="253.6484" style="stroke:#181818;stroke-width:1.0;" width="10" x="1273.5" y="307.4219"/><rect fill="#FFFFFF" height="77.0547" style="stroke:#181818;stroke-width:1.0;" width="10" x="1273.5" y="783.8828"/><rect fill="#FFFFFF" height="30.3516" style="stroke:#181818;stroke-width:1.0;" width="10" x="1509.5" y="337.7734"/><rect fill="#FFFFFF" height="30.3516" style="stroke:#181818;stroke-width:1.0;" width="10" x="1509.5" y="830.5859"/><rect fill="#FFFFFF" height="989.9531" style="stroke:#181818;stroke-width:1.0;" width="10" x="1616.5" y="1061.2344"/><rect fill="#FFFFFF" height="167.7578" style="stroke:#181818;stroke-width:1.0;" width="10" x="1621.5" y="1223.3438"/><rect fill="#FFFFFF" height="507.3281" style="stroke:#181818;stroke-width:1.0;" width="10" x="1621.5" y="1543.8594"/><rect fill="#FFFFFF" height="30.3516" style="stroke:#181818;stroke-width:1.0;" width="10" x="1842.5" y="1258.6953"/><rect fill="#FFFFFF" height="30.3516" style="stroke:#181818;stroke-width:1.0;" width="10" x="1930.5" y="591.4219"/><rect fill="#FFFFFF" height="30.3516" style="stroke:#181818;stroke-width:1.0;" width="10" x="1930.5" y="1468.1563"/><rect fill="#FFFFFF" height="30.3516" style="stroke:#181818;stroke-width:1.0;" width="10" x="1930.5" y="1609.5625"/><rect fill="#FFFFFF" height="30.3516" style="stroke:#181818;stroke-width:1.0;" width="10" x="1930.5" y="1819.375"/><rect fill="#FFFFFF" height="30.3516" style="stroke:#181818;stroke-width:1.0;" width="10" x="1930.5" y="2005.8359"/><rect fill="none" height="1675.0625" style="stroke:#000000;stroke-width:1.5;" width="1989.5" x="10" y="383.125"/><rect fill="none" height="1414.4141" style="stroke:#000000;stroke-width:1.5;" width="1969.5" x="20" y="636.7734"/><rect fill="none" height="202.4609" style="stroke:#000000;stroke-width:1.5;" width="1323.5" x="656" y="1304.0469"/><rect fill="none" height="172.4609" style="stroke:#000000;stroke-width:1.5;" width="1323.5" x="656" y="1685.2656"/><rect fill="none" height="172.4609" style="stroke:#000000;stroke-width:1.5;" width="1323.5" x="656" y="1871.7266"/><line style="stroke:#181818;stroke-width:0.5;stroke-dasharray:5.0,5.0;" x1="47" x2="47" y1="121.2188" y2="2075.1875"/><line style="stroke:#181818;stroke-width:0.5;stroke-dasharray:5.0,5.0;" x1="303" x2="303" y1="121.2188" y2="2075.1875"/><line style="stroke:#181818;stroke-width:0.5;stroke-dasharray:5.0,5.0;" x1="482.5" x2="482.5" y1="121.2188" y2="2075.1875"/><line style="stroke:#181818;stroke-width:0.5;stroke-dasharray:5.0,5.0;" x1="720" x2="720" y1="121.2188" y2="2075.1875"/><line style="stroke:#181818;stroke-width:0.5;stroke-dasharray:5.0,5.0;" x1="1006.5" x2="1006.5" y1="121.2188" y2="2075.1875"/><line style="stroke:#181818;stroke-width:0.5;stroke-dasharray:5.0,5.0;" x1="1278.5" x2="1278.5" y1="121.2188" y2="2075.1875"/><line style="stroke:#181818;stroke-width:0.5;stroke-dasharray:5.0,5.0;" x1="1514.5" x2="1514.5" y1="121.2188" y2="2075.1875"/><line style="stroke:#181818;stroke-width:0.5;stroke-dasharray:5.0,5.0;" x1="1621.5" x2="1621.5" y1="121.2188" y2="2075.1875"/><line style="stroke:#181818;stroke-width:0.5;stroke-dasharray:5.0,5.0;" x1="1847.5" x2="1847.5" y1="121.2188" y2="2075.1875"/><line style="stroke:#181818;stroke-width:0.5;stroke-dasharray:5.0,5.0;" x1="1935.5" x2="1935.5" y1="121.2188" y2="2075.1875"/><text fill="#000000" font-family="sans-serif" font-size="14" lengthAdjust="spacing" textLength="29" x="30" y="118.1426">User</text><ellipse cx="47.5" cy="52.1094" fill="#E2E2F0" rx="8" ry="8" style="stroke:#181818;stroke-width:0.5;"/><path d="M47.5,60.1094 L47.5,87.1094 M34.5,68.1094 L60.5,68.1094 M47.5,87.1094 L34.5,102.1094 M47.5,87.1094 L60.5,102.1094 " fill="none" style="stroke:#181818;stroke-width:0.5;"/><text fill="#000000" font-family="sans-serif" font-size="14" lengthAdjust="spacing" textLength="29" x="30" y="2088.7207">User</text><ellipse cx="47.5" cy="2100.2969" fill="#E2E2F0" rx="8" ry="8" style="stroke:#181818;stroke-width:0.5;"/><path d="M47.5,2108.2969 L47.5,2135.2969 M34.5,2116.2969 L60.5,2116.2969 M47.5,2135.2969 L34.5,2150.2969 M47.5,2135.2969 L60.5,2150.2969 " fill="none" style="stroke:#181818;stroke-width:0.5;"/><text fill="#000000" font-family="sans-serif" font-size="14" lengthAdjust="spacing" textLength="53" x="274" y="118.1426">MobileUI</text><path d="M283,75.6094 L283,99.6094 M283,87.6094 L300,87.6094 " fill="none" style="stroke:#181818;stroke-width:0.5;"/><ellipse cx="312" cy="87.6094" fill="#E2E2F0" rx="12" ry="12" style="stroke:#181818;stroke-width:0.5;"/><text fill="#000000" font-family="sans-serif" font-size="14" lengthAdjust="spacing" textLength="53" x="274" y="2088.7207">MobileUI</text><path d="M283,2095.7969 L283,2119.7969 M283,2107.7969 L300,2107.7969 " fill="none" style="stroke:#181818;stroke-width:0.5;"/><ellipse cx="312" cy="2107.7969" fill="#E2E2F0" rx="12" ry="12" style="stroke:#181818;stroke-width:0.5;"/><rect fill="#E2E2F0" height="49.2188" rx="2.5" ry="2.5" style="stroke:#181818;stroke-width:0.5;" width="94" x="435.5" y="71"/><text fill="#000000" font-family="sans-serif" font-size="14" lengthAdjust="spacing" textLength="80" x="442.5" y="92.5332">&#171;cordinator&#187;</text><text fill="#000000" font-family="sans-serif" font-size="14" lengthAdjust="spacing" textLength="75" x="445" y="110.1426">ApiGateway</text><rect fill="#E2E2F0" height="49.2188" rx="2.5" ry="2.5" style="stroke:#181818;stroke-width:0.5;" width="94" x="435.5" y="2074.1875"/><text fill="#000000" font-family="sans-serif" font-size="14" lengthAdjust="spacing" textLength="80" x="442.5" y="2095.7207">&#171;cordinator&#187;</text><text fill="#000000" font-family="sans-serif" font-size="14" lengthAdjust="spacing" textLength="75" x="445" y="2113.3301">ApiGateway</text><rect fill="#E2E2F0" height="49.2188" rx="2.5" ry="2.5" style="stroke:#181818;stroke-width:0.5;" width="109" x="666" y="71"/><text fill="#000000" font-family="sans-serif" font-size="14" lengthAdjust="spacing" textLength="61" x="690" y="92.5332">&#171;service&#187;</text><text fill="#000000" font-family="sans-serif" font-size="14" lengthAdjust="spacing" textLength="91" x="677" y="110.1426">RecipeService</text><rect fill="#E2E2F0" height="49.2188" rx="2.5" ry="2.5" style="stroke:#181818;stroke-width:0.5;" width="109" x="666" y="2074.1875"/><text fill="#000000" font-family="sans-serif" font-size="14" lengthAdjust="spacing" textLength="61" x="690" y="2095.7207">&#171;service&#187;</text><text fill="#000000" font-family="sans-serif" font-size="14" lengthAdjust="spacing" textLength="91" x="677" y="2113.3301">RecipeService</text><rect fill="#E2E2F0" height="49.2188" rx="2.5" ry="2.5" style="stroke:#181818;stroke-width:0.5;" width="94" x="959.5" y="71"/><text fill="#000000" font-family="sans-serif" font-size="14" lengthAdjust="spacing" textLength="80" x="966.5" y="92.5332">&#171;cordinator&#187;</text><text fill="#000000" font-family="sans-serif" font-size="14" lengthAdjust="spacing" textLength="60" x="978.5" y="110.1426">Rabbitmq</text><rect fill="#E2E2F0" height="49.2188" rx="2.5" ry="2.5" style="stroke:#181818;stroke-width:0.5;" width="94" x="959.5" y="2074.1875"/><text fill="#000000" font-family="sans-serif" font-size="14" lengthAdjust="spacing" textLength="80" x="966.5" y="2095.7207">&#171;cordinator&#187;</text><text fill="#000000" font-family="sans-serif" font-size="14" lengthAdjust="spacing" textLength="60" x="978.5" y="2113.3301">Rabbitmq</text><rect fill="#E2E2F0" height="49.2188" rx="2.5" ry="2.5" style="stroke:#181818;stroke-width:0.5;" width="132" x="1212.5" y="71"/><text fill="#000000" font-family="sans-serif" font-size="14" lengthAdjust="spacing" textLength="61" x="1248" y="92.5332">&#171;service&#187;</text><text fill="#000000" font-family="sans-serif" font-size="14" lengthAdjust="spacing" textLength="114" x="1223.5" y="110.1426">UploadFileService</text><rect fill="#E2E2F0" height="49.2188" rx="2.5" ry="2.5" style="stroke:#181818;stroke-width:0.5;" width="132" x="1212.5" y="2074.1875"/><text fill="#000000" font-family="sans-serif" font-size="14" lengthAdjust="spacing" textLength="61" x="1248" y="2095.7207">&#171;service&#187;</text><text fill="#000000" font-family="sans-serif" font-size="14" lengthAdjust="spacing" textLength="114" x="1223.5" y="2113.3301">UploadFileService</text><rect fill="#E2E2F0" height="49.2188" rx="2.5" ry="2.5" style="stroke:#181818;stroke-width:0.5;" width="86" x="1471.5" y="71"/><text fill="#000000" font-family="sans-serif" font-size="14" lengthAdjust="spacing" textLength="61" x="1484" y="92.5332">&#171;service&#187;</text><text fill="#000000" font-family="sans-serif" font-size="14" lengthAdjust="spacing" textLength="68" x="1482.5" y="110.1426">Cloudinary</text><rect fill="#E2E2F0" height="49.2188" rx="2.5" ry="2.5" style="stroke:#181818;stroke-width:0.5;" width="86" x="1471.5" y="2074.1875"/><text fill="#000000" font-family="sans-serif" font-size="14" lengthAdjust="spacing" textLength="61" x="1484" y="2095.7207">&#171;service&#187;</text><text fill="#000000" font-family="sans-serif" font-size="14" lengthAdjust="spacing" textLength="68" x="1482.5" y="2113.3301">Cloudinary</text><rect fill="#E2E2F0" height="49.2188" rx="2.5" ry="2.5" style="stroke:#181818;stroke-width:0.5;" width="108" x="1567.5" y="71"/><text fill="#000000" font-family="sans-serif" font-size="14" lengthAdjust="spacing" textLength="61" x="1591" y="92.5332">&#171;service&#187;</text><text fill="#000000" font-family="sans-serif" font-size="14" lengthAdjust="spacing" textLength="90" x="1578.5" y="110.1426">RecipeWorker</text><rect fill="#E2E2F0" height="49.2188" rx="2.5" ry="2.5" style="stroke:#181818;stroke-width:0.5;" width="108" x="1567.5" y="2074.1875"/><text fill="#000000" font-family="sans-serif" font-size="14" lengthAdjust="spacing" textLength="61" x="1591" y="2095.7207">&#171;service&#187;</text><text fill="#000000" font-family="sans-serif" font-size="14" lengthAdjust="spacing" textLength="90" x="1578.5" y="2113.3301">RecipeWorker</text><rect fill="#E2E2F0" height="49.2188" rx="2.5" ry="2.5" style="stroke:#181818;stroke-width:0.5;" width="88" x="1803.5" y="71"/><text fill="#000000" font-family="sans-serif" font-size="14" lengthAdjust="spacing" textLength="61" x="1817" y="92.5332">&#171;service&#187;</text><text fill="#000000" font-family="sans-serif" font-size="14" lengthAdjust="spacing" textLength="70" x="1814.5" y="110.1426">GerminiAPI</text><rect fill="#E2E2F0" height="49.2188" rx="2.5" ry="2.5" style="stroke:#181818;stroke-width:0.5;" width="88" x="1803.5" y="2074.1875"/><text fill="#000000" font-family="sans-serif" font-size="14" lengthAdjust="spacing" textLength="61" x="1817" y="2095.7207">&#171;service&#187;</text><text fill="#000000" font-family="sans-serif" font-size="14" lengthAdjust="spacing" textLength="70" x="1814.5" y="2113.3301">GerminiAPI</text><text fill="#000000" font-family="sans-serif" font-size="14" lengthAdjust="spacing" textLength="62" x="1901.5" y="118.1426">MongoDB</text><path d="M1917.5,67.6094 C1917.5,57.6094 1935.5,57.6094 1935.5,57.6094 C1935.5,57.6094 1953.5,57.6094 1953.5,67.6094 L1953.5,93.6094 C1953.5,103.6094 1935.5,103.6094 1935.5,103.6094 C1935.5,103.6094 1917.5,103.6094 1917.5,93.6094 L1917.5,67.6094 " fill="#E2E2F0" style="stroke:#181818;stroke-width:1.5;"/><path d="M1917.5,67.6094 C1917.5,77.6094 1935.5,77.6094 1935.5,77.6094 C1935.5,77.6094 1953.5,77.6094 1953.5,67.6094 " fill="none" style="stroke:#181818;stroke-width:1.5;"/><text fill="#000000" font-family="sans-serif" font-size="14" lengthAdjust="spacing" textLength="62" x="1901.5" y="2088.7207">MongoDB</text><path d="M1917.5,2101.7969 C1917.5,2091.7969 1935.5,2091.7969 1935.5,2091.7969 C1935.5,2091.7969 1953.5,2091.7969 1953.5,2101.7969 L1953.5,2127.7969 C1953.5,2137.7969 1935.5,2137.7969 1935.5,2137.7969 C1935.5,2137.7969 1917.5,2137.7969 1917.5,2127.7969 L1917.5,2101.7969 " fill="#E2E2F0" style="stroke:#181818;stroke-width:1.5;"/><path d="M1917.5,2101.7969 C1917.5,2111.7969 1935.5,2111.7969 1935.5,2111.7969 C1935.5,2111.7969 1953.5,2111.7969 1953.5,2101.7969 " fill="none" style="stroke:#181818;stroke-width:1.5;"/><rect fill="#FFFFFF" height="998.7188" style="stroke:#181818;stroke-width:1.0;" width="10" x="298.5" y="169.9219"/><rect fill="#FFFFFF" height="921.6641" style="stroke:#181818;stroke-width:1.0;" width="10" x="477.5" y="200.2734"/><rect fill="#FFFFFF" height="814.5156" style="stroke:#181818;stroke-width:1.0;" width="10" x="715.5" y="277.0703"/><rect fill="#FFFFFF" height="51.7031" style="stroke:#181818;stroke-width:1.0;" width="10" x="720.5" y="685.4766"/><rect fill="#FFFFFF" height="60.7031" style="stroke:#181818;stroke-width:1.0;" width="10" x="715.5" y="1437.8047"/><rect fill="#FFFFFF" height="91.0547" style="stroke:#181818;stroke-width:1.0;" width="10" x="715.5" y="1579.2109"/><rect fill="#FFFFFF" height="60.7031" style="stroke:#181818;stroke-width:1.0;" width="10" x="715.5" y="1789.0234"/><rect fill="#FFFFFF" height="60.7031" style="stroke:#181818;stroke-width:1.0;" width="10" x="715.5" y="1975.4844"/><rect fill="#FFFFFF" height="46.7031" style="stroke:#181818;stroke-width:1.0;" width="10" x="1001.5" y="737.1797"/><rect fill="#FFFFFF" height="46.7031" style="stroke:#181818;stroke-width:1.0;" width="10" x="1001.5" y="1014.5313"/><rect fill="#FFFFFF" height="76.7031" style="stroke:#181818;stroke-width:1.0;" width="10" x="1001.5" y="1361.1016"/><rect fill="#FFFFFF" height="46.7031" style="stroke:#181818;stroke-width:1.0;" width="10" x="1001.5" y="1742.3203"/><rect fill="#FFFFFF" height="46.7031" style="stroke:#181818;stroke-width:1.0;" width="10" x="1001.5" y="1928.7813"/><rect fill="#FFFFFF" height="253.6484" style="stroke:#181818;stroke-width:1.0;" width="10" x="1273.5" y="307.4219"/><rect fill="#FFFFFF" height="77.0547" style="stroke:#181818;stroke-width:1.0;" width="10" x="1273.5" y="783.8828"/><rect fill="#FFFFFF" height="30.3516" style="stroke:#181818;stroke-width:1.0;" width="10" x="1509.5" y="337.7734"/><rect fill="#FFFFFF" height="30.3516" style="stroke:#181818;stroke-width:1.0;" width="10" x="1509.5" y="830.5859"/><rect fill="#FFFFFF" height="989.9531" style="stroke:#181818;stroke-width:1.0;" width="10" x="1616.5" y="1061.2344"/><rect fill="#FFFFFF" height="167.7578" style="stroke:#181818;stroke-width:1.0;" width="10" x="1621.5" y="1223.3438"/><rect fill="#FFFFFF" height="507.3281" style="stroke:#181818;stroke-width:1.0;" width="10" x="1621.5" y="1543.8594"/><rect fill="#FFFFFF" height="30.3516" style="stroke:#181818;stroke-width:1.0;" width="10" x="1842.5" y="1258.6953"/><rect fill="#FFFFFF" height="30.3516" style="stroke:#181818;stroke-width:1.0;" width="10" x="1930.5" y="591.4219"/><rect fill="#FFFFFF" height="30.3516" style="stroke:#181818;stroke-width:1.0;" width="10" x="1930.5" y="1468.1563"/><rect fill="#FFFFFF" height="30.3516" style="stroke:#181818;stroke-width:1.0;" width="10" x="1930.5" y="1609.5625"/><rect fill="#FFFFFF" height="30.3516" style="stroke:#181818;stroke-width:1.0;" width="10" x="1930.5" y="1819.375"/><rect fill="#FFFFFF" height="30.3516" style="stroke:#181818;stroke-width:1.0;" width="10" x="1930.5" y="2005.8359"/><polygon fill="#181818" points="286.5,165.9219,296.5,169.9219,286.5,173.9219,290.5,169.9219" style="stroke:#181818;stroke-width:1.0;"/><line style="stroke:#181818;stroke-width:1.0;" x1="47.5" x2="292.5" y1="169.9219" y2="169.9219"/><text fill="#000000" font-family="sans-serif" font-size="13" lengthAdjust="spacing" textLength="187" x="54.5" y="148.7139">1. Fill the create recipe form and</text><text fill="#000000" font-family="sans-serif" font-size="13" lengthAdjust="spacing" textLength="114" x="58.5" y="165.0654">touch Create button</text><polygon fill="#181818" points="465.5,196.2734,475.5,200.2734,465.5,204.2734,469.5,200.2734" style="stroke:#181818;stroke-width:1.0;"/><line style="stroke:#181818;stroke-width:1.0;" x1="308.5" x2="471.5" y1="200.2734" y2="200.2734"/><text fill="#000000" font-family="sans-serif" font-size="13" lengthAdjust="spacing" textLength="92" x="315.5" y="195.417">2. Create recipe</text><rect fill="#FFFFFF" height="41.4453" style="stroke:#000000;stroke-width:1.5;" width="126" x="432.5" y="208.2734"/><path d="M432.5,208.2734 L494.5,208.2734 L494.5,216.2734 L484.5,226.2734 L432.5,226.2734 L432.5,208.2734 " fill="#EEEEEE" style="stroke:#000000;stroke-width:2.0;"/><text fill="#000000" font-family="sans-serif" font-size="13" font-weight="bold" lengthAdjust="spacing" textLength="17" x="445.5" y="223.7686">ref</text><text fill="#000000" font-family="sans-serif" font-size="12" lengthAdjust="spacing" textLength="118" x="436.5" y="242.7305">3. Verify access token</text><polygon fill="#181818" points="703.5,273.0703,713.5,277.0703,703.5,281.0703,707.5,277.0703" style="stroke:#181818;stroke-width:1.0;"/><line style="stroke:#181818;stroke-width:1.0;" x1="487.5" x2="709.5" y1="277.0703" y2="277.0703"/><text fill="#000000" font-family="sans-serif" font-size="13" lengthAdjust="spacing" textLength="108" x="494.5" y="272.2139">4. Forward request</text><polygon fill="#181818" points="1261.5,303.4219,1271.5,307.4219,1261.5,311.4219,1265.5,307.4219" style="stroke:#181818;stroke-width:1.0;"/><line style="stroke:#181818;stroke-width:1.0;" x1="725.5" x2="1267.5" y1="307.4219" y2="307.4219"/><text fill="#000000" font-family="sans-serif" font-size="13" lengthAdjust="spacing" textLength="276" x="732.5" y="302.5654">5. gRPC call to upload recipe's images &#171;gRPC&#187;</text><polygon fill="#181818" points="1497.5,333.7734,1507.5,337.7734,1497.5,341.7734,1501.5,337.7734" style="stroke:#181818;stroke-width:1.0;"/><line style="stroke:#181818;stroke-width:1.0;" x1="1283.5" x2="1503.5" y1="337.7734" y2="337.7734"/><text fill="#000000" font-family="sans-serif" font-size="13" lengthAdjust="spacing" textLength="172" x="1290.5" y="332.917">6. Upload image to cloudinary</text><polygon fill="#181818" points="1294.5,364.125,1284.5,368.125,1294.5,372.125,1290.5,368.125" style="stroke:#181818;stroke-width:1.0;"/><line style="stroke:#181818;stroke-width:1.0;stroke-dasharray:2.0,2.0;" x1="1288.5" x2="1513.5" y1="368.125" y2="368.125"/><text fill="#000000" font-family="sans-serif" font-size="13" lengthAdjust="spacing" textLength="110" x="1300.5" y="363.2686">7. Return response</text><path d="M10,383.125 L71,383.125 L71,391.4766 L61,401.4766 L10,401.4766 L10,383.125 " fill="#EEEEEE" style="stroke:#000000;stroke-width:1.5;"/><rect fill="none" height="1675.0625" style="stroke:#000000;stroke-width:1.5;" width="1989.5" x="10" y="383.125"/><text fill="#000000" font-family="sans-serif" font-size="13" font-weight="bold" lengthAdjust="spacing" textLength="16" x="25" y="397.6201">alt</text><text fill="#000000" font-family="sans-serif" font-size="11" font-weight="bold" lengthAdjust="spacing" textLength="138" x="86" y="396.5439">[Upload to cloudinary fail]</text><polygon fill="#181818" points="736.5,419.8281,726.5,423.8281,736.5,427.8281,732.5,423.8281" style="stroke:#181818;stroke-width:1.0;"/><line style="stroke:#181818;stroke-width:1.0;stroke-dasharray:2.0,2.0;" x1="730.5" x2="1272.5" y1="423.8281" y2="423.8281"/><text fill="#000000" font-family="sans-serif" font-size="13" lengthAdjust="spacing" textLength="193" x="742.5" y="418.9717">8A. Return upload image fail error</text><polygon fill="#181818" points="498.5,450.1797,488.5,454.1797,498.5,458.1797,494.5,454.1797" style="stroke:#181818;stroke-width:1.0;"/><line style="stroke:#181818;stroke-width:1.0;stroke-dasharray:2.0,2.0;" x1="492.5" x2="714.5" y1="454.1797" y2="454.1797"/><text fill="#000000" font-family="sans-serif" font-size="13" lengthAdjust="spacing" textLength="204" x="504.5" y="449.3232">8A.1. Return upload image fail error</text><polygon fill="#181818" points="319.5,480.5313,309.5,484.5313,319.5,488.5313,315.5,484.5313" style="stroke:#181818;stroke-width:1.0;"/><line style="stroke:#181818;stroke-width:1.0;stroke-dasharray:2.0,2.0;" x1="313.5" x2="476.5" y1="484.5313" y2="484.5313"/><text fill="#000000" font-family="sans-serif" font-size="13" lengthAdjust="spacing" textLength="138" x="325.5" y="479.6748">8A.2. Forward response</text><polygon fill="#181818" points="58.5,510.8828,48.5,514.8828,58.5,518.8828,54.5,514.8828" style="stroke:#181818;stroke-width:1.0;"/><line style="stroke:#181818;stroke-width:1.0;stroke-dasharray:2.0,2.0;" x1="52.5" x2="297.5" y1="514.8828" y2="514.8828"/><text fill="#000000" font-family="sans-serif" font-size="13" lengthAdjust="spacing" textLength="209" x="64.5" y="510.0264">8A.3. Display upload image fail error</text><line style="stroke:#000000;stroke-width:1.0;stroke-dasharray:2.0,2.0;" x1="10" x2="1999.5" y1="523.8828" y2="523.8828"/><text fill="#000000" font-family="sans-serif" font-size="11" font-weight="bold" lengthAdjust="spacing" textLength="169" x="15" y="535.3018">[Upload to cloudinary success]</text><polygon fill="#181818" points="736.5,557.0703,726.5,561.0703,736.5,565.0703,732.5,561.0703" style="stroke:#181818;stroke-width:1.0;"/><line style="stroke:#181818;stroke-width:1.0;stroke-dasharray:2.0,2.0;" x1="730.5" x2="1277.5" y1="561.0703" y2="561.0703"/><text fill="#000000" font-family="sans-serif" font-size="13" lengthAdjust="spacing" textLength="238" x="742.5" y="556.2139">9. Return recipe's image urls list &#171;gRPC&#187;</text><polygon fill="#181818" points="1918.5,587.4219,1928.5,591.4219,1918.5,595.4219,1922.5,591.4219" style="stroke:#181818;stroke-width:1.0;"/><line style="stroke:#181818;stroke-width:1.0;" x1="725.5" x2="1924.5" y1="591.4219" y2="591.4219"/><text fill="#000000" font-family="sans-serif" font-size="13" lengthAdjust="spacing" textLength="83" x="732.5" y="586.5654">10. Insert data</text><polygon fill="#181818" points="736.5,617.7734,726.5,621.7734,736.5,625.7734,732.5,621.7734" style="stroke:#181818;stroke-width:1.0;"/><line style="stroke:#181818;stroke-width:1.0;stroke-dasharray:2.0,2.0;" x1="730.5" x2="1934.5" y1="621.7734" y2="621.7734"/><text fill="#000000" font-family="sans-serif" font-size="13" lengthAdjust="spacing" textLength="117" x="742.5" y="616.917">11. Return response</text><path d="M20,636.7734 L81,636.7734 L81,645.125 L71,655.125 L20,655.125 L20,636.7734 " fill="#EEEEEE" style="stroke:#000000;stroke-width:1.5;"/><rect fill="none" height="1414.4141" style="stroke:#000000;stroke-width:1.5;" width="1969.5" x="20" y="636.7734"/><text fill="#000000" font-family="sans-serif" font-size="13" font-weight="bold" lengthAdjust="spacing" textLength="16" x="35" y="651.2686">alt</text><text fill="#000000" font-family="sans-serif" font-size="11" font-weight="bold" lengthAdjust="spacing" textLength="154" x="96" y="650.1924">[Add recipe to database fail]</text><line style="stroke:#181818;stroke-width:1.0;" x1="725.5" x2="772.5" y1="672.4766" y2="672.4766"/><line style="stroke:#181818;stroke-width:1.0;" x1="772.5" x2="772.5" y1="672.4766" y2="685.4766"/><line style="stroke:#181818;stroke-width:1.0;" x1="731.5" x2="772.5" y1="685.4766" y2="685.4766"/><polygon fill="#181818" points="741.5,681.4766,731.5,685.4766,741.5,689.4766,737.5,685.4766" style="stroke:#181818;stroke-width:1.0;"/><text fill="#000000" font-family="sans-serif" font-size="13" lengthAdjust="spacing" textLength="131" x="737.5" y="667.6201">12A. Roll back images</text><polygon fill="#181818" points="989.5,733.1797,999.5,737.1797,989.5,741.1797,993.5,737.1797" style="stroke:#181818;stroke-width:1.0;"/><line style="stroke:#181818;stroke-width:1.0;" x1="725.5" x2="995.5" y1="737.1797" y2="737.1797"/><text fill="#000000" font-family="sans-serif" font-size="13" lengthAdjust="spacing" textLength="248" x="732.5" y="715.9717">12A.1. Publish "DeleteMultipleImageEvent"</text><text fill="#000000" font-family="sans-serif" font-size="13" lengthAdjust="spacing" textLength="108" x="736.5" y="732.3232">message &#171;Async&#187;</text><polygon fill="#181818" points="1261.5,779.8828,1271.5,783.8828,1261.5,787.8828,1265.5,783.8828" style="stroke:#181818;stroke-width:1.0;"/><line style="stroke:#181818;stroke-width:1.0;" x1="1006.5" x2="1267.5" y1="783.8828" y2="783.8828"/><text fill="#000000" font-family="sans-serif" font-size="13" lengthAdjust="spacing" textLength="243" x="1013.5" y="762.6748">12A.2. Deliver "DeleteMultipleImageEvent"</text><text fill="#000000" font-family="sans-serif" font-size="13" lengthAdjust="spacing" textLength="53" x="1017.5" y="779.0264">message</text><polygon fill="#181818" points="1497.5,826.5859,1507.5,830.5859,1497.5,834.5859,1501.5,830.5859" style="stroke:#181818;stroke-width:1.0;"/><line style="stroke:#181818;stroke-width:1.0;" x1="1283.5" x2="1503.5" y1="830.5859" y2="830.5859"/><text fill="#000000" font-family="sans-serif" font-size="13" lengthAdjust="spacing" textLength="203" x="1290.5" y="809.3779">12A.3. Consume message and call</text><text fill="#000000" font-family="sans-serif" font-size="13" lengthAdjust="spacing" textLength="159" x="1294.5" y="825.7295">cloudinary to delete images</text><polygon fill="#181818" points="1289.5,856.9375,1279.5,860.9375,1289.5,864.9375,1285.5,860.9375" style="stroke:#181818;stroke-width:1.0;"/><line style="stroke:#181818;stroke-width:1.0;stroke-dasharray:2.0,2.0;" x1="1283.5" x2="1513.5" y1="860.9375" y2="860.9375"/><text fill="#000000" font-family="sans-serif" font-size="13" lengthAdjust="spacing" textLength="137" x="1295.5" y="856.0811">12A.4. Return response</text><line style="stroke:#A80036;stroke-width:2.0;" x1="1269.5" x2="1287.5" y1="851.9375" y2="869.9375"/><line style="stroke:#A80036;stroke-width:2.0;" x1="1269.5" x2="1287.5" y1="869.9375" y2="851.9375"/><polygon fill="#181818" points="498.5,887.2891,488.5,891.2891,498.5,895.2891,494.5,891.2891" style="stroke:#181818;stroke-width:1.0;"/><line style="stroke:#181818;stroke-width:1.0;stroke-dasharray:2.0,2.0;" x1="492.5" x2="714.5" y1="891.2891" y2="891.2891"/><text fill="#000000" font-family="sans-serif" font-size="13" lengthAdjust="spacing" textLength="194" x="504.5" y="886.4326">12A.5. Return add recipe fail error</text><polygon fill="#181818" points="319.5,917.6406,309.5,921.6406,319.5,925.6406,315.5,921.6406" style="stroke:#181818;stroke-width:1.0;"/><line style="stroke:#181818;stroke-width:1.0;stroke-dasharray:2.0,2.0;" x1="313.5" x2="476.5" y1="921.6406" y2="921.6406"/><text fill="#000000" font-family="sans-serif" font-size="13" lengthAdjust="spacing" textLength="145" x="325.5" y="916.7842">12A.6. Forward response</text><polygon fill="#181818" points="58.5,947.9922,48.5,951.9922,58.5,955.9922,54.5,951.9922" style="stroke:#181818;stroke-width:1.0;"/><line style="stroke:#181818;stroke-width:1.0;stroke-dasharray:2.0,2.0;" x1="52.5" x2="297.5" y1="951.9922" y2="951.9922"/><text fill="#000000" font-family="sans-serif" font-size="13" lengthAdjust="spacing" textLength="203" x="64.5" y="947.1357">12A.7. Display add recipe fail error.</text><line style="stroke:#000000;stroke-width:1.0;stroke-dasharray:2.0,2.0;" x1="20" x2="1989.5" y1="960.9922" y2="960.9922"/><text fill="#000000" font-family="sans-serif" font-size="11" font-weight="bold" lengthAdjust="spacing" textLength="185" x="25" y="972.4111">[Add recipe to database success]</text><polygon fill="#181818" points="989.5,1010.5313,999.5,1014.5313,989.5,1018.5313,993.5,1014.5313" style="stroke:#181818;stroke-width:1.0;"/><line style="stroke:#181818;stroke-width:1.0;" x1="725.5" x2="995.5" y1="1014.5313" y2="1014.5313"/><text fill="#000000" font-family="sans-serif" font-size="13" lengthAdjust="spacing" textLength="198" x="732.5" y="993.3232">18. Publish "ValidateRecipeEvent"</text><text fill="#000000" font-family="sans-serif" font-size="13" lengthAdjust="spacing" textLength="108" x="736.5" y="1009.6748">message &#171;Async&#187;</text><polygon fill="#181818" points="1604.5,1057.2344,1614.5,1061.2344,1604.5,1065.2344,1608.5,1061.2344" style="stroke:#181818;stroke-width:1.0;"/><line style="stroke:#181818;stroke-width:1.0;" x1="1006.5" x2="1610.5" y1="1061.2344" y2="1061.2344"/><text fill="#000000" font-family="sans-serif" font-size="13" lengthAdjust="spacing" textLength="193" x="1013.5" y="1040.0264">19. Deliver "ValidateRecipeEvent"</text><text fill="#000000" font-family="sans-serif" font-size="13" lengthAdjust="spacing" textLength="53" x="1017.5" y="1056.3779">message</text><polygon fill="#181818" points="498.5,1087.5859,488.5,1091.5859,498.5,1095.5859,494.5,1091.5859" style="stroke:#181818;stroke-width:1.0;"/><line style="stroke:#181818;stroke-width:1.0;stroke-dasharray:2.0,2.0;" x1="492.5" x2="719.5" y1="1091.5859" y2="1091.5859"/><text fill="#000000" font-family="sans-serif" font-size="13" lengthAdjust="spacing" textLength="177" x="504.5" y="1086.7295">20. Retrun add recipe success</text><line style="stroke:#A80036;stroke-width:2.0;" x1="711.5" x2="729.5" y1="1082.5859" y2="1100.5859"/><line style="stroke:#A80036;stroke-width:2.0;" x1="711.5" x2="729.5" y1="1100.5859" y2="1082.5859"/><polygon fill="#181818" points="319.5,1117.9375,309.5,1121.9375,319.5,1125.9375,315.5,1121.9375" style="stroke:#181818;stroke-width:1.0;"/><line style="stroke:#181818;stroke-width:1.0;stroke-dasharray:2.0,2.0;" x1="313.5" x2="481.5" y1="1121.9375" y2="1121.9375"/><text fill="#000000" font-family="sans-serif" font-size="13" lengthAdjust="spacing" textLength="125" x="325.5" y="1117.0811">21. Forward response</text><polygon fill="#181818" points="58.5,1164.6406,48.5,1168.6406,58.5,1172.6406,54.5,1168.6406" style="stroke:#181818;stroke-width:1.0;"/><line style="stroke:#181818;stroke-width:1.0;stroke-dasharray:2.0,2.0;" x1="52.5" x2="302.5" y1="1168.6406" y2="1168.6406"/><text fill="#000000" font-family="sans-serif" font-size="13" lengthAdjust="spacing" textLength="182" x="64.5" y="1147.4326">22. Display add recipe success</text><text fill="#000000" font-family="sans-serif" font-size="13" lengthAdjust="spacing" textLength="223" x="68.5" y="1163.7842">and redirect user to community screen</text><line style="stroke:#181818;stroke-width:1.0;" x1="1626.5" x2="1673.5" y1="1210.3438" y2="1210.3438"/><line style="stroke:#181818;stroke-width:1.0;" x1="1673.5" x2="1673.5" y1="1210.3438" y2="1223.3438"/><line style="stroke:#181818;stroke-width:1.0;" x1="1632.5" x2="1673.5" y1="1223.3438" y2="1223.3438"/><polygon fill="#181818" points="1642.5,1219.3438,1632.5,1223.3438,1642.5,1227.3438,1638.5,1223.3438" style="stroke:#181818;stroke-width:1.0;"/><text fill="#000000" font-family="sans-serif" font-size="13" lengthAdjust="spacing" textLength="183" x="1638.5" y="1189.1357">23. Consume message and call</text><text fill="#000000" font-family="sans-serif" font-size="13" lengthAdjust="spacing" textLength="163" x="1642.5" y="1205.4873">CheckRecipeAbuse function</text><polygon fill="#181818" points="1830.5,1254.6953,1840.5,1258.6953,1830.5,1262.6953,1834.5,1258.6953" style="stroke:#181818;stroke-width:1.0;"/><line style="stroke:#181818;stroke-width:1.0;" x1="1631.5" x2="1836.5" y1="1258.6953" y2="1258.6953"/><text fill="#000000" font-family="sans-serif" font-size="13" lengthAdjust="spacing" textLength="162" x="1638.5" y="1253.8389">24. Call API to check abuse</text><polygon fill="#181818" points="1642.5,1285.0469,1632.5,1289.0469,1642.5,1293.0469,1638.5,1289.0469" style="stroke:#181818;stroke-width:1.0;"/><line style="stroke:#181818;stroke-width:1.0;stroke-dasharray:2.0,2.0;" x1="1636.5" x2="1846.5" y1="1289.0469" y2="1289.0469"/><text fill="#000000" font-family="sans-serif" font-size="13" lengthAdjust="spacing" textLength="117" x="1648.5" y="1284.1904">25. Return response</text><path d="M656,1304.0469 L721,1304.0469 L721,1312.3984 L711,1322.3984 L656,1322.3984 L656,1304.0469 " fill="#EEEEEE" style="stroke:#000000;stroke-width:1.5;"/><rect fill="none" height="202.4609" style="stroke:#000000;stroke-width:1.5;" width="1323.5" x="656" y="1304.0469"/><text fill="#000000" font-family="sans-serif" font-size="13" font-weight="bold" lengthAdjust="spacing" textLength="20" x="671" y="1318.542">opt</text><text fill="#000000" font-family="sans-serif" font-size="11" font-weight="bold" lengthAdjust="spacing" textLength="144" x="736" y="1317.4658">[recipe has abusive word]</text><polygon fill="#181818" points="1022.5,1357.1016,1012.5,1361.1016,1022.5,1365.1016,1018.5,1361.1016" style="stroke:#181818;stroke-width:1.0;"/><line style="stroke:#181818;stroke-width:1.0;" x1="1016.5" x2="1620.5" y1="1361.1016" y2="1361.1016"/><text fill="#000000" font-family="sans-serif" font-size="13" lengthAdjust="spacing" textLength="205" x="1028.5" y="1339.8936">26A. Publish "AbusiveRecipeEvent"</text><text fill="#000000" font-family="sans-serif" font-size="13" lengthAdjust="spacing" textLength="108" x="1032.5" y="1356.2451">message &#171;Async&#187;</text><polygon fill="#181818" points="736.5,1433.8047,726.5,1437.8047,736.5,1441.8047,732.5,1437.8047" style="stroke:#181818;stroke-width:1.0;"/><line style="stroke:#181818;stroke-width:1.0;" x1="730.5" x2="1005.5" y1="1437.8047" y2="1437.8047"/><text fill="#000000" font-family="sans-serif" font-size="13" lengthAdjust="spacing" textLength="211" x="742.5" y="1416.5967">26A.1. Deliver "AbusiveRecipeEvent"</text><text fill="#000000" font-family="sans-serif" font-size="13" lengthAdjust="spacing" textLength="53" x="746.5" y="1432.9482">message</text><polygon fill="#181818" points="1918.5,1464.1563,1928.5,1468.1563,1918.5,1472.1563,1922.5,1468.1563" style="stroke:#181818;stroke-width:1.0;"/><line style="stroke:#181818;stroke-width:1.0;" x1="725.5" x2="1924.5" y1="1468.1563" y2="1468.1563"/><text fill="#000000" font-family="sans-serif" font-size="13" lengthAdjust="spacing" textLength="251" x="732.5" y="1463.2998">26A.2. Consume message and update data</text><polygon fill="#181818" points="731.5,1494.5078,721.5,1498.5078,731.5,1502.5078,727.5,1498.5078" style="stroke:#181818;stroke-width:1.0;"/><line style="stroke:#181818;stroke-width:1.0;stroke-dasharray:2.0,2.0;" x1="725.5" x2="1934.5" y1="1498.5078" y2="1498.5078"/><text fill="#000000" font-family="sans-serif" font-size="13" lengthAdjust="spacing" textLength="137" x="737.5" y="1493.6514">26A.3. Return response</text><line style="stroke:#A80036;stroke-width:2.0;" x1="711.5" x2="729.5" y1="1489.5078" y2="1507.5078"/><line style="stroke:#A80036;stroke-width:2.0;" x1="711.5" x2="729.5" y1="1507.5078" y2="1489.5078"/><line style="stroke:#181818;stroke-width:1.0;" x1="1626.5" x2="1673.5" y1="1530.8594" y2="1530.8594"/><line style="stroke:#181818;stroke-width:1.0;" x1="1673.5" x2="1673.5" y1="1530.8594" y2="1543.8594"/><line style="stroke:#181818;stroke-width:1.0;" x1="1632.5" x2="1673.5" y1="1543.8594" y2="1543.8594"/><polygon fill="#181818" points="1642.5,1539.8594,1632.5,1543.8594,1642.5,1547.8594,1638.5,1543.8594" style="stroke:#181818;stroke-width:1.0;"/><text fill="#000000" font-family="sans-serif" font-size="13" lengthAdjust="spacing" textLength="202" x="1638.5" y="1526.0029">27. Call CheckRecipeTags function</text><polygon fill="#181818" points="736.5,1575.2109,726.5,1579.2109,736.5,1583.2109,732.5,1579.2109" style="stroke:#181818;stroke-width:1.0;"/><line style="stroke:#181818;stroke-width:1.0;" x1="730.5" x2="1620.5" y1="1579.2109" y2="1579.2109"/><text fill="#000000" font-family="sans-serif" font-size="13" lengthAdjust="spacing" textLength="198" x="742.5" y="1574.3545">28. gRPC call to get tags &#171;gRPC&#187;</text><polygon fill="#181818" points="1918.5,1605.5625,1928.5,1609.5625,1918.5,1613.5625,1922.5,1609.5625" style="stroke:#181818;stroke-width:1.0;"/><line style="stroke:#181818;stroke-width:1.0;" x1="725.5" x2="1924.5" y1="1609.5625" y2="1609.5625"/><text fill="#000000" font-family="sans-serif" font-size="13" lengthAdjust="spacing" textLength="86" x="732.5" y="1604.7061">29. Query data</text><polygon fill="#181818" points="736.5,1635.9141,726.5,1639.9141,736.5,1643.9141,732.5,1639.9141" style="stroke:#181818;stroke-width:1.0;"/><line style="stroke:#181818;stroke-width:1.0;stroke-dasharray:2.0,2.0;" x1="730.5" x2="1934.5" y1="1639.9141" y2="1639.9141"/><text fill="#000000" font-family="sans-serif" font-size="13" lengthAdjust="spacing" textLength="110" x="742.5" y="1635.0576">30. Return tags list</text><polygon fill="#181818" points="1609.5,1666.2656,1619.5,1670.2656,1609.5,1674.2656,1613.5,1670.2656" style="stroke:#181818;stroke-width:1.0;"/><line style="stroke:#181818;stroke-width:1.0;stroke-dasharray:2.0,2.0;" x1="720.5" x2="1615.5" y1="1670.2656" y2="1670.2656"/><text fill="#000000" font-family="sans-serif" font-size="13" lengthAdjust="spacing" textLength="162" x="727.5" y="1665.4092">31. Return tags list &#171;gRPC&#187;</text><path d="M656,1685.2656 L721,1685.2656 L721,1693.6172 L711,1703.6172 L656,1703.6172 L656,1685.2656 " fill="#EEEEEE" style="stroke:#000000;stroke-width:1.5;"/><rect fill="none" height="172.4609" style="stroke:#000000;stroke-width:1.5;" width="1323.5" x="656" y="1685.2656"/><text fill="#000000" font-family="sans-serif" font-size="13" font-weight="bold" lengthAdjust="spacing" textLength="20" x="671" y="1699.7607">opt</text><text fill="#000000" font-family="sans-serif" font-size="11" font-weight="bold" lengthAdjust="spacing" textLength="203" x="736" y="1698.6846">[recipe has tags existed in database]</text><polygon fill="#181818" points="1022.5,1738.3203,1012.5,1742.3203,1022.5,1746.3203,1018.5,1742.3203" style="stroke:#181818;stroke-width:1.0;"/><line style="stroke:#181818;stroke-width:1.0;" x1="1016.5" x2="1620.5" y1="1742.3203" y2="1742.3203"/><text fill="#000000" font-family="sans-serif" font-size="13" lengthAdjust="spacing" textLength="218" x="1028.5" y="1721.1123">32A. Publish "AddTagToRecipeEvent"</text><text fill="#000000" font-family="sans-serif" font-size="13" lengthAdjust="spacing" textLength="108" x="1032.5" y="1737.4639">message &#171;Async&#187;</text><polygon fill="#181818" points="736.5,1785.0234,726.5,1789.0234,736.5,1793.0234,732.5,1789.0234" style="stroke:#181818;stroke-width:1.0;"/><line style="stroke:#181818;stroke-width:1.0;" x1="730.5" x2="1005.5" y1="1789.0234" y2="1789.0234"/><text fill="#000000" font-family="sans-serif" font-size="13" lengthAdjust="spacing" textLength="224" x="742.5" y="1767.8154">32A.1. Deliver "AddTagToRecipeEvent"</text><text fill="#000000" font-family="sans-serif" font-size="13" lengthAdjust="spacing" textLength="53" x="746.5" y="1784.167">message</text><polygon fill="#181818" points="1918.5,1815.375,1928.5,1819.375,1918.5,1823.375,1922.5,1819.375" style="stroke:#181818;stroke-width:1.0;"/><line style="stroke:#181818;stroke-width:1.0;" x1="725.5" x2="1924.5" y1="1819.375" y2="1819.375"/><text fill="#000000" font-family="sans-serif" font-size="13" lengthAdjust="spacing" textLength="251" x="732.5" y="1814.5186">32A.2. Consume message and update data</text><polygon fill="#181818" points="731.5,1845.7266,721.5,1849.7266,731.5,1853.7266,727.5,1849.7266" style="stroke:#181818;stroke-width:1.0;"/><line style="stroke:#181818;stroke-width:1.0;stroke-dasharray:2.0,2.0;" x1="725.5" x2="1934.5" y1="1849.7266" y2="1849.7266"/><text fill="#000000" font-family="sans-serif" font-size="13" lengthAdjust="spacing" textLength="137" x="737.5" y="1844.8701">32A.3. Return response</text><line style="stroke:#A80036;stroke-width:2.0;" x1="711.5" x2="729.5" y1="1840.7266" y2="1858.7266"/><line style="stroke:#A80036;stroke-width:2.0;" x1="711.5" x2="729.5" y1="1858.7266" y2="1840.7266"/><path d="M656,1871.7266 L721,1871.7266 L721,1880.0781 L711,1890.0781 L656,1890.0781 L656,1871.7266 " fill="#EEEEEE" style="stroke:#000000;stroke-width:1.5;"/><rect fill="none" height="172.4609" style="stroke:#000000;stroke-width:1.5;" width="1323.5" x="656" y="1871.7266"/><text fill="#000000" font-family="sans-serif" font-size="13" font-weight="bold" lengthAdjust="spacing" textLength="20" x="671" y="1886.2217">opt</text><text fill="#000000" font-family="sans-serif" font-size="11" font-weight="bold" lengthAdjust="spacing" textLength="224" x="736" y="1885.1455">[recipe has tags not existed in database]</text><polygon fill="#181818" points="1022.5,1924.7813,1012.5,1928.7813,1022.5,1932.7813,1018.5,1928.7813" style="stroke:#181818;stroke-width:1.0;"/><line style="stroke:#181818;stroke-width:1.0;" x1="1016.5" x2="1620.5" y1="1928.7813" y2="1928.7813"/><text fill="#000000" font-family="sans-serif" font-size="13" lengthAdjust="spacing" textLength="212" x="1028.5" y="1907.5732">33A. Publish "RequestAddTagEvent"</text><text fill="#000000" font-family="sans-serif" font-size="13" lengthAdjust="spacing" textLength="108" x="1032.5" y="1923.9248">message &#171;Async&#187;</text><polygon fill="#181818" points="736.5,1971.4844,726.5,1975.4844,736.5,1979.4844,732.5,1975.4844" style="stroke:#181818;stroke-width:1.0;"/><line style="stroke:#181818;stroke-width:1.0;" x1="730.5" x2="1005.5" y1="1975.4844" y2="1975.4844"/><text fill="#000000" font-family="sans-serif" font-size="13" lengthAdjust="spacing" textLength="218" x="742.5" y="1954.2764">33A.1. Deliver "RequestAddTagEvent"</text><text fill="#000000" font-family="sans-serif" font-size="13" lengthAdjust="spacing" textLength="53" x="746.5" y="1970.6279">message</text><polygon fill="#181818" points="1918.5,2001.8359,1928.5,2005.8359,1918.5,2009.8359,1922.5,2005.8359" style="stroke:#181818;stroke-width:1.0;"/><line style="stroke:#181818;stroke-width:1.0;" x1="725.5" x2="1924.5" y1="2005.8359" y2="2005.8359"/><text fill="#000000" font-family="sans-serif" font-size="13" lengthAdjust="spacing" textLength="244" x="732.5" y="2000.9795">33A.2. Consume message and insert data</text><polygon fill="#181818" points="731.5,2032.1875,721.5,2036.1875,731.5,2040.1875,727.5,2036.1875" style="stroke:#181818;stroke-width:1.0;"/><line style="stroke:#181818;stroke-width:1.0;stroke-dasharray:2.0,2.0;" x1="725.5" x2="1934.5" y1="2036.1875" y2="2036.1875"/><text fill="#000000" font-family="sans-serif" font-size="13" lengthAdjust="spacing" textLength="137" x="737.5" y="2031.3311">33A.3. Return response</text><line style="stroke:#A80036;stroke-width:2.0;" x1="711.5" x2="729.5" y1="2027.1875" y2="2045.1875"/><line style="stroke:#A80036;stroke-width:2.0;" x1="711.5" x2="729.5" y1="2045.1875" y2="2027.1875"/><!--SRC=[nLTDRziu4BthLmnywQ68DvQQZmQ60TVf1ZaKoAPDzx8NMc9i8hBeKcIongB_VMSeMQ8aobO_qEOIaEAy6SwyDnnheLCEeuNYJ7DGF1PRFWfUmKUzm_sSnrh8B9Zcj9m5W3jV3CzYVYtOIh4D_8TxW7QFND5skGPun-Ad6oLDbYnaAXMyh8NczjlNu6im_QC435YiyUj3pbMmfDDCxU23N8gKFzn2i6LA2mo9PHf6qsaiLI8oXXQpsJ_PV2jkCEWNjXi1ow5UjiqG_5d4d6pWtjxmOx5ZxHexXpt2FLikXTvyAGpBnI5t3zjKikHFl8xhihDx26AHIaCngEAQzVBuDV-MweahvvR5nY736wus8XFpkrjhLY-3X6csP3d7ycGhUVqk2AXgS3AhwlNwzHLCne3tIa6lESGkgU1HgWsmB07qegM9rr2IRccqHeu5LTaHiYucWOPZQ10q291m89_HVNtm2g8nVEPAFEw0nJ7FStJpn16uFaFGZNeJ-XiCMQeNfXA4HtRdEWWQXyYgKpAoF1l3wlvk0J6Z6qimzb0PvAiSn8QjU0xJAPsQpO8E227N1IN8yt7fgZ0crBYkU1TWUdBY89oSNC756A-eZSemZdmhinpJnLAzXsq0mYCJgLLbyyA4sl5r1PVp2jkuGH8ASAMaibXElWce0Mr19eDWAZuGY5jdH0ZTcfMt91jBIJg_DxQdaHZN8j-c652VGvuYixqfoar1fg5feXgyTMhWSW6CIdD8HQvhKdHXhQIingoYJiTmY_TJ6aY2FM6K1kHyCkaoW8o81FDaJq-wPINfYWRUO5e5d8H40ucKNsAJBqbUMMD35yyarMPVxGSlksY1Yw7VcIKcQ0sZQvvopJ-OL8jjoc_9pVjddkaHTP0DbeGIEftEyrqMbtcaluGV2Q7-l6_WLN3bXbVmHO18F8nBKElf3x2EpnjLsstrfVikx8yCw1mK7H9zWVKs6rubY3gkxKyObCDgghuDlrs_8Is6NBtnawouQwwLt1suZfED_aE7smZ5S5R5m6fUjxh8mKv28ESzhQIddP39HTrFl8x75i2sb1x1bKtbk2niPIyTLNncgK0ONbWC4OJBQdSCGE2t3fjzmDzBvCQqCQIUnAhmr9PJcKOvsvdQayklxPvAM_Z9jnJQMeJUEfSHOMv8Mued0ZzeC0H1JuVSR4mcDBuSE03H_D4iSf6LRZ728-9Th7dyL9ZCbuQQjicAwNnO-jlUwz7EZbYevmLvmhMz1Na3Hexy29Ii6iAcwympUUnjvLRlyxV6kPA0aNRmWlDrTSQR8qS7uVdS4SAyW1Yk0-_Zq4gINozLqw489evcF35u97DCDWEUpMD30WKM-lbZjgJgUdRmmxLc2CAB-ZlySI4EUeavXeV46AOGUysBagME63wnLTxLWX_9cTt3ozRmlk8QD64r9hEZYSSM-fVX-A8s4dmmkT5fbLdhaER1Vf5r-cGqwPftWsu9pfxa_-9HZjDlLhr4WyKNXGtn9Gdc_PFyDlKTK5OKjfJbSV1xf1M5FrTQKVYTqlf1RVa8aKdzOwI8N5BS5x-UYzBz34v4JKvuy7yJ9Q9UIeZMBxLXb8X-AIM6FeQ7lXCM_g0Czl__1m00]--></g></svg>