<?xml version="1.0" encoding="us-ascii" standalone="no"?><svg xmlns="http://www.w3.org/2000/svg" xmlns:xlink="http://www.w3.org/1999/xlink" contentStyleType="text/css" height="745px" preserveAspectRatio="none" style="width:833px;height:745px;background:#FFFFFF;" version="1.1" viewBox="0 0 833 745" width="833px" zoomAndPan="magnify"><defs/><g><text fill="#000000" font-family="sans-serif" font-size="14" font-weight="bold" lengthAdjust="spacing" textLength="234" x="300.5" y="29.5332">Verify account sequence diagram</text><rect fill="#FFFFFF" height="468.3672" style="stroke:#181818;stroke-width:1.0;" width="10" x="210.5" y="169.9219"/><rect fill="#FFFFFF" height="391.3125" style="stroke:#181818;stroke-width:1.0;" width="10" x="385.5" y="200.2734"/><rect fill="#FFFFFF" height="60.4453" style="stroke:#181818;stroke-width:1.0;" width="10" x="599.5" y="200.2734"/><rect fill="#FFFFFF" height="270.1641" style="stroke:#181818;stroke-width:1.0;" width="10" x="599.5" y="291.0703"/><rect fill="#FFFFFF" height="30.3516" style="stroke:#181818;stroke-width:1.0;" width="10" x="774.5" y="321.4219"/><rect fill="#FFFFFF" height="30.3516" style="stroke:#181818;stroke-width:1.0;" width="10" x="774.5" y="500.5313"/><rect fill="none" height="279.5156" style="stroke:#000000;stroke-width:1.5;" width="816" x="10" y="366.7734"/><line style="stroke:#181818;stroke-width:0.5;stroke-dasharray:5.0,5.0;" x1="37" x2="37" y1="121.2188" y2="663.2891"/><line style="stroke:#181818;stroke-width:0.5;stroke-dasharray:5.0,5.0;" x1="215" x2="215" y1="121.2188" y2="663.2891"/><line style="stroke:#181818;stroke-width:0.5;stroke-dasharray:5.0,5.0;" x1="390.5" x2="390.5" y1="121.2188" y2="663.2891"/><line style="stroke:#181818;stroke-width:0.5;stroke-dasharray:5.0,5.0;" x1="604.5" x2="604.5" y1="121.2188" y2="663.2891"/><line style="stroke:#181818;stroke-width:0.5;stroke-dasharray:5.0,5.0;" x1="779" x2="779" y1="121.2188" y2="663.2891"/><text fill="#000000" font-family="sans-serif" font-size="14" lengthAdjust="spacing" textLength="29" x="20" y="118.1426">User</text><ellipse cx="37.5" cy="52.1094" fill="#E2E2F0" rx="8" ry="8" style="stroke:#181818;stroke-width:0.5;"/><path d="M37.5,60.1094 L37.5,87.1094 M24.5,68.1094 L50.5,68.1094 M37.5,87.1094 L24.5,102.1094 M37.5,87.1094 L50.5,102.1094 " fill="none" style="stroke:#181818;stroke-width:0.5;"/><text fill="#000000" font-family="sans-serif" font-size="14" lengthAdjust="spacing" textLength="29" x="20" y="676.8223">User</text><ellipse cx="37.5" cy="688.3984" fill="#E2E2F0" rx="8" ry="8" style="stroke:#181818;stroke-width:0.5;"/><path d="M37.5,696.3984 L37.5,723.3984 M24.5,704.3984 L50.5,704.3984 M37.5,723.3984 L24.5,738.3984 M37.5,723.3984 L50.5,738.3984 " fill="none" style="stroke:#181818;stroke-width:0.5;"/><text fill="#000000" font-family="sans-serif" font-size="14" lengthAdjust="spacing" textLength="53" x="186" y="118.1426">MobileUI</text><path d="M195,75.6094 L195,99.6094 M195,87.6094 L212,87.6094 " fill="none" style="stroke:#181818;stroke-width:0.5;"/><ellipse cx="224" cy="87.6094" fill="#E2E2F0" rx="12" ry="12" style="stroke:#181818;stroke-width:0.5;"/><text fill="#000000" font-family="sans-serif" font-size="14" lengthAdjust="spacing" textLength="53" x="186" y="676.8223">MobileUI</text><path d="M195,683.8984 L195,707.8984 M195,695.8984 L212,695.8984 " fill="none" style="stroke:#181818;stroke-width:0.5;"/><ellipse cx="224" cy="695.8984" fill="#E2E2F0" rx="12" ry="12" style="stroke:#181818;stroke-width:0.5;"/><rect fill="#E2E2F0" height="49.2188" rx="2.5" ry="2.5" style="stroke:#181818;stroke-width:0.5;" width="102" x="339.5" y="71"/><text fill="#000000" font-family="sans-serif" font-size="14" lengthAdjust="spacing" textLength="88" x="346.5" y="92.5332">&#171;coordinator&#187;</text><text fill="#000000" font-family="sans-serif" font-size="14" lengthAdjust="spacing" textLength="79" x="351" y="110.1426">ApiGateWay</text><rect fill="#E2E2F0" height="49.2188" rx="2.5" ry="2.5" style="stroke:#181818;stroke-width:0.5;" width="102" x="339.5" y="662.2891"/><text fill="#000000" font-family="sans-serif" font-size="14" lengthAdjust="spacing" textLength="88" x="346.5" y="683.8223">&#171;coordinator&#187;</text><text fill="#000000" font-family="sans-serif" font-size="14" lengthAdjust="spacing" textLength="79" x="351" y="701.4316">ApiGateWay</text><rect fill="#E2E2F0" height="49.2188" rx="2.5" ry="2.5" style="stroke:#181818;stroke-width:0.5;" width="106" x="551.5" y="71"/><text fill="#000000" font-family="sans-serif" font-size="14" lengthAdjust="spacing" textLength="61" x="574" y="92.5332">&#171;service&#187;</text><text fill="#000000" font-family="sans-serif" font-size="14" lengthAdjust="spacing" textLength="92" x="558.5" y="110.1426">IdentityService</text><rect fill="#E2E2F0" height="49.2188" rx="2.5" ry="2.5" style="stroke:#181818;stroke-width:0.5;" width="106" x="551.5" y="662.2891"/><text fill="#000000" font-family="sans-serif" font-size="14" lengthAdjust="spacing" textLength="61" x="574" y="683.8223">&#171;service&#187;</text><text fill="#000000" font-family="sans-serif" font-size="14" lengthAdjust="spacing" textLength="92" x="558.5" y="701.4316">IdentityService</text><text fill="#000000" font-family="sans-serif" font-size="14" lengthAdjust="spacing" textLength="67" x="743" y="118.1426">Postgresql</text><path d="M761.5,67.6094 C761.5,57.6094 779.5,57.6094 779.5,57.6094 C779.5,57.6094 797.5,57.6094 797.5,67.6094 L797.5,93.6094 C797.5,103.6094 779.5,103.6094 779.5,103.6094 C779.5,103.6094 761.5,103.6094 761.5,93.6094 L761.5,67.6094 " fill="#E2E2F0" style="stroke:#181818;stroke-width:1.5;"/><path d="M761.5,67.6094 C761.5,77.6094 779.5,77.6094 779.5,77.6094 C779.5,77.6094 797.5,77.6094 797.5,67.6094 " fill="none" style="stroke:#181818;stroke-width:1.5;"/><text fill="#000000" font-family="sans-serif" font-size="14" lengthAdjust="spacing" textLength="67" x="743" y="676.8223">Postgresql</text><path d="M761.5,689.8984 C761.5,679.8984 779.5,679.8984 779.5,679.8984 C779.5,679.8984 797.5,679.8984 797.5,689.8984 L797.5,715.8984 C797.5,725.8984 779.5,725.8984 779.5,725.8984 C779.5,725.8984 761.5,725.8984 761.5,715.8984 L761.5,689.8984 " fill="#E2E2F0" style="stroke:#181818;stroke-width:1.5;"/><path d="M761.5,689.8984 C761.5,699.8984 779.5,699.8984 779.5,699.8984 C779.5,699.8984 797.5,699.8984 797.5,689.8984 " fill="none" style="stroke:#181818;stroke-width:1.5;"/><rect fill="#FFFFFF" height="468.3672" style="stroke:#181818;stroke-width:1.0;" width="10" x="210.5" y="169.9219"/><rect fill="#FFFFFF" height="391.3125" style="stroke:#181818;stroke-width:1.0;" width="10" x="385.5" y="200.2734"/><rect fill="#FFFFFF" height="60.4453" style="stroke:#181818;stroke-width:1.0;" width="10" x="599.5" y="200.2734"/><rect fill="#FFFFFF" height="270.1641" style="stroke:#181818;stroke-width:1.0;" width="10" x="599.5" y="291.0703"/><rect fill="#FFFFFF" height="30.3516" style="stroke:#181818;stroke-width:1.0;" width="10" x="774.5" y="321.4219"/><rect fill="#FFFFFF" height="30.3516" style="stroke:#181818;stroke-width:1.0;" width="10" x="774.5" y="500.5313"/><polygon fill="#181818" points="198.5,165.9219,208.5,169.9219,198.5,173.9219,202.5,169.9219" style="stroke:#181818;stroke-width:1.0;"/><line style="stroke:#181818;stroke-width:1.0;" x1="37.5" x2="204.5" y1="169.9219" y2="169.9219"/><text fill="#000000" font-family="sans-serif" font-size="13" lengthAdjust="spacing" textLength="105" x="44.5" y="148.7139">1. Touch the verify</text><text fill="#000000" font-family="sans-serif" font-size="13" lengthAdjust="spacing" textLength="86" x="48.5" y="165.0654">account button</text><polygon fill="#181818" points="373.5,196.2734,383.5,200.2734,373.5,204.2734,377.5,200.2734" style="stroke:#181818;stroke-width:1.0;"/><line style="stroke:#181818;stroke-width:1.0;" x1="220.5" x2="379.5" y1="200.2734" y2="200.2734"/><text fill="#000000" font-family="sans-serif" font-size="13" lengthAdjust="spacing" textLength="146" x="227.5" y="195.417">2. Request verify account</text><rect fill="#FFFFFF" height="41.4453" style="stroke:#000000;stroke-width:1.5;" width="324" x="336.5" y="208.2734"/><path d="M336.5,208.2734 L398.5,208.2734 L398.5,216.2734 L388.5,226.2734 L336.5,226.2734 L336.5,208.2734 " fill="#EEEEEE" style="stroke:#000000;stroke-width:2.0;"/><text fill="#000000" font-family="sans-serif" font-size="13" font-weight="bold" lengthAdjust="spacing" textLength="17" x="349.5" y="223.7686">ref</text><text fill="#000000" font-family="sans-serif" font-size="12" lengthAdjust="spacing" textLength="122" x="437.5" y="242.7305">3. Verify Access Token</text><polygon fill="#181818" points="587.5,287.0703,597.5,291.0703,587.5,295.0703,591.5,291.0703" style="stroke:#181818;stroke-width:1.0;"/><line style="stroke:#181818;stroke-width:1.0;" x1="395.5" x2="593.5" y1="291.0703" y2="291.0703"/><text fill="#000000" font-family="sans-serif" font-size="13" lengthAdjust="spacing" textLength="108" x="402.5" y="286.2139">4. Forward request</text><polygon fill="#181818" points="762.5,317.4219,772.5,321.4219,762.5,325.4219,766.5,321.4219" style="stroke:#181818;stroke-width:1.0;"/><line style="stroke:#181818;stroke-width:1.0;" x1="609.5" x2="768.5" y1="321.4219" y2="321.4219"/><text fill="#000000" font-family="sans-serif" font-size="13" lengthAdjust="spacing" textLength="94" x="616.5" y="316.5654">5. Get user data</text><polygon fill="#181818" points="620.5,347.7734,610.5,351.7734,620.5,355.7734,616.5,351.7734" style="stroke:#181818;stroke-width:1.0;"/><line style="stroke:#181818;stroke-width:1.0;stroke-dasharray:2.0,2.0;" x1="614.5" x2="778.5" y1="351.7734" y2="351.7734"/><text fill="#000000" font-family="sans-serif" font-size="13" lengthAdjust="spacing" textLength="105" x="626.5" y="346.917">6. return response</text><path d="M10,366.7734 L71,366.7734 L71,375.125 L61,385.125 L10,385.125 L10,366.7734 " fill="#EEEEEE" style="stroke:#000000;stroke-width:1.5;"/><rect fill="none" height="279.5156" style="stroke:#000000;stroke-width:1.5;" width="816" x="10" y="366.7734"/><text fill="#000000" font-family="sans-serif" font-size="13" font-weight="bold" lengthAdjust="spacing" textLength="16" x="25" y="381.2686">alt</text><text fill="#000000" font-family="sans-serif" font-size="11" font-weight="bold" lengthAdjust="spacing" textLength="130" x="86" y="380.1924">[if user's OTP is invalid]</text><polygon fill="#181818" points="406.5,403.4766,396.5,407.4766,406.5,411.4766,402.5,407.4766" style="stroke:#181818;stroke-width:1.0;"/><line style="stroke:#181818;stroke-width:1.0;stroke-dasharray:2.0,2.0;" x1="400.5" x2="598.5" y1="407.4766" y2="407.4766"/><text fill="#000000" font-family="sans-serif" font-size="13" lengthAdjust="spacing" textLength="161" x="412.5" y="402.6201">7A.1. return resend OTP fail</text><polygon fill="#181818" points="231.5,433.8281,221.5,437.8281,231.5,441.8281,227.5,437.8281" style="stroke:#181818;stroke-width:1.0;"/><line style="stroke:#181818;stroke-width:1.0;stroke-dasharray:2.0,2.0;" x1="225.5" x2="384.5" y1="437.8281" y2="437.8281"/><text fill="#000000" font-family="sans-serif" font-size="13" lengthAdjust="spacing" textLength="133" x="237.5" y="432.9717">7A.2. forward response</text><polygon fill="#181818" points="48.5,464.1797,38.5,468.1797,48.5,472.1797,44.5,468.1797" style="stroke:#181818;stroke-width:1.0;"/><line style="stroke:#181818;stroke-width:1.0;stroke-dasharray:2.0,2.0;" x1="42.5" x2="209.5" y1="468.1797" y2="468.1797"/><text fill="#000000" font-family="sans-serif" font-size="13" lengthAdjust="spacing" textLength="106" x="54.5" y="463.3232">7A.3. display error</text><line style="stroke:#000000;stroke-width:1.0;stroke-dasharray:2.0,2.0;" x1="10" x2="826" y1="477.1797" y2="477.1797"/><polygon fill="#181818" points="762.5,496.5313,772.5,500.5313,762.5,504.5313,766.5,500.5313" style="stroke:#181818;stroke-width:1.0;"/><line style="stroke:#181818;stroke-width:1.0;" x1="609.5" x2="768.5" y1="500.5313" y2="500.5313"/><text fill="#000000" font-family="sans-serif" font-size="13" lengthAdjust="spacing" textLength="146" x="616.5" y="495.6748">8. update Account status</text><polygon fill="#181818" points="620.5,526.8828,610.5,530.8828,620.5,534.8828,616.5,530.8828" style="stroke:#181818;stroke-width:1.0;"/><line style="stroke:#181818;stroke-width:1.0;stroke-dasharray:2.0,2.0;" x1="614.5" x2="778.5" y1="530.8828" y2="530.8828"/><text fill="#000000" font-family="sans-serif" font-size="13" lengthAdjust="spacing" textLength="105" x="626.5" y="526.0264">9. return response</text><polygon fill="#181818" points="406.5,557.2344,396.5,561.2344,406.5,565.2344,402.5,561.2344" style="stroke:#181818;stroke-width:1.0;"/><line style="stroke:#181818;stroke-width:1.0;stroke-dasharray:2.0,2.0;" x1="400.5" x2="603.5" y1="561.2344" y2="561.2344"/><text fill="#000000" font-family="sans-serif" font-size="13" lengthAdjust="spacing" textLength="180" x="412.5" y="556.3779">10. return success status code</text><polygon fill="#181818" points="231.5,587.5859,221.5,591.5859,231.5,595.5859,227.5,591.5859" style="stroke:#181818;stroke-width:1.0;"/><line style="stroke:#181818;stroke-width:1.0;stroke-dasharray:2.0,2.0;" x1="225.5" x2="389.5" y1="591.5859" y2="591.5859"/><text fill="#000000" font-family="sans-serif" font-size="13" lengthAdjust="spacing" textLength="125" x="237.5" y="586.7295">11. Forward response</text><polygon fill="#181818" points="48.5,634.2891,38.5,638.2891,48.5,642.2891,44.5,638.2891" style="stroke:#181818;stroke-width:1.0;"/><line style="stroke:#181818;stroke-width:1.0;stroke-dasharray:2.0,2.0;" x1="42.5" x2="214.5" y1="638.2891" y2="638.2891"/><text fill="#000000" font-family="sans-serif" font-size="13" lengthAdjust="spacing" textLength="94" x="54.5" y="617.0811">12. Display alert</text><text fill="#000000" font-family="sans-serif" font-size="13" lengthAdjust="spacing" textLength="145" x="58.5" y="633.4326">resend OTP successfully</text><!--SRC=[XPFDRjim48JlV8g5BpsaKkl-rn0Ck0rgv50qQ9FsKFT0awkO24ig96L32FBkNLAoh5XfSX98xZSSpgw22XfXyXETAXlWGjZQ1F1uKwCH25BnAyV_JXWhV6WqpXdqXwVj6TpI7e334brYsZN09owkbuxqv6UhhOFTHWLCPtViZXKlEa76HQ3JIu-EhMCrTmryjMkbyVACLTm59LJ5oTMaA8IrJYh3YPZFLsPHgIKF-8it4-0UkkMEDySSYM-LmCYSIJH1XUP7kvN0epqcUU1hxX7EhGzN3lsDPYmwX6pUUuEJanbCSxYmjTX0s21iKuehq-UuhaEmXlK4qGUFYN-Lm_UOfmyTlMTJBcfBfIDt53LOgXveFJykci7h7BgkBeH0xyddDHesk3_xlL6Ii3zaQvG0_lVwUn8ZChtgJGvVhDjn9sakqklOSHcHXt0Jz3Q79GQeOyon0IEaoB8XasKpU9VJ1Q5sXZw-iiQJFQu3g3BfFFFmxU8Sb0TbjbmhcSPlu3zAZf9xlyYdGrqqCicKNEaaqFSpuWUrH593o_xfdQN8fEc9zNiuLLEJfFAL9Yled7KCTLV_T5uVSgWh6JkqsF-sWOVQFuW_aDt7SNPFfvF8wSiUzNKxNEtL8Ap4no9gyUbmF1xBg2sdI4-xaBX65rRtkj8vA6kj6qQRx1y0]--></g></svg>